#N canvas 230 475 1437 575 10;
#X obj 1230 56 unpack f f;
#X obj 359 98 mgPak2;
#X obj 359 53 mgScaleUnitMinMidMax 0 0.2 1;
#X obj 407 120 mgScaleUnitMinMidMax 0 0.8 2;
#X obj 407 162 mgPak2;
#X obj 415 140 mgScaleUnitToMirror 0;
#X obj 365 75 mgScaleUnitMinMidMax 0 0.8 1.2;
#X text 669 366 need to add button filtering for button 9 and 10 to
double joystick functionality \; provide mode output as a number;
#X obj 359 30 unpack f f;
#X obj 406 98 unpack f f;
#X obj 408 385 outlet~;
#X obj 1235 103 gate 1;
#X obj 1255 79 == 11;
#X obj 1175 202 sel 1 2 3 4 0;
#X msg 1273 226 0;
#X msg 1140 227 1;
#X msg 1189 230 1;
#X obj 584 101 mgPak2;
#X obj 628 123 mgScaleUnitMinMidMax 0 0.8 2;
#X obj 628 186 mgPak2;
#X obj 636 143 mgScaleUnitToMirror 0;
#X obj 590 78 mgScaleUnitMinMidMax 0 0.8 1.2;
#X obj 584 33 unpack f f;
#X obj 628 101 unpack f f;
#X obj 584 56 mgScaleUnitMinMidMax -40 0 40;
#X obj 639 163 mgScaleMinMax 0 0.5;
#X obj 584 256 mgSynthBuffer8;
#X obj 270 156 loadbang;
#X msg 270 177 bang;
#X obj 1180 322 mgProcFreeverb 1 0.75 0.94;
#X msg 1230 227 1;
#X obj 798 321 mgProcDelayFeedback 650 0.4;
#X obj 986 322 mgProcDelayFeedback 240 0.7;
#X text 1245 128 get dPad values from 1 and 2;
#X obj 359 262 mgSynthNoiseFilter;
#X obj 841 251 mgSynthSaw ____;
#X obj 841 102 mgPak2;
#X obj 886 187 mgPak2;
#X obj 897 144 mgScaleUnitToMirror 0;
#X obj 839 16 unpack f f;
#X obj 885 102 unpack f f;
#X obj 841 37 mgScaleUnitToMirror 0;
#X obj 841 57 mgScaleMinMax 0 0.5;
#X obj 897 164 mgScaleMinMax 0 1;
#X obj 43 223 unpack f f f;
#X obj 275 382 outlet displayData;
#X msg 47 41 1;
#X obj 394 -69 inlet controllerId;
#X obj 127 89 unpack f f f f f f;
#X obj 127 112 pack f f f f f f;
#X obj 242 89 t b f;
#X text 177 51 add scene to parameters;
#X text 43 248 preset selection;
#X obj 1066 56 unpack f f;
#X obj 1071 103 gate 1;
#X obj 1091 79 == 11;
#X obj 46 64 mgRangeCircular 1 4;
#X obj 46 87 sel 1 2 3 4;
#X obj 1071 127 sel 1 2 3 4 0;
#X msg 1002 221 0;
#X msg 937 221 -1;
#X msg 968 221 1;
#X obj 394 -40 mgHwDualAnalogPoly3ChillStream ________________________________________
;
#X msg 45 201 1 2 1;
#X msg 53 176 1 3 2;
#X msg 70 156 1 4 3;
#X msg 85 134 1 6 4;
#X obj 886 124 mgScaleUnitMinMidMax 0 0.8 1;
#X obj 852 79 mgScaleUnitMinMidMax 0 0.75 1;
#X connect 0 0 11 1;
#X connect 0 1 12 0;
#X connect 1 0 34 0;
#X connect 2 0 1 0;
#X connect 3 0 4 0;
#X connect 4 0 34 1;
#X connect 5 0 4 1;
#X connect 6 0 1 1;
#X connect 8 0 2 0;
#X connect 8 1 6 0;
#X connect 9 0 3 0;
#X connect 9 1 5 0;
#X connect 11 0 13 0;
#X connect 12 0 11 0;
#X connect 13 0 15 0;
#X connect 13 1 30 0;
#X connect 13 2 16 0;
#X connect 13 4 14 0;
#X connect 14 0 29 1;
#X connect 14 0 31 1;
#X connect 14 0 32 1;
#X connect 15 0 31 1;
#X connect 16 0 32 1;
#X connect 17 0 26 0;
#X connect 18 0 19 0;
#X connect 19 0 26 1;
#X connect 20 0 25 0;
#X connect 21 0 17 1;
#X connect 22 0 24 0;
#X connect 22 1 21 0;
#X connect 23 0 18 0;
#X connect 23 1 20 0;
#X connect 24 0 17 0;
#X connect 25 0 19 1;
#X connect 26 0 10 0;
#X connect 26 0 29 0;
#X connect 26 0 31 0;
#X connect 26 0 32 0;
#X connect 27 0 28 0;
#X connect 27 0 63 0;
#X connect 28 0 26 4;
#X connect 28 0 34 4;
#X connect 28 0 35 5;
#X connect 29 0 10 0;
#X connect 30 0 29 1;
#X connect 31 0 10 0;
#X connect 32 0 10 0;
#X connect 34 0 10 0;
#X connect 34 0 29 0;
#X connect 34 0 31 0;
#X connect 34 0 32 0;
#X connect 35 0 10 0;
#X connect 35 0 29 0;
#X connect 36 0 35 0;
#X connect 37 0 35 1;
#X connect 38 0 43 0;
#X connect 39 0 41 0;
#X connect 39 1 68 0;
#X connect 40 0 67 0;
#X connect 40 1 38 0;
#X connect 41 0 42 0;
#X connect 42 0 36 0;
#X connect 43 0 37 1;
#X connect 44 0 34 3;
#X connect 44 1 26 3;
#X connect 44 2 35 4;
#X connect 46 0 56 0;
#X connect 47 0 62 0;
#X connect 48 0 49 0;
#X connect 48 1 49 1;
#X connect 48 2 49 2;
#X connect 48 3 49 3;
#X connect 48 4 49 4;
#X connect 49 0 45 0;
#X connect 50 0 49 0;
#X connect 50 1 49 5;
#X connect 53 0 54 1;
#X connect 53 1 55 0;
#X connect 54 0 58 0;
#X connect 55 0 54 0;
#X connect 56 0 50 0;
#X connect 56 0 57 0;
#X connect 57 0 63 0;
#X connect 57 1 64 0;
#X connect 57 2 65 0;
#X connect 57 3 66 0;
#X connect 58 0 60 0;
#X connect 58 1 30 0;
#X connect 58 2 61 0;
#X connect 58 3 59 0;
#X connect 58 4 14 0;
#X connect 59 0 35 3;
#X connect 60 0 35 3;
#X connect 61 0 35 3;
#X connect 62 0 48 0;
#X connect 62 1 46 0;
#X connect 62 2 8 0;
#X connect 62 3 9 0;
#X connect 62 4 0 0;
#X connect 62 4 34 2;
#X connect 62 5 22 0;
#X connect 62 6 23 0;
#X connect 62 7 0 0;
#X connect 62 7 26 2;
#X connect 62 8 39 0;
#X connect 62 9 40 0;
#X connect 62 10 35 2;
#X connect 62 10 53 0;
#X connect 63 0 44 0;
#X connect 64 0 44 0;
#X connect 65 0 44 0;
#X connect 66 0 44 0;
#X connect 67 0 37 0;
#X connect 68 0 36 1;
