#N canvas 33 264 908 582 10;
#X obj 185 -85 inlet;
#X text 428 -95 controller id;
#X obj 681 34 unpack f f;
#X obj 209 85 mgPak2;
#X obj 209 40 mgScaleUnitMinMidMax 0 0.2 1;
#X obj 257 107 mgScaleUnitMinMidMax 0 0.8 2;
#X obj 257 149 mgPak2;
#X obj 265 127 mgScaleUnitToMirror 0;
#X obj 215 62 mgScaleUnitMinMidMax 0 0.8 1.2;
#X text 481 323 need to add button filtering for button 9 and 10 to
double joystick functionality \; provide mode output as a number;
#X obj 209 17 unpack f f;
#X obj 256 85 unpack f f;
#X obj 220 342 outlet~;
#X obj 134 253 outlet;
#X obj 686 81 gate 1;
#X obj 706 57 == 11;
#X text 614 -35 get dPad values;
#X obj 627 221 sel 1 2 3 4 0;
#X msg 762 248 0;
#X msg 617 245 1;
#X msg 646 245 1;
#X obj 440 93 mgPak2;
#X obj 488 115 mgScaleUnitMinMidMax 0 0.8 2;
#X obj 485 178 mgPak2;
#X obj 496 135 mgScaleUnitToMirror 0;
#X obj 446 70 mgScaleUnitMinMidMax 0 0.8 1.2;
#X obj 440 25 unpack f f;
#X obj 487 93 unpack f f;
#X obj 440 48 mgScaleUnitMinMidMax -40 0 40;
#X obj 499 155 mgScaleMinMax 0 0.5;
#X obj 224 219 mgSynthBuffer8;
#X obj 432 218 mgSynthBuffer8;
#X msg 335 189 1;
#X obj 341 161 loadbang;
#X msg 383 188 2;
#X msg 559 184 bang;
#X obj 724 286 mgProcFreeverb 1 0.75 0.94;
#X msg 682 246 1;
#X obj 186 -33 mgHwDualAnalogPoly2Sixaxis ______________________________;
#X obj 342 285 mgProcDelayFeedback 650 0.4;
#X obj 530 286 mgProcDelayFeedback 240 0.7;
#X connect 0 0 38 0;
#X connect 2 0 14 1;
#X connect 2 1 15 0;
#X connect 3 0 30 0;
#X connect 4 0 3 0;
#X connect 5 0 6 0;
#X connect 6 0 30 1;
#X connect 7 0 6 1;
#X connect 8 0 3 1;
#X connect 10 0 4 0;
#X connect 10 1 8 0;
#X connect 11 0 5 0;
#X connect 11 1 7 0;
#X connect 14 0 17 0;
#X connect 15 0 14 0;
#X connect 17 0 19 0;
#X connect 17 1 20 0;
#X connect 17 2 37 0;
#X connect 17 4 18 0;
#X connect 18 0 36 1;
#X connect 18 0 39 1;
#X connect 18 0 40 1;
#X connect 19 0 39 1;
#X connect 20 0 40 1;
#X connect 21 0 31 0;
#X connect 22 0 23 0;
#X connect 23 0 31 1;
#X connect 24 0 29 0;
#X connect 25 0 21 1;
#X connect 26 0 28 0;
#X connect 26 1 25 0;
#X connect 27 0 22 0;
#X connect 27 1 24 0;
#X connect 28 0 21 0;
#X connect 29 0 23 1;
#X connect 30 0 12 0;
#X connect 30 0 36 0;
#X connect 30 0 39 0;
#X connect 30 0 40 0;
#X connect 31 0 12 0;
#X connect 31 0 36 0;
#X connect 31 0 39 0;
#X connect 31 0 40 0;
#X connect 32 0 30 3;
#X connect 33 0 32 0;
#X connect 33 0 34 0;
#X connect 34 0 31 3;
#X connect 35 0 31 4;
#X connect 35 0 30 4;
#X connect 36 0 12 0;
#X connect 37 0 36 1;
#X connect 38 0 13 0;
#X connect 38 2 10 0;
#X connect 38 3 11 0;
#X connect 38 4 30 2;
#X connect 38 4 2 0;
#X connect 38 5 26 0;
#X connect 38 6 27 0;
#X connect 38 7 2 0;
#X connect 38 7 31 2;
#X connect 39 0 12 0;
#X connect 40 0 12 0;
