#N canvas 669 22 870 433 10;
#X obj 212 93 zl iter 1;
#X msg 77 57 10;
#X msg 111 57 13;
#X msg 155 59 50;
#X msg 170 33 49;
#X msg 244 39 10 13 50 51 52 53 54 55 10 13 0 1 2 3 4 5 10 13 55 54
53 52 51 50 10 13 101 102 103 10 13 -1 -2 -3 10 13;
#X obj 217 239 print;
#X obj 169 109 t f;
#X text 366 102 must all be numbers;
#X obj 358 278 print sub0;
#X text 286 199 can specify different meanings for lists by first character
;
#X text 425 169 2 sentinals must be given as args;
#X obj 248 342 print sprintf;
#X msg 300 85 10 13 65 55 53 51 46 48 48 10 13;
#X text 49 316 convert 6 bytes into one int;
#X obj 281 230 route 65 0;
#X obj 247 314 sprintf %c%c%c%c%c%c;
#X obj 515 297 sprintf %c;
#X floatatom 517 230 5 0 0 0 - - -;
#X obj 519 333 print;
#X obj 604 337 print;
#X msg 594 262 55 52;
#X msg 605 358;
#X floatatom 650 344 5 0 0 0 - - -;
#X msg 666 263 55 52 52;
#X obj 610 299 sprintf %c%c%c;
#X msg 729 263 51 52 55;
#X msg 635 262 10;
#X obj 213 168 mgByteStreamParserTwoChar 10 13;
#X connect 0 0 28 0;
#X connect 1 0 7 0;
#X connect 2 0 7 0;
#X connect 3 0 7 0;
#X connect 4 0 7 0;
#X connect 5 0 0 0;
#X connect 7 0 28 0;
#X connect 13 0 0 0;
#X connect 15 0 16 0;
#X connect 15 1 9 0;
#X connect 16 0 12 0;
#X connect 17 0 19 0;
#X connect 18 0 17 0;
#X connect 21 0 25 0;
#X connect 24 0 25 0;
#X connect 25 0 20 0;
#X connect 25 0 23 0;
#X connect 26 0 25 0;
#X connect 27 0 25 0;
#X connect 28 0 6 0;
#X connect 28 0 15 0;
