#N canvas 122 441 1320 480 10;
#X obj 37 187 zl group 2;
#X obj 47 14 inlet;
#X obj 23 357 outlet;
#X obj 70 358 outlet;
#X obj 47 44 route float list symbol;
#X obj 201 75 loadbang;
#X obj 288 21 inlet;
#X text 343 12 bang reloads \; symbol loads that file;
#X obj 180 145 mgTextParameters;
#X obj 290 44 route bang symbol;
#X obj 357 79 prepend symbol;
#X text 431 153 pitches here are actually just pre-fixed window sets
;
#X obj 146 373 outlet;
#X obj 78 224 route root length pulse1 pulse2 pulse3 pulse4 pulse5
pulse6 pulse7 pulse8 pulse9 pulse10 pulse11 pulse12 pulse13 pulse14
pulse15 pulse16;
#X obj 147 339 zl group 16;
#X obj 147 308 + 0;
#X obj 105 188 print mgDataPitchPatterns-loading;
#X msg 273 112 mgDataPitchPatterns16.txt;
#X connect 0 0 13 0;
#X connect 0 0 16 0;
#X connect 1 0 4 0;
#X connect 4 0 8 0;
#X connect 4 1 0 0;
#X connect 4 2 0 0;
#X connect 5 0 17 0;
#X connect 6 0 9 0;
#X connect 8 0 0 0;
#X connect 9 0 17 0;
#X connect 9 1 8 1;
#X connect 9 2 10 0;
#X connect 10 0 8 1;
#X connect 13 0 2 0;
#X connect 13 0 15 1;
#X connect 13 1 3 0;
#X connect 13 2 15 0;
#X connect 13 3 15 0;
#X connect 13 4 15 0;
#X connect 13 5 15 0;
#X connect 13 6 15 0;
#X connect 13 7 15 0;
#X connect 13 8 15 0;
#X connect 13 9 15 0;
#X connect 13 10 15 0;
#X connect 13 11 15 0;
#X connect 13 12 15 0;
#X connect 13 13 15 0;
#X connect 13 14 15 0;
#X connect 13 15 15 0;
#X connect 13 16 15 0;
#X connect 13 17 15 0;
#X connect 14 0 12 0;
#X connect 15 0 14 0;
#X connect 17 0 8 1;
