#N canvas 562 497 965 553 10;
#X msg 72 74 1;
#X msg 106 73 2;
#X floatatom 93 101 5 0 0 0 - - -;
#X obj 338 236 print rawList;
#X obj 118 255 metro 300;
#X obj 108 226 tgl 15 0 empty empty empty 17 7 0 10 -262144 -1 -1 0
1;
#X obj 173 332 bng 15 250 50 0 empty empty empty 17 7 0 10 -262144
-1 -1;
#X floatatom 230 258 5 0 0 0 - - -;
#X obj 245 352 click~;
#X obj 245 425 dac~;
#X obj 197 328 t b f;
#X obj 243 381 *~;
#X obj 213 382 sig~;
#X floatatom 172 224 5 0 0 0 - - -;
#X msg 432 59 1;
#X msg 466 58 2;
#X floatatom 453 86 5 0 0 0 - - -;
#X obj 411 344 print;
#X obj 194 290 mgSequence1x16;
#X obj 415 301 mgSequence2x16;
#X obj 92 133 mgDataPulsePatterns16 ___________________________________
;
#X obj 452 117 mgDataPulsePatterns16 ___________________________________
;
#X obj 275 194 t l;
#X obj 636 182 t l;
#X msg 274 84 mgDataPulsePatterns16.txt;
#X msg 634 69 mgDataPulsePatterns16.txt;
#X obj 87 352 print 1x16;
#X msg 261 35 arizaWork03-mgDataPulsePatterns16.txt;
#X connect 0 0 2 0;
#X connect 1 0 2 0;
#X connect 2 0 20 0;
#X connect 4 0 18 0;
#X connect 4 0 19 0;
#X connect 5 0 4 0;
#X connect 7 0 18 2;
#X connect 8 0 11 0;
#X connect 10 0 8 0;
#X connect 10 1 12 0;
#X connect 11 0 9 0;
#X connect 11 0 9 1;
#X connect 12 0 11 1;
#X connect 13 0 4 1;
#X connect 14 0 16 0;
#X connect 15 0 16 0;
#X connect 16 0 21 0;
#X connect 18 0 6 0;
#X connect 18 0 10 0;
#X connect 18 0 26 0;
#X connect 20 2 22 0;
#X connect 21 2 23 0;
#X connect 22 0 3 0;
#X connect 22 0 18 3;
#X connect 22 0 19 3;
#X connect 23 0 19 4;
#X connect 24 0 20 1;
#X connect 25 0 21 1;
#X connect 27 0 20 1;
