#N canvas 798 22 536 481 10;
#X obj 66 51 inlet;
#X obj 142 52 inlet;
#X obj 186 52 inlet;
#X obj 92 374 line~;
#X obj 92 401 outlet~;
#X obj 310 25 loadbang;
#X obj 168 313 pack 0 f;
#X obj 63 280 t b f;
#X obj 168 287 t b f;
#X obj 66 256 f;
#X obj 169 261 f;
#X text 208 258 attack and release times;
#X obj 66 226 t b;
#X obj 93 312 pack 1 f f;
#X obj 92 335 zl slice 1;
#X text 170 337 remove first element;
#X obj 66 73 t b b f;
#X obj 169 230 delay;
#X text 19 11 trig/peak amp \, attack time \, decay time \, dur;
#X obj 227 51 inlet;
#X text 52 433 attack release mono-trigger (start \, stop) envelope
;
#X text 217 354 note that dur is not total duration \; total dur is
dur + decay time;
#X obj 297 131 f \$1;
#X obj 368 130 f \$2;
#X obj 443 132 f \$3;
#X obj 297 155 sel 0;
#X msg 267 154 50;
#X msg 340 155 50;
#X obj 368 155 sel 0;
#X msg 411 155 100;
#X obj 443 156 sel 0;
#X obj 323 88 t b b b;
#X connect 0 0 16 0;
#X connect 1 0 9 1;
#X connect 2 0 10 1;
#X connect 3 0 4 0;
#X connect 5 0 31 0;
#X connect 6 0 3 0;
#X connect 7 0 13 0;
#X connect 7 1 13 2;
#X connect 8 0 6 0;
#X connect 8 1 6 1;
#X connect 9 0 7 0;
#X connect 10 0 8 0;
#X connect 12 0 9 0;
#X connect 13 0 14 0;
#X connect 14 1 3 0;
#X connect 16 0 17 0;
#X connect 16 1 12 0;
#X connect 16 2 13 1;
#X connect 17 0 10 0;
#X connect 19 0 17 1;
#X connect 22 0 25 0;
#X connect 23 0 28 0;
#X connect 24 0 30 0;
#X connect 25 0 26 0;
#X connect 25 1 9 1;
#X connect 26 0 9 1;
#X connect 27 0 10 1;
#X connect 28 0 27 0;
#X connect 28 1 10 1;
#X connect 29 0 17 1;
#X connect 30 0 29 0;
#X connect 30 1 17 1;
#X connect 31 0 22 0;
#X connect 31 1 23 0;
#X connect 31 2 24 0;
