#N canvas 771 407 396 261 10;
#X obj 19 82 abs~;
#X obj 19 43 inlet~;
#X obj 19 120 lop~;
#X obj 74 86 f \$1;
#X obj 197 45 loadbang;
#X obj 19 185 lop~;
#X obj 19 219 outlet~;
#X msg 197 84 30;
#X obj 19 153 *~ 2;
#X obj 74 43 inlet lpfCutoffFq;
#X connect 0 0 2 0;
#X connect 1 0 0 0;
#X connect 2 0 8 0;
#X connect 3 0 2 1;
#X connect 3 0 5 1;
#X connect 4 0 7 0;
#X connect 5 0 6 0;
#X connect 7 0 3 0;
#X connect 8 0 5 0;
#X connect 9 0 3 0;
