#N canvas 329 310 655 451 10;
#X obj 108 178 noise~;
#X obj 109 262 *~ 0.1;
#X obj 111 306 dac~;
#X obj 109 228 *~;
#X msg 166 137 1;
#X msg 196 139 0;
#X msg 447 16 \; pd dsp 1;
#X msg 446 44 \; pd dsp 0;
#X obj 50 178 osc~ 210;
#X floatatom 233 140 5 0 0 0 - - -;
#X floatatom 283 138 5 0 0 0 - - -;
#X msg 160 40 1;
#X msg 196 40 0;
#X obj 166 97 t b b;
#X obj 166 68 metro 1384;
#X obj 211 98 delay 500;
#X floatatom 279 100 5 0 0 0 - - -;
#X obj 195 182 mgEnvlBtAr;
#X obj 165 232 mgUiSignalDisplay;
#X connect 1 0 2 0;
#X connect 1 0 2 1;
#X connect 3 0 1 0;
#X connect 3 0 18 0;
#X connect 4 0 17 0;
#X connect 5 0 17 0;
#X connect 8 0 3 0;
#X connect 9 0 17 1;
#X connect 10 0 17 2;
#X connect 11 0 14 0;
#X connect 12 0 14 0;
#X connect 13 0 4 0;
#X connect 13 1 15 0;
#X connect 14 0 13 0;
#X connect 15 0 5 0;
#X connect 16 0 15 1;
#X connect 17 0 3 1;
