#N canvas 629 429 838 510 10;
#X obj 108 178 noise~;
#X obj 109 262 *~ 0.1;
#X obj 111 306 dac~;
#X obj 109 228 *~;
#X msg 166 137 1;
#X msg 447 16 \; pd dsp 1;
#X msg 447 50 \; pd dsp 0;
#X obj 50 178 osc~ 210;
#X floatatom 233 140 5 0 0 0 - - -;
#X floatatom 270 140 5 0 0 0 - - -;
#X msg 160 40 1;
#X msg 196 40 0;
#X floatatom 309 139 5 0 0 0 - - -;
#X floatatom 244 69 5 0 0 0 - - -;
#X obj 182 255 mgUiSignalDisplay;
#X obj 165 68 metro 4084;
#X msg 186 113 0;
#X obj 195 181 mgEnvlMtAdsr 200 10 0.3 500 2000;
#X connect 1 0 2 0;
#X connect 1 0 2 1;
#X connect 3 0 1 0;
#X connect 3 0 14 0;
#X connect 4 0 17 0;
#X connect 7 0 3 0;
#X connect 8 0 17 1;
#X connect 9 0 17 2;
#X connect 10 0 15 0;
#X connect 11 0 15 0;
#X connect 12 0 17 3;
#X connect 13 0 15 1;
#X connect 15 0 4 0;
#X connect 16 0 17 0;
#X connect 17 0 3 1;
