#N canvas 268 22 655 451 10;
#X obj 108 178 noise~;
#X obj 109 262 *~ 0.1;
#X obj 111 306 dac~;
#X obj 109 228 *~;
#X msg 166 137 1;
#X msg 447 16 \; pd dsp 1;
#X msg 447 50 \; pd dsp 0;
#X obj 50 178 osc~ 210;
#X floatatom 233 140 5 0 0 0 - - -;
#X floatatom 270 140 5 0 0 0 - - -;
#X msg 160 40 1;
#X msg 196 40 0;
#X obj 166 68 metro 1384;
#X floatatom 309 139 5 0 0 0 - - -;
#N canvas 0 22 450 300 (subpatch) 0;
#X array axEnvlMtAr 300 float 2;
#X coords 0 1.5 300 -1.5 200 140 1;
#X restore 394 224 graph;
#X msg 250 234 1;
#X obj 182 235 metro 100;
#X obj 180 262 tabwrite~ axEnvlMtAr;
#X floatatom 244 69 5 0 0 0 - - -;
#X obj 132 66 bng 15 250 50 0 empty empty empty 17 7 0 10 -262144 -1
-1;
#X obj 195 181 mgEnvlMtAr;
#X connect 1 0 2 0;
#X connect 1 0 2 1;
#X connect 3 0 1 0;
#X connect 3 0 17 0;
#X connect 4 0 20 0;
#X connect 7 0 3 0;
#X connect 8 0 20 1;
#X connect 9 0 20 2;
#X connect 10 0 12 0;
#X connect 11 0 12 0;
#X connect 12 0 4 0;
#X connect 12 0 19 0;
#X connect 13 0 20 3;
#X connect 15 0 16 0;
#X connect 16 0 17 0;
#X connect 18 0 12 1;
#X connect 20 0 3 1;
