#N canvas 661 241 856 486 10;
#X obj 108 178 noise~;
#X obj 109 262 *~ 0.1;
#X obj 111 306 dac~;
#X obj 109 228 *~;
#X msg 166 137 1;
#X msg 447 16 \; pd dsp 1;
#X msg 447 50 \; pd dsp 0;
#X obj 50 178 osc~ 210;
#X floatatom 233 140 5 0 0 0 - - -;
#X floatatom 270 140 5 0 0 0 - - -;
#X msg 160 40 1;
#X msg 196 40 0;
#X obj 166 68 metro 1384;
#X floatatom 307 144 5 0 0 0 - - -;
#X msg 196 138 0;
#X obj 193 113 delay 600;
#X floatatom 349 144 5 0 0 0 - - -;
#X msg 134 137 -1;
#X obj 195 181 mgEnvlBtAdsr 30 40 0.2 100;
#X obj 167 227 mgUiSignalDisplay;
#X connect 1 0 2 0;
#X connect 1 0 2 1;
#X connect 3 0 1 0;
#X connect 3 0 19 0;
#X connect 4 0 18 0;
#X connect 7 0 3 0;
#X connect 8 0 18 1;
#X connect 9 0 18 2;
#X connect 10 0 12 0;
#X connect 11 0 12 0;
#X connect 12 0 4 0;
#X connect 12 0 15 0;
#X connect 13 0 18 3;
#X connect 14 0 18 0;
#X connect 15 0 14 0;
#X connect 16 0 18 4;
#X connect 17 0 18 0;
#X connect 18 0 3 1;
