#N canvas 758 70 662 397 10;
#X obj 66 51 inlet;
#X obj 142 52 inlet;
#X obj 205 52 inlet;
#X obj 92 286 line~;
#X obj 92 313 outlet~;
#X obj 310 25 loadbang;
#X obj 168 225 pack 0 f;
#X obj 63 192 t b f;
#X obj 168 199 t b f;
#X obj 66 168 f;
#X obj 169 173 f;
#X obj 66 73 t f f;
#X obj 66 110 sel 0;
#X text 208 170 attack and release times;
#X obj 66 138 t b;
#X text 19 11 1/0 on (peak amp) off \, attack time \, decay time;
#X obj 93 224 pack 1 f f;
#X obj 92 247 zl slice 1;
#X text 242 294 attack release bi-trigger (start \, stop) envelope
;
#X obj 293 85 f \$1;
#X obj 371 88 f \$2;
#X text 382 27 default \, plus argument supplied values;
#X obj 308 60 t b b;
#X obj 371 109 sel 0;
#X msg 342 110 50;
#X obj 293 108 sel 0;
#X msg 262 107 50;
#X connect 0 0 11 0;
#X connect 1 0 9 1;
#X connect 2 0 10 1;
#X connect 3 0 4 0;
#X connect 5 0 22 0;
#X connect 6 0 3 0;
#X connect 7 0 16 0;
#X connect 7 1 16 2;
#X connect 8 0 6 0;
#X connect 8 1 6 1;
#X connect 9 0 7 0;
#X connect 10 0 8 0;
#X connect 11 0 12 0;
#X connect 11 1 16 1;
#X connect 12 0 10 0;
#X connect 12 1 14 0;
#X connect 14 0 9 0;
#X connect 16 0 17 0;
#X connect 17 1 3 0;
#X connect 19 0 25 0;
#X connect 20 0 23 0;
#X connect 22 0 19 0;
#X connect 22 1 20 0;
#X connect 23 0 24 0;
#X connect 23 1 10 1;
#X connect 24 0 10 1;
#X connect 25 0 26 0;
#X connect 25 1 9 1;
#X connect 26 0 9 1;
