#N canvas 144 364 926 669 10;
#X obj 253 328 mgUiSignalDisplay;
#X obj 275 124 mgUiSignalDisplay;
#X obj 160 72 mgSelector4~;
#X msg 93 43 1;
#X msg 92 66 2;
#X msg 93 88 3;
#X obj 282 32 mgUiSfLoop;
#X obj 164 528 noise~;
#X obj 99 587 *~;
#X obj 92 622 dac~;
#X floatatom 47 529 5 0 1 0 - - -;
#X obj 27 554 *~ 0;
#X obj 164 126 mgEnvlFollow 30;
#X obj 133 559 mgSelector4~;
#X msg 154 454 1;
#X msg 153 477 2;
#X msg 154 499 3;
#X obj 214 529 cycle~ 220;
#X connect 2 0 1 0;
#X connect 2 0 11 0;
#X connect 2 0 12 0;
#X connect 3 0 2 0;
#X connect 4 0 2 0;
#X connect 5 0 2 0;
#X connect 6 0 2 1;
#X connect 7 0 13 1;
#X connect 8 0 9 0;
#X connect 8 0 9 1;
#X connect 10 0 11 1;
#X connect 11 0 9 0;
#X connect 12 0 0 0;
#X connect 12 0 8 1;
#X connect 13 0 8 0;
#X connect 14 0 13 0;
#X connect 15 0 13 0;
#X connect 16 0 13 0;
#X connect 17 0 13 2;
