#N canvas 229 193 736 522 10;
#X obj 177 96 inlet;
#X text 155 71 trigger;
#X obj 177 127 sel 0;
#X obj 280 97 inlet;
#X obj 326 431 line~;
#X obj 368 98 inlet;
#X obj 430 98 inlet;
#X obj 484 99 inlet;
#X obj 319 345 * \$1;
#X obj 326 456 outlet~;
#X text 276 75 attack;
#X text 369 75 decay;
#X text 423 76 sustain;
#X text 481 78 release;
#X text 123 215 attack;
#X text 372 33 sustain is pcent of peak in unit;
#X obj 63 189 moses 0;
#X obj 101 311 f;
#X obj 102 335 pack 0 \$1;
#X obj 318 297 delay \$1;
#X obj 319 320 f \$3;
#X obj 436 370 pack 0 \$4;
#X obj 102 255 t f b f b;
#X text 35 15 peak value provided as a postive trigger float \; zero
will release and cancel \; negative will jump to zero;
#X obj 319 369 pack f \$2;
#X msg 63 241 0 10;
#X obj 63 211 t b b;
#X msg 283 298 stop;
#X obj 430 143 clip 0 10;
#X text 353 160 amp scalar should be between 0 and 1;
#X obj 560 100 inlet;
#X text 545 78 dur;
#X obj 610 171 f \$5;
#X obj 631 120 loadbang;
#X obj 583 265 delay;
#X text 506 371 always to zero;
#X msg 546 266 stop;
#X msg 582 290 0;
#X obj 177 158 t b b b;
#X obj 125 159 t b f;
#X connect 0 0 2 0;
#X connect 2 0 38 0;
#X connect 2 1 39 0;
#X connect 3 0 18 1;
#X connect 3 0 19 1;
#X connect 4 0 9 0;
#X connect 5 0 24 1;
#X connect 6 0 28 0;
#X connect 7 0 21 1;
#X connect 8 0 24 0;
#X connect 16 0 26 0;
#X connect 16 1 22 0;
#X connect 17 0 18 0;
#X connect 18 0 4 0;
#X connect 19 0 20 0;
#X connect 20 0 8 0;
#X connect 21 0 4 0;
#X connect 22 0 17 0;
#X connect 22 2 8 1;
#X connect 22 3 19 0;
#X connect 24 0 4 0;
#X connect 25 0 4 0;
#X connect 26 0 25 0;
#X connect 26 1 27 0;
#X connect 27 0 19 0;
#X connect 28 0 20 1;
#X connect 30 0 32 0;
#X connect 32 0 34 1;
#X connect 33 0 32 0;
#X connect 34 0 37 0;
#X connect 36 0 34 0;
#X connect 37 0 2 0;
#X connect 38 0 27 0;
#X connect 38 1 21 0;
#X connect 38 2 36 0;
#X connect 39 0 34 0;
#X connect 39 1 16 0;
