#N canvas 99 92 989 741 10;
#X obj 107 74 inlet;
#X obj 347 76 inlet;
#X text 80 34 pulse sequence \, list of events;
#X obj 400 287 zl slice 3;
#X text 467 287 remainder of slice;
#X msg 398 219 bang;
#X text 337 308 nxt time;
#X text 230 166 trig only on load;
#X obj 399 260 zl reg;
#X obj 415 367 zl reg;
#X obj 399 311 t b l;
#X obj 401 339 delay 1;
#X obj 579 188 f;
#X text 611 207 sets group bundle size;
#X obj 120 447 sel 2;
#X text 583 402 pitch \, clickOff \, clickDur;
#X obj 163 446 sel 3;
#X text 431 221 step by bundle;
#X obj 82 404 t f f f;
#X text 49 321 reset to min on next output;
#X obj 83 602 outlet;
#X obj 140 604 outlet;
#X obj 438 58 loadbang;
#X obj 80 378 counter 0 1000;
#X obj 82 448 sel 0;
#X obj 128 347 t b;
#X obj 226 417 - 1;
#X text 353 502 subtract by one to remove off-by one error \; a duration
of 1 needs to reset at 0;
#X obj 162 473 delay 1;
#X text 509 329 delay required to permit updating of zl reg after (not
before) output of sub list;
#X msg 500 112 57 2 4;
#X obj 194 418 + 0;
#X text 235 241 store modified source;
#X msg 186 526 1;
#X msg 214 527 0;
#X obj 267 416 ==;
#X obj 267 437 sel 1;
#X text 313 439 if equal \, last bang must come from dur match \, not
sustain match;
#X msg 589 112 57 0.7 2 4;
#X obj 535 58 sel 3 4;
#X obj 500 90 t b b;
#X obj 589 88 t b b;
#X msg 553 112 3;
#X msg 654 114 4;
#X obj 163 496 t b b;
#X obj 152 528 f;
#X obj 152 549 sel 1;
#X obj 499 58 f \$1;
#X obj 198 388 unpack f f;
#X obj 82 507 zl reg;
#X text 263 387 susCount \, durCount;
#X obj 198 358 zl ecils 2;
#X text 79 634 output is data list preceding susCount \, durCount;
#X obj 82 473 t b b;
#X text 335 30 events in n element groups: data-n \, data-n+1 \, susCount
\, durCount;
#X obj 83 280 gate;
#X msg 55 281 1;
#X msg 21 281 0;
#X text 677 64 THIS DOES NOT WORK YET: problem is that event gates
does not happen at the correct time always \; shortest lists do not
fire on eevent;
#X obj 493 167 /;
#X obj 240 575 counter 1 2;
#X text 482 145 no of events;
#X obj 346 167 t b b b l l l b;
#X obj 303 549 t f f;
#X obj 239 600 sel;
#X obj 443 167 zl len;
#X obj 140 577 t b b;
#X connect 0 0 55 1;
#X connect 1 0 62 0;
#X connect 3 0 10 0;
#X connect 3 1 9 1;
#X connect 5 0 8 0;
#X connect 8 0 3 0;
#X connect 9 0 8 1;
#X connect 10 0 11 0;
#X connect 10 1 51 0;
#X connect 11 0 9 0;
#X connect 12 0 3 1;
#X connect 12 0 59 1;
#X connect 14 0 66 0;
#X connect 16 0 28 0;
#X connect 18 0 24 0;
#X connect 18 1 14 0;
#X connect 18 2 16 0;
#X connect 22 0 25 0;
#X connect 22 0 47 0;
#X connect 23 0 18 0;
#X connect 24 0 53 0;
#X connect 25 0 23 2;
#X connect 26 0 16 1;
#X connect 28 0 44 0;
#X connect 30 0 62 0;
#X connect 31 0 14 1;
#X connect 33 0 45 1;
#X connect 34 0 45 1;
#X connect 35 0 36 0;
#X connect 36 0 33 0;
#X connect 36 1 34 0;
#X connect 38 0 62 0;
#X connect 39 0 40 0;
#X connect 39 1 41 0;
#X connect 39 2 40 0;
#X connect 40 0 30 0;
#X connect 40 1 42 0;
#X connect 41 0 38 0;
#X connect 41 1 43 0;
#X connect 42 0 12 0;
#X connect 43 0 12 0;
#X connect 44 0 25 0;
#X connect 44 1 5 0;
#X connect 45 0 46 0;
#X connect 46 0 66 0;
#X connect 47 0 39 0;
#X connect 48 0 35 0;
#X connect 48 0 31 0;
#X connect 48 1 35 1;
#X connect 48 1 26 0;
#X connect 49 0 20 0;
#X connect 51 0 49 1;
#X connect 51 1 48 0;
#X connect 53 0 49 0;
#X connect 53 1 45 0;
#X connect 55 0 23 0;
#X connect 56 0 55 0;
#X connect 57 0 55 0;
#X connect 59 0 63 0;
#X connect 60 0 64 0;
#X connect 62 0 56 0;
#X connect 62 1 5 0;
#X connect 62 2 25 0;
#X connect 62 4 8 1;
#X connect 62 5 65 0;
#X connect 62 6 60 2;
#X connect 63 0 60 4;
#X connect 63 1 64 1;
#X connect 64 0 57 0;
#X connect 65 0 59 0;
#X connect 66 0 21 0;
#X connect 66 1 60 0;
