#N canvas 231 22 1088 735 10;
#X obj 41 67 inlet;
#X obj 123 65 inlet;
#X text 41 34 pulse sequence \, list of events;
#X obj 361 354 zl slice 3;
#X obj 253 376 zl reg;
#X msg 215 377 bang;
#X obj 416 439 zl len;
#X obj 416 462 sel 3;
#X obj 416 415 t l l;
#X obj 488 461 zl reg;
#X msg 453 461 bang;
#X text 428 354 remainder of slice;
#X msg 359 286 bang;
#X text 298 375 nxt time;
#X obj 254 328 zl ecils 3;
#X obj 285 351 zl join;
#X text 187 254 trig only on load;
#X obj 360 327 zl reg;
#X obj 416 392 zl reg;
#X obj 362 382 t b l;
#X obj 362 406 delay 1;
#X obj 527 204 f;
#X text 555 197 sets group bundle size;
#X obj 81 514 sel 2;
#X text 544 469 pitch \, clickOff \, clickDur;
#X obj 124 513 sel 3;
#X text 392 288 step by bundle;
#X obj 43 471 t f f f;
#X text 10 388 reset to min on next output;
#X obj 44 660 outlet;
#X obj 101 662 outlet;
#X obj 399 58 loadbang;
#X obj 41 445 counter 0 1000;
#X obj 43 515 sel 0;
#X obj 308 234 t b b l l l;
#X obj 91 410 t b;
#X obj 187 484 - 1;
#X text 252 577 subtract by one to remove off-by one error \; a duration
of 1 needs to reset at 0;
#X obj 123 540 delay 1;
#X text 470 396 delay required to permit updating of zl reg after (not
before) output of sub list;
#X msg 461 112 57 2 4;
#X obj 155 485 + 0;
#X text 196 308 store modified source;
#X msg 147 603 1;
#X msg 175 604 0;
#X obj 228 483 ==;
#X obj 228 504 sel 1;
#X text 274 506 if equal \, last bang must come from dur match \, not
sustain match;
#X msg 550 112 57 0.7 2 4;
#X obj 461 90 t b b;
#X obj 550 88 t b b;
#X msg 514 112 3;
#X msg 615 114 4;
#X obj 124 563 t b b;
#X obj 113 605 f;
#X obj 113 626 sel 1;
#X obj 460 58 f \$1;
#X obj 159 455 unpack f f;
#X obj 43 574 zl reg;
#X text 224 454 susCount \, durCount;
#X obj 159 425 zl ecils 2;
#X text 42 691 output is data list preceding susCount \, durCount;
#X obj 43 540 t b b;
#X text 297 31 events in n element groups: data-n \, data-n+1 \, susCount
\, durCount;
#X obj 495 58 sel 3 4 5 6 7;
#X obj 652 87 t b b;
#X msg 736 111 5;
#X msg 652 111 1 57 0.7 2 4;
#X obj 767 86 t b b;
#X msg 862 111 6;
#X msg 767 110 1 1 57 0.7 2 4;
#X obj 891 87 t b b;
#X msg 1000 113 7;
#X msg 891 111 1 1 1 57 0.7 2 4;
#X obj 81 187 zl reg;
#X obj 123 93 t l l;
#X obj 80 114 zl len;
#X obj 81 139 %;
#X obj 81 162 sel 0;
#X text 153 120 length check;
#X obj 129 185 print axEventLoop;
#X msg 128 158 event list is wrong size;
#X connect 0 0 32 0;
#X connect 1 0 75 0;
#X connect 3 0 19 0;
#X connect 3 1 18 1;
#X connect 4 0 17 1;
#X connect 5 0 4 0;
#X connect 6 0 7 0;
#X connect 7 0 5 0;
#X connect 7 1 10 0;
#X connect 8 0 6 0;
#X connect 8 1 9 1;
#X connect 9 0 17 1;
#X connect 10 0 9 0;
#X connect 12 0 17 0;
#X connect 14 1 15 0;
#X connect 15 0 4 1;
#X connect 17 0 3 0;
#X connect 18 0 8 0;
#X connect 19 0 20 0;
#X connect 19 1 60 0;
#X connect 20 0 18 0;
#X connect 21 0 14 1;
#X connect 21 0 3 1;
#X connect 21 0 7 1;
#X connect 21 0 77 1;
#X connect 23 0 30 0;
#X connect 25 0 38 0;
#X connect 27 0 33 0;
#X connect 27 1 23 0;
#X connect 27 2 25 0;
#X connect 31 0 35 0;
#X connect 31 0 56 0;
#X connect 32 0 27 0;
#X connect 33 0 62 0;
#X connect 34 0 12 0;
#X connect 34 1 35 0;
#X connect 34 2 14 0;
#X connect 34 3 15 1;
#X connect 34 4 17 1;
#X connect 35 0 32 2;
#X connect 36 0 25 1;
#X connect 38 0 53 0;
#X connect 40 0 34 0;
#X connect 41 0 23 1;
#X connect 43 0 54 1;
#X connect 44 0 54 1;
#X connect 45 0 46 0;
#X connect 46 0 43 0;
#X connect 46 1 44 0;
#X connect 48 0 34 0;
#X connect 49 0 40 0;
#X connect 49 1 51 0;
#X connect 50 0 48 0;
#X connect 50 1 52 0;
#X connect 51 0 21 0;
#X connect 52 0 21 0;
#X connect 53 0 35 0;
#X connect 53 1 12 0;
#X connect 54 0 55 0;
#X connect 55 0 30 0;
#X connect 56 0 64 0;
#X connect 57 0 45 0;
#X connect 57 0 41 0;
#X connect 57 1 45 1;
#X connect 57 1 36 0;
#X connect 58 0 29 0;
#X connect 60 0 58 1;
#X connect 60 1 57 0;
#X connect 62 0 58 0;
#X connect 62 1 54 0;
#X connect 64 0 49 0;
#X connect 64 1 50 0;
#X connect 64 2 65 0;
#X connect 64 3 68 0;
#X connect 64 4 71 0;
#X connect 65 0 67 0;
#X connect 65 1 66 0;
#X connect 66 0 21 0;
#X connect 67 0 34 0;
#X connect 68 0 70 0;
#X connect 68 1 69 0;
#X connect 69 0 21 0;
#X connect 70 0 34 0;
#X connect 71 0 73 0;
#X connect 71 1 72 0;
#X connect 72 0 21 0;
#X connect 73 0 34 0;
#X connect 74 0 34 0;
#X connect 75 0 76 0;
#X connect 75 1 74 1;
#X connect 76 0 77 0;
#X connect 77 0 78 0;
#X connect 78 0 74 0;
#X connect 78 1 81 0;
#X connect 81 0 80 0;
