#N canvas 88 22 1127 415 10;
#X obj 123 68 bng 15 250 50 0 empty empty empty 17 7 0 10 -262144 -1
-1;
#X obj 249 193 print endSus;
#X obj 52 67 metro 1000;
#X obj 22 69 tgl 15 0 empty empty empty 17 7 0 10 -262144 -1 -1 0 1
;
#X obj 120 261 mtof;
#X obj 115 357 dac~;
#X obj 12 271 click~;
#X msg 405 48 60 1 1;
#X floatatom 101 39 5 0 0 0 - - -;
#X msg 179 115 60 2 4 68 1 2 76 2 2 57 1 1;
#X obj 120 318 *~;
#X msg 368 110 55 6 6 60 4 4;
#X obj 63 250 noise~;
#X msg 176 81 60 2 4 62 1 5 61 2 3 66 3 9 57 1 2 59 1 1;
#X msg 307 44 55 1 3 60 2 3;
#X msg 472 30 57 1 4;
#X msg 469 59 67 2 4;
#X msg 470 84 57 3 4;
#X msg 470 112 57 4 4;
#X obj 64 273 *~ 0.2;
#X obj 229 196 bng 15 250 50 0 empty empty empty 17 7 0 10 -262144
-1 -1;
#X obj 98 188 bng 15 250 50 0 empty empty empty 17 7 0 10 -262144 -1
-1;
#X obj 122 189 print startData;
#X obj 167 292 line~;
#X msg 209 265 0 10;
#X msg 167 265 1 10;
#X obj 122 238 + 12;
#X obj 119 282 osc~;
#X obj 105 215 unpack f;
#X msg 161 53 55 1 2 60 1 1 50 2 3;
#X obj 643 70 bng 15 250 50 0 empty empty empty 17 7 0 10 -262144 -1
-1;
#X obj 808 205 print endSus;
#X obj 572 69 metro 1000;
#X obj 542 71 tgl 15 0 empty empty empty 17 7 0 10 -262144 -1 -1 0
1;
#X obj 641 277 mtof;
#X obj 636 373 dac~;
#X obj 534 267 click~;
#X floatatom 621 41 5 0 0 0 - - -;
#X obj 641 334 *~;
#X obj 584 266 noise~;
#X obj 585 289 *~ 0.2;
#X obj 788 207 bng 15 250 50 0 empty empty empty 17 7 0 10 -262144
-1 -1;
#X obj 654 206 bng 15 250 50 0 empty empty empty 17 7 0 10 -262144
-1 -1;
#X obj 685 206 print startData;
#X obj 711 301 line~;
#X msg 761 270 0 10;
#X obj 643 254 + 12;
#X obj 640 298 osc~;
#X obj 626 231 unpack f f;
#X msg 1036 121 57 0.6 1 4;
#X msg 1033 150 67 1 2 4;
#X msg 1034 175 57 0.2 3 4;
#X msg 1034 203 57 0.1 4 4;
#X obj 695 173 t b l;
#X obj 706 269 zl join;
#X msg 743 245 10;
#X msg 655 57 55 0.2 1 2 60 0.7 1 1 50 0.4 2 3;
#X msg 814 30 55 0.2 1 3 60 0.95 2 3;
#X msg 668 85 60 0.1 2 4 62 0.2 1 5 61 0.9 2 3 66 0.2 3 9 57 0.9 1
2 59 0.5 1 1;
#X msg 699 117 60 0.9 2 4 68 0.1 1 2 76 0.6 2 2 57 0.9 1 1;
#X text 751 343 last end sus is not always received;
#X obj 160 147 mgEventSpit 3;
#X obj 680 149 mgEventSpit 4;
#X connect 0 0 6 0;
#X connect 0 0 61 0;
#X connect 2 0 0 0;
#X connect 3 0 2 0;
#X connect 4 0 27 0;
#X connect 6 0 5 1;
#X connect 7 0 61 1;
#X connect 8 0 2 1;
#X connect 9 0 61 1;
#X connect 10 0 5 0;
#X connect 11 0 61 1;
#X connect 12 0 19 0;
#X connect 13 0 61 1;
#X connect 14 0 61 1;
#X connect 15 0 61 1;
#X connect 16 0 61 1;
#X connect 17 0 61 1;
#X connect 18 0 61 1;
#X connect 19 0 10 0;
#X connect 23 0 10 1;
#X connect 24 0 23 0;
#X connect 25 0 23 0;
#X connect 26 0 4 0;
#X connect 27 0 10 0;
#X connect 28 0 26 0;
#X connect 29 0 61 1;
#X connect 30 0 36 0;
#X connect 30 0 62 0;
#X connect 32 0 30 0;
#X connect 33 0 32 0;
#X connect 34 0 47 0;
#X connect 36 0 35 1;
#X connect 37 0 32 1;
#X connect 38 0 35 0;
#X connect 39 0 40 0;
#X connect 40 0 38 0;
#X connect 44 0 38 1;
#X connect 45 0 44 0;
#X connect 46 0 34 0;
#X connect 47 0 38 0;
#X connect 48 0 46 0;
#X connect 48 1 54 0;
#X connect 49 0 62 1;
#X connect 50 0 62 1;
#X connect 51 0 62 1;
#X connect 52 0 62 1;
#X connect 53 0 42 0;
#X connect 53 0 55 0;
#X connect 53 1 48 0;
#X connect 54 0 44 0;
#X connect 55 0 54 1;
#X connect 56 0 62 1;
#X connect 57 0 62 1;
#X connect 58 0 62 1;
#X connect 59 0 62 1;
#X connect 61 0 25 0;
#X connect 61 0 21 0;
#X connect 61 0 22 0;
#X connect 61 0 28 0;
#X connect 61 1 1 0;
#X connect 61 1 24 0;
#X connect 61 1 20 0;
#X connect 62 0 53 0;
#X connect 62 0 43 0;
#X connect 62 1 31 0;
#X connect 62 1 45 0;
#X connect 62 1 41 0;
