#N canvas 956 661 504 301 10;
#X obj 59 49 inlet~;
#X obj 58 264 outlet~;
#X obj 70 210 biquad~;
#X obj 207 122 t b f;
#X obj 154 49 inlet;
#X obj 215 46 inlet;
#X obj 127 124 f \$1;
#X obj 231 97 f \$2;
#X obj 318 50 loadbang;
#X obj 267 47 inlet;
#X obj 295 122 t b f;
#X obj 316 97 f \$3;
#X text 175 218 frequency \, gain \, bandwidth;
#X obj 280 157 clip 1 148;
#X obj 111 152 clip 10 20000;
#X obj 154 179 lowshelf 2000 10 20;
#X connect 0 0 2 0;
#X connect 2 0 1 0;
#X connect 3 0 15 0;
#X connect 3 1 15 1;
#X connect 4 0 6 0;
#X connect 5 0 3 0;
#X connect 6 0 14 0;
#X connect 7 0 3 0;
#X connect 8 0 6 0;
#X connect 8 0 7 0;
#X connect 8 0 11 0;
#X connect 9 0 10 0;
#X connect 10 0 15 0;
#X connect 10 1 13 0;
#X connect 11 0 10 0;
#X connect 13 0 15 2;
#X connect 14 0 15 0;
#X connect 15 0 2 0;
