#N canvas 466 253 912 465 10;
#X obj 34 57 noise~;
#X obj 31 197 dac~;
#X obj 39 168 *~ 0.2;
#X obj 143 94 unpack;
#X msg 142 59 2000 40;
#X msg 197 32 4000 10;
#X obj 94 167 mgUiSignalDisplay;
#X msg 125 32 200 50;
#X floatatom 203 87 5 0 0 0 - - -;
#X floatatom 89 87 5 0 0 0 - - -;
#X obj 33 126 mgFilterLowpass 200 10;
#X connect 0 0 10 0;
#X connect 2 0 1 0;
#X connect 2 0 1 1;
#X connect 3 0 10 1;
#X connect 3 1 10 2;
#X connect 4 0 3 0;
#X connect 5 0 3 0;
#X connect 7 0 3 0;
#X connect 8 0 10 2;
#X connect 9 0 10 1;
#X connect 10 0 2 0;
#X connect 10 0 6 0;
