#N canvas 896 722 504 301 10;
#X obj 128 28 inlet~;
#X obj 127 243 outlet~;
#X obj 139 189 biquad~;
#X obj 219 180 bandpass 2000 10;
#X obj 274 120 t b f;
#X obj 233 33 inlet;
#X obj 292 31 inlet;
#X obj 221 108 f \$1;
#X obj 304 89 f \$2;
#X obj 358 47 loadbang;
#X obj 301 148 clip 0 2000;
#X obj 190 149 clip 10 20000;
#X connect 0 0 2 0;
#X connect 2 0 1 0;
#X connect 3 0 2 0;
#X connect 4 0 3 0;
#X connect 4 1 10 0;
#X connect 5 0 7 0;
#X connect 6 0 4 0;
#X connect 7 0 11 0;
#X connect 8 0 4 0;
#X connect 9 0 7 0;
#X connect 9 0 8 0;
#X connect 10 0 3 1;
#X connect 11 0 3 0;
