#N canvas 466 253 767 402 10;
#X obj 47 55 noise~;
#X obj 44 195 dac~;
#X obj 52 166 *~ 0.2;
#X obj 156 92 unpack;
#X msg 155 57 2000 40;
#X msg 138 30 200 100;
#X floatatom 255 87 5 0 0 0 - - -;
#X obj 110 161 mgUiSignalDisplay;
#X msg 206 36 10000 40;
#X obj 46 124 mgFilterHighpass 200 10;
#X floatatom 109 86 5 0 0 0 - - -;
#X connect 0 0 9 0;
#X connect 2 0 1 0;
#X connect 2 0 1 1;
#X connect 3 0 9 1;
#X connect 3 1 9 2;
#X connect 4 0 3 0;
#X connect 5 0 3 0;
#X connect 6 0 9 2;
#X connect 8 0 3 0;
#X connect 9 0 2 0;
#X connect 9 0 7 0;
#X connect 10 0 9 1;
