#N canvas 474 656 504 301 10;
#X obj 128 28 inlet~;
#X obj 127 243 outlet~;
#X obj 139 189 biquad~;
#X obj 281 110 t b f;
#X obj 233 33 inlet;
#X obj 292 31 inlet;
#X obj 243 84 f \$1;
#X obj 307 84 f \$2;
#X obj 366 38 loadbang;
#X obj 223 158 highpass 2000 10;
#X obj 308 135 clip 1 2000;
#X connect 0 0 2 0;
#X connect 2 0 1 0;
#X connect 3 0 9 0;
#X connect 3 1 10 0;
#X connect 4 0 9 0;
#X connect 5 0 3 0;
#X connect 6 0 9 0;
#X connect 7 0 3 0;
#X connect 8 0 6 0;
#X connect 8 0 7 0;
#X connect 9 0 2 0;
#X connect 10 0 9 1;
