#N canvas 530 411 663 502 10;
#X obj 175 63 noise~;
#X obj 172 203 dac~;
#X obj 180 174 *~ 0.2;
#X obj 284 100 unpack;
#X msg 283 65 2000 40;
#X msg 338 38 4000 10;
#X msg 266 38 200 100;
#X msg 352 85;
#X floatatom 383 95 5 0 0 0 - - -;
#X obj 174 132 mgFilterNotch 200 10;
#X obj 88 241 mgUiSignalDisplay;
#X floatatom 208 98 5 0 0 0 - - -;
#X connect 0 0 9 0;
#X connect 2 0 1 0;
#X connect 2 0 1 1;
#X connect 3 0 9 1;
#X connect 3 1 9 2;
#X connect 4 0 3 0;
#X connect 5 0 3 0;
#X connect 6 0 3 0;
#X connect 8 0 9 2;
#X connect 9 0 2 0;
#X connect 9 0 10 0;
#X connect 11 0 9 1;
