#N canvas 447 484 826 478 10;
#X obj 175 63 noise~;
#X obj 172 203 dac~;
#X obj 180 174 *~ 0.2;
#X floatatom 383 95 5 0 0 0 - - -;
#X obj 237 101 unpack f f f;
#X text 584 144 frequency \, gain \, bandwidth;
#X msg 282 65 2000 5 20;
#X obj 17 245 mgUiSignalDisplay;
#X text 213 15 frequency \, gain \, bandwidth;
#X msg 265 37 200 15 20;
#X msg 338 38 80 30 80;
#X msg 459 151;
#X floatatom 386 129 5 0 0 0 - - -;
#X floatatom 196 99 5 0 0 0 - - -;
#X floatatom 519 163 5 0 0 0 - - -;
#X obj 594 54 print;
#X floatatom 597 29 5 0 0 0 - - -;
#X obj 174 132 mgFilterLowShelf 200 10;
#X connect 0 0 17 0;
#X connect 2 0 1 0;
#X connect 2 0 1 1;
#X connect 3 0 17 2;
#X connect 4 0 17 1;
#X connect 4 1 17 2;
#X connect 4 2 17 3;
#X connect 6 0 4 0;
#X connect 9 0 4 0;
#X connect 10 0 4 0;
#X connect 12 0 17 3;
#X connect 13 0 17 1;
#X connect 16 0 15 0;
#X connect 17 0 2 0;
#X connect 17 0 7 0;
