#N canvas 261 260 780 424 10;
#X obj 48 114 mgFilterBandpass 200 10;
#X obj 49 45 noise~;
#X obj 46 185 dac~;
#X obj 54 156 *~ 0.2;
#X obj 158 82 unpack;
#X msg 157 47 2000 40;
#X msg 212 20 4000 10;
#X msg 140 20 200 100;
#X floatatom 257 77 5 0 0 0 - - -;
#X obj 100 151 mgUiSignalDisplay;
#X floatatom 104 65 5 0 0 0 - - -;
#X connect 0 0 3 0;
#X connect 0 0 9 0;
#X connect 1 0 0 0;
#X connect 3 0 2 0;
#X connect 3 0 2 1;
#X connect 4 0 0 1;
#X connect 4 1 0 2;
#X connect 5 0 4 0;
#X connect 6 0 4 0;
#X connect 7 0 4 0;
#X connect 8 0 0 2;
#X connect 10 0 0 1;
