#N canvas 474 656 504 301 10;
#X obj 128 28 inlet~;
#X obj 127 243 outlet~;
#X obj 139 189 biquad~;
#X obj 277 120 t b f;
#X obj 233 33 inlet;
#X obj 292 31 inlet;
#X obj 234 125 f \$1;
#X obj 298 98 f \$2;
#X obj 415 53 loadbang;
#X obj 345 39 inlet;
#X obj 365 120 t b f;
#X obj 374 98 f \$3;
#X text 237 230 frequency \, gain \, bandwidth;
#X obj 343 158 clip 1 290;
#X obj 239 179 highshelf 2000 10 20;
#X connect 0 0 2 0;
#X connect 2 0 1 0;
#X connect 3 0 14 0;
#X connect 3 1 14 1;
#X connect 4 0 14 0;
#X connect 5 0 3 0;
#X connect 6 0 14 0;
#X connect 7 0 3 0;
#X connect 8 0 6 0;
#X connect 8 0 7 0;
#X connect 8 0 11 0;
#X connect 9 0 10 0;
#X connect 10 0 14 0;
#X connect 10 1 13 0;
#X connect 11 0 10 0;
#X connect 13 0 14 2;
#X connect 14 0 2 0;
