#N canvas 466 253 826 478 10;
#X obj 175 63 noise~;
#X obj 172 203 dac~;
#X obj 180 174 *~ 0.2;
#X floatatom 340 105 5 0 0 0 - - -;
#X obj 235 97 unpack f f f;
#X text 584 144 frequency \, gain \, bandwidth;
#X msg 282 65 2000 5 20;
#X obj 17 245 mgUiSignalDisplay;
#X msg 338 38 4000 20 80;
#X msg 266 40 200 40 20;
#X text 213 15 frequency \, gain \, bandwidth;
#X msg 484 126;
#X floatatom 187 97 5 0 0 0 - - -;
#X floatatom 378 99 5 0 0 0 - - -;
#X obj 174 132 mgFilterParametric 200 10;
#X connect 0 0 14 0;
#X connect 2 0 1 0;
#X connect 2 0 1 1;
#X connect 3 0 14 2;
#X connect 4 0 14 1;
#X connect 4 1 14 2;
#X connect 4 2 14 3;
#X connect 6 0 4 0;
#X connect 8 0 4 0;
#X connect 9 0 4 0;
#X connect 12 0 14 1;
#X connect 13 0 14 3;
#X connect 14 0 2 0;
#X connect 14 0 7 0;
