#N canvas 148 22 913 625 10;
#X obj 130 438 *~;
#X obj 205 443 *~;
#X obj 145 413 line~;
#X obj 220 417 line~;
#X obj 399 14 inlet~;
#X obj 130 474 outlet~;
#X obj 145 382 pack f 20;
#X obj 223 380 pack f 20;
#X obj 205 472 outlet~;
#X obj 295 437 *~;
#X obj 370 442 *~;
#X obj 310 412 line~;
#X obj 385 416 line~;
#X obj 295 473 outlet~;
#X obj 310 381 pack f 20;
#X obj 388 379 pack f 20;
#X obj 370 471 outlet~;
#X obj 460 437 *~;
#X obj 535 442 *~;
#X obj 475 412 line~;
#X obj 550 416 line~;
#X obj 460 473 outlet~;
#X obj 475 381 pack f 20;
#X obj 553 379 pack f 20;
#X obj 535 471 outlet~;
#X obj 625 436 *~;
#X obj 700 441 *~;
#X obj 640 411 line~;
#X obj 715 415 line~;
#X obj 625 472 outlet~;
#X obj 640 380 pack f 20;
#X obj 718 378 pack f 20;
#X obj 700 470 outlet~;
#X obj 43 59 sel 0 1 2 3 4 5 6 7 8;
#X msg 44 93 0 0 0 0 0 0 0 0;
#X msg 56 118 1 0 0 0 0 0 0 0;
#X msg 66 137 0 1 0 0 0 0 0 0;
#X msg 76 158 0 0 1 0 0 0 0 0;
#X msg 84 182 0 0 0 1 0 0 0 0;
#X msg 91 204 0 0 0 0 1 0 0 0;
#X msg 98 225 0 0 0 0 0 1 0 0;
#X msg 107 246 0 0 0 0 0 0 1 0;
#X msg 113 269 0 0 0 0 0 0 0 1;
#X obj 43 24 inlet controlInteger;
#X obj 68 320 unpack f f f f f f f f;
#X connect 0 0 5 0;
#X connect 1 0 8 0;
#X connect 2 0 0 1;
#X connect 3 0 1 1;
#X connect 4 0 0 0;
#X connect 4 0 1 0;
#X connect 4 0 9 0;
#X connect 4 0 10 0;
#X connect 4 0 17 0;
#X connect 4 0 18 0;
#X connect 4 0 25 0;
#X connect 4 0 26 0;
#X connect 6 0 2 0;
#X connect 7 0 3 0;
#X connect 9 0 13 0;
#X connect 10 0 16 0;
#X connect 11 0 9 1;
#X connect 12 0 10 1;
#X connect 14 0 11 0;
#X connect 15 0 12 0;
#X connect 17 0 21 0;
#X connect 18 0 24 0;
#X connect 19 0 17 1;
#X connect 20 0 18 1;
#X connect 22 0 19 0;
#X connect 23 0 20 0;
#X connect 25 0 29 0;
#X connect 26 0 32 0;
#X connect 27 0 25 1;
#X connect 28 0 26 1;
#X connect 30 0 27 0;
#X connect 31 0 28 0;
#X connect 33 0 34 0;
#X connect 33 1 35 0;
#X connect 33 2 36 0;
#X connect 33 3 37 0;
#X connect 33 4 38 0;
#X connect 33 5 39 0;
#X connect 33 6 40 0;
#X connect 33 7 41 0;
#X connect 33 8 42 0;
#X connect 34 0 44 0;
#X connect 35 0 44 0;
#X connect 36 0 44 0;
#X connect 37 0 44 0;
#X connect 38 0 44 0;
#X connect 39 0 44 0;
#X connect 40 0 44 0;
#X connect 41 0 44 0;
#X connect 42 0 44 0;
#X connect 43 0 33 0;
#X connect 44 0 6 0;
#X connect 44 1 7 0;
#X connect 44 2 14 0;
#X connect 44 3 15 0;
#X connect 44 4 22 0;
#X connect 44 5 23 0;
#X connect 44 6 30 0;
#X connect 44 7 31 0;
