#N canvas 497 524 993 357 10;
#X obj 146 159 gate 4;
#X obj 206 159 gate 4;
#X msg 93 133 0;
#X obj 151 20 inlet;
#X obj 44 209 outlet;
#X obj 91 211 outlet;
#X obj 148 49 change;
#X obj 149 74 t f b;
#X obj 134 209 outlet;
#X obj 181 211 outlet;
#X obj 242 210 outlet;
#X obj 289 212 outlet;
#X obj 332 210 outlet;
#X obj 379 212 outlet;
#X obj 434 22 s \$1;
#X obj 337 20 inlet;
#X text 31 244 this patch is designed to permit using gates larger
than 4 that still have clear outlet positions;
#X msg 139 130 1;
#X msg 166 130 2;
#X msg 195 130 3;
#X msg 222 130 4;
#X msg 259 131 1;
#X msg 286 131 2;
#X msg 315 131 3;
#X msg 342 131 4;
#X obj 384 164 gate 4;
#X obj 430 213 outlet;
#X obj 477 215 outlet;
#X obj 520 213 outlet;
#X obj 567 215 outlet;
#X msg 391 132 1;
#X msg 418 132 2;
#X msg 447 132 3;
#X msg 474 132 4;
#X obj 185 99 sel 1 2 3 4 5 6 7 8 9 10 11 12;
#X connect 0 0 4 0;
#X connect 0 1 5 0;
#X connect 0 2 8 0;
#X connect 0 3 9 0;
#X connect 1 0 10 0;
#X connect 1 1 11 0;
#X connect 1 2 12 0;
#X connect 1 3 13 0;
#X connect 2 0 0 0;
#X connect 2 0 1 0;
#X connect 2 0 25 0;
#X connect 3 0 6 0;
#X connect 6 0 7 0;
#X connect 7 0 34 0;
#X connect 7 1 2 0;
#X connect 15 0 1 1;
#X connect 15 0 0 1;
#X connect 15 0 25 1;
#X connect 17 0 0 0;
#X connect 18 0 0 0;
#X connect 19 0 0 0;
#X connect 20 0 0 0;
#X connect 21 0 1 0;
#X connect 22 0 1 0;
#X connect 23 0 1 0;
#X connect 24 0 1 0;
#X connect 25 0 26 0;
#X connect 25 1 27 0;
#X connect 25 2 28 0;
#X connect 25 3 29 0;
#X connect 30 0 25 0;
#X connect 31 0 25 0;
#X connect 32 0 25 0;
#X connect 33 0 25 0;
#X connect 34 0 17 0;
#X connect 34 1 18 0;
#X connect 34 2 19 0;
#X connect 34 3 20 0;
#X connect 34 4 21 0;
#X connect 34 5 22 0;
#X connect 34 6 23 0;
#X connect 34 7 24 0;
#X connect 34 8 30 0;
#X connect 34 9 31 0;
#X connect 34 10 32 0;
#X connect 34 11 33 0;
#X connect 34 12 2 0;
