#N canvas 91 138 450 300 10;
#X msg 44 68;
#X obj 145 27 tgl 15 0 empty empty empty 17 7 0 10 -262144 -1 -1 1
1;
#X obj 175 157 bng 15 250 50 0 empty empty empty 17 7 0 10 -262144
-1 -1;
#X obj 103 159 bng 15 250 50 0 empty empty empty 17 7 0 10 -262144
-1 -1;
#X obj 135 56 metro 400;
#X obj 139 104 mgGateProbabilistic1;
#X msg 347 63;
#X floatatom 287 80 5 0 0 0 - - -;
#X connect 1 0 4 0;
#X connect 4 0 3 0;
#X connect 4 0 5 0;
#X connect 5 0 2 0;
#X connect 7 0 5 1;
