#N canvas 229 419 450 300 10;
#X obj 176 116 mgGateLock6 4;
#X floatatom 246 62 5 0 0 0 - - -;
#X msg 125 52 1;
#X msg 158 27 4;
#X floatatom 285 63 5 0 0 0 - - -;
#X floatatom 325 65 5 0 0 0 - - -;
#X floatatom 171 152 5 0 0 0 - - -;
#X floatatom 210 153 5 0 0 0 - - -;
#X floatatom 250 155 5 0 0 0 - - -;
#X floatatom 207 62 5 0 0 0 - - -;
#X floatatom 289 155 5 0 0 0 - - -;
#X connect 0 0 6 0;
#X connect 0 1 7 0;
#X connect 0 2 8 0;
#X connect 0 3 10 0;
#X connect 1 0 0 2;
#X connect 2 0 0 0;
#X connect 3 0 0 0;
#X connect 4 0 0 3;
#X connect 5 0 0 4;
#X connect 9 0 0 1;
