#N canvas 921 491 450 300 10;
#X obj 139 44 inlet bang;
#X obj 258 43 inlet unitIntervalPercentage;
#X obj 250 125 clip 0 1;
#X obj 155 148 <;
#X obj 154 184 sel 1;
#X obj 159 239 outlet bang;
#X obj 287 71 loadbang;
#X msg 286 97 0.5;
#X obj 155 126 randomF 1;
#X connect 0 0 8 0;
#X connect 1 0 2 0;
#X connect 2 0 3 1;
#X connect 3 0 4 0;
#X connect 4 0 5 0;
#X connect 6 0 7 0;
#X connect 7 0 2 0;
#X connect 8 0 3 0;
