#N canvas 148 22 913 625 10;
#X obj 130 438 *~;
#X obj 205 443 *~;
#X obj 145 413 line~;
#X obj 220 417 line~;
#X obj 399 14 inlet~;
#X obj 130 474 outlet~;
#X obj 145 382 pack f 20;
#X obj 223 380 pack f 20;
#X obj 205 472 outlet~;
#X obj 295 437 *~;
#X obj 370 442 *~;
#X obj 310 412 line~;
#X obj 385 416 line~;
#X obj 295 473 outlet~;
#X obj 310 381 pack f 20;
#X obj 388 379 pack f 20;
#X obj 370 471 outlet~;
#X msg 44 93 0 0 0 0 0 0 0 0;
#X msg 56 118 1 0 0 0 0 0 0 0;
#X msg 66 137 0 1 0 0 0 0 0 0;
#X msg 76 158 0 0 1 0 0 0 0 0;
#X msg 84 182 0 0 0 1 0 0 0 0;
#X obj 43 24 inlet controlInteger;
#X obj 68 320 unpack f f f f f f f f;
#X obj 42 59 sel 0 1 2 3 4;
#X connect 0 0 5 0;
#X connect 1 0 8 0;
#X connect 2 0 0 1;
#X connect 3 0 1 1;
#X connect 4 0 0 0;
#X connect 4 0 1 0;
#X connect 4 0 9 0;
#X connect 4 0 10 0;
#X connect 6 0 2 0;
#X connect 7 0 3 0;
#X connect 9 0 13 0;
#X connect 10 0 16 0;
#X connect 11 0 9 1;
#X connect 12 0 10 1;
#X connect 14 0 11 0;
#X connect 15 0 12 0;
#X connect 17 0 23 0;
#X connect 18 0 23 0;
#X connect 19 0 23 0;
#X connect 20 0 23 0;
#X connect 21 0 23 0;
#X connect 22 0 24 0;
#X connect 23 0 6 0;
#X connect 23 1 7 0;
#X connect 23 2 14 0;
#X connect 23 3 15 0;
#X connect 24 0 17 0;
#X connect 24 1 18 0;
#X connect 24 2 19 0;
#X connect 24 3 20 0;
#X connect 24 4 21 0;
