#N canvas 492 585 625 286 10;
#X msg 307 39;
#X floatatom 135 40 5 0 0 0 - - -;
#X floatatom 107 173 5 0 0 0 - - -;
#X floatatom 146 173 5 0 0 0 - - -;
#X floatatom 186 175 5 0 0 0 - - -;
#X floatatom 225 175 5 0 0 0 - - -;
#X floatatom 268 175 5 0 0 0 - - -;
#X floatatom 307 175 5 0 0 0 - - -;
#X floatatom 347 177 5 0 0 0 - - -;
#X floatatom 386 177 5 0 0 0 - - -;
#X floatatom 231 41 5 0 0 0 - - -;
#X msg 95 67 0;
#X msg 82 39 3;
#X msg 283 52 546;
#X msg 109 23 4;
#X floatatom 435 178 5 0 0 0 - - -;
#X floatatom 474 178 5 0 0 0 - - -;
#X floatatom 514 180 5 0 0 0 - - -;
#X floatatom 553 180 5 0 0 0 - - -;
#X obj 143 92 mgGate12 __________________________________________________
;
#X connect 1 0 19 0;
#X connect 10 0 19 1;
#X connect 11 0 19 0;
#X connect 12 0 19 0;
#X connect 13 0 19 1;
#X connect 14 0 19 0;
#X connect 19 0 2 0;
#X connect 19 1 3 0;
#X connect 19 2 4 0;
#X connect 19 3 5 0;
#X connect 19 4 6 0;
#X connect 19 5 7 0;
#X connect 19 6 8 0;
#X connect 19 7 9 0;
#X connect 19 8 15 0;
#X connect 19 9 16 0;
#X connect 19 10 17 0;
#X connect 19 11 18 0;
