#N canvas 482 398 617 334 10;
#X obj 221 162 gate;
#X obj 267 162 gate;
#X obj 319 164 gate;
#X obj 365 164 gate;
#X obj 436 164 gate;
#X obj 482 164 gate;
#X obj 191 148 f;
#X obj 171 24 inlet;
#X obj 109 34 f \$1;
#X obj 100 7 loadbang;
#X obj 245 45 inlet;
#X obj 294 45 inlet;
#X obj 344 46 inlet;
#X obj 393 46 inlet;
#X obj 463 45 inlet;
#X obj 512 45 inlet;
#X obj 222 191 outlet;
#X obj 169 76 sel 1;
#X msg 170 121 0;
#X msg 200 123 1;
#X text -8 223 only let values pass if control value pased in is the
same as the objects box argument;
#X obj 265 192 outlet;
#X obj 322 191 outlet;
#X obj 365 192 outlet;
#X obj 437 193 outlet;
#X obj 480 194 outlet;
#X connect 0 0 16 0;
#X connect 1 0 21 0;
#X connect 2 0 22 0;
#X connect 3 0 23 0;
#X connect 4 0 24 0;
#X connect 5 0 25 0;
#X connect 6 0 0 0;
#X connect 6 0 1 0;
#X connect 6 0 2 0;
#X connect 6 0 3 0;
#X connect 6 0 4 0;
#X connect 6 0 5 0;
#X connect 7 0 17 0;
#X connect 8 0 17 1;
#X connect 9 0 8 0;
#X connect 10 0 0 1;
#X connect 11 0 1 1;
#X connect 12 0 2 1;
#X connect 13 0 3 1;
#X connect 14 0 4 1;
#X connect 15 0 5 1;
#X connect 17 0 19 0;
#X connect 17 1 18 0;
#X connect 18 0 6 0;
#X connect 19 0 6 0;
