#N canvas 148 22 450 300 10;
#X obj 155 222 *~;
#X obj 230 227 *~;
#X obj 43 59 sel 0 1 2;
#X msg 44 93 0 0;
#X msg 78 93 1 0;
#X msg 113 93 0 1;
#X obj 68 125 unpack;
#X obj 170 197 line~;
#X obj 245 201 line~;
#X obj 157 19 inlet~;
#X obj 43 24 inlet;
#X obj 155 258 outlet~;
#X obj 170 166 pack f 20;
#X obj 248 164 pack f 20;
#X obj 230 256 outlet~;
#X connect 0 0 11 0;
#X connect 1 0 14 0;
#X connect 2 0 3 0;
#X connect 2 1 4 0;
#X connect 2 2 5 0;
#X connect 3 0 6 0;
#X connect 4 0 6 0;
#X connect 5 0 6 0;
#X connect 6 0 12 0;
#X connect 6 1 13 0;
#X connect 7 0 0 1;
#X connect 8 0 1 1;
#X connect 9 0 0 0;
#X connect 9 0 1 0;
#X connect 10 0 2 0;
#X connect 12 0 7 0;
#X connect 13 0 8 0;
