#N canvas 922 159 761 370 10;
#X obj 169 96 mgGate8~ _________________;
#X obj 24 172 mgUiSnapshot;
#X obj 110 171 mgUiSnapshot;
#X obj 194 171 mgUiSnapshot;
#X obj 280 170 mgUiSnapshot;
#X obj 368 171 mgUiSnapshot;
#X obj 454 170 mgUiSnapshot;
#X obj 538 170 mgUiSnapshot;
#X obj 624 169 mgUiSnapshot;
#X obj 324 53 noise~;
#X msg 168 43 1;
#X msg 131 44 0;
#X floatatom 197 45 5 0 0 0 - - -;
#X connect 0 0 1 0;
#X connect 0 1 2 0;
#X connect 0 2 3 0;
#X connect 0 3 4 0;
#X connect 0 4 5 0;
#X connect 0 5 6 0;
#X connect 0 6 7 0;
#X connect 0 7 8 0;
#X connect 9 0 0 1;
#X connect 10 0 0 0;
#X connect 11 0 0 0;
#X connect 12 0 0 0;
