#N canvas 242 392 1088 449 10;
#X obj 428 52 phasor~;
#X obj -65 97 samphold~;
#X obj 200 166 *~ 256;
#X obj 184 219 *~;
#X obj 200 194 tabread4~ hanning;
#X obj -65 46 mgScaleMinMax~;
#X obj -65 -3 noise~;
#X obj -65 19 abs~;
#X obj -21 22 sig~;
#X obj 18 22 sig~;
#X obj 57 46 mgScaleMinMax~;
#X obj 57 -3 noise~;
#X obj 57 19 abs~;
#X obj 101 22 sig~;
#X obj 140 22 sig~;
#X obj 57 97 samphold~;
#X obj 180 274 *~;
#X obj 229 275 *~;
#X obj 310 53 mgScaleMinMax~;
#X obj 310 4 noise~;
#X obj 310 26 abs~;
#X obj 354 29 sig~;
#X obj 393 29 sig~;
#X obj 310 101 samphold~;
#X obj 309 247 -~;
#X obj 309 224 sig~ 1;
#X obj 272 247 *~ 1;
#X obj 481 47 mgScaleMinMax~;
#X obj 481 -2 noise~;
#X obj 481 20 abs~;
#X obj 525 23 sig~;
#X obj 564 23 sig~;
#X obj 481 95 samphold~;
#X obj 603 46 phasor~;
#X obj 481 119 lop~ 30 Hz;
#X obj 52 194 tabread4~ samplePlayerA;
#X obj 181 49 mgScaleMinMax~;
#X obj 181 0 noise~;
#X obj 181 22 abs~;
#X obj 225 25 sig~;
#X obj 264 25 sig~;
#X obj 181 100 samphold~;
#X obj 52 169 mgSoundfilerControl~;
#X obj -23 -27 inlet;
#X obj 18 -27 inlet;
#X obj 104 -24 inlet;
#X obj 145 -24 inlet;
#X obj 227 -21 inlet;
#X obj 268 -21 inlet;
#X obj 357 -21 inlet;
#X obj 398 -21 inlet;
#X obj 527 -22 inlet;
#X obj 568 -22 inlet;
#X obj 613 -24 inlet;
#X obj -149 -19 inlet;
#X obj 162 312 outlet~;
#X obj 228 313 outlet~;
#X text -145 221 this should be a \$1 to get buffer name a an argument
;
#X connect 0 0 1 1;
#X connect 0 0 2 0;
#X connect 0 0 15 1;
#X connect 0 0 23 1;
#X connect 0 0 41 1;
#X connect 1 0 42 1;
#X connect 2 0 4 0;
#X connect 3 0 16 0;
#X connect 3 0 17 0;
#X connect 4 0 3 1;
#X connect 5 0 1 0;
#X connect 6 0 7 0;
#X connect 7 0 5 0;
#X connect 8 0 5 1;
#X connect 9 0 5 2;
#X connect 10 0 15 0;
#X connect 11 0 12 0;
#X connect 12 0 10 0;
#X connect 13 0 10 1;
#X connect 14 0 10 2;
#X connect 15 0 42 2;
#X connect 16 0 55 0;
#X connect 17 0 56 0;
#X connect 18 0 23 0;
#X connect 19 0 20 0;
#X connect 20 0 18 0;
#X connect 21 0 18 1;
#X connect 22 0 18 2;
#X connect 23 0 24 1;
#X connect 23 0 26 0;
#X connect 24 0 17 1;
#X connect 25 0 24 0;
#X connect 26 0 16 1;
#X connect 27 0 32 0;
#X connect 28 0 29 0;
#X connect 29 0 27 0;
#X connect 30 0 27 1;
#X connect 31 0 27 2;
#X connect 32 0 34 0;
#X connect 33 0 32 1;
#X connect 34 0 0 0;
#X connect 35 0 3 0;
#X connect 36 0 41 0;
#X connect 37 0 38 0;
#X connect 38 0 36 0;
#X connect 39 0 36 1;
#X connect 40 0 36 2;
#X connect 41 0 42 3;
#X connect 42 0 35 0;
#X connect 43 0 8 0;
#X connect 44 0 9 0;
#X connect 45 0 13 0;
#X connect 46 0 14 0;
#X connect 47 0 39 0;
#X connect 48 0 40 0;
#X connect 49 0 21 0;
#X connect 50 0 22 0;
#X connect 51 0 30 0;
#X connect 52 0 31 0;
#X connect 53 0 33 0;
#X connect 54 0 42 0;
