#N canvas 152 629 650 376 10;
#X obj 231 205 dac~;
#X obj 229 174 *~ 0.5;
#X msg 16 50 53466-spokenSpanish.aif;
#X obj 540 99 mgTableHanning;
#X floatatom 241 63 5 0 0 0 - - -;
#X floatatom 284 77 5 0 1 0 - - -;
#X msg 516 27;
#X floatatom 327 55 5 0 1 0 - - -;
#X floatatom 364 79 5 0 0 0 - - -;
#X floatatom 420 71 5 0 0 0 - - -;
#X msg 526 41;
#X floatatom 409 36 5 0 1 0 - - -;
#X obj 375 204 mgScaleCenterToMinMax;
#X obj 233 119 mgGranularSample1_v \$0 ________________;
#X obj 406 153 table \$0-grain;
#X connect 1 0 0 0;
#X connect 1 0 0 1;
#X connect 2 0 13 0;
#X connect 4 0 13 1;
#X connect 4 0 13 2;
#X connect 5 0 13 3;
#X connect 5 0 13 4;
#X connect 7 0 13 5;
#X connect 7 0 13 6;
#X connect 8 0 13 7;
#X connect 8 0 13 8;
#X connect 9 0 13 10;
#X connect 9 0 13 11;
#X connect 11 0 13 9;
#X connect 13 0 1 0;
