#N canvas 559 268 1126 500 10;
#X obj 744 156 phasor~;
#X obj 99 221 samphold~;
#X obj 364 284 *~ 256;
#X obj 348 337 *~;
#X obj 364 312 tabread4~ hanning;
#X obj 99 164 mgScaleMinMax~;
#X obj 99 115 noise~;
#X obj 99 137 abs~;
#X obj 221 164 mgScaleMinMax~;
#X obj 221 115 noise~;
#X obj 221 137 abs~;
#X obj 221 221 samphold~;
#X obj 348 382 *~;
#X obj 474 171 mgScaleMinMax~;
#X obj 474 122 noise~;
#X obj 474 144 abs~;
#X obj 474 225 samphold~;
#X obj 832 167 mgScaleMinMax~;
#X obj 832 118 noise~;
#X obj 832 140 abs~;
#X obj 832 215 samphold~;
#X obj 832 239 lop~ 30 Hz;
#X obj 345 167 mgScaleMinMax~;
#X obj 345 118 noise~;
#X obj 345 140 abs~;
#X obj 345 224 samphold~;
#X obj 216 287 mgSoundfilerControl~;
#X obj 141 91 inlet;
#X obj 182 91 inlet;
#X obj 268 94 inlet;
#X obj 309 94 inlet;
#X obj 391 97 inlet;
#X obj 432 97 inlet;
#X obj 521 97 inlet;
#X obj 562 97 inlet;
#X obj 879 88 inlet;
#X obj 950 92 inlet;
#X obj 995 90 inlet;
#X obj 348 453 outlet~;
#X obj -29 81 inlet sfData;
#X text 114 59 playback min/max;
#X text 256 66 start min/max;
#X text 382 64 end min/max;
#X text 519 65 amp min/max;
#X text 831 68 new value rate min/max/self update;
#X obj -29 180 zl rot -1;
#X msg -29 130 read -resize \$1;
#X obj -29 107 symbol;
#X obj 143 140 sig~ 1;
#X obj 182 140 sig~ 1;
#X obj 265 140 sig~ 0;
#X obj 304 140 sig~ 0;
#X obj 389 143 sig~ 1;
#X obj 428 143 sig~ 1;
#X obj 518 147 sig~ 0.5;
#X obj 572 146 sig~ 1;
#X obj 876 143 sig~ 2;
#X obj 938 140 sig~ 2;
#X obj 1007 158 phasor~ 1;
#X obj 880 118 mgMsToFq;
#X obj 938 118 mgMsToFq;
#X obj 1007 126 mgMsToFq;
#X obj 348 419 *~;
#X obj 717 197 sig~ 0.8;
#X obj 626 141 noise~;
#X obj 626 163 abs~;
#X obj 624 219 samphold~;
#X obj 711 94 inlet density;
#X text 682 68 density b/n 0 and 1;
#X obj 624 244 expr~ $v1 <= $v2;
#X obj 216 312 tabread4~ \$1-grain;
#X obj -29 154 prepend \$1-grain;
#X obj 717 220 lop~ 30;
#X obj 749 131 randomF 1;
#X obj 769 42 loadbang;
#X connect 0 0 1 1;
#X connect 0 0 2 0;
#X connect 0 0 11 1;
#X connect 0 0 16 1;
#X connect 0 0 25 1;
#X connect 0 0 66 1;
#X connect 1 0 26 1;
#X connect 2 0 4 0;
#X connect 3 0 12 0;
#X connect 4 0 3 1;
#X connect 5 0 1 0;
#X connect 6 0 7 0;
#X connect 7 0 5 0;
#X connect 8 0 11 0;
#X connect 9 0 10 0;
#X connect 10 0 8 0;
#X connect 11 0 26 2;
#X connect 12 0 62 0;
#X connect 13 0 16 0;
#X connect 14 0 15 0;
#X connect 15 0 13 0;
#X connect 16 0 12 1;
#X connect 17 0 20 0;
#X connect 18 0 19 0;
#X connect 19 0 17 0;
#X connect 20 0 21 0;
#X connect 21 0 0 0;
#X connect 22 0 25 0;
#X connect 23 0 24 0;
#X connect 24 0 22 0;
#X connect 25 0 26 3;
#X connect 26 0 70 0;
#X connect 27 0 48 0;
#X connect 28 0 49 0;
#X connect 29 0 50 0;
#X connect 30 0 51 0;
#X connect 31 0 52 0;
#X connect 32 0 53 0;
#X connect 33 0 54 0;
#X connect 34 0 55 0;
#X connect 35 0 59 0;
#X connect 36 0 60 0;
#X connect 37 0 61 0;
#X connect 39 0 47 0;
#X connect 45 0 26 0;
#X connect 46 0 71 0;
#X connect 47 0 46 0;
#X connect 48 0 5 1;
#X connect 49 0 5 2;
#X connect 50 0 8 1;
#X connect 51 0 8 2;
#X connect 52 0 22 1;
#X connect 53 0 22 2;
#X connect 54 0 13 1;
#X connect 55 0 13 2;
#X connect 56 0 17 1;
#X connect 57 0 17 2;
#X connect 58 0 20 1;
#X connect 59 0 56 0;
#X connect 60 0 57 0;
#X connect 61 0 58 0;
#X connect 62 0 38 0;
#X connect 63 0 72 0;
#X connect 64 0 65 0;
#X connect 65 0 66 0;
#X connect 66 0 69 0;
#X connect 67 0 63 0;
#X connect 69 0 62 1;
#X connect 70 0 3 0;
#X connect 71 0 45 0;
#X connect 72 0 69 1;
#X connect 73 0 0 1;
#X connect 74 0 73 0;
