#N canvas 725 491 651 429 10;
#X obj 57 225 print xy1;
#X obj 139 227 print xy2;
#X obj 207 228 print buttons;
#X msg 65 90 bang;
#X text 210 256 dpad is button 11 \, has 5 values;
#X obj 301 229 print buttons9/10;
#X floatatom 129 93 5 0 0 0 - - -;
#X text 69 40 press bang to get list of usb devices \; provide the
number of the desired device as an argument;
#X obj 131 140 mgHwDualAnalog;
#X obj 57 191 mgPak2 f f;
#X obj 139 191 mgPak2 f f;
#X msg 180 93 11;
#X connect 3 0 8 0;
#X connect 6 0 8 0;
#X connect 8 0 9 0;
#X connect 8 1 9 1;
#X connect 8 2 10 0;
#X connect 8 3 10 1;
#X connect 8 4 2 0;
#X connect 8 5 5 0;
#X connect 9 0 0 0;
#X connect 10 0 1 0;
#X connect 11 0 8 0;
