#N canvas 78 22 1224 657 10;
#X obj 244 153 hid;
#X msg 80 147 print;
#X msg 134 149 1;
#X obj 248 180 route abs;
#X obj -34 269 mgScaleMap 0 255 0 1;
#X obj 105 269 mgScaleMap 0 255 1 0;
#X obj 254 269 mgScaleMap 0 255 0 1;
#X obj 393 269 mgScaleMap 0 255 1 0;
#X msg 171 149 open \$1;
#X obj 350 334 route key;
#X obj -34 242 route abs_x abs_y;
#X obj 263 394 pack f 1;
#X obj 324 394 pack f 2;
#X obj 447 394 pack f 4;
#X obj 386 394 pack f 3;
#X obj 518 391 pack f 5;
#X obj 579 391 pack f 6;
#X obj 641 391 pack f 7;
#X obj 702 391 pack f 8;
#X obj 627 506 pack f 9;
#X obj 688 506 pack f 10;
#X obj -24 502 outlet;
#X obj 137 503 outlet;
#X obj 357 505 outlet;
#X text 193 70 device number: need to get by printing [hid] outpout
and looking at list;
#X obj 47 55 inlet;
#X obj 135 125 t b f;
#X msg 891 420 1;
#X msg 920 420 2;
#X msg 951 420 3;
#X msg 980 420 4;
#X msg 1016 420 0;
#X obj 49 502 outlet;
#X obj 210 503 outlet;
#X text 10 536 x1 \, y1;
#X text 162 541 x2 \, y2;
#X text 615 556 buttons 9-10;
#X obj 625 538 outlet;
#X obj 894 452 pack f 11;
#X text 817 479 remap numbers to parallel buttons \; 0 is center position
\; label as a single button that has multiple values;
#X obj 47 78 route bang float list;
#X text -30 558 individual joystick outputs for xy1 \, xy2;
#X text -18 577 values sacled between 0 and 1;
#X text 351 534 buttons 1-8 \, 11;
#X text 318 568 buttons 1-8 have states of 0 \, 1;
#X text 330 555 list pairs of state \, keyId;
#X text 602 572 buttons 9 \, 10 have states of 0 \, 1;
#X text 110 37 bang to print list \; number to set device number;
#X text 808 525 dpad directions: left is 1 \, down is 2 \, right is
3 and up is 4;
#X text 666 30 mapping of the playstation sixaxis to look like other
dual analog interfaces;
#X text 765 325 0 is select \, 3 is start;
#X obj 771 362 route btn_0 btn_3;
#X obj 348 358 route btn_15 btn_14 btn_13 btn_12 btn_10 btn_11 btn_8
btn_9;
#X obj 911 357 route btn_7 btn_6 btn_5 btn_4;
#X obj 904 385 sel 0;
#X obj 946 385 sel 0;
#X obj 991 387 sel 0;
#X obj 1033 388 sel 0;
#X obj 253 242 route abs_z abs_rz;
#X text 335 588 button 11 has states of 0 \, 1 \, 2 \, 3 \, 4;
#X connect 0 0 3 0;
#X connect 1 0 0 0;
#X connect 2 0 0 0;
#X connect 3 0 10 0;
#X connect 3 1 9 0;
#X connect 4 0 21 0;
#X connect 5 0 32 0;
#X connect 6 0 22 0;
#X connect 7 0 33 0;
#X connect 8 0 0 0;
#X connect 9 0 52 0;
#X connect 10 0 4 0;
#X connect 10 1 5 0;
#X connect 10 2 58 0;
#X connect 11 0 23 0;
#X connect 12 0 23 0;
#X connect 13 0 23 0;
#X connect 14 0 23 0;
#X connect 15 0 23 0;
#X connect 16 0 23 0;
#X connect 17 0 23 0;
#X connect 18 0 23 0;
#X connect 19 0 37 0;
#X connect 20 0 37 0;
#X connect 25 0 40 0;
#X connect 26 0 2 0;
#X connect 26 1 8 0;
#X connect 27 0 38 0;
#X connect 28 0 38 0;
#X connect 29 0 38 0;
#X connect 30 0 38 0;
#X connect 31 0 38 0;
#X connect 38 0 23 0;
#X connect 40 0 1 0;
#X connect 40 1 26 0;
#X connect 40 2 0 0;
#X connect 51 0 19 0;
#X connect 51 1 20 0;
#X connect 51 2 53 0;
#X connect 52 0 11 0;
#X connect 52 1 12 0;
#X connect 52 2 14 0;
#X connect 52 3 13 0;
#X connect 52 4 15 0;
#X connect 52 5 16 0;
#X connect 52 6 17 0;
#X connect 52 7 18 0;
#X connect 52 8 51 0;
#X connect 53 0 54 0;
#X connect 53 1 55 0;
#X connect 53 2 56 0;
#X connect 53 3 57 0;
#X connect 54 0 31 0;
#X connect 54 1 27 0;
#X connect 55 0 31 0;
#X connect 55 1 28 0;
#X connect 56 0 31 0;
#X connect 56 1 29 0;
#X connect 57 0 31 0;
#X connect 57 1 30 0;
#X connect 58 0 6 0;
#X connect 58 1 7 0;
