#N canvas 732 363 1002 291 10;
#X obj 129 45 ctlin;
#X obj 129 105 pack f f;
#X obj 129 134 zl rev;
#X obj 129 77 mgScaleMap 0 127 0 1;
#X obj 23 229 outlet;
#X obj 66 229 outlet;
#X obj 124 229 outlet;
#X obj 167 229 outlet;
#X obj 231 230 outlet;
#X obj 274 230 outlet;
#X obj 332 230 outlet;
#X obj 375 230 outlet;
#X obj 445 227 outlet;
#X obj 488 227 outlet;
#X obj 546 227 outlet;
#X obj 589 227 outlet;
#X obj 653 228 outlet;
#X obj 696 228 outlet;
#X obj 754 228 outlet;
#X obj 797 228 outlet;
#X obj 864 226 outlet;
#X obj 907 226 outlet;
#X obj 23 157 print;
#X obj 124 164 route 23 24 25 26 27 28 29 30 31;
#X obj 334 164 route 33 34 35 36 37 38 39 40 41;
#X connect 0 0 3 0;
#X connect 0 1 1 1;
#X connect 1 0 2 0;
#X connect 1 0 22 0;
#X connect 2 0 23 0;
#X connect 3 0 1 0;
#X connect 23 0 4 0;
#X connect 23 1 6 0;
#X connect 23 2 8 0;
#X connect 23 3 10 0;
#X connect 23 4 12 0;
#X connect 23 5 14 0;
#X connect 23 6 16 0;
#X connect 23 7 18 0;
#X connect 23 8 20 0;
#X connect 23 9 24 0;
#X connect 24 0 5 0;
#X connect 24 1 7 0;
#X connect 24 2 9 0;
#X connect 24 3 11 0;
#X connect 24 4 13 0;
#X connect 24 5 15 0;
#X connect 24 6 17 0;
#X connect 24 7 19 0;
#X connect 24 8 21 0;
