#N canvas 366 550 501 397 10;
#X obj 158 35 inlet buttonStateList;
#X obj 158 99 unpack f f;
#X text 193 124 only quantize on events;
#X obj 158 124 == 1;
#X obj 153 236 gate 2;
#X obj 158 151 + 1;
#X obj 158 69 t l l;
#X obj 186 208 zl reg;
#X obj 159 177 t b f;
#X obj 69 268 mgQuantizeEventList;
#X obj 45 34 inlet quantized;
#X text 203 235 2 is quantized;
#X obj 153 327 outlet;
#X obj 332 200 loadbang;
#X msg 329 226 1;
#X obj 297 35 inlet onOff;
#X connect 0 0 6 0;
#X connect 1 0 3 0;
#X connect 3 0 5 0;
#X connect 4 0 12 0;
#X connect 4 1 9 1;
#X connect 5 0 8 0;
#X connect 6 0 1 0;
#X connect 6 1 7 1;
#X connect 7 0 4 1;
#X connect 8 0 7 0;
#X connect 8 1 4 0;
#X connect 9 0 12 0;
#X connect 10 0 9 0;
#X connect 13 0 14 0;
#X connect 14 0 9 2;
#X connect 15 0 9 2;
