#N canvas 222 34 1365 559 10;
#X obj 454 73 joystick;
#X text 645 -2 this is designed for the windows joystick object found
here: http://crca.ucsd.edu/~jsarlo/pd/pd_joystick.zip;
#X obj 113 187 f;
#X obj 13 193 f;
#X obj 261 245 f;
#X obj 349 237 f;
#X obj 12 220 * 1.5259e-05;
#X obj 256 279 * 1.5259e-05;
#X obj 10 384 outlet xy1x;
#X obj 113 382 outlet xy1y;
#X obj 256 383 outlet xy2x;
#X obj 351 383 outlet xy2y;
#X text 82 419 center position should be 0.5 \, 0.5 \; bottom left
should be 0 \, 0 \, top right should be 1 \, 1;
#X text 127 84 joystick value range are integers 0 to 65535;
#X text 943 331 button 11 has 5 states: 0-4;
#X obj 349 258 * 1.5259e-05;
#X obj 350 279 mgSubtractReverse 1;
#X obj 112 208 * 1.5259e-05;
#X obj 113 229 mgSubtractReverse 1;
#X obj 578 384 outlet buttons1-8:11;
#X obj 748 383 outlet buttons 9:10;
#X text 528 78 output here is button id \, state \, in that order;
#X obj 477 117 pack f f;
#X text 543 118 this is now button state \, button id;
#X obj 578 261 zl reg;
#X obj 748 266 zl reg;
#X obj 476 143 t l l l;
#X obj 476 175 unpack f f;
#X obj 489 204 sel 9 10;
#X msg 537 260 bang;
#X obj 906 140 hidin;
#X msg 946 107 open \$1;
#X obj 855 53 route bang float list;
#X obj 905 82 t b f b;
#X msg 904 106 start;
#X msg 1002 108 stop;
#X msg 949 265 1;
#X msg 978 266 2;
#X msg 1009 264 3;
#X msg 1038 265 4;
#X msg 1069 266 0;
#X obj 949 296 pack f 11;
#X obj 977 211 change;
#X obj 977 168 route 5;
#X obj 978 236 sel 6 4 2 0 8;
#X obj 461 10 inlet controlMessages;
#X connect 0 0 3 0;
#X connect 0 1 2 0;
#X connect 0 2 4 0;
#X connect 0 3 5 0;
#X connect 0 4 22 1;
#X connect 0 5 22 0;
#X connect 2 0 17 0;
#X connect 3 0 6 0;
#X connect 4 0 7 0;
#X connect 5 0 15 0;
#X connect 6 0 8 0;
#X connect 7 0 10 0;
#X connect 15 0 16 0;
#X connect 16 0 11 0;
#X connect 17 0 18 0;
#X connect 18 0 9 0;
#X connect 22 0 26 0;
#X connect 24 0 19 0;
#X connect 25 0 20 0;
#X connect 26 0 27 0;
#X connect 26 1 24 1;
#X connect 26 2 25 1;
#X connect 27 1 28 0;
#X connect 28 0 25 0;
#X connect 28 1 25 0;
#X connect 28 2 29 0;
#X connect 29 0 24 0;
#X connect 30 0 43 0;
#X connect 31 0 30 0;
#X connect 32 0 30 0;
#X connect 32 1 33 0;
#X connect 33 0 34 0;
#X connect 33 1 31 0;
#X connect 33 2 35 0;
#X connect 34 0 30 0;
#X connect 35 0 30 0;
#X connect 36 0 41 0;
#X connect 37 0 41 0;
#X connect 38 0 41 0;
#X connect 39 0 41 0;
#X connect 40 0 41 0;
#X connect 41 0 19 0;
#X connect 42 0 44 0;
#X connect 43 0 42 0;
#X connect 44 0 36 0;
#X connect 44 1 37 0;
#X connect 44 2 38 0;
#X connect 44 3 39 0;
#X connect 44 4 40 0;
#X connect 45 0 32 0;
