#N canvas 818 22 696 289 10;
#X obj 7 100 print 1;
#X obj 21 159 print 2;
#X obj 67 148 print 3;
#X msg -36 -54 \; pd dsp 1;
#X msg -36 -17 \; pd dsp 0;
#X obj 186 99 mgHwDualAnalogPolyUi;
#X obj -19 79 bng 15 250 50 0 empty empty empty 17 7 0 10 -262144 -1
-1;
#X obj -27 41 mgHwDualAnalogPoly3JHidin __________________;
#X msg 37 -15 bang;
#X msg 98 -21 2;
#X msg 186 -10 1;
#X msg 218 -10 3;
#X msg 252 -9 5;
#X connect 7 0 5 0;
#X connect 7 1 6 0;
#X connect 7 4 0 0;
#X connect 7 7 1 0;
#X connect 7 10 2 0;
#X connect 8 0 7 0;
#X connect 9 0 7 0;
#X connect 10 0 7 1;
#X connect 11 0 7 1;
#X connect 12 0 7 1;
