#N canvas 818 22 696 289 10;
#X obj 7 100 print 1;
#X obj 70 147 print 2;
#X obj 134 151 print 3;
#X msg -36 -54 \; pd dsp 1;
#X msg -36 -17 \; pd dsp 0;
#X obj 362 -18 mgHwDualAnalogPolyUi;
#X obj -19 79 bng 15 250 50 0 empty empty empty 17 7 0 10 -262144 -1
-1;
#X obj 198 151 print 4;
#X obj 258 146 print 5;
#X msg 129 -19 bang;
#X msg 98 -21 11;
#X obj -27 41 mgHwDualAnalogPoly8JHidin ________________________________________
;
#X obj 312 145 print 6;
#X obj 377 146 print 7;
#X obj 437 141 print 8;
#X msg 64 -24 2;
#X msg 254 -33 3;
#X msg 281 -33 5;
#X connect 9 0 11 0;
#X connect 10 0 11 0;
#X connect 11 0 5 0;
#X connect 11 1 6 0;
#X connect 11 4 0 0;
#X connect 11 7 1 0;
#X connect 11 10 2 0;
#X connect 11 13 7 0;
#X connect 11 16 8 0;
#X connect 11 19 12 0;
#X connect 11 22 13 0;
#X connect 11 25 14 0;
#X connect 15 0 11 0;
#X connect 16 0 11 1;
#X connect 17 0 11 1;
