#N canvas 201 22 1032 340 10;
#X obj 30 77 OSCroute /xy1 /xy2;
#X obj 162 77 OSCroute /toggle1 /toggle2 /toggle3 /toggle4 /toggle5
/toggle6 /toggle7 /toggle8;
#X obj 131 120 pack f 1;
#X obj 186 120 pack f 2;
#X obj 240 120 pack f 3;
#X obj 295 120 pack f 4;
#X obj 349 120 pack f 5;
#X obj 403 120 pack f 6;
#X obj 457 120 pack f 7;
#X obj 511 120 pack f 8;
#X obj 189 195 t l;
#X obj 21 122 zl rev;
#X obj 78 120 zl rev;
#X obj 22 247 outlet xy1;
#X obj 104 247 outlet xy2;
#X obj 187 245 outlet buttons1-8;
#X obj 823 239 outlet buttons9-10;
#X text 546 21 desiged for emulating a dual analog controller with
the TouchOSC interface touchDualAnalog.touchosc;
#X obj 578 119 sel 1 0;
#X obj 632 119 sel 1 0;
#X obj 685 118 sel 1 0;
#X obj 739 118 sel 1 0;
#X msg 786 158 0 11;
#X msg 606 154 1 11;
#X msg 645 157 2 11;
#X msg 687 155 3 11;
#X msg 735 158 4 11;
#X obj 616 192 t l;
#X obj 845 121 pack f 9;
#X obj 901 121 pack f 10;
#X obj 570 83 OSCroute /push1 /push2 /push3 /push4;
#X obj 331 42 OSCroute /1 /2;
#X obj 827 82 OSCroute /push5 /push6;
#X obj 331 9 inlet rawOsc;
#X connect 0 0 11 0;
#X connect 0 1 12 0;
#X connect 0 2 1 0;
#X connect 1 0 2 0;
#X connect 1 1 3 0;
#X connect 1 2 4 0;
#X connect 1 3 5 0;
#X connect 1 4 6 0;
#X connect 1 5 7 0;
#X connect 1 6 8 0;
#X connect 1 7 9 0;
#X connect 1 8 30 0;
#X connect 2 0 10 0;
#X connect 3 0 10 0;
#X connect 4 0 10 0;
#X connect 5 0 10 0;
#X connect 6 0 10 0;
#X connect 7 0 10 0;
#X connect 8 0 10 0;
#X connect 9 0 10 0;
#X connect 10 0 15 0;
#X connect 11 0 13 0;
#X connect 12 0 14 0;
#X connect 18 0 23 0;
#X connect 18 1 22 0;
#X connect 19 0 24 0;
#X connect 19 1 22 0;
#X connect 20 0 25 0;
#X connect 20 1 22 0;
#X connect 21 0 26 0;
#X connect 21 1 22 0;
#X connect 22 0 27 0;
#X connect 23 0 27 0;
#X connect 24 0 27 0;
#X connect 25 0 27 0;
#X connect 26 0 27 0;
#X connect 27 0 10 0;
#X connect 28 0 16 0;
#X connect 29 0 16 0;
#X connect 30 0 18 0;
#X connect 30 1 19 0;
#X connect 30 2 20 0;
#X connect 30 3 21 0;
#X connect 31 0 0 0;
#X connect 31 1 32 0;
#X connect 32 0 28 0;
#X connect 32 1 29 0;
#X connect 33 0 31 0;
