#N canvas 732 363 1002 291 10;
#X obj 129 45 ctlin;
#X obj 129 105 pack f f;
#X obj 129 134 zl rev;
#X obj 128 164 route 2 3 4 5 6 8 9 12 13;
#X obj 129 77 mgScaleMap 0 127 0 1;
#X obj 295 164 route 14 15 16 17 18 19 20 21 22;
#X obj 23 229 outlet;
#X obj 66 229 outlet;
#X obj 124 229 outlet;
#X obj 167 229 outlet;
#X obj 231 230 outlet;
#X obj 274 230 outlet;
#X obj 332 230 outlet;
#X obj 375 230 outlet;
#X obj 445 227 outlet;
#X obj 488 227 outlet;
#X obj 546 227 outlet;
#X obj 589 227 outlet;
#X obj 653 228 outlet;
#X obj 696 228 outlet;
#X obj 754 228 outlet;
#X obj 797 228 outlet;
#X obj 864 226 outlet;
#X obj 907 226 outlet;
#X connect 0 0 4 0;
#X connect 0 1 1 1;
#X connect 1 0 2 0;
#X connect 2 0 3 0;
#X connect 3 0 6 0;
#X connect 3 1 8 0;
#X connect 3 2 10 0;
#X connect 3 3 12 0;
#X connect 3 4 14 0;
#X connect 3 5 16 0;
#X connect 3 6 18 0;
#X connect 3 7 20 0;
#X connect 3 8 22 0;
#X connect 3 9 5 0;
#X connect 4 0 1 0;
#X connect 5 0 7 0;
#X connect 5 1 9 0;
#X connect 5 2 11 0;
#X connect 5 3 13 0;
#X connect 5 4 15 0;
#X connect 5 5 17 0;
#X connect 5 6 19 0;
#X connect 5 7 21 0;
#X connect 5 8 23 0;
