#N canvas 433 735 863 289 10;
#X floatatom 28 138 5 0 0 0 - - -;
#X floatatom 62 138 5 0 0 0 - - -;
#X floatatom 107 138 5 0 0 0 - - -;
#X floatatom 141 138 5 0 0 0 - - -;
#X floatatom 190 138 5 0 0 0 - - -;
#X floatatom 224 138 5 0 0 0 - - -;
#X floatatom 273 138 5 0 0 0 - - -;
#X floatatom 307 138 5 0 0 0 - - -;
#X floatatom 354 136 5 0 0 0 - - -;
#X floatatom 388 136 5 0 0 0 - - -;
#X floatatom 433 136 5 0 0 0 - - -;
#X floatatom 467 136 5 0 0 0 - - -;
#X floatatom 516 136 5 0 0 0 - - -;
#X floatatom 550 136 5 0 0 0 - - -;
#X floatatom 599 136 5 0 0 0 - - -;
#X floatatom 633 136 5 0 0 0 - - -;
#X floatatom 690 136 5 0 0 0 - - -;
#X floatatom 724 136 5 0 0 0 - - -;
#X obj 56 86 mgHwNanoKontrolDiscrete __________________________________
;
#X connect 18 0 0 0;
#X connect 18 1 1 0;
#X connect 18 2 2 0;
#X connect 18 3 3 0;
#X connect 18 4 4 0;
#X connect 18 5 5 0;
#X connect 18 6 6 0;
#X connect 18 7 7 0;
#X connect 18 8 8 0;
#X connect 18 9 9 0;
#X connect 18 10 10 0;
#X connect 18 11 11 0;
#X connect 18 12 12 0;
#X connect 18 13 13 0;
#X connect 18 14 14 0;
#X connect 18 15 15 0;
#X connect 18 16 16 0;
#X connect 18 17 17 0;
