#N canvas 125 530 1337 428 10;
#X obj 454 73 joystick;
#X text 521 26 this is designed for the windows joystick object found
here: http://crca.ucsd.edu/~jsarlo/pd/pd_joystick.zip;
#X obj 100 191 f;
#X obj 13 193 f;
#X obj 243 245 f;
#X obj 331 237 f;
#X obj 12 220 * 1.5259e-05;
#X obj 238 279 * 1.5259e-05;
#X obj 10 311 outlet xy1x;
#X obj 113 309 outlet xy1y;
#X obj 238 310 outlet xy2x;
#X obj 322 310 outlet xy2y;
#X text 107 348 center position should be 0.5 \, 0.5 \; bottom left
should be 0 \, 0 \, top right should be 1 \, 1;
#X text 127 84 joystick value range are integers 0 to 65535;
#X obj 908 66 keyname;
#X msg 1166 164 0;
#X obj 907 100 t f;
#X text 973 62 note: for this to work \, key repeat must be turned
off as a system preference;
#X obj 957 132 t b b;
#X obj 997 133 t b b;
#X obj 1039 133 t b b;
#X obj 1079 134 t b b;
#X obj 951 102 select Left Down Right Up Space;
#X obj 1016 249 f;
#X msg 1023 161 1;
#X msg 1052 161 2;
#X msg 1080 161 3;
#X msg 1110 161 4;
#X obj 976 222 sel 0 1;
#X msg 982 274 0 11;
#X msg 1018 274 \$1 11;
#X text 1204 160 all else close gate;
#X obj 979 192 gate;
#X msg 979 161 1;
#X text 1065 288 button 11 has 5 states: 0-4;
#X text 913 26 up/down/left/right is simulated by dpad;
#X obj 444 41 inlet;
#X obj 331 258 * 1.5259e-05;
#X obj 332 279 mgSubtractReverse 1;
#X obj 99 212 * 1.5259e-05;
#X obj 100 233 mgSubtractReverse 1;
#X obj 578 311 outlet buttons1-8:11;
#X obj 748 310 outlet buttons 9:10;
#X text 528 78 output here is button id \, state \, in that order;
#X obj 477 117 pack f f;
#X text 543 118 this is now button state \, button id;
#X obj 578 261 zl reg;
#X obj 748 266 zl reg;
#X obj 476 143 t l l l;
#X obj 476 175 unpack f f;
#X obj 489 204 sel 9 10;
#X msg 537 260 bang;
#X connect 0 0 3 0;
#X connect 0 1 2 0;
#X connect 0 2 4 0;
#X connect 0 3 5 0;
#X connect 0 4 44 1;
#X connect 0 5 44 0;
#X connect 2 0 39 0;
#X connect 3 0 6 0;
#X connect 4 0 7 0;
#X connect 5 0 37 0;
#X connect 6 0 8 0;
#X connect 7 0 10 0;
#X connect 14 0 16 0;
#X connect 14 1 22 0;
#X connect 15 0 32 0;
#X connect 16 0 32 1;
#X connect 18 0 33 0;
#X connect 18 1 24 0;
#X connect 19 0 33 0;
#X connect 19 1 25 0;
#X connect 20 0 33 0;
#X connect 20 1 26 0;
#X connect 21 0 33 0;
#X connect 21 1 27 0;
#X connect 22 0 18 0;
#X connect 22 1 19 0;
#X connect 22 2 20 0;
#X connect 22 3 21 0;
#X connect 22 5 15 0;
#X connect 23 0 30 0;
#X connect 24 0 23 1;
#X connect 25 0 23 1;
#X connect 26 0 23 1;
#X connect 27 0 23 1;
#X connect 28 0 29 0;
#X connect 28 1 23 0;
#X connect 29 0 41 0;
#X connect 30 0 41 0;
#X connect 32 0 28 0;
#X connect 33 0 32 0;
#X connect 37 0 38 0;
#X connect 38 0 11 0;
#X connect 39 0 40 0;
#X connect 40 0 9 0;
#X connect 44 0 48 0;
#X connect 46 0 41 0;
#X connect 47 0 42 0;
#X connect 48 0 49 0;
#X connect 48 1 46 1;
#X connect 48 2 47 1;
#X connect 49 1 50 0;
#X connect 50 0 47 0;
#X connect 50 1 47 0;
#X connect 50 2 51 0;
#X connect 51 0 46 0;
