#N canvas 215 22 1419 485 10;
#X obj 124 138 comport 2 9600;
#X msg 124 104 close;
#X obj 165 336 mgScaleMap 1000 2000 0 1;
#X obj 124 175 mgByteStreamParserOneChar 10;
#X obj 937 337 mgScaleMap 1000 2000 0 1;
#X obj 124 207 route 65 66 67;
#X obj 969 221 route 68 69 70;
#X text 961 192 d \, e \, f;
#X obj 13 309 sprintf %c%c%c%c;
#X obj 166 310 sprintf %c%c%c%c;
#X obj 938 311 sprintf %c%c%c%c;
#X obj 14 337 mgScaleMap 1000 2000 0 1;
#X obj 316 336 mgScaleMap 1000 2000 0 1;
#X obj 317 310 sprintf %c%c%c%c;
#X obj 1091 337 mgScaleMap 1000 2000 0 1;
#X obj 1092 311 sprintf %c%c%c%c;
#X obj 1248 336 mgScaleMap 1000 2000 0 1;
#X obj 1249 310 sprintf %c%c%c%c;
#X obj 12 434 outlet fader1;
#X obj 332 438 outlet fader3;
#X obj 168 434 outlet fader2;
#X obj 124 8 inlet;
#X obj 124 30 route float;
#X obj 124 52 sel 0 1;
#X obj 943 390 pack f 1;
#X obj 1091 391 pack f 2;
#X obj 1235 390 pack f 3;
#X obj 946 434 outlet buttons;
#X obj 316 358 change;
#X obj 942 364 change;
#X obj 1091 367 change;
#X obj 1235 360 change;
#X obj 165 360 change;
#X obj 15 357 change;
#X obj 183 103 prepend open;
#X obj 185 81 f \$1;
#X text 222 82 arg is port number;
#X obj 624 336 mgScaleMap 1000 2000 0 1;
#X obj 472 309 sprintf %c%c%c%c;
#X obj 625 310 sprintf %c%c%c%c;
#X obj 473 337 mgScaleMap 1000 2000 0 1;
#X obj 775 336 mgScaleMap 1000 2000 0 1;
#X obj 776 310 sprintf %c%c%c%c;
#X obj 775 358 change;
#X obj 624 360 change;
#X obj 474 357 change;
#X obj 483 434 outlet light;
#X obj 631 434 outlet temp;
#X obj 793 434 outlet knock;
#X obj 501 210 route 71 72 73;
#X text 498 189 g \, h \, i;
#X text 228 199 a \, b \, c;
#X text 311 175 10 is /n;
#X connect 0 0 3 0;
#X connect 1 0 0 0;
#X connect 2 0 32 0;
#X connect 3 0 5 0;
#X connect 4 0 29 0;
#X connect 5 0 8 0;
#X connect 5 1 9 0;
#X connect 5 2 13 0;
#X connect 5 3 49 0;
#X connect 6 0 10 0;
#X connect 6 1 15 0;
#X connect 6 2 17 0;
#X connect 8 0 11 0;
#X connect 9 0 2 0;
#X connect 10 0 4 0;
#X connect 11 0 33 0;
#X connect 12 0 28 0;
#X connect 13 0 12 0;
#X connect 14 0 30 0;
#X connect 15 0 14 0;
#X connect 16 0 31 0;
#X connect 17 0 16 0;
#X connect 21 0 22 0;
#X connect 22 0 23 0;
#X connect 22 1 0 0;
#X connect 23 0 1 0;
#X connect 23 1 35 0;
#X connect 24 0 27 0;
#X connect 25 0 27 0;
#X connect 26 0 27 0;
#X connect 28 0 19 0;
#X connect 29 0 24 0;
#X connect 30 0 25 0;
#X connect 31 0 26 0;
#X connect 32 0 20 0;
#X connect 33 0 18 0;
#X connect 34 0 0 0;
#X connect 35 0 34 0;
#X connect 37 0 44 0;
#X connect 38 0 40 0;
#X connect 39 0 37 0;
#X connect 40 0 45 0;
#X connect 41 0 43 0;
#X connect 42 0 41 0;
#X connect 43 0 48 0;
#X connect 44 0 47 0;
#X connect 45 0 46 0;
#X connect 49 0 38 0;
#X connect 49 1 39 0;
#X connect 49 2 42 0;
#X connect 49 3 6 0;
