#N canvas 125 598 655 451 10;
#X obj 108 178 noise~;
#X obj 109 262 *~ 0.1;
#X obj 111 306 dac~;
#X obj 109 228 *~;
#X msg 196 139 0;
#X msg 447 16 \; pd dsp 1;
#X msg 447 51 \; pd dsp 0;
#X obj 50 178 osc~ 210;
#X floatatom 232 143 5 0 0 0 - - -;
#X floatatom 283 138 5 0 0 0 - - -;
#N canvas 0 22 450 300 (subpatch) 0;
#X array array1 300 float 4;
#X coords 0 1.5 299 -1.5 200 140 1;
#X restore 394 224 graph;
#X obj 180 262 tabwrite~ array1;
#X msg 250 234 1;
#X obj 182 235 metro 100;
#X obj 109 109 unpack f f;
#X obj 51 152 mtof;
#X floatatom 85 153 5 0 0 0 - - -;
#X msg 256 204 1;
#X obj 195 182 mgEnvlBtAr;
#X obj 152 71 mgHwNanoKey;
#X obj 207 108 print left;
#X obj 281 109 print right;
#X connect 1 0 2 0;
#X connect 1 0 2 1;
#X connect 3 0 1 0;
#X connect 3 0 11 0;
#X connect 4 0 18 0;
#X connect 7 0 3 0;
#X connect 8 0 18 1;
#X connect 9 0 18 2;
#X connect 12 0 13 0;
#X connect 13 0 11 0;
#X connect 14 0 15 0;
#X connect 14 1 18 0;
#X connect 15 0 7 0;
#X connect 15 0 16 0;
#X connect 18 0 3 1;
#X connect 19 0 14 0;
#X connect 19 0 20 0;
#X connect 19 1 4 0;
#X connect 19 1 21 0;
