#N canvas 1 70 1679 570 10;
#X obj -153 382 outlet;
#X obj -100 382 outlet;
#X obj -56 383 outlet;
#X obj -114 323 mgGateLock6 1;
#X obj 29 325 mgGateLock6 2;
#X obj 162 323 mgGateLock6 3;
#X obj -244 211 f 1;
#X obj 938 122 loadbang;
#X text -65 9 provide a number to select which bundle of outputs is
used;
#X obj -156 353 mgPak2 f f;
#X obj -88 354 mgPak2 f f;
#X obj -2 381 outlet;
#X obj 43 381 outlet;
#X obj 87 382 outlet;
#X obj -5 352 mgPak2 f f;
#X obj 63 353 mgPak2 f f;
#X obj 141 382 outlet;
#X obj 184 382 outlet;
#X obj 228 382 outlet;
#X obj 138 353 mgPak2 f f;
#X obj 206 354 mgPak2 f f;
#X text -480 -1 the number form the RnageCircular is passed to all
GateLocks \; these will only let values apss if the control value is
the same as the box value;
#X text -242 408 provide current output number for display might provude
x/y output pair sfrom master;
#X obj -278 352 mgPak6 f f f f f f;
#X msg -455 257 -1;
#X msg -425 258 1;
#X obj -454 198 route 9 10;
#X obj -455 175 zl rot 1;
#X obj -435 383 outlet displayParameters;
#X obj -277 386 outlet sceneTrigger;
#X msg -246 186 1;
#X msg 1049 351 0.5 0.5;
#X obj -454 224 mgToggle2ToTrigger3;
#X obj 286 382 outlet;
#X obj 329 382 outlet;
#X obj 373 382 outlet;
#X obj 283 353 mgPak2 f f;
#X obj 351 354 mgPak2 f f;
#X obj 434 383 outlet;
#X obj 477 383 outlet;
#X obj 521 383 outlet;
#X obj 431 354 mgPak2 f f;
#X obj 499 355 mgPak2 f f;
#X obj 309 325 mgGateLock6 4;
#X obj 449 325 mgGateLock6 5;
#X obj -450 283 mgRangeCircular 1 8;
#X obj 588 380 outlet;
#X obj 631 380 outlet;
#X obj 675 380 outlet;
#X obj 585 351 mgPak2 f f;
#X obj 653 352 mgPak2 f f;
#X obj 733 380 outlet;
#X obj 776 380 outlet;
#X obj 820 380 outlet;
#X obj 730 351 mgPak2 f f;
#X obj 798 352 mgPak2 f f;
#X obj 881 381 outlet;
#X obj 924 381 outlet;
#X obj 968 381 outlet;
#X obj 878 352 mgPak2 f f;
#X obj 946 353 mgPak2 f f;
#X obj 609 321 mgGateLock6 6;
#X obj 756 323 mgGateLock6 7;
#X obj 896 323 mgGateLock6 8;
#X obj 251 38 inlet jumpToInstrument;
#X obj 103 41 inlet usbId;
#X obj 101 185 mgHwDualAnalogVirtual;
#X connect 3 0 9 0;
#X connect 3 1 9 1;
#X connect 3 2 10 0;
#X connect 3 3 10 1;
#X connect 3 4 2 0;
#X connect 4 0 14 0;
#X connect 4 1 14 1;
#X connect 4 2 15 0;
#X connect 4 3 15 1;
#X connect 4 4 13 0;
#X connect 5 0 19 0;
#X connect 5 1 19 1;
#X connect 5 2 20 0;
#X connect 5 3 20 1;
#X connect 5 4 18 0;
#X connect 6 0 3 0;
#X connect 6 0 4 0;
#X connect 6 0 5 0;
#X connect 6 0 23 4;
#X connect 6 0 43 0;
#X connect 6 0 44 0;
#X connect 6 0 61 0;
#X connect 6 0 62 0;
#X connect 6 0 63 0;
#X connect 7 0 30 0;
#X connect 7 0 31 0;
#X connect 9 0 0 0;
#X connect 10 0 1 0;
#X connect 14 0 11 0;
#X connect 15 0 12 0;
#X connect 19 0 16 0;
#X connect 20 0 17 0;
#X connect 23 0 28 0;
#X connect 24 0 45 0;
#X connect 25 0 45 0;
#X connect 26 0 32 0;
#X connect 26 1 32 1;
#X connect 27 0 26 0;
#X connect 30 0 6 0;
#X connect 31 0 0 0;
#X connect 31 0 1 0;
#X connect 31 0 11 0;
#X connect 31 0 12 0;
#X connect 31 0 16 0;
#X connect 31 0 17 0;
#X connect 31 0 33 0;
#X connect 31 0 34 0;
#X connect 31 0 38 0;
#X connect 31 0 39 0;
#X connect 31 0 46 0;
#X connect 31 0 47 0;
#X connect 31 0 51 0;
#X connect 31 0 52 0;
#X connect 31 0 56 0;
#X connect 31 0 57 0;
#X connect 32 0 24 0;
#X connect 32 1 25 0;
#X connect 32 2 29 0;
#X connect 36 0 33 0;
#X connect 37 0 34 0;
#X connect 41 0 38 0;
#X connect 42 0 39 0;
#X connect 43 0 36 0;
#X connect 43 1 36 1;
#X connect 43 2 37 0;
#X connect 43 3 37 1;
#X connect 43 4 35 0;
#X connect 44 0 41 0;
#X connect 44 1 41 1;
#X connect 44 2 42 0;
#X connect 44 3 42 1;
#X connect 44 4 40 0;
#X connect 45 0 6 0;
#X connect 49 0 46 0;
#X connect 50 0 47 0;
#X connect 54 0 51 0;
#X connect 55 0 52 0;
#X connect 59 0 56 0;
#X connect 60 0 57 0;
#X connect 61 0 49 0;
#X connect 61 1 49 1;
#X connect 61 2 50 0;
#X connect 61 3 50 1;
#X connect 61 4 48 0;
#X connect 62 0 54 0;
#X connect 62 1 54 1;
#X connect 62 2 55 0;
#X connect 62 3 55 1;
#X connect 62 4 53 0;
#X connect 63 0 59 0;
#X connect 63 1 59 1;
#X connect 63 2 60 0;
#X connect 63 3 60 1;
#X connect 63 4 58 0;
#X connect 64 0 45 2;
#X connect 65 0 66 0;
#X connect 66 0 3 1;
#X connect 66 0 4 1;
#X connect 66 0 5 1;
#X connect 66 0 23 0;
#X connect 66 0 43 1;
#X connect 66 0 44 1;
#X connect 66 0 61 1;
#X connect 66 0 62 1;
#X connect 66 0 63 1;
#X connect 66 1 3 2;
#X connect 66 1 4 2;
#X connect 66 1 5 2;
#X connect 66 1 23 1;
#X connect 66 1 43 2;
#X connect 66 1 44 2;
#X connect 66 1 61 2;
#X connect 66 1 62 2;
#X connect 66 1 63 2;
#X connect 66 2 3 3;
#X connect 66 2 4 3;
#X connect 66 2 5 3;
#X connect 66 2 23 2;
#X connect 66 2 43 3;
#X connect 66 2 44 3;
#X connect 66 2 61 3;
#X connect 66 2 62 3;
#X connect 66 2 63 3;
#X connect 66 3 3 4;
#X connect 66 3 4 4;
#X connect 66 3 5 4;
#X connect 66 3 23 3;
#X connect 66 3 43 4;
#X connect 66 3 44 4;
#X connect 66 3 61 4;
#X connect 66 3 62 4;
#X connect 66 3 63 4;
#X connect 66 4 3 5;
#X connect 66 4 4 5;
#X connect 66 4 5 5;
#X connect 66 4 43 5;
#X connect 66 4 44 5;
#X connect 66 4 61 5;
#X connect 66 4 62 5;
#X connect 66 4 63 5;
#X connect 66 5 27 0;
