#N canvas 450 555 1076 481 10;
#X obj 230 45 keyname;
#X msg 255 138 1;
#X msg 281 138 2;
#X msg 309 138 3;
#X msg 335 138 4;
#X msg 375 138 5;
#X msg 401 138 6;
#X msg 429 138 7;
#X msg 455 138 8;
#X msg 502 138 9;
#X msg 527 138 10;
#X obj 364 79 select a s d f q w e r o p;
#X msg 844 154 0;
#X msg 245 230 \$1 1;
#X msg 280 230 \$1 2;
#X msg 317 231 \$1 3;
#X msg 352 231 \$1 4;
#X msg 397 233 \$1 5;
#X msg 432 233 \$1 6;
#X msg 468 234 \$1 7;
#X msg 504 234 \$1 8;
#X msg 543 235 \$1 9;
#X msg 579 235 \$1 10;
#X obj 264 200 mgGate12 ___________________________________________________
;
#X obj 208 167 t f;
#X text 423 31 note: for this to work \, key repeat must be turned
off as a system preference;
#X obj 445 411 outlet;
#X obj -65 100 MouseState;
#X obj -65 59 tgl 15 0 empty empty empty 17 7 0 10 -262144 -1 -1 1
1;
#X obj -65 79 metro 50;
#X obj -61 162 / 1024;
#X obj -39 23 loadbang;
#X obj 43 22 inlet;
#X obj 43 100 unpack f f;
#X obj -3 162 expr 1-($f1/$f2);
#X msg 58 57 1024 768;
#X obj -93 23 inlet;
#X obj -82 189 clip 0 1;
#X obj -14 188 clip 0 1;
#X text 92 14 provide screen as list argument to second inlet;
#X obj -65 338 gate 2;
#X obj 10 338 gate 2;
#X msg 564 139 11;
#X msg 779 148 12;
#X obj 542 110 t b b;
#X obj 582 111 t b b;
#X obj 624 111 t b b;
#X obj 664 112 t b b;
#X obj 708 240 t f;
#X obj 53 304 + 1;
#X obj -88 399 outlet;
#X obj 76 404 outlet;
#X text -79 423 simulate 2 x/y outputs that are toggled based on the
space bar being up or down;
#X obj 46 249 loadbang;
#X msg 41 274 0;
#X obj -29 400 outlet;
#X obj 134 401 outlet;
#X obj 577 407 outlet;
#X obj 536 80 select Left Down Right Up Space;
#X obj 669 306 f;
#X msg 608 139 1;
#X msg 637 139 2;
#X msg 665 139 3;
#X msg 695 139 4;
#X obj 629 279 sel 0 1;
#X msg 635 331 0 11;
#X msg 671 331 \$1 11;
#X text 718 326 button 11 has 5 states: 0-4;
#X text 802 176 all else close gate;
#X obj -15 136 change;
#X obj -74 137 change;
#X connect 0 0 24 0;
#X connect 0 1 11 0;
#X connect 1 0 23 0;
#X connect 2 0 23 0;
#X connect 3 0 23 0;
#X connect 4 0 23 0;
#X connect 5 0 23 0;
#X connect 6 0 23 0;
#X connect 7 0 23 0;
#X connect 8 0 23 0;
#X connect 9 0 23 0;
#X connect 10 0 23 0;
#X connect 11 0 1 0;
#X connect 11 1 2 0;
#X connect 11 2 3 0;
#X connect 11 3 4 0;
#X connect 11 4 5 0;
#X connect 11 5 6 0;
#X connect 11 6 7 0;
#X connect 11 7 8 0;
#X connect 11 8 9 0;
#X connect 11 9 10 0;
#X connect 11 10 58 0;
#X connect 12 0 23 0;
#X connect 13 0 26 0;
#X connect 14 0 26 0;
#X connect 15 0 26 0;
#X connect 16 0 26 0;
#X connect 17 0 26 0;
#X connect 18 0 26 0;
#X connect 19 0 26 0;
#X connect 20 0 26 0;
#X connect 21 0 57 0;
#X connect 22 0 57 0;
#X connect 23 0 13 0;
#X connect 23 1 14 0;
#X connect 23 2 15 0;
#X connect 23 3 16 0;
#X connect 23 4 17 0;
#X connect 23 5 18 0;
#X connect 23 6 19 0;
#X connect 23 7 20 0;
#X connect 23 8 21 0;
#X connect 23 9 22 0;
#X connect 23 10 64 0;
#X connect 23 11 48 0;
#X connect 24 0 23 1;
#X connect 27 1 70 0;
#X connect 27 2 69 0;
#X connect 28 0 29 0;
#X connect 29 0 27 0;
#X connect 30 0 37 0;
#X connect 31 0 28 0;
#X connect 31 0 35 0;
#X connect 32 0 33 0;
#X connect 33 0 30 1;
#X connect 33 1 34 1;
#X connect 34 0 38 0;
#X connect 35 0 33 0;
#X connect 36 0 28 0;
#X connect 37 0 40 1;
#X connect 38 0 41 1;
#X connect 40 0 50 0;
#X connect 40 1 51 0;
#X connect 41 0 55 0;
#X connect 41 1 56 0;
#X connect 42 0 23 0;
#X connect 43 0 23 0;
#X connect 44 0 42 0;
#X connect 44 1 60 0;
#X connect 45 0 42 0;
#X connect 45 1 61 0;
#X connect 46 0 42 0;
#X connect 46 1 62 0;
#X connect 47 0 42 0;
#X connect 47 1 63 0;
#X connect 48 0 49 0;
#X connect 49 0 40 0;
#X connect 49 0 41 0;
#X connect 53 0 54 0;
#X connect 54 0 49 0;
#X connect 58 0 44 0;
#X connect 58 1 45 0;
#X connect 58 2 46 0;
#X connect 58 3 47 0;
#X connect 58 4 43 0;
#X connect 58 5 12 0;
#X connect 59 0 66 0;
#X connect 60 0 59 1;
#X connect 61 0 59 1;
#X connect 62 0 59 1;
#X connect 63 0 59 1;
#X connect 64 0 65 0;
#X connect 64 1 59 0;
#X connect 65 0 26 0;
#X connect 66 0 26 0;
#X connect 69 0 34 0;
#X connect 70 0 30 0;
