#N canvas 696 22 598 314 16;
#X floatatom 78 22 2 0 10 0 - - -;
#X obj 313 46 inlet;
#X floatatom 122 22 5 0 10 0 - - -;
#X floatatom 122 54 5 0 10 0 - - -;
#X floatatom 184 22 5 0 10 0 - - -;
#X floatatom 184 54 5 0 10 0 - - -;
#X text 107 25 x;
#X text 107 53 y;
#X text 62 25 n;
#X text 119 -1 1;
#X text 183 -1 2;
#X obj 307 88 unpack f f f f f f;
#X floatatom 16 22 2 0 10 0 - - -;
#X text 1 25 s;
#X text 302 155 xy1 \, xy2 \, instrument \, scee;
#X connect 1 0 11 0;
#X connect 11 0 2 0;
#X connect 11 1 3 0;
#X connect 11 2 4 0;
#X connect 11 3 5 0;
#X connect 11 4 0 0;
#X connect 11 5 12 0;
#X coords 0 -1 1 1 240 80 2 0 0;
