#N canvas 433 735 863 289 10;
#X obj 56 86 mgHwNanoKontrolContinuous __________________________________
;
#X floatatom 28 138 5 0 0 0 - - -;
#X floatatom 62 138 5 0 0 0 - - -;
#X floatatom 107 138 5 0 0 0 - - -;
#X floatatom 141 138 5 0 0 0 - - -;
#X floatatom 190 138 5 0 0 0 - - -;
#X floatatom 224 138 5 0 0 0 - - -;
#X floatatom 273 138 5 0 0 0 - - -;
#X floatatom 307 138 5 0 0 0 - - -;
#X floatatom 354 136 5 0 0 0 - - -;
#X floatatom 388 136 5 0 0 0 - - -;
#X floatatom 433 136 5 0 0 0 - - -;
#X floatatom 467 136 5 0 0 0 - - -;
#X floatatom 516 136 5 0 0 0 - - -;
#X floatatom 550 136 5 0 0 0 - - -;
#X floatatom 599 136 5 0 0 0 - - -;
#X floatatom 633 136 5 0 0 0 - - -;
#X floatatom 690 136 5 0 0 0 - - -;
#X floatatom 724 136 5 0 0 0 - - -;
#X connect 0 0 1 0;
#X connect 0 1 2 0;
#X connect 0 2 3 0;
#X connect 0 3 4 0;
#X connect 0 4 5 0;
#X connect 0 5 6 0;
#X connect 0 6 7 0;
#X connect 0 7 8 0;
#X connect 0 8 9 0;
#X connect 0 9 10 0;
#X connect 0 10 11 0;
#X connect 0 11 12 0;
#X connect 0 12 13 0;
#X connect 0 13 14 0;
#X connect 0 14 15 0;
#X connect 0 15 16 0;
#X connect 0 16 17 0;
#X connect 0 17 18 0;
