#N canvas 462 308 823 440 10;
#X obj -144 362 outlet;
#X obj -91 362 outlet;
#X obj -31 363 outlet;
#X obj -90 293 mgGateLock6 1;
#X obj 77 293 mgGateLock6 2;
#X obj -283 247 f 1;
#X obj 229 100 loadbang;
#X obj -147 333 mgPak2 f f;
#X obj -79 334 mgPak2 f f;
#X obj -113 70 mgHwDualAnalogSixaxis;
#X obj 65 360 outlet;
#X obj 118 360 outlet;
#X obj 178 361 outlet;
#X obj 62 331 mgPak2 f f;
#X obj 130 332 mgPak2 f f;
#X text -255 386 provide current output number for display might provude
x/y output pair sfrom master;
#X obj -291 330 mgPak6 f f f f f f;
#X msg -445 182 -1;
#X msg -415 183 1;
#X obj -445 159 mgToggle2ToTrigger3;
#X obj -445 133 route 9 10;
#X obj -439 361 outlet displayParameters;
#X obj -280 361 outlet sceneTrigger;
#X obj -446 110 zl rot 1;
#X msg -283 221 1;
#X msg 207 333 0.5 0.5;
#X text -480 -1 the number form the RangeCircular is passed to all
GateLocks // these will only let values pass if the control value is
the same as the box value;
#X obj -445 209 mgRangeCircular 1 2;
#X obj -113 44 inlet usbId;
#X obj 37 49 inlet jumpToInstrument;
#X connect 3 0 7 0;
#X connect 3 1 7 1;
#X connect 3 2 8 0;
#X connect 3 3 8 1;
#X connect 3 4 2 0;
#X connect 4 0 13 0;
#X connect 4 1 13 1;
#X connect 4 2 14 0;
#X connect 4 3 14 1;
#X connect 4 4 12 0;
#X connect 5 0 3 0;
#X connect 5 0 4 0;
#X connect 5 0 16 4;
#X connect 6 0 24 0;
#X connect 6 0 25 0;
#X connect 7 0 0 0;
#X connect 8 0 1 0;
#X connect 9 0 3 1;
#X connect 9 0 4 1;
#X connect 9 0 16 0;
#X connect 9 1 3 2;
#X connect 9 1 4 2;
#X connect 9 1 16 1;
#X connect 9 2 3 3;
#X connect 9 2 4 3;
#X connect 9 2 16 2;
#X connect 9 3 3 4;
#X connect 9 3 4 4;
#X connect 9 3 16 3;
#X connect 9 4 3 5;
#X connect 9 4 4 5;
#X connect 9 5 23 0;
#X connect 13 0 10 0;
#X connect 14 0 11 0;
#X connect 16 0 21 0;
#X connect 17 0 27 0;
#X connect 18 0 27 0;
#X connect 19 0 17 0;
#X connect 19 1 18 0;
#X connect 19 2 22 0;
#X connect 20 0 19 0;
#X connect 20 1 19 1;
#X connect 23 0 20 0;
#X connect 24 0 5 0;
#X connect 25 0 11 0;
#X connect 25 0 10 0;
#X connect 25 0 1 0;
#X connect 25 0 0 0;
#X connect 27 0 5 0;
#X connect 28 0 9 0;
#X connect 29 0 27 2;
