#N canvas 386 408 832 461 10;
#X obj -117 52 inlet;
#X obj -148 368 outlet;
#X obj -95 368 outlet;
#X obj -35 369 outlet;
#X obj -254 193 f 1;
#X obj -184 56 loadbang;
#X text -65 9 provide a number to select which bundle of outputs is
used;
#X obj -151 339 mgPak2 f f;
#X obj -83 340 mgPak2 f f;
#X obj -117 76 mgHwDualAnalog;
#X text -259 392 provide current output number for display might provude
x/y output pair sfrom master;
#X obj -274 338 mgPak6 f f f f f f;
#X msg -450 251 -1;
#X msg -420 252 1;
#X obj -449 218 mgToggle2ToTrigger3;
#X obj -449 192 route 9 10;
#X obj -443 368 outlet displayParameters;
#X obj -284 367 outlet sceneTrigger;
#X obj -450 169 zl rot 1;
#X msg -255 166 1;
#X text -480 -1 simulate the interface and functionality of larger
poly interfaces \, even though this uses only one;
#X msg 29 341 0.5 0.5;
#X obj -445 277 mgRangeCircular 1 1;
#X obj 29 51 inlet jumpToInstrument;
#X connect 0 0 9 0;
#X connect 4 0 11 4;
#X connect 5 0 19 0;
#X connect 5 0 21 0;
#X connect 7 0 1 0;
#X connect 8 0 2 0;
#X connect 9 0 11 0;
#X connect 9 0 7 0;
#X connect 9 1 11 1;
#X connect 9 1 7 1;
#X connect 9 2 11 2;
#X connect 9 2 8 0;
#X connect 9 3 11 3;
#X connect 9 3 8 1;
#X connect 9 4 3 0;
#X connect 9 5 18 0;
#X connect 11 0 16 0;
#X connect 12 0 22 0;
#X connect 13 0 22 0;
#X connect 14 0 12 0;
#X connect 14 1 13 0;
#X connect 14 2 17 0;
#X connect 15 0 14 0;
#X connect 15 1 14 1;
#X connect 18 0 15 0;
#X connect 19 0 4 0;
#X connect 21 0 1 0;
#X connect 21 0 2 0;
#X connect 22 0 4 0;
#X connect 23 0 22 2;
