#N canvas 107 22 1570 777 10;
#X obj 110 20 hidin;
#X msg 170 -34 open \$1;
#X text 234 -96 device number: need to get by printing [hid] outpout
and looking at list;
#X obj 88 -88 route bang float list;
#X text 83 -163 bang to print list \; number to set device number;
#X obj 129 -59 t b f b;
#X msg 128 -35 start;
#X text 434 -27 bang printes a lost if devices \; after providing a
number \, need to send a start message \; here \, always send a stop
message first;
#X msg 226 -33 stop;
#X obj 110 83 route 1 2 3 4;
#X obj 18 273 f;
#X obj 47 206 moses 32639;
#X obj 38 229 mgScaleMap 32639 0 0.5 1;
#X obj 47 252 mgScaleMap 65535 32639 0 0.5;
#X msg 18 206 0.5;
#X obj 18 183 sel 32639;
#X obj 401 -132 inlet test;
#X obj 88 -119 inlet controlMessages;
#X obj 18 298 clip 0 1;
#X obj 222 274 f;
#X msg 222 207 0.5;
#X obj 222 299 clip 0 1;
#X obj 88 344 outlet y1;
#X obj 17 343 outlet x1;
#X obj 222 184 sel 32896;
#X obj 251 207 moses 32896;
#X obj 242 230 mgScaleMap 0 32896 0 0.5;
#X obj 251 253 mgScaleMap 32896 65535 0.5 1;
#X obj 420 351 outlet x2;
#X obj 497 352 outlet y2;
#X obj 425 281 f;
#X obj 454 214 moses 32639;
#X obj 445 237 mgScaleMap 32639 0 0.5 1;
#X obj 454 260 mgScaleMap 65535 32639 0 0.5;
#X msg 425 214 0.5;
#X obj 425 191 sel 32639;
#X obj 425 306 clip 0 1;
#X obj 629 282 f;
#X msg 629 215 0.5;
#X obj 629 307 clip 0 1;
#X obj 629 192 sel 32896;
#X obj 658 215 moses 32896;
#X obj 649 238 mgScaleMap 0 32896 0 0.5;
#X obj 658 261 mgScaleMap 32896 65535 0.5 1;
#X obj 810 189 pack f 1;
#X obj 863 189 pack f 2;
#X obj 970 189 pack f 4;
#X obj 916 189 pack f 3;
#X obj 1024 189 pack f 5;
#X obj 1077 189 pack f 6;
#X obj 821 149 route 9 7 8 10 11 12;
#X obj 1273 145 route 13 14;
#X obj 1271 191 pack f 9;
#X obj 1332 191 pack f 10;
#X obj 905 351 outlet buttonMain;
#X obj 1276 354 outlet buttonSwitcher;
#X obj 1143 150 route 5;
#X obj 1143 189 moses 32768;
#X text 1041 88 back bottom left and right are given as 5 \, with continueous
values split at 32768;
#X obj 1143 243 change;
#X obj 1198 243 change;
#X obj 1143 266 pack f 7;
#X obj 1199 266 pack f 8;
#X obj 1143 216 > 40000;
#X obj 1198 216 < 26000;
#X msg 1398 244 1;
#X msg 1427 245 2;
#X msg 1458 243 3;
#X msg 1487 244 4;
#X msg 1518 245 0;
#X obj 1381 279 pack f 11;
#X obj 1426 190 change;
#X obj 1426 147 route 6;
#X obj 1427 215 sel 7 5 3 1 0;
#X connect 0 0 9 0;
#X connect 1 0 0 0;
#X connect 3 0 0 0;
#X connect 3 1 5 0;
#X connect 5 0 6 0;
#X connect 5 1 1 0;
#X connect 5 2 8 0;
#X connect 6 0 0 0;
#X connect 8 0 0 0;
#X connect 9 0 15 0;
#X connect 9 1 24 0;
#X connect 9 2 35 0;
#X connect 9 3 40 0;
#X connect 9 4 50 0;
#X connect 10 0 18 0;
#X connect 11 0 12 0;
#X connect 11 1 13 0;
#X connect 12 0 10 0;
#X connect 13 0 10 0;
#X connect 14 0 10 0;
#X connect 15 0 14 0;
#X connect 15 1 11 0;
#X connect 16 0 9 0;
#X connect 17 0 3 0;
#X connect 18 0 22 0;
#X connect 19 0 21 0;
#X connect 20 0 19 0;
#X connect 21 0 23 0;
#X connect 24 0 20 0;
#X connect 24 1 25 0;
#X connect 25 0 26 0;
#X connect 25 1 27 0;
#X connect 26 0 19 0;
#X connect 27 0 19 0;
#X connect 30 0 36 0;
#X connect 31 0 32 0;
#X connect 31 1 33 0;
#X connect 32 0 30 0;
#X connect 33 0 30 0;
#X connect 34 0 30 0;
#X connect 35 0 34 0;
#X connect 35 1 31 0;
#X connect 36 0 29 0;
#X connect 37 0 39 0;
#X connect 38 0 37 0;
#X connect 39 0 28 0;
#X connect 40 0 38 0;
#X connect 40 1 41 0;
#X connect 41 0 42 0;
#X connect 41 1 43 0;
#X connect 42 0 37 0;
#X connect 43 0 37 0;
#X connect 44 0 54 0;
#X connect 45 0 54 0;
#X connect 46 0 54 0;
#X connect 47 0 54 0;
#X connect 48 0 54 0;
#X connect 49 0 54 0;
#X connect 50 0 44 0;
#X connect 50 1 45 0;
#X connect 50 2 47 0;
#X connect 50 3 46 0;
#X connect 50 4 48 0;
#X connect 50 5 49 0;
#X connect 50 6 56 0;
#X connect 51 0 52 0;
#X connect 51 1 53 0;
#X connect 51 2 72 0;
#X connect 52 0 55 0;
#X connect 53 0 55 0;
#X connect 56 0 57 0;
#X connect 56 1 51 0;
#X connect 57 0 64 0;
#X connect 57 1 63 0;
#X connect 59 0 61 0;
#X connect 60 0 62 0;
#X connect 61 0 54 0;
#X connect 62 0 54 0;
#X connect 63 0 59 0;
#X connect 64 0 60 0;
#X connect 65 0 70 0;
#X connect 66 0 70 0;
#X connect 67 0 70 0;
#X connect 68 0 70 0;
#X connect 69 0 70 0;
#X connect 70 0 54 0;
#X connect 71 0 73 0;
#X connect 72 0 71 0;
#X connect 73 0 65 0;
#X connect 73 1 66 0;
#X connect 73 2 67 0;
#X connect 73 3 68 0;
#X connect 73 4 69 0;
