#N canvas 818 22 696 289 10;
#X obj 7 100 print 1;
#X obj 70 147 print 2;
#X obj 134 151 print 3;
#X msg -36 -54 \; pd dsp 1;
#X msg -36 -17 \; pd dsp 0;
#X obj 364 78 mgHwDualAnalogPolyUi;
#X obj -19 79 bng 15 250 50 0 empty empty empty 17 7 0 10 -262144 -1
-1;
#X obj 198 151 print 4;
#X obj 258 146 print 5;
#X msg 129 -19 bang;
#X obj -27 41 mgHwDualAnalogPoly6Virtual ________________________________________
;
#X obj 309 144 print 6;
#X msg 98 -21 7;
#X msg 264 -23 3;
#X msg 291 -23 5;
#X msg 65 -21 2;
#X connect 9 0 10 0;
#X connect 10 0 5 0;
#X connect 10 1 6 0;
#X connect 10 4 0 0;
#X connect 10 7 1 0;
#X connect 10 10 2 0;
#X connect 10 13 7 0;
#X connect 10 16 8 0;
#X connect 10 19 11 0;
#X connect 12 0 10 0;
#X connect 13 0 10 1;
#X connect 14 0 10 1;
#X connect 15 0 10 0;
