#N canvas 424 717 450 300 10;
#X obj 373 165 print;
#X floatatom 127 170 5 0 0 0 - - -;
#X floatatom 185 169 5 0 0 0 - - -;
#X floatatom 232 169 5 0 0 0 - - -;
#X msg 183 56 1;
#X msg 218 55 0;
#X obj 204 106 mgHwDangerShield 2;
#X floatatom 208 203 5 0 0 0 - - -;
#X floatatom 266 202 5 0 0 0 - - -;
#X floatatom 313 202 5 0 0 0 - - -;
#X connect 4 0 6 0;
#X connect 5 0 6 0;
#X connect 6 0 1 0;
#X connect 6 1 2 0;
#X connect 6 2 3 0;
#X connect 6 3 7 0;
#X connect 6 4 8 0;
#X connect 6 5 9 0;
#X connect 6 6 0 0;
