#N canvas 221 22 1459 684 10;
#X obj 496 203 hid;
#X msg 332 197 print;
#X msg 386 199 1;
#X obj 500 230 route abs;
#X msg 423 199 open \$1;
#X obj 602 384 route key;
#X obj 27 289 route abs_x abs_y;
#X obj 515 444 pack f 1;
#X obj 576 444 pack f 2;
#X obj 699 444 pack f 4;
#X obj 638 444 pack f 3;
#X obj 770 441 pack f 5;
#X obj 831 441 pack f 6;
#X obj 893 441 pack f 7;
#X obj 954 441 pack f 8;
#X obj 879 556 pack f 9;
#X obj 940 556 pack f 10;
#X obj 27 558 outlet;
#X obj 301 559 outlet;
#X obj 609 555 outlet;
#X text 445 120 device number: need to get by printing [hid] outpout
and looking at list;
#X obj 299 105 inlet;
#X obj 387 175 t b f;
#X msg 1163 467 1;
#X msg 1192 468 2;
#X msg 1223 466 3;
#X msg 1252 467 4;
#X msg 1283 468 0;
#X obj 119 553 outlet;
#X obj 401 560 outlet;
#X text 141 583 x1 \, y1;
#X text 414 591 x2 \, y2;
#X text 867 606 buttons 9-10;
#X obj 877 588 outlet;
#X obj 1146 502 pack f 11;
#X text 1099 530 remap numbers to parallel buttons \; 0 is center position
\; label as a single button that has multiple values;
#X obj 299 128 route bang float list;
#X text 101 605 individual joystick outputs for xy1 \, xy2;
#X text 113 624 values sacled between 0 and 1;
#X text 603 584 buttons 1-8 \, 11;
#X text 570 618 buttons 1-8 have states of 0 \, 1;
#X text 587 638 buggon 11 has states of 0 \, 1 \, 2 \, 3 \, 4;
#X text 582 605 list pairs of state \, keyId;
#X text 854 622 buttons 9 \, 10 have states of 0 \, 1;
#X text 294 53 bang to print list \; number to set device number;
#X obj 1139 283 route abs_hat0y abs_hat0x;
#X obj 1182 428 sel 1 -1 0;
#X obj 1265 427 sel 1 -1 0;
#X text 1197 330 y: up is 1 \, down is -1;
#X text 1182 355 x: left is -1 \, right is 1;
#X text 1103 578 dpad directions: left is 1 \, down is 2 \, right is
3 and up is 4;
#X obj 600 408 route btn_3 btn_0 btn_1 btn_4 btn_6 btn_7;
#X obj 304 291 route abs_rx abs_ry;
#X obj 856 291 route abs_z abs_rz;
#X obj 858 331 > 0;
#X obj 858 358 change;
#X obj 911 332 > 0;
#X obj 911 359 change;
#X text 750 257 simulate button behavior woth continuous controls with
back triggers;
#X obj 1026 406 route btn_12 btn_11;
#X text 1019 360 12 is big x button \; 11 is teh start button \, found
on the right of the big button: this fill in for 9 and 10;
#X obj 1020 470 change;
#X obj 1066 471 change;
#X text 918 80 mapping of the chillstream to look like other dual analog
interfaces \; note: the chillstream does not work on mac platforms
;
#X msg 27 343 0.5;
#X obj 27 410 f;
#X obj 66 342 moses 0;
#X obj 27 320 sel 128;
#X obj 66 388 mgScaleMap -1928 -32768 0.5 0;
#X obj 57 365 mgScaleMap 2184 32767 0.5 1;
#X msg 302 340 0.5;
#X obj 302 407 f;
#X obj 341 339 moses 0;
#X obj 302 317 sel 128;
#X obj 341 385 mgScaleMap -1928 -32768 0.5 0;
#X obj 332 362 mgScaleMap 2184 32767 0.5 1;
#X obj 67 423 sel -129;
#X msg 67 445 0.5;
#X obj 67 510 f;
#X obj 112 446 moses 0;
#X obj 112 466 mgScaleMap -2185 -32768 0.5 1;
#X obj 121 489 mgScaleMap 1928 32767 0.5 0;
#X obj 332 437 sel -129;
#X msg 332 459 0.5;
#X obj 332 524 f;
#X obj 377 460 moses 0;
#X obj 377 480 mgScaleMap -2185 -32768 0.5 1;
#X obj 386 503 mgScaleMap 1928 32767 0.5 0;
#X connect 0 0 3 0;
#X connect 1 0 0 0;
#X connect 2 0 0 0;
#X connect 3 0 6 0;
#X connect 3 1 5 0;
#X connect 4 0 0 0;
#X connect 5 0 51 0;
#X connect 6 0 67 0;
#X connect 6 1 76 0;
#X connect 6 2 52 0;
#X connect 7 0 19 0;
#X connect 8 0 19 0;
#X connect 9 0 19 0;
#X connect 10 0 19 0;
#X connect 11 0 19 0;
#X connect 12 0 19 0;
#X connect 13 0 19 0;
#X connect 14 0 19 0;
#X connect 15 0 33 0;
#X connect 16 0 33 0;
#X connect 21 0 36 0;
#X connect 22 0 2 0;
#X connect 22 1 4 0;
#X connect 23 0 34 0;
#X connect 24 0 34 0;
#X connect 25 0 34 0;
#X connect 26 0 34 0;
#X connect 27 0 34 0;
#X connect 34 0 19 0;
#X connect 36 0 1 0;
#X connect 36 1 22 0;
#X connect 36 2 0 0;
#X connect 45 0 46 0;
#X connect 45 1 47 0;
#X connect 46 0 26 0;
#X connect 46 1 24 0;
#X connect 46 2 27 0;
#X connect 47 0 25 0;
#X connect 47 1 23 0;
#X connect 47 2 27 0;
#X connect 51 0 7 0;
#X connect 51 1 8 0;
#X connect 51 2 10 0;
#X connect 51 3 9 0;
#X connect 51 4 11 0;
#X connect 51 5 12 0;
#X connect 51 6 59 0;
#X connect 52 0 73 0;
#X connect 52 1 82 0;
#X connect 52 2 53 0;
#X connect 53 0 54 0;
#X connect 53 1 56 0;
#X connect 53 2 45 0;
#X connect 54 0 55 0;
#X connect 55 0 13 0;
#X connect 56 0 57 0;
#X connect 57 0 14 0;
#X connect 59 0 61 0;
#X connect 59 1 62 0;
#X connect 61 0 15 0;
#X connect 62 0 16 0;
#X connect 64 0 65 0;
#X connect 65 0 17 0;
#X connect 66 0 68 0;
#X connect 66 1 69 0;
#X connect 67 0 64 0;
#X connect 67 1 66 0;
#X connect 68 0 65 0;
#X connect 69 0 65 0;
#X connect 70 0 71 0;
#X connect 71 0 18 0;
#X connect 72 0 74 0;
#X connect 72 1 75 0;
#X connect 73 0 70 0;
#X connect 73 1 72 0;
#X connect 74 0 71 0;
#X connect 75 0 71 0;
#X connect 76 0 77 0;
#X connect 76 1 79 0;
#X connect 77 0 78 0;
#X connect 78 0 28 0;
#X connect 79 0 80 0;
#X connect 79 1 81 0;
#X connect 80 0 78 0;
#X connect 81 0 78 0;
#X connect 82 0 83 0;
#X connect 82 1 85 0;
#X connect 83 0 84 0;
#X connect 84 0 29 0;
#X connect 85 0 86 0;
#X connect 85 1 87 0;
#X connect 86 0 84 0;
#X connect 87 0 84 0;
