#N canvas 617 216 450 300 10;
#X obj 95 188;
#X obj 139 147 bng 15 250 50 0 empty empty empty 17 7 0 10 -262144
-1 -1;
#X obj 179 150 bng 15 250 50 0 empty empty empty 17 7 0 10 -262144
-1 -1;
#X obj 225 147 bng 15 250 50 0 empty empty empty 17 7 0 10 -262144
-1 -1;
#X obj 264 143 bng 15 250 50 0 empty empty empty 17 7 0 10 -262144
-1 -1;
#X obj 312 147 bng 15 250 50 0 empty empty empty 17 7 0 10 -262144
-1 -1;
#X msg 135 30 0 1;
#X msg 178 31 1 11;
#X msg 232 38 2 11;
#X msg 277 35 0 11;
#X msg 87 34 1 7;
#X obj 132 63 t l;
#X msg 225 15 3 11;
#X obj 58 127;
#X msg 154 5 4 11;
#X obj 142 88 mgHwDualAnalogButtonFilter 11;
#X connect 6 0 11 0;
#X connect 7 0 11 0;
#X connect 8 0 11 0;
#X connect 9 0 11 0;
#X connect 10 0 11 0;
#X connect 11 0 15 0;
#X connect 12 0 11 0;
#X connect 14 0 11 0;
#X connect 15 0 1 0;
#X connect 15 1 2 0;
#X connect 15 2 3 0;
#X connect 15 3 4 0;
#X connect 15 4 5 0;
