#N canvas 710 360 829 450 10;
#X obj 67 235 print xy1;
#X obj 149 237 print xy2;
#X obj 352 239 print buttons9/10;
#X obj 149 201 mgPak2 f f;
#X obj 67 201 mgPak2 f f;
#X text 471 243 buttons 9/10 out here;
#X obj 217 238 print buttonsMain;
#X msg 75 100 bang;
#X floatatom 139 103 5 0 0 0 - - -;
#X text 64 41 press bang to get list of usb devices \; provide the
number of the desired device as an argument;
#X obj 505 60 prepend 1;
#X obj 601 60 hsl 128 15 65535 0 0 0 empty empty empty -2 -8 0 10 -262144
-1 -1 0 1;
#X obj 568 59 int;
#X text 484 58 y1;
#X obj 599 37 hsl 128 15 0 65535 0 0 empty empty empty -2 -8 0 10 -262144
-1 -1 0 1;
#X obj 566 36 int;
#X text 482 35 x1;
#X obj 503 37 prepend 2;
#X obj 601 107 hsl 128 15 65535 0 0 0 empty empty empty -2 -8 0 10
-262144 -1 -1 0 1;
#X obj 568 106 int;
#X obj 599 84 hsl 128 15 0 65535 0 0 empty empty empty -2 -8 0 10 -262144
-1 -1 0 1;
#X obj 566 83 int;
#X text 482 82 x2;
#X text 484 105 y2;
#X obj 505 107 prepend 3;
#X obj 503 84 prepend 4;
#X text 77 270 left joystick is xy1 \, with center at .5/.5 \, top
right at 1/1 \, and bottom left at 0/0. right joystick is xy2. buttons
should be lists of two values: state \, id // e.g. \, button 7 on should
be given as 1 7 \, button 7 off should be 0 7 // buttons 1-4 are top
4 of controller (left \, down \, right \, up) / buttons 5-8 are back
4 of controller (left top \, right top \, left bottom \, right bottom)
/ buttons 9 \, 10 are in the top center of the controller // the dpad
is represented as button 11 \, with states 0 \, 1 \, 2 \, 3 \, 4 \,
where states zero is the off position;
#X obj 600 140 hsl 128 15 65535 0 0 0 empty empty empty -2 -8 0 10
-262144 -1 -1 0 1;
#X obj 567 139 int;
#X text 475 139 7/8;
#X obj 504 140 prepend 5;
#X obj 516 174 tgl 15 0 empty empty empty 17 7 0 10 -262144 -1 -1 0
1;
#X obj 515 192 prepend 9;
#X obj 141 150 mgHwDualAnalogF310Hidin;
#X connect 3 0 1 0;
#X connect 4 0 0 0;
#X connect 7 0 33 0;
#X connect 8 0 33 0;
#X connect 10 0 33 1;
#X connect 11 0 12 0;
#X connect 12 0 10 0;
#X connect 14 0 15 0;
#X connect 15 0 17 0;
#X connect 17 0 33 1;
#X connect 18 0 19 0;
#X connect 19 0 24 0;
#X connect 20 0 21 0;
#X connect 21 0 25 0;
#X connect 24 0 33 1;
#X connect 25 0 33 1;
#X connect 27 0 28 0;
#X connect 28 0 30 0;
#X connect 30 0 33 1;
#X connect 31 0 32 0;
#X connect 32 0 33 1;
#X connect 33 0 4 0;
#X connect 33 1 4 1;
#X connect 33 2 3 0;
#X connect 33 3 3 1;
#X connect 33 4 6 0;
#X connect 33 5 2 0;
