#N canvas 910 699 663 347 10;
#X obj 91 59 dumpOSC 8000;
#X obj 73 178 print x;
#X obj 89 103 mgHwTouchOscAccelerometer;
#X obj 71 154 gate;
#X obj 50 155 tgl 15 0 empty empty empty 17 7 0 10 -262144 -1 -1 0
1;
#X obj 157 152 gate;
#X obj 136 153 tgl 15 0 empty empty empty 17 7 0 10 -262144 -1 -1 0
1;
#X obj 254 148 gate;
#X obj 233 149 tgl 15 0 empty empty empty 17 7 0 10 -262144 -1 -1 0
1;
#X obj 159 175 print y;
#X obj 256 172 print z;
#X connect 0 0 2 0;
#X connect 2 0 3 1;
#X connect 2 1 5 1;
#X connect 2 2 7 1;
#X connect 3 0 1 0;
#X connect 4 0 3 0;
#X connect 5 0 9 0;
#X connect 6 0 5 0;
#X connect 7 0 10 0;
#X connect 8 0 7 0;
