#N canvas 399 538 512 297 10;
#X obj 91 42 OSCroute /accxyz;
#X obj 91 84 unpack f f f;
#X obj 26 241 outlet x;
#X obj 183 240 outlet y;
#X obj 335 242 outlet z;
#X obj 26 163 change;
#X obj 182 165 change;
#X obj 335 161 change;
#X obj 26 210 clip 0 1;
#X obj 183 214 clip 0 1;
#X obj 335 214 clip 0 1;
#X obj 182 144 i;
#X obj 182 122 * 100;
#X obj 182 191 mgScaleMap -100 100 0 1;
#X obj 26 139 i;
#X obj 26 117 * 100;
#X obj 335 138 i;
#X obj 335 116 * 100;
#X obj 335 191 mgScaleMap -100 100 0 1;
#X obj 26 187 mgScaleMap -100 100 0 1;
#X obj 91 12 inlet rawOsc;
#X connect 0 0 1 0;
#X connect 1 0 15 0;
#X connect 1 1 12 0;
#X connect 1 2 17 0;
#X connect 5 0 19 0;
#X connect 6 0 13 0;
#X connect 7 0 18 0;
#X connect 8 0 2 0;
#X connect 9 0 3 0;
#X connect 10 0 4 0;
#X connect 11 0 6 0;
#X connect 12 0 11 0;
#X connect 13 0 9 0;
#X connect 14 0 5 0;
#X connect 15 0 14 0;
#X connect 16 0 7 0;
#X connect 17 0 16 0;
#X connect 18 0 10 0;
#X connect 19 0 8 0;
#X connect 20 0 0 0;
