#N canvas 223 351 1424 739 10;
#X obj 244 201 hid;
#X msg 29 197 print;
#X msg 134 197 1;
#X obj 244 226 route abs;
#X obj -34 314 mgScaleMap 0 255 0 1;
#X obj 105 315 mgScaleMap 0 255 1 0;
#X obj 254 313 mgScaleMap 0 255 0 1;
#X obj 393 314 mgScaleMap 0 255 1 0;
#X msg 171 197 open \$1;
#X obj 399 355 route key;
#X obj -34 290 route abs_x abs_y;
#X obj 253 290 route abs_z abs_rz;
#X obj 361 436 pack f 1;
#X obj 422 436 pack f 2;
#X obj 545 436 pack f 4;
#X obj 484 436 pack f 3;
#X obj 616 433 pack f 5;
#X obj 677 433 pack f 6;
#X obj 739 433 pack f 7;
#X obj 800 433 pack f 8;
#X obj 627 554 pack f 9;
#X obj 688 554 pack f 10;
#X obj -3 549 outlet;
#X obj 137 551 outlet;
#X obj 357 553 outlet;
#X text 193 118 device number: need to get by printing [hid] outpout
and looking at list;
#X obj 47 103 inlet;
#X obj 135 173 t b f;
#X obj 886 282 route hatswitch;
#X obj 888 433 sel 6 4 2 0 8;
#X msg 859 462 1;
#X msg 888 463 2;
#X msg 919 461 3;
#X msg 948 462 4;
#X msg 979 463 0;
#X obj 49 550 outlet;
#X obj 210 551 outlet;
#X text 10 584 x1 \, y1;
#X text 162 589 x2 \, y2;
#X obj 736 377 route btn_8 btn_9;
#X obj 397 379 route btn_0 btn_1 btn_2 btn_3 btn_4 btn_5 btn_6 btn_7
;
#X text 615 604 buttons 9-10;
#X obj 625 586 outlet;
#X obj 842 497 pack f 11;
#X text 839 523 remap numbers to parallel buttons \; 0 is center position
\; label as a single button that has multiple values;
#X obj 47 126 route bang float list;
#X text -30 606 individual joystick outputs for xy1 \, xy2;
#X text -18 625 values sacled between 0 and 1;
#X text 351 582 buttons 1-8 \, 11;
#X text 318 616 buttons 1-8 have states of 0 \, 1;
#X text 335 636 buggon 11 has states of 0 \, 1 \, 2 \, 3 \, 4;
#X text 330 603 list pairs of state \, keyId;
#X text 602 620 buttons 9 \, 10 have states of 0 \, 1;
#X text 42 51 bang to print list \; number to set device number;
#X obj 361 410 change;
#X obj 422 411 change;
#X obj 484 410 change;
#X obj 545 411 change;
#X obj 615 408 change;
#X obj 676 409 change;
#X obj 738 408 change;
#X obj 799 409 change;
#X obj 628 529 change;
#X obj 689 530 change;
#X obj 887 408 change;
#X obj 32 165 t b b;
#X msg 72 196 refresh;
#X obj 1018 379 route abs_hat0x;
#X obj 1124 379 route abs_hat0y;
#X obj 1019 412 change;
#X obj 1125 413 change;
#X obj 1019 438 sel -1 1 0;
#X obj 1124 436 sel -1 1 0;
#X msg 1019 464 1;
#X msg 1052 464 3;
#X msg 1084 465 0;
#X msg 1189 461 0;
#X obj 1081 497 pack f 11;
#X msg 1123 461 4;
#X msg 1156 462 2;
#X text 1016 346 linux hid object provides hatswitch data with abs_hat0x/y
prefix;
#X text 939 96 Authors: Christopher Ariza \, Ivan Sergeev;
#X connect 0 0 3 0;
#X connect 1 0 0 0;
#X connect 2 0 0 0;
#X connect 3 0 10 0;
#X connect 3 1 9 0;
#X connect 4 0 22 0;
#X connect 5 0 35 0;
#X connect 6 0 23 0;
#X connect 7 0 36 0;
#X connect 8 0 0 0;
#X connect 9 0 40 0;
#X connect 10 0 4 0;
#X connect 10 1 5 0;
#X connect 10 2 11 0;
#X connect 11 0 6 0;
#X connect 11 1 7 0;
#X connect 11 2 28 0;
#X connect 12 0 24 0;
#X connect 13 0 24 0;
#X connect 14 0 24 0;
#X connect 15 0 24 0;
#X connect 16 0 24 0;
#X connect 17 0 24 0;
#X connect 18 0 24 0;
#X connect 19 0 24 0;
#X connect 20 0 42 0;
#X connect 21 0 42 0;
#X connect 26 0 45 0;
#X connect 27 0 2 0;
#X connect 27 1 8 0;
#X connect 28 0 64 0;
#X connect 28 1 67 0;
#X connect 29 0 30 0;
#X connect 29 1 31 0;
#X connect 29 2 32 0;
#X connect 29 3 33 0;
#X connect 29 4 34 0;
#X connect 30 0 43 0;
#X connect 31 0 43 0;
#X connect 32 0 43 0;
#X connect 33 0 43 0;
#X connect 34 0 43 0;
#X connect 39 0 62 0;
#X connect 39 1 63 0;
#X connect 40 0 54 0;
#X connect 40 1 55 0;
#X connect 40 2 56 0;
#X connect 40 3 57 0;
#X connect 40 4 58 0;
#X connect 40 5 59 0;
#X connect 40 6 60 0;
#X connect 40 7 61 0;
#X connect 40 8 39 0;
#X connect 43 0 24 0;
#X connect 45 0 65 0;
#X connect 45 1 27 0;
#X connect 45 2 0 0;
#X connect 54 0 12 0;
#X connect 55 0 13 0;
#X connect 56 0 15 0;
#X connect 57 0 14 0;
#X connect 58 0 16 0;
#X connect 59 0 17 0;
#X connect 60 0 18 0;
#X connect 61 0 19 0;
#X connect 62 0 20 0;
#X connect 63 0 21 0;
#X connect 64 0 29 0;
#X connect 65 0 1 0;
#X connect 65 1 66 0;
#X connect 66 0 0 0;
#X connect 67 0 69 0;
#X connect 67 1 68 0;
#X connect 68 0 70 0;
#X connect 69 0 71 0;
#X connect 70 0 72 0;
#X connect 71 0 73 0;
#X connect 71 1 74 0;
#X connect 71 2 75 0;
#X connect 72 0 78 0;
#X connect 72 1 79 0;
#X connect 72 2 76 0;
#X connect 73 0 77 0;
#X connect 74 0 77 0;
#X connect 75 0 77 0;
#X connect 76 0 77 0;
#X connect 77 0 24 0;
#X connect 78 0 77 0;
#X connect 79 0 77 0;
