#N canvas 655 22 457 391 10;
#X obj 53 54 inlet;
#X obj 110 51 inlet;
#X obj 196 54 inlet;
#X obj 53 188 counter 1 1;
#X obj 53 83 t b;
#X obj 110 94 t l l;
#X obj 138 124 zl len;
#X obj 139 149 t f f;
#X obj 54 298 outlet;
#X obj 126 295 outlet;
#X obj 193 295 outlet;
#X obj 199 85 t b;
#X text 55 22 bangNextOut \, listVlas \, resetToFirstNext;
#X obj 54 219 t b f f;
#X text 71 337 valueAtN \, N \, length;
#X obj 54 262 mgNth;
#X connect 0 0 4 0;
#X connect 1 0 5 0;
#X connect 2 0 11 0;
#X connect 3 0 13 0;
#X connect 4 0 3 0;
#X connect 5 0 15 2;
#X connect 5 1 6 0;
#X connect 6 0 7 0;
#X connect 7 0 10 0;
#X connect 7 1 3 4;
#X connect 11 0 3 2;
#X connect 13 0 15 0;
#X connect 13 1 15 1;
#X connect 13 2 9 0;
#X connect 15 0 8 0;
