#N canvas 471 471 740 441 10;
#X obj 258 182 counter;
#X obj 240 143 t f b;
#X obj 240 231 pack f f;
#X obj 281 253 tabwrite \$0-collected;
#X obj 241 254 t l l;
#X obj 147 143 t b b;
#X obj 150 386 outlet;
#X obj 150 283 tabdump \$0-collected;
#X obj 150 335 zl slice;
#X obj 196 307 + 1;
#X obj 258 205 t f f;
#X text 10 189 order of sentinals does not matter;
#X text 445 224 max number of values determined here;
#X obj 146 21 inlet;
#X text 365 38 numbers are added to list \; a bang sends out the list
and clears the list;
#X obj 237 98 zl iter 1;
#X obj 147 48 route bang float list symbol;
#X obj 319 102 sel clear;
#X obj 398 102 loadbang;
#X obj 319 132 t b;
#X obj 318 75 symbol;
#X obj 429 249 table \$0-collected \$1;
#X connect 0 0 10 0;
#X connect 1 0 2 0;
#X connect 1 1 0 0;
#X connect 2 0 4 0;
#X connect 4 1 3 0;
#X connect 5 0 7 0;
#X connect 5 1 0 2;
#X connect 7 0 8 0;
#X connect 8 0 6 0;
#X connect 9 0 8 1;
#X connect 10 0 9 0;
#X connect 10 1 2 1;
#X connect 13 0 16 0;
#X connect 15 0 1 0;
#X connect 16 0 5 0;
#X connect 16 1 1 0;
#X connect 16 2 15 0;
#X connect 16 3 17 0;
#X connect 16 4 20 0;
#X connect 17 0 19 0;
#X connect 18 0 19 0;
#X connect 19 0 0 2;
#X connect 20 0 17 0;
