#N canvas 1150 543 450 300 10;
#X msg 193 43 3 2 5;
#X msg 75 51 2;
#X msg 20 95 bang;
#X msg 273 97 bang;
#X obj 85 195 print a;
#X obj 231 192 print b;
#X msg 117 49 3;
#X msg 223 87 5;
#X msg 248 59 2;
#X msg 315 63 clear;
#X msg 301 30 symbol clear;
#X obj 238 136 mgListAccumulateFloat 24;
#X msg 117 88 clear;
#X obj 79 142 mgListAccumulateFloat 24;
#X connect 0 0 13 0;
#X connect 1 0 13 0;
#X connect 2 0 13 0;
#X connect 3 0 11 0;
#X connect 6 0 13 0;
#X connect 7 0 11 0;
#X connect 8 0 11 0;
#X connect 9 0 11 0;
#X connect 10 0 11 0;
#X connect 11 0 5 0;
#X connect 12 0 13 0;
#X connect 13 0 4 0;
