#N canvas 397 621 450 300 10;
#X obj 255 74 unpack f f f f;
#X msg 261 39 20 30 40 50;
#X obj 124 62 tgl 15 0 empty empty empty 17 7 0 10 -262144 -1 -1 0
1;
#X obj 164 57 tgl 15 0 empty empty empty 17 7 0 10 -262144 -1 -1 0
1;
#X obj 197 60 tgl 15 0 empty empty empty 17 7 0 10 -262144 -1 -1 0
1;
#X obj 224 58 tgl 15 0 empty empty empty 17 7 0 10 -262144 -1 -1 0
1;
#X obj 178 182 bng 15 250 50 0 empty empty empty 17 7 0 10 -262144
-1 -1;
#X obj 323 176 bng 15 250 50 0 empty empty empty 17 7 0 10 -262144
-1 -1;
#X obj 341 175 print pitch;
#X obj 111 180 print trig;
#X obj 139 114 mgNonZeroMonoTrigger4 ___________;
#X connect 0 0 10 4;
#X connect 0 1 10 5;
#X connect 0 2 10 6;
#X connect 0 3 10 7;
#X connect 1 0 0 0;
#X connect 2 0 10 0;
#X connect 3 0 10 1;
#X connect 4 0 10 2;
#X connect 5 0 10 3;
#X connect 10 0 6 0;
#X connect 10 0 9 0;
#X connect 10 1 7 0;
#X connect 10 1 8 0;
