#N canvas 450 576 952 487 10;
#X obj 475 165 f;
#X obj 408 169 f;
#X obj 346 169 f;
#X obj 275 169 f;
#X obj 25 222 mgNonZeroFilter;
#X obj 25 255 outlet trigger;
#X obj 23 23 inlet;
#X obj 77 23 inlet;
#X obj 130 23 inlet;
#X obj 184 23 inlet;
#X obj 23 50 t f f;
#X obj 77 50 t f f;
#X obj 130 50 t f f;
#X obj 274 116 sel 0;
#X obj 346 116 sel 0;
#X obj 409 116 sel 0;
#X obj 475 114 sel 0;
#X obj 184 50 t f f;
#X obj 305 169 f;
#X obj 375 169 f;
#X obj 434 169 f;
#X obj 504 166 f;
#X obj 289 23 inlet listA;
#X obj 386 21 inlet listB;
#X obj 289 54 unpack f f f f;
#X obj 388 54 unpack f f f f;
#X obj 274 139 t b b;
#X obj 345 139 t b b;
#X obj 408 141 t b b;
#X obj 476 140 t b b;
#X obj 271 256 outlet listData;
#X obj 272 195 pack f f;
#X obj 345 193 pack f f;
#X obj 409 194 pack f f;
#X obj 474 197 pack f f;
#X connect 0 0 34 0;
#X connect 1 0 33 0;
#X connect 2 0 32 0;
#X connect 3 0 31 0;
#X connect 4 0 5 0;
#X connect 6 0 10 0;
#X connect 7 0 11 0;
#X connect 8 0 12 0;
#X connect 9 0 17 0;
#X connect 10 0 4 0;
#X connect 10 1 13 0;
#X connect 11 0 4 0;
#X connect 11 1 14 0;
#X connect 12 0 4 0;
#X connect 12 1 15 0;
#X connect 13 1 26 0;
#X connect 14 1 27 0;
#X connect 15 1 28 0;
#X connect 16 1 29 0;
#X connect 17 0 4 0;
#X connect 17 1 16 0;
#X connect 18 0 31 1;
#X connect 19 0 32 1;
#X connect 20 0 33 1;
#X connect 21 0 34 1;
#X connect 22 0 24 0;
#X connect 23 0 25 0;
#X connect 24 0 3 1;
#X connect 24 1 2 1;
#X connect 24 2 1 1;
#X connect 24 3 0 1;
#X connect 25 0 18 1;
#X connect 25 1 19 1;
#X connect 25 2 20 1;
#X connect 25 3 21 1;
#X connect 26 0 3 0;
#X connect 26 1 18 0;
#X connect 27 0 2 0;
#X connect 27 1 19 0;
#X connect 28 0 1 0;
#X connect 28 1 20 0;
#X connect 29 0 0 0;
#X connect 29 1 21 0;
#X connect 31 0 30 0;
#X connect 32 0 30 0;
#X connect 33 0 30 0;
#X connect 34 0 30 0;
