#N canvas 1432 440 450 300 10;
#X msg 83 58 1;
#X msg 130 59 0;
#X obj 113 190 print;
#X text 216 63 this ignores asll zero fallowing a nonzero unitl that
number of zeros is encountered;
#X msg 45 58 0.6;
#X obj 109 134 mgNonZeroFilter;
#X connect 0 0 5 0;
#X connect 1 0 5 0;
#X connect 4 0 5 0;
#X connect 5 0 2 0;
