#N canvas 595 190 643 390 10;
#X obj 29 20 inlet;
#X obj 76 177 counter;
#X obj 143 176 counter;
#X obj 29 67 sel 0;
#X obj 18 132 t b f;
#X obj 45 327 outlet;
#X obj 90 207 ==;
#X obj 90 232 sel 1;
#X msg 90 298 0;
#X obj 90 265 t b b;
#X obj 154 135 t b b;
#X text 233 181 potential problem if zeros come in alone \, without
1s;
#X text 229 63 accept a 1 (or non zero) \; if another 1 is obtained
\, then do nothing \; if a zero is obtained \, only pass through if
it is the last zero paired with each one;
#X connect 0 0 3 0;
#X connect 1 0 6 1;
#X connect 2 0 6 0;
#X connect 3 0 2 0;
#X connect 3 1 4 0;
#X connect 4 0 1 0;
#X connect 4 1 5 0;
#X connect 6 0 7 0;
#X connect 7 0 9 0;
#X connect 8 0 5 0;
#X connect 9 0 8 0;
#X connect 9 1 10 0;
#X connect 10 0 1 2;
#X connect 10 1 2 2;
