#N canvas 350 289 537 294 10;
#X obj 475 165 f;
#X obj 408 169 f;
#X obj 346 169 f;
#X obj 275 169 f;
#X obj 25 222 mgNonZeroFilter;
#X obj 290 23 inlet;
#X obj 361 23 inlet;
#X obj 423 23 inlet;
#X obj 490 23 inlet;
#X obj 171 252 outlet pitch;
#X obj 25 255 outlet trigger;
#X obj 23 23 inlet;
#X obj 77 23 inlet;
#X obj 130 23 inlet;
#X obj 184 23 inlet;
#X obj 23 50 t f f;
#X obj 77 50 t f f;
#X obj 130 50 t f f;
#X obj 250 116 sel 0;
#X msg 250 141 bang;
#X obj 320 116 sel 0;
#X msg 320 143 bang;
#X obj 385 116 sel 0;
#X msg 385 142 bang;
#X obj 450 114 sel 0;
#X msg 450 139 bang;
#X obj 184 50 t f f;
#X connect 0 0 9 0;
#X connect 1 0 9 0;
#X connect 2 0 9 0;
#X connect 3 0 9 0;
#X connect 4 0 10 0;
#X connect 5 0 3 1;
#X connect 6 0 2 1;
#X connect 7 0 1 1;
#X connect 8 0 0 1;
#X connect 11 0 15 0;
#X connect 12 0 16 0;
#X connect 13 0 17 0;
#X connect 14 0 26 0;
#X connect 15 0 4 0;
#X connect 15 1 18 0;
#X connect 16 0 4 0;
#X connect 16 1 20 0;
#X connect 17 0 4 0;
#X connect 17 1 22 0;
#X connect 18 1 19 0;
#X connect 19 0 3 0;
#X connect 20 1 21 0;
#X connect 21 0 2 0;
#X connect 22 1 23 0;
#X connect 23 0 1 0;
#X connect 24 1 25 0;
#X connect 25 0 0 0;
#X connect 26 0 4 0;
#X connect 26 1 24 0;
