#N canvas 860 23 450 300 10;
#X obj 162 179 print;
#X msg 204 77 1 2 3 4 5 6 7 8;
#X msg 164 45 8;
#X obj 72 61 counter 1 10;
#X obj 71 38 bng 15 250 50 0 empty empty empty 17 7 0 10 -262144 -1
-1;
#X obj 82 128 bng 15 250 50 0 empty empty empty 17 7 0 10 -262144 -1
-1;
#X obj 72 86 t b f;
#X msg 172 21 2;
#X floatatom 25 56 5 0 0 0 - - -;
#X msg 224 45 50 60 20;
#X obj 162 131 axNth;
#X connect 1 0 10 2;
#X connect 2 0 10 1;
#X connect 3 0 6 0;
#X connect 4 0 3 0;
#X connect 5 0 10 0;
#X connect 6 0 10 0;
#X connect 6 1 10 1;
#X connect 7 0 10 1;
#X connect 8 0 6 0;
#X connect 9 0 10 2;
#X connect 10 0 0 0;
