#N canvas 453 22 810 584 10;
#N canvas 0 22 450 300 (subpatch) 0;
#X array time-domain 441 float 0;
#X coords 0 1 440 -1 300 150 1;
#X restore 34 300 graph;
#X msg 114 216 bang;
#N canvas 0 22 450 300 (subpatch) 0;
#X array frequency-domain 512 float 0;
#X coords 0 2000 500 -40 300 150 1;
#X restore 346 302 graph;
#N canvas 45 83 481 323 fft 0;
#X obj 19 62 inlet~;
#X obj 256 55 inlet;
#X obj 19 92 rfft~;
#X obj 19 125 *~;
#X obj 50 125 *~;
#X obj 19 155 sqrt~;
#X obj 345 51 block~ 4096 1;
#X obj 19 181 biquad~ 0 0 0 0 1;
#X text 83 93 Fourier series;
#X text 88 146 magnitude;
#X text 86 131 calculate;
#X text 83 62 signal to analyze;
#X text 260 178 delay two samples;
#X text 259 194 for better graphing;
#X text 213 228 "bang" into this inlet to graph it;
#X text 20 3 comment;
#X obj 19 232 tabwrite~ frequency-domain;
#X connect 0 0 2 0;
#X connect 1 0 16 0;
#X connect 2 0 3 0;
#X connect 2 0 3 1;
#X connect 2 1 4 0;
#X connect 2 1 4 1;
#X connect 3 0 5 0;
#X connect 4 0 5 0;
#X connect 5 0 7 0;
#X connect 7 0 16 0;
#X restore 54 239 pd fft;
#X obj 100 238 tabwrite~ time-domain;
#X obj 159 191 metro 50;
#X msg 127 191 1;
#X msg 96 191 0;
#X obj 236 234 *~ 1;
#X floatatom 338 95 5 0 0 0 - - -;
#X obj 365 177 dac~;
#X msg 577 157 \; pd dsp 0;
#X msg 574 185 \; pd dsp 1;
#X floatatom 389 77 5 0 0 0 - - -;
#X msg 430 60 0;
#X msg 463 60 1;
#X msg 432 83 0.2;
#X msg 468 83 0.7;
#X obj 519 44 cycle~ 0.25;
#X obj 520 70 *~ 0.5;
#X obj 515 101 +~ 0.5;
#X obj 366 130 axOscRect 200 0.2;
#X connect 1 0 3 1;
#X connect 1 0 4 0;
#X connect 5 0 1 0;
#X connect 6 0 5 0;
#X connect 7 0 5 0;
#X connect 8 0 3 0;
#X connect 8 0 4 0;
#X connect 9 0 21 0;
#X connect 13 0 21 1;
#X connect 14 0 21 1;
#X connect 15 0 21 1;
#X connect 16 0 21 1;
#X connect 17 0 21 1;
#X connect 18 0 19 0;
#X connect 19 0 20 0;
#X connect 20 0 21 1;
#X connect 21 0 10 0;
#X connect 21 0 10 1;
#X connect 21 0 8 0;
