#N canvas 117 22 648 567 10;
#X obj 95 86 inlet~;
#X obj 93 449 outlet~;
#X text 174 50 values betwen 0 and 1 set duty cycle;
#X obj 273 84 loadbang;
#X obj 85 354 hip~ 10;
#X obj 83 385 lop~ 18000;
#X obj 82 411 lop~ 18000;
#X obj 175 87 inlet~;
#X obj 84 330 -~ 1;
#X obj 85 171 phasor~ 100;
#X obj 86 218 -~;
#X obj 171 165 *~ -1;
#X obj 171 189 +~ 1;
#X obj 84 248 clip~ 0 1e-06;
#X obj 84 275 *~ 1e+06;
#X text 217 163 values now 0 to -1;
#X text 220 192 valuse are 1 to 0;
#X obj 258 109 \$1;
#X obj 284 109 \$2;
#X obj 405 279 osc~;
#X obj 426 427 abs~;
#X obj 387 378 /~;
#X obj 385 401 -~ 1;
#X obj 389 425 /~;
#X obj 362 330 +~ 1;
#X obj 436 369 clip~ 0.0001 1.9999;
#X text 484 429 mildly convoluted;
#X text 479 437 way to ask is a sig;
#X text 480 447 less than the phase;
#X text 456 312 alt approach;
#X connect 0 0 9 0;
#X connect 3 0 17 0;
#X connect 3 0 18 0;
#X connect 4 0 5 0;
#X connect 5 0 6 0;
#X connect 6 0 1 0;
#X connect 7 0 11 0;
#X connect 8 0 4 0;
#X connect 9 0 10 0;
#X connect 10 0 13 0;
#X connect 11 0 12 0;
#X connect 12 0 10 1;
#X connect 13 0 14 0;
#X connect 14 0 8 0;
#X connect 17 0 9 0;
#X connect 19 0 24 0;
#X connect 20 0 23 1;
#X connect 21 0 22 0;
#X connect 22 0 20 0;
#X connect 22 0 23 0;
#X connect 24 0 21 0;
#X connect 25 0 21 1;
