#N canvas 162 22 622 571 10;
#X obj 143 86 inlet~;
#X obj 121 313 outlet~;
#X obj 115 184 *~ 2048;
#X obj 110 160 phasor~;
#X obj 113 218 tabread4~ mgTableWaveTri;
#X text 224 82 note: the mgTableWaveTri abstraction must be inlcuded
in patches using this oscillator;
#X connect 0 0 3 0;
#X connect 2 0 4 0;
#X connect 3 0 2 0;
#X connect 4 0 1 0;
