#N canvas 838 22 605 596 10;
#X obj 89 272 cos~;
#X obj 89 249 *~;
#X obj 132 272 cos~;
#X obj 183 200 wrap~;
#X obj 152 219 -~;
#X obj 132 249 +~;
#X obj 119 305 -~;
#X obj 119 328 *~;
#X obj 91 360 +~;
#X obj 151 179 samphold~;
#X obj 210 80 / 10;
#X text 278 61 center;
#X obj 210 128 line~;
#X text 278 108 fundamental);
#X obj 210 105 pack 0 50;
#X obj 88 125 phasor~;
#X text 18 123 fundamental;
#X text 447 188 index;
#X text 447 205 (percent);
#X obj 355 207 line~;
#X obj 275 243 *~;
#X obj 355 184 pack 0 50;
#X obj 275 220 cos~;
#X obj 275 197 -~ 0.25;
#X obj 275 266 +~ 100;
#X obj 91 384 *~;
#X text 307 314 waveshaper;
#X text 278 75 frequency;
#X text 278 91 (tenths of;
#X obj 275 171 *~ 0.5;
#X obj 91 410 outlet~;
#X obj 88 80 inlet~;
#X obj 275 289 tabread4~ mgTableBell;
#X text 434 288 requires mgTableBell;
#X obj 211 48 inlet center;
#X obj 356 53 inlet index;
#X obj 310 -25 loadbang;
#X msg 310 -1 50;
#X msg 338 -1 100;
#X text 397 239 may need to scale this by table?;
#X text 137 380 ring mod step;
#X text 204 427 based on design by Miller Puckette in the _The Theory
and Technique of Electronic Music";
#X connect 0 0 6 1;
#X connect 0 0 8 0;
#X connect 1 0 5 0;
#X connect 1 0 0 0;
#X connect 2 0 6 0;
#X connect 3 0 4 1;
#X connect 3 0 7 1;
#X connect 4 0 1 1;
#X connect 5 0 2 0;
#X connect 6 0 7 0;
#X connect 7 0 8 1;
#X connect 8 0 25 0;
#X connect 9 0 4 0;
#X connect 9 0 3 0;
#X connect 10 0 14 0;
#X connect 12 0 9 0;
#X connect 14 0 12 0;
#X connect 15 0 9 1;
#X connect 15 0 5 1;
#X connect 15 0 1 0;
#X connect 15 0 29 0;
#X connect 19 0 20 1;
#X connect 20 0 24 0;
#X connect 21 0 19 0;
#X connect 22 0 20 0;
#X connect 23 0 22 0;
#X connect 24 0 32 0;
#X connect 25 0 30 0;
#X connect 29 0 23 0;
#X connect 31 0 15 0;
#X connect 32 0 25 1;
#X connect 34 0 10 0;
#X connect 35 0 21 0;
#X connect 36 0 37 0;
#X connect 36 0 38 0;
#X connect 37 0 10 0;
#X connect 38 0 21 0;
