#N canvas 56 22 670 697 10;
#X obj 311 136 line~;
#X obj 435 143 line~;
#X obj 191 424 *~;
#X obj 191 473 cos~;
#X obj 333 168 expr 1/$f1;
#X obj 311 201 *~;
#X obj 435 203 *~;
#X text 476 195 divide by fundamental;
#X obj 147 259 phasor~;
#X obj 423 301 +~ 0.5;
#X obj 423 333 wrap~;
#X text 481 261 second phase signal;
#X text 484 270 out of phase from;
#X text 484 280 first one;
#X obj 191 496 +~ 1;
#X obj 146 360 -~ 0.5;
#X obj 307 566 +~;
#X obj 145 424 *~;
#X obj 145 470 cos~;
#X obj 254 393 samphold~;
#X obj 185 393 samphold~;
#X obj 176 522 *~;
#X obj 191 448 clip~ -0.5 0.5;
#X obj 378 421 *~;
#X obj 378 470 cos~;
#X obj 378 493 +~ 1;
#X obj 322 363 -~ 0.5;
#X obj 323 421 *~;
#X obj 323 444 cos~;
#X obj 460 391 samphold~;
#X obj 372 390 samphold~;
#X obj 323 519 *~;
#X obj 378 445 clip~ -0.5 0.5;
#X obj 435 227 max~ 1;
#X obj 307 618 outlet~;
#X obj 244 49 inlet;
#X obj 314 56 inlet;
#X obj 438 44 inlet;
#X text 57 594 wave packet model from puckette f14;
#X obj 244 122 * 0.5;
#X text 102 121 shift down one octave;
#X text 276 12 fundamenta \, center freq \, bandwidth (all in hertz)
;
#X obj 488 92 f \$2;
#X obj 375 76 f \$1;
#X obj 553 53 loadbang;
#X obj 310 113 pack 0 30;
#X obj 436 121 pack 0 30;
#X obj 307 593 hip~ 5;
#X connect 0 0 5 0;
#X connect 1 0 6 0;
#X connect 2 0 22 0;
#X connect 3 0 14 0;
#X connect 4 0 5 1;
#X connect 4 0 6 1;
#X connect 5 0 20 0;
#X connect 5 0 30 0;
#X connect 6 0 33 0;
#X connect 8 0 9 0;
#X connect 8 0 15 0;
#X connect 8 0 20 1;
#X connect 8 0 19 1;
#X connect 9 0 10 0;
#X connect 10 0 26 0;
#X connect 10 0 30 1;
#X connect 10 0 29 1;
#X connect 14 0 21 1;
#X connect 15 0 2 0;
#X connect 15 0 17 0;
#X connect 16 0 47 0;
#X connect 17 0 18 0;
#X connect 18 0 21 0;
#X connect 19 0 2 1;
#X connect 20 0 17 1;
#X connect 21 0 16 0;
#X connect 22 0 3 0;
#X connect 23 0 32 0;
#X connect 24 0 25 0;
#X connect 25 0 31 1;
#X connect 26 0 23 0;
#X connect 26 0 27 0;
#X connect 27 0 28 0;
#X connect 28 0 31 0;
#X connect 29 0 23 1;
#X connect 30 0 27 1;
#X connect 31 0 16 1;
#X connect 32 0 24 0;
#X connect 33 0 19 0;
#X connect 33 0 29 0;
#X connect 35 0 39 0;
#X connect 36 0 45 0;
#X connect 37 0 46 0;
#X connect 39 0 4 0;
#X connect 39 0 8 0;
#X connect 42 0 46 0;
#X connect 43 0 45 0;
#X connect 44 0 43 0;
#X connect 44 0 42 0;
#X connect 45 0 0 0;
#X connect 46 0 1 0;
#X connect 47 0 34 0;
