#N canvas 91 22 1397 603 16;
#X floatatom 7 54 4 0 10 0 - - -;
#X floatatom 76 54 4 0 10 0 - - -;
#X floatatom 139 54 8 0 10 0 - - -;
#X obj 464 182 t f;
#X obj 1019 123 inlet status;
#X obj 1018 158 unpack s s;
#X symbolatom 240 22 10 0 0 0 - - -;
#X symbolatom 139 22 8 0 0 0 - - -;
#X obj 1014 192 symbol;
#X obj 1095 190 symbol;
#X text 1017 94 has status \, count unit;
#X text 136 -1 countdown;
#X text 238 -1 status;
#X obj 1011 14 loadbang;
#X msg 1010 51 loading unit;
#X obj 768 15 inlet numericalDisplay;
#X obj 282 152 change;
#X obj 463 148 change;
#X obj 108 153 change;
#X obj 76 23 hradio 22 1 0 2 empty empty empty 0 -8 0 10 -228856 -1
-1 0;
#X obj 281 183 t f f;
#X obj 280 217 % 2;
#X text 4 -1 pulse;
#X text 73 -1 beat;
#X obj 108 182 t f f;
#X obj 107 214 % 2;
#X obj 7 23 hradio 22 1 0 2 empty empty empty 0 -8 0 10 -228856 -162280
-1 0;
#X obj 355 22 hradio 22 1 0 3 empty empty empty 0 -8 0 10 -228856 -128992
-1 0;
#X text 352 49 off/p/b;
#X obj 770 87 unpack f f f f;
#X obj 546 151 change;
#X obj 543 183 t f;
#X text 352 -1 quantize;
#X connect 3 0 2 0;
#X connect 4 0 5 0;
#X connect 5 0 8 0;
#X connect 5 1 9 0;
#X connect 8 0 6 0;
#X connect 9 0 7 0;
#X connect 13 0 14 0;
#X connect 14 0 5 0;
#X connect 15 0 29 0;
#X connect 16 0 20 0;
#X connect 17 0 3 0;
#X connect 18 0 24 0;
#X connect 20 0 21 0;
#X connect 20 1 1 0;
#X connect 21 0 19 0;
#X connect 24 0 25 0;
#X connect 24 1 0 0;
#X connect 25 0 26 0;
#X connect 29 0 18 0;
#X connect 29 1 16 0;
#X connect 29 2 17 0;
#X connect 29 3 30 0;
#X connect 30 0 31 0;
#X connect 31 0 27 0;
#X coords 0 -1 1 1 460 80 2 0 0;
