#N canvas 266 338 644 306 10;
#X obj -178 67 inlet;
#X obj -93 65 inlet;
#X obj -174 178 outlet;
#X obj -174 150 pack f f;
#X obj -109 94 t b f;
#X connect 0 0 3 0;
#X connect 1 0 4 0;
#X connect 3 0 2 0;
#X connect 4 0 3 0;
#X connect 4 1 3 1;
