#N canvas 314 22 1537 585 10;
#X text 951 34 handles definitions for 6 instruments;
#X obj 237 430 outlet comments;
#X obj 452 15 inlet sceneFile;
#X obj 208 12 inlet sceneNumber;
#X obj 305 54 mgTextParametersCommented;
#X obj 305 108 zl group 2;
#X obj 208 32 change;
#X obj 651 277 zl group 2;
#X obj 701 430 outlet inst1;
#X obj 784 430 outlet inst2;
#X obj 862 430 outlet inst3;
#X obj 945 430 outlet inst4;
#X obj 1029 430 outlet inst5;
#X obj 1113 430 outlet inst6;
#X obj 726 277 zl group 2;
#X obj 805 277 zl group 2;
#X obj 885 276 zl group 2;
#X obj 962 276 zl group 2;
#X obj 1038 276 zl group 2;
#X text 9 37 onlet reset when values change;
#X obj 465 429 outlet diplsayStatus;
#X obj 89 430 outlet numericalDisplay;
#X text 680 326 order is path \, preset \; need to provide preset \,
path;
#X obj 651 304 zl rev;
#X obj 726 304 zl rev;
#X obj 805 304 zl rev;
#X obj 885 304 zl rev;
#X obj 962 304 zl rev;
#X obj 1038 304 zl rev;
#X obj 47 15 inlet networkData;
#X obj 3 430 outlet pulses;
#X text 827 127 quantize can be 0/1/2 \, for off \, pulse \, or beat
;
#X obj 1134 277 zl group 2;
#X obj 1210 277 zl group 2;
#X obj 1134 304 zl rev;
#X obj 1210 304 zl rev;
#X obj 1193 430 outlet inst7;
#X obj 1277 430 outlet inst8;
#X obj 67 310 mgPartDirector_c ___________________________;
#X obj 305 133 route quantize tempoSource tempoBpm pulseCount sceneDurationUnit
sceneDuration initInstrument filePath1 preset1 filePath2 preset2 filePath3
preset3 filePath4 preset4 filePath5 preset5 filePath6 preset6 filePath7
preset7 filePath8 preset8;
#X obj 596 430 outlet initInst;
#X text 467 459 while placed here \, this is output last \, after programs
;
#X obj 338 430 outlet commentsNext;
#X obj 651 54 mgTextParametersCommented;
#X obj 619 54 + 1;
#X obj 208 54 t f f b;
#X connect 2 0 4 1;
#X connect 2 0 43 1;
#X connect 3 0 6 0;
#X connect 4 0 5 0;
#X connect 4 1 38 8;
#X connect 5 0 39 0;
#X connect 6 0 45 0;
#X connect 7 0 23 0;
#X connect 14 0 24 0;
#X connect 15 0 25 0;
#X connect 16 0 26 0;
#X connect 17 0 27 0;
#X connect 18 0 28 0;
#X connect 23 0 8 0;
#X connect 24 0 9 0;
#X connect 25 0 10 0;
#X connect 26 0 11 0;
#X connect 27 0 12 0;
#X connect 28 0 13 0;
#X connect 29 0 38 0;
#X connect 32 0 34 0;
#X connect 33 0 35 0;
#X connect 34 0 36 0;
#X connect 35 0 37 0;
#X connect 38 0 30 0;
#X connect 38 1 21 0;
#X connect 38 2 1 0;
#X connect 38 3 42 0;
#X connect 38 4 20 0;
#X connect 39 0 38 2;
#X connect 39 1 38 3;
#X connect 39 2 38 4;
#X connect 39 3 38 5;
#X connect 39 4 38 6;
#X connect 39 5 38 7;
#X connect 39 6 40 0;
#X connect 39 7 7 0;
#X connect 39 8 7 0;
#X connect 39 9 14 0;
#X connect 39 10 14 0;
#X connect 39 11 15 0;
#X connect 39 12 15 0;
#X connect 39 13 16 0;
#X connect 39 14 16 0;
#X connect 39 15 17 0;
#X connect 39 16 17 0;
#X connect 39 17 18 0;
#X connect 39 18 18 0;
#X connect 39 19 32 0;
#X connect 39 20 32 0;
#X connect 39 21 33 0;
#X connect 39 22 33 0;
#X connect 43 1 38 9;
#X connect 44 0 43 0;
#X connect 45 0 44 0;
#X connect 45 1 4 0;
#X connect 45 2 38 1;
