#N canvas 303 22 1439 768 10;
#X obj 409 652 zl iter 1;
#X obj 409 629 t l b;
#X obj 1098 436 list;
#X obj 409 677 prepend add2;
#X obj 440 714 outlet comments;
#X obj 219 144 mgBpmToMs;
#X obj 192 178 metro;
#X msg 477 653 set Instructions:;
#X obj 47 154 symbol;
#X msg 89 203 1;
#X msg 117 204 2;
#X obj 18 74 loadbang;
#X msg 18 98 1;
#X obj 271 312 sel 1;
#X obj 179 233 t b b;
#X obj 179 313 counter;
#X obj 271 283 counter;
#X obj 271 337 counter;
#X obj 82 235 t f;
#X msg 82 257 min \$1;
#X msg 322 282 max \$1;
#X obj 743 228 symbol;
#X obj 383 259 metro 1000;
#X obj 383 284 counter;
#X text 789 229 value to match at end;
#X obj 824 448 mgSelector4;
#X msg 722 306 1;
#X msg 804 304 2;
#X msg 879 305 3;
#X obj 179 334 t b f f;
#X obj 271 358 t f f;
#X text 379 236 count in sec;
#X obj 805 556 counter;
#X msg 749 529 max \$1;
#X obj 260 249 t b b b b b;
#X msg 713 528 down;
#X obj 805 529 t b f;
#X obj 806 605 sel 0;
#X obj 805 579 t f f;
#X obj 804 505 gate;
#X msg 839 478 1;
#X msg 868 478 0;
#X msg 753 306 second;
#X obj 742 278 t b b;
#X obj 806 280 t b b;
#X obj 880 281 t b b;
#X obj 922 375 symbol;
#X obj 877 712 outlet diplsayStatus;
#X msg 799 655 active;
#X msg 844 654 inactive;
#X obj 807 626 t b b;
#X obj 877 684 pack s s;
#X obj 719 447 t f b f b b b;
#X obj 47 177 sel local network none;
#X obj 177 204 mgSelector4;
#X msg 147 204 3;
#X text 261 611 timeToEnd;
#X text 207 628 beatGroupCount;
#X text 137 632 beatCount;
#X obj 173 653 t f;
#X obj 263 653 t f;
#X obj 173 692 mgPak4 _________________;
#X obj 173 717 outlet numericalDisplay;
#X obj 743 251 sel second pulse beat;
#X msg 290 176 bang;
#X obj 290 152 route pulse msg;
#X obj 59 718 outlet pulses;
#X text 618 452 scene duration;
#X msg 837 305 pulse;
#X msg 908 304 beat;
#X obj 393 152 t f f;
#X text 309 658 quant status;
#X text 692 3 core processing for part director;
#X obj 126 23 inlet networkData;
#X obj 393 28 inlet quantize;
#X obj 492 32 inlet tempoSource;
#X obj 610 30 inlet tempoBpm;
#X obj 710 30 inlet pulseCount;
#X text 256 49 comment;
#X obj 260 24 inlet sceneChange;
#X obj 216 658 t f;
#X obj 964 26 inlet sceneDuration;
#X obj 817 28 inlet sceneDurationUnit;
#X obj 1094 25 inlet sceneComments;
#X obj 1221 24 inlet sceneCommentsNext;
#X obj 1228 432 list;
#X obj 590 652 zl iter 1;
#X obj 590 629 t l b;
#X obj 590 677 prepend add2;
#X msg 658 653 set Next:;
#X obj 621 714 outlet commentsNext;
#X connect 0 0 3 0;
#X connect 1 0 0 0;
#X connect 1 1 7 0;
#X connect 2 0 1 0;
#X connect 3 0 4 0;
#X connect 5 0 6 1;
#X connect 6 0 54 1;
#X connect 7 0 4 0;
#X connect 8 0 53 0;
#X connect 9 0 54 0;
#X connect 10 0 54 0;
#X connect 11 0 12 0;
#X connect 12 0 6 0;
#X connect 12 0 18 0;
#X connect 12 0 22 0;
#X connect 13 0 17 0;
#X connect 14 0 15 0;
#X connect 14 1 66 0;
#X connect 15 0 29 0;
#X connect 16 0 13 0;
#X connect 17 0 30 0;
#X connect 18 0 19 0;
#X connect 19 0 15 0;
#X connect 19 0 16 0;
#X connect 19 0 17 0;
#X connect 20 0 16 0;
#X connect 21 0 63 0;
#X connect 22 0 23 0;
#X connect 23 0 25 1;
#X connect 25 0 39 1;
#X connect 26 0 25 0;
#X connect 27 0 25 0;
#X connect 28 0 25 0;
#X connect 29 0 16 0;
#X connect 29 1 25 2;
#X connect 29 2 59 0;
#X connect 30 0 25 3;
#X connect 30 1 80 0;
#X connect 32 0 38 0;
#X connect 33 0 32 0;
#X connect 34 0 15 2;
#X connect 34 1 17 2;
#X connect 34 2 16 2;
#X connect 34 3 23 2;
#X connect 35 0 32 0;
#X connect 36 0 32 0;
#X connect 37 0 50 0;
#X connect 38 0 60 0;
#X connect 38 1 37 0;
#X connect 39 0 36 0;
#X connect 40 0 39 0;
#X connect 41 0 39 0;
#X connect 42 0 46 0;
#X connect 43 0 26 0;
#X connect 43 1 42 0;
#X connect 44 0 27 0;
#X connect 44 1 68 0;
#X connect 45 0 28 0;
#X connect 45 1 69 0;
#X connect 46 0 51 1;
#X connect 48 0 51 0;
#X connect 49 0 51 0;
#X connect 50 0 49 0;
#X connect 50 1 41 0;
#X connect 51 0 47 0;
#X connect 52 0 38 0;
#X connect 52 1 32 4;
#X connect 52 2 33 0;
#X connect 52 3 35 0;
#X connect 52 4 40 0;
#X connect 52 5 48 0;
#X connect 53 0 9 0;
#X connect 53 1 10 0;
#X connect 53 2 55 0;
#X connect 54 0 14 0;
#X connect 55 0 54 0;
#X connect 59 0 61 0;
#X connect 60 0 61 2;
#X connect 61 0 62 0;
#X connect 63 0 43 0;
#X connect 63 1 44 0;
#X connect 63 2 45 0;
#X connect 64 0 54 2;
#X connect 65 0 64 0;
#X connect 68 0 46 0;
#X connect 69 0 46 0;
#X connect 70 0 61 3;
#X connect 73 0 65 0;
#X connect 74 0 70 0;
#X connect 75 0 8 0;
#X connect 76 0 5 0;
#X connect 77 0 20 0;
#X connect 79 0 34 0;
#X connect 80 0 61 1;
#X connect 81 0 52 0;
#X connect 82 0 21 0;
#X connect 83 0 2 0;
#X connect 84 0 85 0;
#X connect 85 0 87 0;
#X connect 86 0 88 0;
#X connect 87 0 86 0;
#X connect 87 1 89 0;
#X connect 88 0 90 0;
#X connect 89 0 90 0;
