#N canvas 802 430 450 300 10;
#X obj 84 39 inlet~;
#X obj 83 270 outlet~;
#X obj 81 232 *~;
#X obj 160 229 *~;
#X obj 156 269 outlet~;
#X obj 209 22 inlet;
#X obj 209 45 t f f;
#X obj 199 138 sqrt;
#X obj 199 68 t b f;
#X obj 199 114 - 0;
#X msg 199 90 1;
#X obj 242 139 sqrt;
#X obj 190 188 lop~ 30;
#X obj 255 188 lop~ 30;
#X obj 191 166 sig~;
#X obj 255 167 sig~;
#X connect 0 0 2 0;
#X connect 0 0 3 0;
#X connect 2 0 1 0;
#X connect 3 0 4 0;
#X connect 5 0 6 0;
#X connect 6 0 8 0;
#X connect 6 1 11 0;
#X connect 7 0 14 0;
#X connect 8 0 10 0;
#X connect 8 1 9 1;
#X connect 9 0 7 0;
#X connect 10 0 9 0;
#X connect 11 0 15 0;
#X connect 12 0 2 1;
#X connect 13 0 3 1;
#X connect 14 0 12 0;
#X connect 15 0 13 0;
