#N canvas 305 22 696 525 10;
#X obj 146 182 *~ 1;
#X obj 136 269 +~;
#X obj 179 269 *~;
#X msg 4 79 250;
#X obj 145 69 inlet~;
#X obj 138 425 outlet~;
#X obj 175 343 mgVolToAmp;
#X obj 138 372 *~;
#X obj 175 366 sig~;
#X obj 175 389 lop~ 20;
#X text 259 296 feedback;
#X obj -18 17 loadbang;
#X msg -56 80 1;
#X msg -27 79 0.2;
#X obj 244 233 f;
#X text 131 450 note: no dry signal is provided;
#X obj 209 271 sig~;
#X obj 209 294 lop~ 20;
#X obj 182 106 mgVolToAmp;
#X obj 145 135 *~;
#X obj 182 129 sig~;
#X obj 182 152 lop~ 20;
#X obj 147 208 delwrite~ \$0-dl 1000;
#X obj 149 232 delread~ \$0-dl;
#X obj 37 80 f \$1;
#X obj 74 79 f \$2;
#X obj 494 69 inlet outputVol;
#X obj 399 69 inlet feedback;
#X obj 295 70 inlet delayTime;
#X obj 200 70 inlet inputVol;
#X obj -18 40 t b b b b b;
#X connect 0 0 22 0;
#X connect 1 0 7 0;
#X connect 2 0 0 0;
#X connect 3 0 14 0;
#X connect 4 0 19 0;
#X connect 6 0 8 0;
#X connect 7 0 5 0;
#X connect 8 0 9 0;
#X connect 9 0 7 1;
#X connect 11 0 30 0;
#X connect 12 0 6 0;
#X connect 13 0 16 0;
#X connect 14 0 23 0;
#X connect 16 0 17 0;
#X connect 17 0 2 1;
#X connect 18 0 20 0;
#X connect 19 0 0 0;
#X connect 20 0 21 0;
#X connect 21 0 19 1;
#X connect 23 0 1 1;
#X connect 23 0 2 0;
#X connect 24 0 14 0;
#X connect 25 0 16 0;
#X connect 26 0 6 0;
#X connect 27 0 16 0;
#X connect 28 0 14 0;
#X connect 29 0 18 0;
#X connect 30 0 25 0;
#X connect 30 1 24 0;
#X connect 30 2 3 0;
#X connect 30 3 13 0;
#X connect 30 4 12 0;
