#N canvas 53 22 793 485 10;
#X obj 138 95 inlet~;
#X obj 105 412 outlet~;
#X obj 143 329 mgVolToAmp;
#X obj 106 358 *~;
#X obj 143 352 sig~;
#X obj 143 375 lop~ 20;
#X obj 33 53 loadbang;
#X msg 17 91 0.2;
#X text 82 433 note: no dry signal is provided;
#X obj 175 132 mgVolToAmp;
#X obj 138 161 *~;
#X obj 175 155 sig~;
#X obj 175 178 lop~ 20;
#X obj 126 289 freeverb~;
#X obj 259 322 mgVolToAmp;
#X obj 222 351 *~;
#X obj 259 345 sig~;
#X obj 259 368 lop~ 20;
#X obj 223 411 outlet~;
#X msg -26 243 wet 1;
#X msg -26 265 dry 0;
#X obj -42 195 loadbang;
#X obj 317 177 prepend roomsize;
#X obj 345 227 prepend width;
#X obj 328 202 prepend damping;
#X obj 320 97 inlet outputLevel;
#X obj 206 96 inlet inputLevel;
#X obj 434 97 inlet roomSize;
#X obj 528 95 inlet damping;
#X obj 618 96 inlet width;
#X obj 493 202 f \$1;
#X obj 533 200 f \$2;
#X obj 568 201 f \$3;
#X obj 562 174 loadbang;
#X msg -12 92 0.8;
#X msg 51 92 1;
#X connect 0 0 10 0;
#X connect 2 0 4 0;
#X connect 3 0 1 0;
#X connect 4 0 5 0;
#X connect 5 0 3 1;
#X connect 6 0 34 0;
#X connect 6 0 7 0;
#X connect 6 0 35 0;
#X connect 9 0 11 0;
#X connect 10 0 13 0;
#X connect 10 0 13 1;
#X connect 11 0 12 0;
#X connect 12 0 10 1;
#X connect 13 0 3 0;
#X connect 13 1 15 0;
#X connect 14 0 16 0;
#X connect 15 0 18 0;
#X connect 16 0 17 0;
#X connect 17 0 15 1;
#X connect 19 0 13 0;
#X connect 20 0 13 0;
#X connect 21 0 19 0;
#X connect 21 0 20 0;
#X connect 22 0 13 0;
#X connect 23 0 13 0;
#X connect 24 0 13 0;
#X connect 25 0 2 0;
#X connect 25 0 14 0;
#X connect 26 0 9 0;
#X connect 27 0 22 0;
#X connect 28 0 24 0;
#X connect 29 0 23 0;
#X connect 30 0 22 0;
#X connect 31 0 24 0;
#X connect 32 0 23 0;
#X connect 33 0 30 0;
#X connect 33 0 31 0;
#X connect 33 0 32 0;
#X connect 34 0 2 0;
#X connect 34 0 14 0;
#X connect 35 0 9 0;
