#N canvas 954 645 731 301 10;
#X obj 165 198 dac~;
#X obj 163 166 *~ 0.5;
#X obj 149 69 click~;
#X obj 42 28;
#X msg 133 9 1;
#X msg 225 79 1;
#X msg 232 57 0;
#X floatatom 282 57 5 0 1 0 - - -;
#X floatatom 320 57 5 0 2 0 - - -;
#X floatatom 361 57 5 0 2 0 - - -;
#X obj 330 94 unpack f f f;
#X text 282 28 roomsize \, damping \, width;
#X msg 171 8 0;
#X msg 427 60 1 1.02 1.44;
#X msg 435 86 1 0.75 0.94;
#X obj 159 135 mgProcFreeverb;
#X obj 146 42 metro 1000;
#X connect 1 0 0 0;
#X connect 1 0 0 1;
#X connect 2 0 15 0;
#X connect 4 0 16 0;
#X connect 5 0 15 1;
#X connect 6 0 15 1;
#X connect 7 0 15 2;
#X connect 8 0 15 3;
#X connect 9 0 15 4;
#X connect 10 0 15 3;
#X connect 10 1 15 4;
#X connect 10 2 15 5;
#X connect 12 0 16 0;
#X connect 13 0 10 0;
#X connect 14 0 10 0;
#X connect 15 0 1 0;
#X connect 16 0 2 0;
