#N canvas 280 22 887 488 10;
#X obj 138 95 inlet~;
#X obj 131 454 outlet~;
#X obj 206 367 mgVolToAmp;
#X obj 132 400 *~;
#X obj 206 390 sig~;
#X obj 206 413 lop~ 20;
#X obj 69 14 loadbang;
#X text 145 471 note: no dry signal is provided;
#X obj 175 132 mgVolToAmp;
#X obj 135 194 *~;
#X obj 175 155 sig~;
#X obj 175 178 lop~ 20;
#X obj 320 97 inlet outputLevel;
#X obj 206 96 inlet inputLevel;
#X msg 24 53 0.8;
#X text 480 216 add a phasor-based sample reduction;
#X obj 401 292 phasor~;
#X msg 58 55 1;
#X obj 400 320 samphold~;
#X obj 447 97 inlet distortion;
#X obj 565 96 inlet bitReduction;
#X obj 447 124 clip 0 1;
#X obj 447 149 mgSubtractReverse 1;
#X obj 242 218 * -1;
#X obj 241 191 t f f;
#X obj 134 346 lop~ 18000;
#X obj 132 370 hip~ 40;
#X obj 135 224 clip~ -1 1;
#X obj 135 251 *~;
#X obj 164 249 sig~;
#X obj 164 272 lop~ 20;
#X msg 105 56 0;
#X obj 444 183 mgScaleMap 0 1 0.01 1;
#X obj 580 182 mgScaleMap 0 1 1 10;
#X connect 0 0 9 0;
#X connect 2 0 4 0;
#X connect 3 0 1 0;
#X connect 4 0 5 0;
#X connect 5 0 3 1;
#X connect 6 0 14 0;
#X connect 6 0 17 0;
#X connect 6 0 31 0;
#X connect 8 0 10 0;
#X connect 9 0 27 0;
#X connect 10 0 11 0;
#X connect 11 0 9 1;
#X connect 12 0 2 0;
#X connect 13 0 8 0;
#X connect 14 0 2 0;
#X connect 17 0 8 0;
#X connect 19 0 21 0;
#X connect 21 0 22 0;
#X connect 21 0 33 0;
#X connect 22 0 32 0;
#X connect 23 0 27 1;
#X connect 24 0 23 0;
#X connect 24 1 27 2;
#X connect 25 0 26 0;
#X connect 26 0 3 0;
#X connect 27 0 28 0;
#X connect 28 0 25 0;
#X connect 29 0 30 0;
#X connect 30 0 28 1;
#X connect 31 0 21 0;
#X connect 32 0 24 0;
#X connect 33 0 29 0;
