#N canvas 96 257 450 300 10;
#X obj 145 177 bng 15 250 50 0 empty empty empty 17 7 0 10 -262144
-1 -1;
#X obj 115 31 tgl 15 0 empty empty empty 17 7 0 10 -262144 -1 -1 1
1;
#X msg 218 62 bang;
#X obj 173 178 print;
#X msg 203 33 1.5;
#X msg 190 58 0.5;
#X obj 101 96 bng 15 250 50 0 empty empty empty 17 7 0 10 -262144 -1
-1;
#X obj 299 59 tgl 15 0 empty empty empty 17 7 0 10 -262144 -1 -1 1
1;
#X obj 109 57 metro 1000;
#X msg 242 29 0 1;
#X msg 180 10 1 15;
#X obj 151 112 mgQuantizeEventList;
#X connect 1 0 8 0;
#X connect 2 0 11 1;
#X connect 4 0 11 1;
#X connect 5 0 11 1;
#X connect 7 0 11 2;
#X connect 8 0 6 0;
#X connect 8 0 11 0;
#X connect 9 0 11 1;
#X connect 10 0 11 1;
#X connect 11 0 0 0;
#X connect 11 0 3 0;
