#N canvas 140 22 510 507 10;
#X obj 38 33 inlet quantifedPulses;
#X obj 273 33 inlet onOff;
#X obj 73 275 f;
#X obj 148 113 gate 2;
#X obj 273 75 + 1;
#X obj 438 162 loadbang;
#X msg 355 31 1;
#X obj 148 452 outlet;
#X obj 181 32 inlet values;
#X obj 181 143 route bang float;
#X text 300 141 encode bangs as -1;
#X msg 181 171 -1;
#X obj 180 201 t b f;
#X obj 98 377 f;
#X obj 98 403 sel -1;
#X msg 87 249 1;
#X msg 117 249 0;
#X obj 72 299 sel 1;
#X obj 72 323 t b b;
#X text 161 406 decode -1 as bang;
#X connect 0 0 2 0;
#X connect 1 0 4 0;
#X connect 2 0 17 0;
#X connect 3 0 7 0;
#X connect 3 1 9 0;
#X connect 4 0 3 0;
#X connect 5 0 6 0;
#X connect 5 0 16 0;
#X connect 6 0 4 0;
#X connect 8 0 3 1;
#X connect 9 0 11 0;
#X connect 9 1 12 0;
#X connect 11 0 12 0;
#X connect 12 0 15 0;
#X connect 12 1 13 1;
#X connect 13 0 14 0;
#X connect 14 0 7 0;
#X connect 14 1 7 0;
#X connect 15 0 2 1;
#X connect 16 0 2 1;
#X connect 17 0 18 0;
#X connect 18 0 16 0;
#X connect 18 1 13 0;
