#N canvas 200 22 973 583 10;
#X obj -22 154 < 0.25;
#X obj -72 177 &&;
#X obj -72 132 t f f;
#X obj 38 393 f;
#X obj 81 393 f;
#X obj 124 393 f;
#X obj 167 393 f;
#X obj 210 393 f;
#X obj -5 393 f;
#X obj -48 393 f;
#X obj -91 393 f;
#X obj -105 354 sel 1 2 3 4 5 6 7 8;
#X obj 133 355 unpack f f f f f f f f;
#X msg -72 225 2;
#X obj -168 178 &&;
#X obj -168 133 t f f;
#X obj 123 175 &&;
#X obj 123 130 t f f;
#X obj 27 176 &&;
#X obj 27 131 t f f;
#X obj 319 172 &&;
#X obj 319 127 t f f;
#X obj 223 173 &&;
#X obj 223 128 t f f;
#X obj 514 170 &&;
#X obj 514 125 t f f;
#X obj 418 171 &&;
#X obj 418 126 t f f;
#X msg -168 226 1;
#X msg 27 225 3;
#X msg 123 224 4;
#X msg 223 221 5;
#X msg 319 220 6;
#X msg 418 219 7;
#X msg 514 218 8;
#X obj -169 203 sel 1;
#X obj -72 198 sel 1;
#X obj 27 200 sel 1;
#X obj 119 200 sel 1;
#X obj 223 197 sel 1;
#X obj 316 198 sel 1;
#X obj 417 194 sel 1;
#X obj 515 194 sel 1;
#X obj -36 42 inlet;
#X obj 128 48 inlet;
#X obj -8 467 outlet;
#X obj -133 155 < 0.125;
#X obj -168 156 >= 0;
#X obj -72 155 >= 0.125;
#X obj 27 154 >= 0.25;
#X obj 564 147 <= 1;
#X obj 514 148 >= 0.875;
#X obj 468 148 < 0.875;
#X obj 418 149 >= 0.75;
#X obj 369 149 < 0.75;
#X obj 319 149 >= 0.625;
#X obj 273 150 < 0.625;
#X obj 223 151 >= 0.5;
#X obj 173 152 < 0.5;
#X obj 125 153 >= 0.375;
#X obj 77 153 < 0.375;
#X obj 287 288 loadbang;
#X msg 289 311 1 2 3 4 5 6 7 8;
#X connect 0 0 1 1;
#X connect 1 0 36 0;
#X connect 2 0 48 0;
#X connect 2 1 0 0;
#X connect 3 0 45 0;
#X connect 4 0 45 0;
#X connect 5 0 45 0;
#X connect 6 0 45 0;
#X connect 7 0 45 0;
#X connect 8 0 45 0;
#X connect 9 0 45 0;
#X connect 10 0 45 0;
#X connect 11 0 10 0;
#X connect 11 1 9 0;
#X connect 11 2 8 0;
#X connect 11 3 3 0;
#X connect 11 4 4 0;
#X connect 11 5 5 0;
#X connect 11 6 6 0;
#X connect 11 7 7 0;
#X connect 12 0 10 1;
#X connect 12 1 9 1;
#X connect 12 2 8 1;
#X connect 12 3 3 1;
#X connect 12 4 4 1;
#X connect 12 5 5 1;
#X connect 12 6 6 1;
#X connect 12 7 7 1;
#X connect 13 0 11 0;
#X connect 14 0 35 0;
#X connect 15 0 47 0;
#X connect 15 1 46 0;
#X connect 16 0 38 0;
#X connect 17 0 59 0;
#X connect 17 1 58 0;
#X connect 18 0 37 0;
#X connect 19 0 49 0;
#X connect 19 1 60 0;
#X connect 20 0 40 0;
#X connect 21 0 55 0;
#X connect 21 1 54 0;
#X connect 22 0 39 0;
#X connect 23 0 57 0;
#X connect 23 1 56 0;
#X connect 24 0 42 0;
#X connect 25 0 51 0;
#X connect 25 1 50 0;
#X connect 26 0 41 0;
#X connect 27 0 53 0;
#X connect 27 1 52 0;
#X connect 28 0 11 0;
#X connect 29 0 11 0;
#X connect 30 0 11 0;
#X connect 31 0 11 0;
#X connect 32 0 11 0;
#X connect 33 0 11 0;
#X connect 34 0 11 0;
#X connect 35 0 28 0;
#X connect 36 0 13 0;
#X connect 37 0 29 0;
#X connect 38 0 30 0;
#X connect 39 0 31 0;
#X connect 40 0 32 0;
#X connect 41 0 33 0;
#X connect 42 0 34 0;
#X connect 43 0 15 0;
#X connect 43 0 2 0;
#X connect 43 0 19 0;
#X connect 43 0 17 0;
#X connect 43 0 21 0;
#X connect 43 0 23 0;
#X connect 43 0 27 0;
#X connect 43 0 25 0;
#X connect 44 0 12 0;
#X connect 46 0 14 1;
#X connect 47 0 14 0;
#X connect 48 0 1 0;
#X connect 49 0 18 0;
#X connect 50 0 24 1;
#X connect 51 0 24 0;
#X connect 52 0 26 1;
#X connect 53 0 26 0;
#X connect 54 0 20 1;
#X connect 55 0 20 0;
#X connect 56 0 22 1;
#X connect 57 0 22 0;
#X connect 58 0 16 1;
#X connect 59 0 16 0;
#X connect 60 0 18 1;
#X connect 61 0 62 0;
#X connect 62 0 12 0;
