#N canvas 752 22 509 477 10;
#X obj 38 33 inlet quantifedPulses;
#X obj 273 33 inlet onOff;
#X obj 73 299 f;
#X obj 148 113 gate 2;
#X obj 273 75 + 1;
#X obj 438 162 loadbang;
#X msg 355 31 1;
#X obj 148 441 outlet;
#X obj 181 32 inlet values;
#X msg 87 273 1;
#X msg 117 273 0;
#X obj 72 323 sel 1;
#X obj 72 347 t b b;
#X obj 99 376 zl reg;
#X obj 179 219 t b l;
#X obj 202 176 list;
#X obj 181 143 route list float;
#X connect 0 0 2 0;
#X connect 1 0 4 0;
#X connect 2 0 11 0;
#X connect 3 0 7 0;
#X connect 3 1 16 0;
#X connect 4 0 3 0;
#X connect 5 0 6 0;
#X connect 5 0 10 0;
#X connect 6 0 4 0;
#X connect 8 0 3 1;
#X connect 9 0 2 1;
#X connect 10 0 2 1;
#X connect 11 0 12 0;
#X connect 12 0 10 0;
#X connect 12 1 13 0;
#X connect 13 0 7 0;
#X connect 14 0 9 0;
#X connect 14 1 13 1;
#X connect 15 0 14 0;
#X connect 16 0 14 0;
#X connect 16 1 15 0;
