#N canvas 755 22 528 515 10;
#X obj 205 181 unpack f f;
#X msg 97 213 inc;
#X msg 62 213 dec;
#X obj 55 168 sel -1 1 0;
#X obj 423 96 f \$1;
#X obj 462 97 f \$2;
#X obj 423 127 pack f f;
#X obj 423 47 loadbang;
#X text 229 247 min;
#X text 309 248 max;
#X obj 146 348 outlet;
#X msg 176 247 min \$1;
#X text 129 189 reset;
#X msg 262 248 max \$1;
#X msg 131 213 bang;
#X obj 146 299 counter;
#X obj 265 223 f;
#X obj 175 223 f;
#X obj 423 72 t b b;
#X msg 57 127 1;
#X obj 82 48 inlet controlValue;
#X obj 205 48 inlet minMaxList;
#X msg 340 250 jam \$1;
#X text 193 128 second element of a list;
#X obj 82 94 route bang float;
#X obj 340 48 inlet jump;
#X connect 0 0 17 0;
#X connect 0 1 16 0;
#X connect 1 0 15 0;
#X connect 2 0 15 0;
#X connect 3 0 2 0;
#X connect 3 1 1 0;
#X connect 3 2 14 0;
#X connect 4 0 6 0;
#X connect 5 0 6 1;
#X connect 6 0 0 0;
#X connect 7 0 18 0;
#X connect 11 0 15 0;
#X connect 13 0 15 0;
#X connect 14 0 15 2;
#X connect 15 0 10 0;
#X connect 16 0 13 0;
#X connect 17 0 11 0;
#X connect 18 0 4 0;
#X connect 18 1 5 0;
#X connect 19 0 3 0;
#X connect 20 0 24 0;
#X connect 21 0 0 0;
#X connect 22 0 15 0;
#X connect 24 0 19 0;
#X connect 24 1 3 0;
#X connect 25 0 22 0;
