#N canvas 50 51 758 622 10;
#X obj 138 50 inlet;
#X obj 254 41 inlet;
#X obj 313 40 inlet;
#X obj 138 326 outlet;
#X obj 138 293 +;
#X obj 256 154 f;
#X obj 303 153 f;
#X obj 257 211 -;
#X obj 256 119 t b b;
#X text 335 156 find range;
#X obj 257 236 abs;
#X obj 314 80 t b f;
#X obj 256 82 t b f;
#X obj 389 116 f \$1;
#X obj 434 118 f \$2;
#X obj 383 21 loadbang;
#X obj 386 86 t b b b;
#X obj 256 183 t f f;
#X obj 134 94 t b;
#X obj 135 199 random 1;
#X obj 257 263 + 1;
#X text 293 260 make inclusive of highest value;
#X connect 0 0 18 0;
#X connect 1 0 12 0;
#X connect 2 0 11 0;
#X connect 4 0 3 0;
#X connect 5 0 17 0;
#X connect 6 0 7 0;
#X connect 7 0 10 0;
#X connect 8 0 6 0;
#X connect 8 1 5 0;
#X connect 10 0 20 0;
#X connect 11 0 8 0;
#X connect 11 1 6 1;
#X connect 12 0 8 0;
#X connect 12 1 5 1;
#X connect 13 0 5 1;
#X connect 14 0 6 1;
#X connect 15 0 16 0;
#X connect 16 0 8 0;
#X connect 16 1 13 0;
#X connect 16 2 14 0;
#X connect 17 0 4 1;
#X connect 17 1 7 1;
#X connect 18 0 19 0;
#X connect 19 0 4 0;
#X connect 20 0 19 1;
