#N canvas 825 107 450 300 10;
#X obj 116 48 bng 15 250 50 0 empty empty empty 17 7 0 10 -262144 -1
-1;
#X floatatom 144 132 5 0 0 0 - - -;
#X floatatom 177 60 5 0 0 0 - - -;
#X floatatom 226 51 5 0 0 0 - - -;
#X obj 47 11 tgl 15 0 empty empty empty 17 7 0 10 -262144 -1 -1 1 1
;
#X obj 44 37 metro 150;
#X obj 134 92 axRandomInt 40 50;
#X connect 0 0 6 0;
#X connect 2 0 6 1;
#X connect 3 0 6 2;
#X connect 4 0 5 0;
#X connect 5 0 6 0;
#X connect 6 0 1 0;
