#N canvas 250 452 450 300 10;
#X floatatom 193 181 5 0 0 0 - - -;
#X msg 199 80 1;
#X msg 242 82 -1;
#X msg 152 80 0;
#X msg 225 48 bang;
#X obj 201 114 mgRangeCircular 1 3;
#X msg 298 46 2;
#X msg 317 77 3;
#X connect 1 0 5 0;
#X connect 2 0 5 0;
#X connect 3 0 5 0;
#X connect 4 0 5 0;
#X connect 5 0 0 0;
#X connect 6 0 5 2;
#X connect 7 0 5 2;
