#N canvas 760 223 528 515 10;
#X obj 74 50 inlet;
#X obj 203 48 inlet;
#X obj 205 181 unpack f f;
#X msg 97 211 inc;
#X msg 65 211 dec;
#X obj 55 168 sel -1 1 0;
#X obj 255 109 f \$1;
#X obj 294 110 f \$2;
#X obj 253 141 pack f f;
#X obj 256 52 loadbang;
#X text 229 247 min;
#X text 308 248 max;
#X obj 145 413 outlet;
#X msg 176 247 min \$1;
#X text 135 189 reset;
#X msg 262 248 max \$1;
#X msg 137 210 bang;
#X obj 146 286 counter;
#X obj 265 223 f;
#X obj 175 223 f;
#X obj 252 86 t b b;
#X text 63 387 filter out min and max \; provide values and reset counter
;
#X text 314 319 to implement;
#X connect 0 0 5 0;
#X connect 1 0 2 0;
#X connect 2 0 19 0;
#X connect 2 1 18 0;
#X connect 3 0 17 0;
#X connect 4 0 17 0;
#X connect 5 0 4 0;
#X connect 5 1 3 0;
#X connect 5 2 16 0;
#X connect 6 0 8 0;
#X connect 7 0 8 1;
#X connect 8 0 2 0;
#X connect 9 0 20 0;
#X connect 13 0 17 0;
#X connect 15 0 17 0;
#X connect 16 0 17 2;
#X connect 18 0 15 0;
#X connect 19 0 13 0;
#X connect 20 0 6 0;
#X connect 20 1 7 0;
