#N canvas 99 453 450 300 10;
#X msg 275 198;
#X floatatom 193 181 5 0 0 0 - - -;
#X msg 199 80 1;
#X msg 242 82 -1;
#X obj 442 118;
#X obj 442 118;
#X msg 326 188;
#X msg 152 80 0;
#X obj 201 114 mgRangeLimit 1 3;
#X connect 2 0 8 0;
#X connect 3 0 8 0;
#X connect 7 0 8 0;
#X connect 8 0 1 0;
