#N canvas 749 22 1024 521 10;
#X obj 536 447 *~;
#X obj 536 476 outlet~;
#X msg 384 61 1;
#X text 493 35 give a list: value/key apirs;
#X obj 441 387 *~;
#X obj 456 365 lop~ 20;
#X obj 456 343 sig~;
#X obj 591 397 unpack f f;
#X obj 495 57 inlet eventTrigger;
#X obj 494 115 t f b;
#X obj 739 54 inlet amp;
#X obj 821 52 inlet arEnvelopeParameters;
#X obj 614 55 inlet playbackRate;
#X obj 495 86 sel 0;
#X obj 548 425 mgEnvlBtAr 5 20;
#X obj 270 345 tabread4~ \$0-mgSample;
#X obj 270 317 mgSoundfilerControlTrigger;
#X obj 36 39 inlet~ rec;
#X obj 139 42 inlet recTrig;
#X obj 304 234 mgMsToSample;
#X text 349 106 provide dur as arg;
#X obj 304 189 f \$1;
#X obj 351 31 loadbang;
#X obj 756 398 s \$0-mgSample;
#X obj 304 212 t f f;
#X msg 756 371 resize \$1;
#X obj 40 282 tabwrite~ \$0-mgSample;
#X obj 40 249 *~;
#X obj 141 93 sel 1 0;
#X msg 72 164 1;
#X obj 160 132 t b b;
#X msg 160 202 stop;
#X msg 187 155 0;
#X obj 756 421 table \$0-mgSample 4000;
#X msg 356 62 0;
#X msg 99 164 start 0;
#X obj 304 260 t f f f;
#X obj 70 248 mgEnvlBtAr 10 10;
#X obj 160 179 delay 10;
#X obj 72 135 t b b b;
#X obj 823 297 t b;
#X obj 756 344 f;
#X msg 825 370 const 0;
#X text 799 273 clear by setting constant;
#X connect 0 0 1 0;
#X connect 2 0 6 0;
#X connect 2 0 16 2;
#X connect 4 0 0 0;
#X connect 5 0 4 1;
#X connect 6 0 5 0;
#X connect 7 0 14 1;
#X connect 7 1 14 2;
#X connect 8 0 13 0;
#X connect 9 0 14 0;
#X connect 9 1 16 0;
#X connect 10 0 6 0;
#X connect 11 0 7 0;
#X connect 12 0 16 2;
#X connect 13 0 14 0;
#X connect 13 1 9 0;
#X connect 14 0 0 1;
#X connect 15 0 4 0;
#X connect 16 0 15 0;
#X connect 17 0 27 0;
#X connect 18 0 28 0;
#X connect 19 0 36 0;
#X connect 21 0 24 0;
#X connect 22 0 21 0;
#X connect 22 0 34 0;
#X connect 22 0 2 0;
#X connect 24 0 19 0;
#X connect 25 0 23 0;
#X connect 27 0 26 0;
#X connect 28 0 39 0;
#X connect 28 1 30 0;
#X connect 29 0 37 0;
#X connect 30 0 38 0;
#X connect 30 1 32 0;
#X connect 31 0 26 0;
#X connect 32 0 37 0;
#X connect 34 0 28 0;
#X connect 35 0 26 0;
#X connect 36 0 16 1;
#X connect 36 2 41 0;
#X connect 37 0 27 1;
#X connect 38 0 31 0;
#X connect 39 0 29 0;
#X connect 39 1 35 0;
#X connect 39 2 40 0;
#X connect 40 0 42 0;
#X connect 41 0 25 0;
#X connect 42 0 23 0;
