#N canvas 86 586 450 300 10;
#X msg 93 40;
#X floatatom 143 74 5 0 0 0 - - -;
#X floatatom 200 67 5 0 0 0 - - -;
#X floatatom 250 68 5 0 0 0 - - -;
#X obj 171 176 lop~ 18000;
#X obj 162 205 *~ 0.2;
#X obj 160 247 dac~;
#X obj 168 101 mgSynthSahOsc_v;
#X msg 262 31 2000;
#X msg 198 32 1000;
#X obj 322 96;
#X connect 1 0 7 0;
#X connect 2 0 7 1;
#X connect 3 0 7 2;
#X connect 4 0 5 0;
#X connect 5 0 6 0;
#X connect 5 0 6 1;
#X connect 7 0 4 0;
#X connect 8 0 7 2;
#X connect 9 0 7 1;
