#N canvas 528 465 826 395 10;
#X obj 282 201 tgl 15 0 empty empty empty 17 7 0 10 -262144 -1 -1 0
1;
#X obj 306 203 tgl 15 0 empty empty empty 17 7 0 10 -262144 -1 -1 0
1;
#X msg 450 212 1;
#X msg 449 188 0.5;
#X obj 141 78 tgl 15 0 empty empty empty 17 7 0 10 -262144 -1 -1 1
1;
#X obj 268 302 dac~;
#X obj 143 106 metro 20;
#X obj 145 137 click~ 80;
#X obj 161 199 mgSelector4~;
#X obj 220 132 cycle~ 120;
#X msg 107 195 1;
#X msg 107 218 2;
#X msg 108 172 0;
#X obj 275 255 mgSample_v 6000;
#X text 483 203 playback rate;
#X text 268 164 toggle recprding / toggle playback;
#X connect 0 0 13 1;
#X connect 1 0 13 2;
#X connect 2 0 13 3;
#X connect 3 0 13 3;
#X connect 4 0 6 0;
#X connect 6 0 7 0;
#X connect 7 0 8 1;
#X connect 8 0 5 1;
#X connect 8 0 13 0;
#X connect 9 0 8 2;
#X connect 10 0 8 0;
#X connect 11 0 8 0;
#X connect 12 0 8 0;
#X connect 13 0 5 0;
