#N canvas 89 758 450 300 10;
#X obj 33 188 noise~;
#X obj 32 256 outlet~;
#X obj 88 50 sig~;
#X obj 90 71 lop~ 20;
#X obj 167 67 sig~;
#X obj 165 95 lop~ 20;
#X obj 237 57 sig~;
#X obj 235 85 lop~ 20;
#X obj 94 17 inlet rate;
#X obj 178 16 inlet min;
#X obj 253 17 inlet max;
#X obj 324 19 unpack f f f;
#X obj 83 188 phasor~;
#X obj 33 211 samphold~;
#X obj 90 102 cycle~ 0.1;
#X msg 316 89 0.2 0.5 10;
#X obj 351 60 loadbang;
#X text 158 190 need to add min/max scaling;
#X obj 96 126 mgRectify~;
#X obj 117 151 mgScaleMinMax~;
#X connect 0 0 13 0;
#X connect 2 0 3 0;
#X connect 3 0 14 0;
#X connect 4 0 5 0;
#X connect 5 0 19 1;
#X connect 6 0 7 0;
#X connect 7 0 19 2;
#X connect 8 0 2 0;
#X connect 9 0 4 0;
#X connect 10 0 6 0;
#X connect 11 0 2 0;
#X connect 11 1 4 0;
#X connect 11 2 6 0;
#X connect 12 0 13 1;
#X connect 13 0 1 0;
#X connect 14 0 18 0;
#X connect 15 0 11 0;
#X connect 16 0 15 0;
#X connect 18 0 19 0;
#X connect 19 0 12 0;
