#N canvas 767 403 450 300 10;
#X obj 221 94 f \$1;
#X obj 258 94 f \$2;
#X obj 298 95 f \$3;
#X obj 37 155 expr ($f1 * ($f3-$f2) + $f2);
#X obj 217 155 expr ($f1 * ($f3-$f2) + $f2);
#X obj 70 231 outlet;
#X obj 41 56 inlet;
#X obj 250 45 loadbang;
#X obj 28 95 mgScaleUnitSplit;
#X connect 0 0 3 1;
#X connect 1 0 3 2;
#X connect 1 0 4 1;
#X connect 2 0 4 2;
#X connect 3 0 5 0;
#X connect 4 0 5 0;
#X connect 6 0 8 0;
#X connect 7 0 0 0;
#X connect 7 0 1 0;
#X connect 7 0 2 0;
#X connect 8 0 3 0;
#X connect 8 1 4 0;
