#N canvas 871 22 450 300 10;
#X floatatom 149 215 5 0 0 0 - - -;
#X floatatom 256 98 5 0 1 0 - - -;
#X msg 105 90 0;
#X msg 145 88 0.5;
#X obj 289 58;
#X msg 192 90 1;
#X obj 172 151 mgScaleUnitToMirror 1;
#X obj 28 149 mgScaleUnitToMirror 0;
#X floatatom 42 213 5 0 0 0 - - -;
#X connect 1 0 6 0;
#X connect 1 0 7 0;
#X connect 2 0 6 0;
#X connect 2 0 7 0;
#X connect 3 0 6 0;
#X connect 3 0 7 0;
#X connect 5 0 6 0;
#X connect 5 0 7 0;
#X connect 6 0 0 0;
#X connect 7 0 8 0;
