#N canvas 301 680 450 300 10;
#X obj 105 199 print min;
#X obj 231 200 print max;
#X floatatom 121 85 5 0 0 0 - - -;
#X msg 284 67 0.25;
#X msg 254 68 0.5;
#X msg 211 67 1.5;
#X obj 256 103 t f;
#X msg 65 91 2.5;
#X msg 85 69 3;
#X msg 38 69 1;
#X obj 114 136 mgScaleCenterToMinMax;
#X connect 2 0 10 0;
#X connect 3 0 6 0;
#X connect 4 0 6 0;
#X connect 5 0 6 0;
#X connect 6 0 10 1;
#X connect 7 0 10 0;
#X connect 8 0 10 0;
#X connect 9 0 10 0;
#X connect 10 0 0 0;
#X connect 10 1 1 0;
