#N canvas 650 349 599 356 10;
#X obj 110 117 zl reg;
#X obj 110 167 +;
#X obj 137 167 * 12;
#X obj 110 142 zl iter 1;
#X obj 111 193 zl group 8;
#X obj 172 167 t b f;
#X obj 103 51 inlet scaleList;
#X obj 219 54 inlet octaveShift;
#X obj 351 64 loadbang;
#X msg 328 116 0;
#X msg 362 116 40 42 43 45 47 48 50 51;
#X obj 121 268 outlet sclaeList;
#X connect 0 0 3 0;
#X connect 1 0 4 0;
#X connect 2 0 1 1;
#X connect 3 0 1 0;
#X connect 4 0 11 0;
#X connect 5 0 0 0;
#X connect 5 1 2 0;
#X connect 6 0 0 0;
#X connect 7 0 5 0;
#X connect 8 0 9 0;
#X connect 8 0 10 0;
#X connect 9 0 5 0;
#X connect 10 0 0 0;
