#N canvas 37 166 659 509 10;
#X obj 224 88 f;
#X obj 222 50 inlet;
#X obj 224 119 t f f b;
#X obj 400 52 inlet;
#X obj 400 83 t b f;
#X obj 137 266 zl group 8;
#X obj 136 296 t l l l b;
#X obj 136 431 outlet;
#X obj 226 435 outlet;
#X obj 219 347 zl slice 1;
#X obj 298 345 zl ecils 1;
#X obj 224 163 * 1.33;
#X obj 377 234 gate;
#X obj 224 193 t f f;
#X msg 316 234 0;
#X msg 347 234 1;
#X text 279 32 start value \, scalar \, size;
#X obj 487 53 inlet;
#X obj 224 407 pack f f;
#X obj 299 375 f;
#X obj 221 378 f;
#X connect 0 0 2 0;
#X connect 1 0 0 0;
#X connect 2 0 11 0;
#X connect 2 1 5 0;
#X connect 2 2 15 0;
#X connect 3 0 4 0;
#X connect 4 1 11 1;
#X connect 5 0 6 0;
#X connect 6 0 7 0;
#X connect 6 1 9 0;
#X connect 6 2 10 0;
#X connect 6 3 14 0;
#X connect 9 0 20 0;
#X connect 10 1 19 0;
#X connect 11 0 13 0;
#X connect 12 0 11 0;
#X connect 13 0 12 1;
#X connect 13 1 5 0;
#X connect 14 0 12 0;
#X connect 15 0 12 0;
#X connect 17 0 5 1;
#X connect 18 0 8 0;
#X connect 19 0 18 1;
#X connect 20 0 18 0;
