#N canvas 0 22 980 264 10;
#X msg 393 76;
#X floatatom 255 83 5 0 1 0 - - -;
#X floatatom 192 175 5 0 0 0 - - -;
#X floatatom 332 178 5 0 0 0 - - -;
#X msg 153 51 1;
#X msg 191 45 0.5;
#X obj 297 50;
#X msg 232 51 0;
#X obj 179 125 mgScaleUnitToMirrorSplit 1;
#X floatatom 399 176 5 0 0 0 - - -;
#X floatatom 539 179 5 0 0 0 - - -;
#X obj 386 126 mgScaleUnitToMirrorSplit 0;
#X connect 1 0 8 0;
#X connect 1 0 11 0;
#X connect 4 0 8 0;
#X connect 5 0 8 0;
#X connect 7 0 8 0;
#X connect 8 0 2 0;
#X connect 8 1 3 0;
#X connect 11 0 9 0;
#X connect 11 1 10 0;
