#N canvas 0 22 450 300 10;
#X obj 198 168 mgScaleTranspose8;
#X msg 201 116 0 1 2 3 4 5 6 7;
#X floatatom 335 119 5 0 0 0 - - -;
#X obj 194 221 print;
#X msg 174 76 60 62 64 65 67 69 71 72;
#X msg 368 77 1;
#X msg 370 56 0;
#X connect 0 0 3 0;
#X connect 1 0 0 0;
#X connect 2 0 0 1;
#X connect 4 0 0 0;
#X connect 5 0 2 0;
#X connect 6 0 2 0;
