#N canvas 885 549 484 373 10;
#X obj 88 42 inlet value;
#X obj 239 42 inlet scalar;
#X obj 137 250 +;
#X obj 95 252 -;
#X obj 94 160 t f f f;
#X obj 93 130 f;
#X obj 188 93 t b f;
#X obj 343 21 loadbang;
#X obj 96 304 outlet min;
#X obj 191 305 outlet max;
#X msg 347 53 0;
#X connect 0 0 5 0;
#X connect 1 0 6 0;
#X connect 2 0 9 0;
#X connect 3 0 8 0;
#X connect 4 0 3 0;
#X connect 4 1 2 0;
#X connect 5 0 4 0;
#X connect 6 0 5 0;
#X connect 6 1 3 1;
#X connect 6 1 2 1;
#X connect 7 0 10 0;
#X connect 10 0 6 0;
