#N canvas 654 230 734 480 10;
#X obj 283 49 inlet;
#X obj 282 80 * 2;
#X obj 280 111 t f f f;
#X obj 267 230 switch;
#X msg 217 196 1;
#X msg 250 196 2;
#X obj 333 111 > 1;
#X obj 333 135 sel 0 1;
#X obj 262 264 gate 2;
#X obj 310 402 outlet;
#X obj 304 195 + 1;
#X obj 302 167 mgSubtractReverse 1;
#X obj 294 293 mgSubtractReverse 1;
#X msg 187 264 1;
#X msg 220 264 2;
#X obj 181 134 loadbang;
#X obj 139 199 f \$1;
#X obj 142 226 sel 0 1;
#X text -83 84 provided argument gives what the middle value (formerly
.5) will be \, either 0 or 1;
#X obj 241 405 outlet;
#X obj 255 342 gate 2;
#X text 149 438 0 to 0.5 mapped to 1 to 0;
#X text 323 433 0.5 to 1 mapped to 0 to 1;
#X connect 0 0 1 0;
#X connect 1 0 2 0;
#X connect 2 0 3 1;
#X connect 2 1 11 0;
#X connect 2 2 6 0;
#X connect 3 0 8 1;
#X connect 4 0 3 0;
#X connect 4 0 20 0;
#X connect 5 0 3 0;
#X connect 5 0 20 0;
#X connect 6 0 7 0;
#X connect 7 0 4 0;
#X connect 7 1 5 0;
#X connect 8 0 20 1;
#X connect 8 1 12 0;
#X connect 10 0 3 2;
#X connect 11 0 10 0;
#X connect 12 0 20 1;
#X connect 13 0 8 0;
#X connect 14 0 8 0;
#X connect 15 0 13 0;
#X connect 15 0 16 0;
#X connect 16 0 17 0;
#X connect 17 0 14 0;
#X connect 17 1 13 0;
#X connect 20 0 19 0;
#X connect 20 1 9 0;
