#N canvas 283 275 530 473 10;
#X obj 157 238 print;
#X obj 151 109 unpack f f f;
#X msg 147 52 120 2 8;
#X msg 220 50 30 1.3 16;
#X msg 99 117 60;
#X msg 248 95 0.5;
#X floatatom 354 39 5 0 0 0 - - -;
#X obj 234 212 print range;
#X obj 144 162 mgScaleRecurse;
#X connect 1 0 8 0;
#X connect 1 1 8 1;
#X connect 1 2 8 2;
#X connect 2 0 1 0;
#X connect 3 0 1 0;
#X connect 4 0 8 0;
#X connect 5 0 8 1;
#X connect 8 0 0 0;
#X connect 8 1 7 0;
