#N canvas 917 668 494 318 10;
#X obj 154 56 inlet;
#X obj 153 263 outlet;
#X obj 150 163 pow 1;
#X obj 147 202 expr ($f1 * ($f3-$f2)) + $f2;
#X obj 252 43 loadbang;
#X obj 251 74 t b b b b;
#X obj 230 101 f \$1;
#X obj 267 101 f \$2;
#X obj 300 101 f \$3;
#X connect 0 0 2 0;
#X connect 2 0 3 0;
#X connect 3 0 1 0;
#X connect 4 0 5 0;
#X connect 5 0 6 0;
#X connect 5 1 7 0;
#X connect 5 2 8 0;
#X connect 6 0 3 1;
#X connect 7 0 3 2;
#X connect 8 0 2 1;
