#N canvas 575 436 450 300 10;
#X obj 77 251 outlet~;
#X obj 165 150 abs~;
#X obj 165 122 -~;
#X text 35 4 signal \, min \, max;
#X obj 77 220 +~;
#X obj 77 196 *~;
#X obj 78 31 inlet~;
#X text 200 140 range;
#X text 115 193 scale;
#X text 119 219 shift;
#X obj 241 44 sig~ \$2;
#X obj 147 36 sig~ \$1;
#X connect 1 0 5 1;
#X connect 2 0 1 0;
#X connect 4 0 0 0;
#X connect 5 0 4 0;
#X connect 6 0 5 0;
#X connect 10 0 2 0;
#X connect 11 0 2 1;
#X connect 11 0 4 1;
