#N canvas 443 716 450 300 10;
#X obj 66 47 inlet;
#X obj 66 180 expr ($f1 * ($f3-$f2)) + $f2;
#X obj 331 36 loadbang;
#X obj 309 94 f \$1;
#X obj 346 94 f \$2;
#X obj 63 235 outlet;
#X obj 330 67 t b b;
#X obj 125 51 inlet min;
#X obj 223 50 inlet max;
#X connect 0 0 1 0;
#X connect 1 0 5 0;
#X connect 2 0 6 0;
#X connect 3 0 1 1;
#X connect 4 0 1 2;
#X connect 6 0 3 0;
#X connect 6 1 4 0;
#X connect 7 0 1 1;
#X connect 8 0 1 2;
