#N canvas 465 294 734 480 10;
#X obj 283 49 inlet;
#X obj 282 80 * 2;
#X obj 280 111 t f f f;
#X obj 267 230 switch;
#X msg 217 196 1;
#X msg 250 196 2;
#X obj 333 111 > 1;
#X obj 333 135 sel 0 1;
#X obj 286 364 outlet;
#X obj 217 367 outlet;
#X obj 231 304 gate 2;
#X obj 338 309 mgSubtractReverse 1;
#X text 149 438 0 to 0.5 mapped to 1 to 0;
#X text 323 433 0.5 to 1 mapped to 0 to 1;
#X obj 304 195 - 1;
#X text 391 45 0 to 0.5 output 0 to 1 on left \, 0.5 to 1 output 0
to 1 on right;
#X connect 0 0 1 0;
#X connect 1 0 2 0;
#X connect 2 0 3 1;
#X connect 2 1 14 0;
#X connect 2 2 6 0;
#X connect 3 0 10 1;
#X connect 4 0 3 0;
#X connect 4 0 10 0;
#X connect 5 0 3 0;
#X connect 5 0 10 0;
#X connect 6 0 7 0;
#X connect 7 0 4 0;
#X connect 7 1 5 0;
#X connect 10 0 9 0;
#X connect 10 1 8 0;
#X connect 14 0 3 2;
