#N canvas 0 22 450 300 10;
#X obj 137 173 mgSelector2;
#X msg 72 92 1;
#X msg 72 63 2;
#X msg 67 121 0;
#X msg 179 61 1;
#X obj 129 226 bng 15 250 50 0 empty empty empty 17 7 0 10 -262144
-1 -1;
#X obj 148 113 metro 2000;
#X obj 239 116 metro 500;
#X connect 0 0 5 0;
#X connect 1 0 0 0;
#X connect 2 0 0 0;
#X connect 3 0 0 0;
#X connect 4 0 6 0;
#X connect 4 0 7 0;
#X connect 6 0 0 1;
#X connect 7 0 0 2;
