#N canvas 965 470 482 358 10;
#X obj 102 263 gate;
#X obj 204 262 gate;
#X obj 120 46 inlet;
#X obj 204 46 inlet;
#X obj 7 45 inlet control;
#X obj 138 308 outlet;
#X obj 284 45 inlet;
#X obj 368 45 inlet;
#X obj 273 262 gate;
#X obj 351 260 gate;
#X obj 34 214 unpack f f f f;
#X msg 6 92 0 0 0 0;
#X msg 26 113 1 0 0 0;
#X msg 43 131 0 1 0 0;
#X msg 54 152 0 0 1 0;
#X msg 64 176 0 0 0 1;
#X obj 6 71 sel 0 1 2 3 4;
#X connect 0 0 5 0;
#X connect 1 0 5 0;
#X connect 2 0 0 1;
#X connect 3 0 1 1;
#X connect 4 0 16 0;
#X connect 6 0 8 1;
#X connect 7 0 9 1;
#X connect 8 0 5 0;
#X connect 9 0 5 0;
#X connect 10 0 0 0;
#X connect 10 1 1 0;
#X connect 10 2 8 0;
#X connect 10 3 9 0;
#X connect 11 0 10 0;
#X connect 12 0 10 0;
#X connect 13 0 10 0;
#X connect 14 0 10 0;
#X connect 15 0 10 0;
#X connect 16 0 11 0;
#X connect 16 1 12 0;
#X connect 16 2 13 0;
#X connect 16 3 14 0;
#X connect 16 4 15 0;
