#N canvas 965 470 450 300 10;
#X obj 114 207 gate;
#X obj 216 206 gate;
#X obj 120 46 inlet;
#X obj 204 46 inlet;
#X obj 7 45 inlet control;
#X obj 6 79 sel 0 1 2;
#X msg 4 109 0 0;
#X msg 37 109 1 0;
#X msg 79 110 0 1;
#X obj 150 252 outlet;
#X obj 29 158 unpack f f;
#X connect 0 0 9 0;
#X connect 1 0 9 0;
#X connect 2 0 0 1;
#X connect 3 0 1 1;
#X connect 4 0 5 0;
#X connect 5 0 6 0;
#X connect 5 1 7 0;
#X connect 5 2 8 0;
#X connect 6 0 10 0;
#X connect 7 0 10 0;
#X connect 8 0 10 0;
#X connect 10 0 0 0;
#X connect 10 1 1 0;
