#N canvas 473 252 1028 440 10;
#X obj 489 138 unpack f f f f f f f f;
#X msg 44 93 0 0 0 0 0 0 0 0;
#X msg 149 93 1 0 0 0 0 0 0 0;
#X msg 257 93 0 1 0 0 0 0 0 0;
#X msg 365 93 0 0 1 0 0 0 0 0;
#X msg 473 93 0 0 0 1 0 0 0 0;
#X msg 577 93 0 0 0 0 1 0 0 0;
#X msg 681 93 0 0 0 0 0 1 0 0;
#X msg 785 93 0 0 0 0 0 0 1 0;
#X msg 891 93 0 0 0 0 0 0 0 1;
#X obj 14 57 sel 0 1 2 3 4 5 6 7 8;
#X obj 157 19 inlet;
#X obj 43 24 inlet control;
#X obj 230 21 inlet;
#X obj 324 20 inlet;
#X obj 397 22 inlet;
#X obj 464 24 inlet;
#X obj 537 26 inlet;
#X obj 631 25 inlet;
#X obj 704 27 inlet;
#X obj 156 234 gate;
#X obj 231 239 gate;
#X obj 323 235 gate;
#X obj 398 240 gate;
#X obj 463 239 gate;
#X obj 538 244 gate;
#X obj 705 245 gate;
#X obj 475 373 outlet;
#X obj 630 240 gate;
#X connect 0 0 20 0;
#X connect 0 1 21 0;
#X connect 0 2 22 0;
#X connect 0 3 23 0;
#X connect 0 4 24 0;
#X connect 0 5 25 0;
#X connect 0 6 28 0;
#X connect 0 7 26 0;
#X connect 1 0 0 0;
#X connect 2 0 0 0;
#X connect 3 0 0 0;
#X connect 4 0 0 0;
#X connect 5 0 0 0;
#X connect 6 0 0 0;
#X connect 7 0 0 0;
#X connect 8 0 0 0;
#X connect 9 0 0 0;
#X connect 10 0 1 0;
#X connect 10 1 2 0;
#X connect 10 2 3 0;
#X connect 10 3 4 0;
#X connect 10 4 5 0;
#X connect 10 5 6 0;
#X connect 10 6 7 0;
#X connect 10 7 8 0;
#X connect 10 8 9 0;
#X connect 11 0 20 1;
#X connect 12 0 10 0;
#X connect 13 0 21 1;
#X connect 14 0 22 1;
#X connect 15 0 23 1;
#X connect 16 0 24 1;
#X connect 17 0 25 1;
#X connect 18 0 28 1;
#X connect 19 0 26 1;
#X connect 20 0 27 0;
#X connect 21 0 27 0;
#X connect 22 0 27 0;
#X connect 23 0 27 0;
#X connect 24 0 27 0;
#X connect 25 0 27 0;
#X connect 26 0 27 0;
#X connect 28 0 27 0;
