#N canvas 505 494 1175 556 10;
#X obj 52 208 sel 1;
#X obj 106 208 sel 2;
#X obj 160 208 sel 3;
#X obj 214 208 sel 4;
#X obj 279 212 sel 5;
#X obj 333 208 sel 6;
#X obj 387 212 sel 7;
#X obj 441 212 sel 8;
#X obj 506 208 sel 9;
#X obj 560 208 sel 10;
#X obj 614 208 sel 11;
#X obj 668 208 sel 12;
#X obj 733 212 sel 13;
#X obj 787 212 sel 14;
#X obj 841 212 sel 15;
#X obj 895 212 sel 16;
#X obj 53 19 inlet pulseStream;
#X obj 49 274 f;
#X obj 460 97 unpack f f f f f f f f f f f f f f f f;
#X obj 101 274 f;
#X obj 158 274 f;
#X obj 210 274 f;
#X obj 275 274 f;
#X obj 327 274 f;
#X obj 384 274 f;
#X obj 436 274 f;
#X obj 510 267 f;
#X obj 562 267 f;
#X obj 619 267 f;
#X obj 671 267 f;
#X obj 736 267 f;
#X obj 788 267 f;
#X obj 845 267 f;
#X obj 897 267 f;
#X obj 324 13 inlet max;
#X msg 351 83 max \$1;
#X obj 185 17 inlet method;
#X obj 185 55 sel orderedCyclic;
#X obj 324 37 t b f;
#X obj 351 61 clip 1 16;
#X obj 77 274 f;
#X obj 701 98 unpack f f f f f f f f f f f f f f f f;
#X obj 129 274 f;
#X obj 186 274 f;
#X obj 238 274 f;
#X obj 303 274 f;
#X obj 355 274 f;
#X obj 412 274 f;
#X obj 464 274 f;
#X obj 538 267 f;
#X obj 590 267 f;
#X obj 647 267 f;
#X obj 699 267 f;
#X obj 764 267 f;
#X obj 816 267 f;
#X obj 873 267 f;
#X obj 925 267 f;
#X obj 308 411 pack f f;
#X obj 45 240 t b b;
#X obj 104 240 t b b;
#X obj 159 240 t b b;
#X obj 214 240 t b b;
#X obj 279 240 t b b;
#X obj 338 240 t b b;
#X obj 393 240 t b b;
#X obj 448 244 t b b;
#X obj 510 240 t b b;
#X obj 569 236 t b b;
#X obj 624 240 t b b;
#X obj 679 240 t b b;
#X obj 744 240 t b b;
#X obj 803 240 t b b;
#X obj 858 240 t b b;
#X obj 913 240 t b b;
#X obj 424 401 t f;
#X obj 312 444 outlet;
#X obj 708 29 inlet valuesB;
#X obj 461 24 inlet valuesA;
#X obj 53 53 route bang float;
#X obj 95 132 counter 1 16;
#X obj 52 157 t f;
#X connect 0 0 58 0;
#X connect 1 0 59 0;
#X connect 2 0 60 0;
#X connect 3 0 61 0;
#X connect 4 0 62 0;
#X connect 5 0 63 0;
#X connect 6 0 64 0;
#X connect 7 0 65 0;
#X connect 8 0 66 0;
#X connect 9 0 67 0;
#X connect 10 0 68 0;
#X connect 11 0 69 0;
#X connect 12 0 70 0;
#X connect 13 0 71 0;
#X connect 14 0 72 0;
#X connect 15 0 73 0;
#X connect 16 0 78 0;
#X connect 17 0 57 0;
#X connect 18 0 17 1;
#X connect 18 1 19 1;
#X connect 18 2 20 1;
#X connect 18 3 21 1;
#X connect 18 4 22 1;
#X connect 18 5 23 1;
#X connect 18 6 24 1;
#X connect 18 7 25 1;
#X connect 18 8 26 1;
#X connect 18 9 27 1;
#X connect 18 10 28 1;
#X connect 18 11 29 1;
#X connect 18 12 30 1;
#X connect 18 13 31 1;
#X connect 18 14 32 1;
#X connect 18 15 33 1;
#X connect 19 0 57 0;
#X connect 20 0 57 0;
#X connect 21 0 57 0;
#X connect 22 0 57 0;
#X connect 23 0 57 0;
#X connect 24 0 57 0;
#X connect 25 0 57 0;
#X connect 26 0 57 0;
#X connect 27 0 57 0;
#X connect 28 0 57 0;
#X connect 29 0 57 0;
#X connect 30 0 57 0;
#X connect 31 0 57 0;
#X connect 32 0 57 0;
#X connect 33 0 57 0;
#X connect 34 0 38 0;
#X connect 35 0 79 0;
#X connect 36 0 37 0;
#X connect 38 0 79 2;
#X connect 38 1 39 0;
#X connect 39 0 35 0;
#X connect 40 0 74 0;
#X connect 41 0 40 1;
#X connect 41 1 42 1;
#X connect 41 2 43 1;
#X connect 41 3 44 1;
#X connect 41 4 45 1;
#X connect 41 5 46 1;
#X connect 41 6 47 1;
#X connect 41 7 48 1;
#X connect 41 8 49 1;
#X connect 41 9 50 1;
#X connect 41 10 51 1;
#X connect 41 11 52 1;
#X connect 41 12 53 1;
#X connect 41 13 54 1;
#X connect 41 14 55 1;
#X connect 41 15 56 1;
#X connect 42 0 74 0;
#X connect 43 0 74 0;
#X connect 44 0 74 0;
#X connect 45 0 74 0;
#X connect 46 0 74 0;
#X connect 47 0 74 0;
#X connect 48 0 74 0;
#X connect 49 0 74 0;
#X connect 50 0 74 0;
#X connect 51 0 74 0;
#X connect 52 0 74 0;
#X connect 53 0 74 0;
#X connect 54 0 74 0;
#X connect 55 0 74 0;
#X connect 56 0 74 0;
#X connect 57 0 75 0;
#X connect 58 0 17 0;
#X connect 58 1 40 0;
#X connect 59 0 19 0;
#X connect 59 1 42 0;
#X connect 60 0 20 0;
#X connect 60 1 43 0;
#X connect 61 0 21 0;
#X connect 61 1 44 0;
#X connect 62 0 22 0;
#X connect 62 1 45 0;
#X connect 63 0 23 0;
#X connect 63 1 46 0;
#X connect 64 0 24 0;
#X connect 64 1 47 0;
#X connect 65 0 25 0;
#X connect 65 1 48 0;
#X connect 66 0 26 0;
#X connect 66 1 49 0;
#X connect 67 0 27 0;
#X connect 67 1 50 0;
#X connect 68 0 28 0;
#X connect 68 1 51 0;
#X connect 69 0 29 0;
#X connect 69 1 52 0;
#X connect 70 0 30 0;
#X connect 70 1 53 0;
#X connect 71 0 31 0;
#X connect 71 1 54 0;
#X connect 72 0 32 0;
#X connect 72 1 55 0;
#X connect 73 0 33 0;
#X connect 73 1 56 0;
#X connect 74 0 57 1;
#X connect 76 0 41 0;
#X connect 77 0 18 0;
#X connect 78 0 79 0;
#X connect 78 1 80 0;
#X connect 79 0 80 0;
#X connect 80 0 0 0;
#X connect 80 0 1 0;
#X connect 80 0 2 0;
#X connect 80 0 3 0;
#X connect 80 0 4 0;
#X connect 80 0 5 0;
#X connect 80 0 6 0;
#X connect 80 0 7 0;
#X connect 80 0 8 0;
#X connect 80 0 9 0;
#X connect 80 0 10 0;
#X connect 80 0 11 0;
#X connect 80 0 12 0;
#X connect 80 0 13 0;
#X connect 80 0 14 0;
#X connect 80 0 15 0;
