#N canvas 699 22 1109 661 10;
#X obj 144 157 soundfiler;
#X obj 229 95 inlet;
#X text 85 45 args to soundfiler;
#X text 227 73 placback speed;
#X text 198 613 after: http://www.pd-tutorial.com/english/ch03s04.html#id426491
;
#X obj 12 603 outlet~;
#X obj 475 213 loadbang;
#X msg 367 263 1;
#X obj 476 266 t b b b;
#X obj 116 238 t b f;
#X obj 455 549 outlet;
#X obj 116 190 t f f f f;
#X text 460 581 provide length;
#X obj 13 521 line~;
#X obj 16 88 inlet;
#X msg 17 250 bang;
#X obj 17 279 f;
#X text -206 204 divde by sampling rate to get duration in seconds
;
#X msg 330 263 0;
#X obj 18 328 *;
#X text -81 307 convert to ms;
#X text -215 330 scale by inverse of playback speed \; 0.5 means 2x
duration;
#X obj 9 382 gate 2;
#X obj 179 306 > 0;
#X obj 230 256 t b f f;
#X obj 179 331 + 1;
#X obj 45 329 expr 1 / abs($f1);
#X obj 116 213 / 44100;
#X obj 17 301 * 1000;
#X obj 53 453 f 1;
#X obj 57 411 t f b;
#X obj -45 455 f 0;
#X obj -26 412 t f b;
#X obj -18 454 prepend;
#X obj 147 412 f;
#X text 175 414 this is the max sample;
#X obj -111 412 f;
#X text -249 412 this is the min sample;
#X obj 78 453 prepend;
#X text -131 87 trigger for playback;
#X obj 116 121 route float;
#X obj 116 93 inlet fileOrSize;
#X obj 372 352 print mgSoundFiflerControlTrigger;
#X connect 0 0 11 0;
#X connect 1 0 24 0;
#X connect 6 0 8 0;
#X connect 7 0 24 0;
#X connect 8 1 18 0;
#X connect 8 2 7 0;
#X connect 9 1 16 1;
#X connect 11 0 27 0;
#X connect 11 1 42 0;
#X connect 11 2 34 0;
#X connect 11 3 10 0;
#X connect 13 0 5 0;
#X connect 14 0 15 0;
#X connect 15 0 16 0;
#X connect 16 0 28 0;
#X connect 18 0 36 0;
#X connect 19 0 22 1;
#X connect 22 0 30 0;
#X connect 22 1 32 0;
#X connect 23 0 25 0;
#X connect 24 1 26 0;
#X connect 24 2 23 0;
#X connect 25 0 22 0;
#X connect 26 0 19 1;
#X connect 27 0 9 0;
#X connect 28 0 19 0;
#X connect 29 0 13 0;
#X connect 30 0 38 0;
#X connect 30 1 29 0;
#X connect 31 0 13 0;
#X connect 32 0 33 0;
#X connect 32 1 31 0;
#X connect 33 0 13 0;
#X connect 34 0 33 1;
#X connect 34 0 29 1;
#X connect 36 0 31 1;
#X connect 36 0 38 1;
#X connect 38 0 13 0;
#X connect 40 0 11 0;
#X connect 40 1 0 0;
#X connect 41 0 40 0;
