#N canvas 358 162 860 494 10;
#X obj 183 6 openpanel;
#X msg 183 -13 bang;
#X obj 148 352 dac~;
#X obj 148 308 *~;
#X obj 475 314 loadbang;
#X msg 491 366 \; pd dsp 1;
#X msg 491 406 \; pd dsp 0;
#X obj 246 309 tgl 15 0 empty empty empty 17 7 0 10 -262144 -1 -1 1
1;
#X obj 475 339 tgl 15 0 empty empty empty 17 7 0 10 -262144 -1 -1 1
1;
#X obj 175 308 mgEnvlBtAr;
#N canvas 0 22 450 300 (subpatch) 0;
#X array samplePlayerA 2645 float 0;
#X coords 0 2 2644 -2 300 150 1;
#X restore -130 3 graph;
#X obj 333 142 loadbang;
#X floatatom 275 64 10 0 0 0 - - -;
#X msg 247 -12 \; samplePlayerA normalize;
#X msg 183 25 read -resize \$1 samplePlayerA;
#X obj 193 328 loadbang;
#X obj 148 268 *~ 1;
#X obj 184 170 *~;
#X obj 217 170 mgUiAmpBrowser;
#X obj 148 329 *~ 0.9;
#X msg 275 41 1;
#X obj 184 134 tabread4~ samplePlayerA;
#X msg 186 64 bang;
#X obj 184 89 mgSoundfilerControlTrigger;
#X connect 0 0 14 0;
#X connect 1 0 0 0;
#X connect 3 0 19 0;
#X connect 4 0 8 0;
#X connect 7 0 9 0;
#X connect 9 0 3 1;
#X connect 12 0 23 2;
#X connect 14 0 23 1;
#X connect 15 0 7 0;
#X connect 16 0 3 0;
#X connect 17 0 16 0;
#X connect 18 0 17 1;
#X connect 19 0 2 0;
#X connect 19 0 2 1;
#X connect 20 0 12 0;
#X connect 21 0 17 0;
#X connect 22 0 23 0;
#X connect 23 0 21 0;
