#N canvas 740 465 583 609 10;
#X obj 56 47 inlet;
#X obj 56 77 soundfiler;
#X obj 56 124 expr 44100 / $f1;
#X text 9 25 args to soundfiler;
#X text 259 23 left sample position;
#X text 410 24 right sample position;
#X text 35 525 after: http://www.pd-tutorial.com/english/ch03s04.html#id426491
;
#X obj 68 336 phasor~;
#X obj 68 364 +~;
#X obj 68 388 *~;
#X obj 69 462 outlet~;
#X obj 68 309 lop~ 30 Hz;
#X text 263 405 avoid divide by zero;
#X obj 292 461 outlet;
#X obj 56 100 t f f f f;
#X text 297 493 provide length;
#X obj 362 81 clip~ 0 1;
#X obj 276 82 clip~ 1e-05 1;
#X obj 339 48 inlet~;
#X obj 275 51 inlet~;
#X obj 276 132 -~;
#X obj 68 194 /~;
#X obj 78 149 sig~;
#X obj 68 172 sig~ 1;
#X obj 68 220 *~;
#X obj 199 51 inlet~;
#X obj 68 266 *~;
#X obj 277 213 *~;
#X obj 292 189 sig~;
#X text 146 24 playback speed;
#X connect 0 0 1 0;
#X connect 1 0 14 0;
#X connect 2 0 22 0;
#X connect 7 0 8 0;
#X connect 8 0 9 0;
#X connect 9 0 10 0;
#X connect 11 0 7 0;
#X connect 14 0 2 0;
#X connect 14 2 28 0;
#X connect 14 3 13 0;
#X connect 16 0 20 1;
#X connect 16 0 8 1;
#X connect 17 0 20 0;
#X connect 18 0 17 0;
#X connect 19 0 16 0;
#X connect 20 0 21 1;
#X connect 20 0 27 0;
#X connect 21 0 24 0;
#X connect 22 0 24 1;
#X connect 23 0 21 0;
#X connect 24 0 26 0;
#X connect 25 0 26 1;
#X connect 26 0 11 0;
#X connect 27 0 9 1;
#X connect 28 0 27 1;
