#N canvas 740 465 583 609 10;
#X obj 56 47 inlet;
#X obj 56 77 soundfiler;
#X obj 56 124 expr 44100 / $f1;
#X obj 68 194 expr 1 / $f1;
#X obj 166 49 inlet;
#X text 9 25 args to soundfiler;
#X text 141 14 placback speed;
#X obj 246 48 inlet;
#X text 243 24 left sample position;
#X obj 276 107 f;
#X obj 339 48 inlet;
#X text 394 28 right sample position;
#X obj 276 132 -;
#X obj 271 194 *;
#X text 35 525 after: http://www.pd-tutorial.com/english/ch03s04.html#id426491
;
#X obj 275 156 t f f;
#X obj 68 220 *;
#X obj 68 244 f;
#X obj 68 266 *;
#X obj 166 211 t b f;
#X obj 68 336 phasor~;
#X obj 68 364 +~;
#X obj 68 388 *~;
#X obj 69 462 outlet~;
#X obj 139 461 outlet~;
#X obj 444 5 loadbang;
#X msg 284 48 0;
#X msg 376 48 1;
#X obj 359 81 clip 0 1;
#X obj 359 106 t b f f;
#X obj 68 287 sig~;
#X obj 68 309 lop~ 30 Hz;
#X obj 172 337 sig~;
#X obj 172 359 lop~ 30 Hz;
#X obj 250 359 sig~;
#X obj 250 381 lop~ 30 Hz;
#X obj 158 405 clip 1e-05 1e+09;
#X obj 139 429 /~ 1;
#X text 263 405 avoid divide by zero;
#X msg 204 210 1;
#X obj 475 77 t b b b;
#X obj 56 148 t b f;
#X obj 276 82 clip 1e-05 1;
#X obj 292 461 outlet;
#X obj 56 100 t f f f f;
#X text 297 493 provide length;
#X connect 0 0 1 0;
#X connect 1 0 44 0;
#X connect 2 0 41 0;
#X connect 3 0 16 0;
#X connect 4 0 19 0;
#X connect 7 0 28 0;
#X connect 9 0 12 0;
#X connect 10 0 42 0;
#X connect 12 0 15 0;
#X connect 13 0 34 0;
#X connect 15 0 3 0;
#X connect 15 1 13 0;
#X connect 16 0 17 0;
#X connect 17 0 18 0;
#X connect 18 0 30 0;
#X connect 19 0 17 0;
#X connect 19 1 18 1;
#X connect 20 0 21 0;
#X connect 21 0 22 0;
#X connect 22 0 23 0;
#X connect 22 0 37 0;
#X connect 25 0 40 0;
#X connect 26 0 28 0;
#X connect 27 0 42 0;
#X connect 28 0 29 0;
#X connect 29 0 9 0;
#X connect 29 1 12 1;
#X connect 29 2 32 0;
#X connect 30 0 31 0;
#X connect 31 0 20 0;
#X connect 32 0 33 0;
#X connect 33 0 21 1;
#X connect 34 0 35 0;
#X connect 35 0 22 1;
#X connect 36 0 37 1;
#X connect 37 0 24 0;
#X connect 39 0 19 0;
#X connect 40 0 26 0;
#X connect 40 1 27 0;
#X connect 40 2 39 0;
#X connect 41 0 9 0;
#X connect 41 1 16 1;
#X connect 42 0 9 0;
#X connect 44 0 2 0;
#X connect 44 1 36 0;
#X connect 44 2 13 1;
#X connect 44 3 43 0;
