#N canvas 769 299 450 300 10;
#X obj 135 80 inlet;
#X obj 135 196 outlet;
#X obj 134 110 t b f;
#X obj 138 166 - 0;
#X obj 201 82 loadbang;
#X obj 201 107 f \$1;
#X msg 137 138 1;
#X obj 201 132 prepend set;
#X text 63 36 this is the box argument minus the inlet argument;
#X connect 0 0 2 0;
#X connect 2 0 6 0;
#X connect 2 1 3 1;
#X connect 3 0 1 0;
#X connect 4 0 5 0;
#X connect 5 0 7 0;
#X connect 6 0 3 0;
#X connect 7 0 6 0;
