#N canvas 236 300 450 300 10;
#X floatatom 69 75 5 0 0 0 - - -;
#X floatatom 59 169 5 0 0 0 - - -;
#X floatatom 228 67 5 0 0 0 - - -;
#X floatatom 218 161 5 0 0 0 - - -;
#X obj 78 123 mgSubtractReverse 1;
#X obj 237 115 mgSubtractReverse 3;
#X text 72 34 this is the box argument minus the inlet argument;
#X connect 0 0 4 0;
#X connect 2 0 5 0;
#X connect 4 0 1 0;
#X connect 5 0 3 0;
