#N canvas 185 22 889 307 10;
#X obj 228 202 dac~;
#X msg 29 23 \; pd dsp 1;
#X msg 29 60 \; pd dsp 0;
#X floatatom 219 22 5 0 1 0 - - -;
#X floatatom 269 22 5 0 1 0 - - -;
#X floatatom 133 27 5 0 1 0 - - -;
#X floatatom 183 27 5 0 1 0 - - -;
#X obj 229 54 mgPak2;
#X obj 143 59 mgPak2;
#X text 272 210 parameters: xy1 (lpf [0-1] \, amp [o-1]) \; xy2 (lpf
[0-1] \, amp mod [0-1]) \; trigger [0-1] \; resonance;
#X msg 310 45 1 1;
#X msg 318 17 0 1;
#X obj 386 37 mgHwDualAnalog;
#X floatatom 390 15 5 0 0 0 - - -;
#X obj 449 105 print;
#X msg 434 16 bang;
#X obj 354 61 mgPak2;
#X obj 343 88 mgPak2;
#X msg 514 67 1;
#X msg 502 100 bang;
#X obj 250 146 mgSynthNoiseFilter;
#X msg 547 104 arizaWork03-mgSynthNoiseFilterParameters.txt;
#X msg 547 67 2;
#X floatatom 663 58 5 0 0 0 - - -;
#X msg 578 68 3;
#X connect 3 0 7 0;
#X connect 4 0 7 1;
#X connect 5 0 8 0;
#X connect 6 0 8 1;
#X connect 7 0 20 1;
#X connect 8 0 20 0;
#X connect 10 0 20 2;
#X connect 11 0 20 2;
#X connect 12 0 16 0;
#X connect 12 1 16 1;
#X connect 12 2 17 0;
#X connect 12 3 17 1;
#X connect 12 4 14 0;
#X connect 12 4 20 2;
#X connect 13 0 12 0;
#X connect 15 0 12 0;
#X connect 16 0 20 0;
#X connect 17 0 20 1;
#X connect 18 0 20 3;
#X connect 19 0 20 4;
#X connect 20 0 0 0;
#X connect 20 0 0 1;
#X connect 21 0 20 4;
#X connect 22 0 20 3;
#X connect 24 0 20 3;
