#N canvas 282 362 724 494 10;
#X obj 171 67 mgOscPaf;
#X obj 170 234 outlet~;
#X obj 171 182 *~;
#X obj 188 155 mgEnvlBtAdsr 40 140 0.8 600;
#X obj 18 21 inlet trigger;
#X obj 255 120 unpack f f f f;
#X obj 404 31 inlet envelopeParameters;
#X obj 163 29 inlet~ fq;
#X obj 243 31 inlet x;
#X obj 303 32 inlet y;
#X connect 0 0 2 0;
#X connect 2 0 1 0;
#X connect 3 0 2 1;
#X connect 4 0 3 0;
#X connect 5 0 3 1;
#X connect 5 1 3 2;
#X connect 5 2 3 3;
#X connect 5 3 3 4;
#X connect 6 0 5 0;
#X connect 7 0 0 0;
#X connect 8 0 0 1;
#X connect 9 0 0 2;
