#N canvas 1 22 1613 476 10;
#X obj 37 187 zl group 2;
#X obj 47 14 inlet;
#X obj 20 357 outlet;
#X obj 77 364 outlet;
#X obj 120 366 outlet;
#X obj 165 365 outlet;
#X obj 207 366 outlet;
#X obj 252 365 outlet;
#X obj 295 367 outlet;
#X obj 47 44 route float list symbol;
#X obj 201 75 loadbang;
#X obj 288 21 inlet;
#X text 343 12 bang reloads \; symbol loads that file;
#X obj 180 145 mgTextParameters;
#X obj 290 44 route bang symbol;
#X obj 357 79 prepend symbol;
#X obj 342 365 outlet;
#X obj 385 367 outlet;
#X obj 460 363 outlet;
#X obj 526 355 outlet;
#X obj 570 355 outlet;
#X obj 612 355 outlet;
#X obj 655 357 outlet;
#X obj 699 358 outlet;
#X obj 742 357 outlet;
#X obj 789 356 outlet;
#X obj 834 356 outlet;
#X text 78 386 patternsA;
#X text 532 388 patternsB;
#X obj 1174 352 outlet;
#X obj 1254 348 outlet;
#X text 899 384 macroAR;
#X text 24 395 fp;
#X text 466 395 fp;
#X msg 153 101 1;
#X obj 1307 348 outlet;
#X text 1259 385 pulseModA/B;
#X obj 897 357 outlet;
#X obj 944 355 outlet;
#X obj 1032 351 outlet;
#X obj 1079 349 outlet;
#X obj 790 113 route patternFileA patternA1 patternA2 patternA3 patternA4
patternA5 patternA6 patternA7 patternA8 patternFileB patternB1 patternB2
patternB3 patternB4 patternB5 patternB6 patternB7 patternB8 macroAttack
macroRelease filePathA presetA filePathB presetB pulseModA pulseModB
;
#X obj 1127 351 outlet;
#X text 1045 384 filePath/preset pairs;
#X msg 274 113 mgSynthBufferSequenceDuoParameters.txt;
#X obj 105 188 print mgSynthBufferSequenceDuoParameters-loading;
#X connect 0 0 41 0;
#X connect 0 0 45 0;
#X connect 1 0 9 0;
#X connect 9 0 13 0;
#X connect 9 1 0 0;
#X connect 9 2 0 0;
#X connect 10 0 44 0;
#X connect 11 0 14 0;
#X connect 13 0 0 0;
#X connect 14 0 44 0;
#X connect 14 1 13 1;
#X connect 14 2 15 0;
#X connect 15 0 13 1;
#X connect 34 0 13 0;
#X connect 41 0 2 0;
#X connect 41 1 3 0;
#X connect 41 2 4 0;
#X connect 41 3 5 0;
#X connect 41 4 6 0;
#X connect 41 5 7 0;
#X connect 41 6 8 0;
#X connect 41 7 16 0;
#X connect 41 8 17 0;
#X connect 41 9 18 0;
#X connect 41 10 19 0;
#X connect 41 11 20 0;
#X connect 41 12 21 0;
#X connect 41 13 22 0;
#X connect 41 14 23 0;
#X connect 41 15 24 0;
#X connect 41 16 25 0;
#X connect 41 17 26 0;
#X connect 41 18 37 0;
#X connect 41 19 38 0;
#X connect 41 20 39 0;
#X connect 41 21 40 0;
#X connect 41 22 42 0;
#X connect 41 23 29 0;
#X connect 41 24 30 0;
#X connect 41 25 35 0;
#X connect 44 0 13 1;
