#N canvas 151 22 1320 480 10;
#X obj 37 187 zl group 2;
#X obj 47 14 inlet;
#X obj 23 303 outlet;
#X obj 68 302 outlet;
#X obj 134 298 outlet;
#X obj 179 297 outlet;
#X obj 224 299 outlet;
#X obj 269 298 outlet;
#X obj 319 300 outlet;
#X obj 47 44 route float list symbol;
#X obj 201 75 loadbang;
#X obj 288 21 inlet;
#X text 343 12 bang reloads \; symbol loads that file;
#X obj 180 145 mgTextParameters;
#X obj 290 44 route bang symbol;
#X obj 357 79 prepend symbol;
#X obj 366 298 outlet;
#X obj 410 299 outlet;
#X obj 460 301 outlet;
#X obj 529 301 outlet;
#X obj 573 301 outlet;
#X obj 617 301 outlet;
#X obj 663 300 outlet;
#X msg 274 112 mgSynthGranularSampleParameters.txt;
#X text 431 153 pitches here are actually just pre-fixed window sets
;
#X text 530 328 adsr;
#X text 136 321 window setting;
#X text 18 332 filepath;
#X obj 734 299 outlet;
#X obj 838 302 outlet;
#X obj 882 302 outlet;
#X obj 928 301 outlet;
#X obj 1039 300 outlet;
#X obj 1085 299 outlet;
#X text 1028 340 amp / ampDeviation;
#X text 841 336 winDeviatoin/winMin/winMax;
#X obj 55 213 route filePathA filePathB window1 window2 window3 window4
window5 window6 window7 window8 attack decay sustain release playbackDeviation
windowDeviation windowMin windowMax amp ampDeviation;
#X text 705 336 playbackDeviation;
#X obj 105 188 print mgSynthGranularSampleParameters-loading;
#X connect 0 0 36 0;
#X connect 0 0 38 0;
#X connect 1 0 9 0;
#X connect 9 0 13 0;
#X connect 9 1 0 0;
#X connect 9 2 0 0;
#X connect 10 0 23 0;
#X connect 11 0 14 0;
#X connect 13 0 0 0;
#X connect 14 0 23 0;
#X connect 14 1 13 1;
#X connect 14 2 15 0;
#X connect 15 0 13 1;
#X connect 23 0 13 1;
#X connect 36 0 2 0;
#X connect 36 1 3 0;
#X connect 36 2 4 0;
#X connect 36 3 5 0;
#X connect 36 4 6 0;
#X connect 36 5 7 0;
#X connect 36 6 8 0;
#X connect 36 7 16 0;
#X connect 36 8 17 0;
#X connect 36 9 18 0;
#X connect 36 10 19 0;
#X connect 36 11 20 0;
#X connect 36 12 21 0;
#X connect 36 13 22 0;
#X connect 36 14 28 0;
#X connect 36 15 29 0;
#X connect 36 16 30 0;
#X connect 36 17 31 0;
#X connect 36 18 32 0;
#X connect 36 19 33 0;
