#N canvas 274 432 1240 438 10;
#X obj 152 116 unpack f f;
#X obj 30 144 mgEnvlBtAr 20 20;
#X obj 450 -103 inlet macroEnvelopParameters;
#X obj 143 184 *~;
#X obj 143 219 outlet~;
#X obj 27 -105 inlet macroTrigger;
#X obj 258 -104 inlet cycleMax;
#X obj 143 -105 inlet pulses;
#X obj 143 -65 mgSequence1x16;
#X obj 363 -104 inlet values;
#X obj 143 86 mgSynthADKick_v;
#X connect 0 0 1 1;
#X connect 0 1 1 2;
#X connect 1 0 3 1;
#X connect 2 0 0 0;
#X connect 3 0 4 0;
#X connect 5 0 1 0;
#X connect 6 0 8 2;
#X connect 7 0 8 0;
#X connect 8 0 10 0;
#X connect 9 0 8 3;
#X connect 10 0 3 0;
