#N canvas 124 22 1368 714 10;
#X obj 327 87 sig~;
#X obj 327 107 lop~ 20;
#X obj 268 31 unpack f f;
#X obj 326 66 mgVolToAmp;
#X obj 1183 -24 loadbang;
#X msg 1182 3 1;
#X obj 354 307 zl rev;
#X obj 393 512 *~;
#X text 373 -28 xy2;
#X text 274 -26 xy1;
#X obj 396 637 outlet~;
#X text 472 -25 key trigger give a list: value/button apirs;
#X obj 731 -2 inlet presetBank;
#X obj 872 -3 inlet presetFile;
#X obj 907 127 zl group 8;
#X obj 268 -2 inlet xy1;
#X obj 374 1 inlet xy2;
#X obj 469 1 inlet eventTrigger;
#X obj 51 -3 inlet pulseStream;
#X obj 345 338 route 1 2 3 4 5 6 7 8;
#X obj 110 340 t b;
#X obj 143 339 unpack f f f f f f f f;
#X obj 53 422 mgSynthBufferPulse;
#X obj 202 422 mgSynthBufferPulse;
#X obj 342 422 mgSynthBufferPulse;
#X obj 489 422 mgSynthBufferPulse;
#X obj 635 422 mgSynthBufferPulse;
#X obj 784 422 mgSynthBufferPulse;
#X obj 941 422 mgSynthBufferPulse;
#X obj 1092 422 mgSynthBufferPulse;
#X obj 287 340 t f;
#X text 147 318 count;
#X text 297 315 eventProb;
#X obj 983 130 zl group 8;
#X obj 535 336 t f;
#X text 508 311 dur;
#X obj 593 336 t l;
#X obj 636 335 unpack f f f f f f f f;
#X obj 782 333 t s;
#X obj 918 76 mgSynthBufferPulse8Parameters ________________________
;
#X text 806 331 filePath;
#X obj 816 302 symbol;
#X connect 0 0 1 0;
#X connect 1 0 7 1;
#X connect 2 0 30 0;
#X connect 2 1 3 0;
#X connect 3 0 0 0;
#X connect 4 0 5 0;
#X connect 5 0 3 0;
#X connect 5 0 39 0;
#X connect 6 0 19 0;
#X connect 7 0 10 0;
#X connect 12 0 39 0;
#X connect 13 0 39 1;
#X connect 14 0 37 0;
#X connect 15 0 2 0;
#X connect 16 0 36 0;
#X connect 17 0 6 0;
#X connect 18 0 20 0;
#X connect 19 0 22 3;
#X connect 19 1 23 3;
#X connect 19 2 24 3;
#X connect 19 3 25 3;
#X connect 19 4 26 3;
#X connect 19 5 27 3;
#X connect 19 6 28 3;
#X connect 19 7 29 3;
#X connect 20 0 22 0;
#X connect 20 0 23 0;
#X connect 20 0 24 0;
#X connect 20 0 25 0;
#X connect 20 0 26 0;
#X connect 20 0 27 0;
#X connect 20 0 28 0;
#X connect 20 0 29 0;
#X connect 21 0 22 1;
#X connect 21 1 23 1;
#X connect 21 2 24 1;
#X connect 21 3 25 1;
#X connect 21 4 26 1;
#X connect 21 5 27 1;
#X connect 21 6 28 1;
#X connect 21 7 29 1;
#X connect 22 0 7 0;
#X connect 23 0 7 0;
#X connect 24 0 7 0;
#X connect 25 0 7 0;
#X connect 26 0 7 0;
#X connect 27 0 7 0;
#X connect 28 0 7 0;
#X connect 29 0 7 0;
#X connect 30 0 22 2;
#X connect 30 0 23 2;
#X connect 30 0 24 2;
#X connect 30 0 25 2;
#X connect 30 0 26 2;
#X connect 30 0 27 2;
#X connect 30 0 28 2;
#X connect 30 0 29 2;
#X connect 33 0 21 0;
#X connect 34 0 22 4;
#X connect 34 0 23 4;
#X connect 34 0 24 4;
#X connect 34 0 25 4;
#X connect 34 0 26 4;
#X connect 34 0 27 4;
#X connect 34 0 28 4;
#X connect 34 0 29 4;
#X connect 36 0 22 5;
#X connect 36 0 23 5;
#X connect 36 0 24 5;
#X connect 36 0 25 5;
#X connect 36 0 26 5;
#X connect 36 0 27 5;
#X connect 36 0 28 5;
#X connect 36 0 29 5;
#X connect 37 0 22 6;
#X connect 37 1 23 6;
#X connect 37 2 24 6;
#X connect 37 3 25 6;
#X connect 37 4 26 6;
#X connect 37 5 27 6;
#X connect 37 6 28 6;
#X connect 37 7 29 6;
#X connect 38 0 22 7;
#X connect 38 0 23 7;
#X connect 38 0 24 7;
#X connect 38 0 25 7;
#X connect 38 0 26 7;
#X connect 38 0 27 7;
#X connect 38 0 28 7;
#X connect 38 0 29 7;
#X connect 39 0 14 0;
#X connect 39 1 14 0;
#X connect 39 2 14 0;
#X connect 39 3 14 0;
#X connect 39 4 14 0;
#X connect 39 5 14 0;
#X connect 39 6 14 0;
#X connect 39 7 14 0;
#X connect 39 8 33 0;
#X connect 39 9 33 0;
#X connect 39 10 33 0;
#X connect 39 11 33 0;
#X connect 39 12 33 0;
#X connect 39 13 33 0;
#X connect 39 14 33 0;
#X connect 39 15 33 0;
#X connect 39 16 41 0;
#X connect 39 17 34 0;
#X connect 41 0 38 0;
