#N canvas 288 118 1331 687 10;
#X obj 393 123 sig~;
#X obj 393 143 lop~ 20;
#X obj 395 163 mgScaleMinMax~;
#X obj 392 70 unpack f f;
#X obj 444 140 sig~ 0;
#X obj 487 143 sig~ 1;
#X obj 98 180 sig~;
#X obj 98 202 lop~ 20;
#X obj 383 331 *~;
#X obj 499 65 unpack f f;
#X obj 469 432 moog~;
#X obj 619 336 mgScaleMinMax~;
#X obj 618 359 mtof~;
#X obj 716 312 sig~ 120;
#X obj 669 312 sig~ 70;
#X obj 619 289 sig~;
#X obj 619 311 lop~ 20;
#X obj 392 102 mgVolToAmp;
#X obj 780 346 mgScaleMinMax~;
#X obj 781 300 sig~;
#X obj 780 321 lop~ 20;
#X obj 830 322 sig~ 0.5;
#X obj 885 322 sig~ 3.5;
#X msg 887 105 \; pd dsp 1;
#X msg 887 142 \; pd dsp 0;
#X obj 466 511 outlet~;
#X obj 392 37 inlet;
#X obj 498 40 inlet;
#X obj 782 37 inlet;
#X obj 258 17 loadbang;
#X msg 270 51 1;
#X text 659 291 lpf cutoff;
#X obj 410 330 mgEnvlBtAdsr 40 140 0.8 600;
#X obj 467 214 unpack f f;
#X msg 434 258 0;
#X msg 404 259 1;
#X obj 32 360 mgOscSaw;
#X obj 93 425 *~;
#X obj 90 359 mgOscSaw;
#X obj 148 361 mgOscSquare;
#X obj 32 340 mtof~;
#X obj 90 340 mtof~;
#X obj 149 340 mtof~;
#X obj 90 317 -~ 12.01;
#X obj 149 317 +~ 11.99;
#X obj 32 275 +~;
#X obj 98 281 mgScaleMinMax~;
#X obj 97 256 mgRectify~;
#X obj 97 230 osc~ 40;
#X obj 164 256 sig~ -4;
#X obj 214 257 sig~ 4;
#X obj 434 278 gate 1;
#X obj 344 216 sel 1 2 3 4 5 6 7 8;
#X obj 31 182 zl reg;
#X obj 31 206 zl nth;
#X obj 31 161 t b f;
#X text -8 127 get pitch from list;
#X obj 412 308 change;
#X text 456 309 get unique start/stop only;
#X text 525 5 give a list: value/button apirs;
#X obj 479 237 t f f;
#X obj 348 307 f;
#X obj 385 278 t f f;
#X obj 348 279 sel 1;
#X text -19 138 indices start w/ 1;
#X obj 31 231 sig~;
#X obj 165 233 * -1;
#X text 196 279 vibrato/fm;
#X obj 168 210 f;
#X obj 468 482 *~ 1;
#X obj 30 254 lop~ 20;
#X obj 32 385 *~ 0.4;
#X obj 91 385 *~ 0.4;
#X obj 149 384 *~ 0.4;
#X text 102 161 FM rate;
#X msg 4 65 40 42 43 45 47 48 50 51;
#X obj 593 40 inlet trigger;
#X connect 0 0 1 0;
#X connect 1 0 2 0;
#X connect 2 0 37 1;
#X connect 3 0 6 0;
#X connect 3 1 17 0;
#X connect 4 0 2 1;
#X connect 5 0 2 2;
#X connect 6 0 7 0;
#X connect 7 0 48 0;
#X connect 8 0 10 0;
#X connect 9 0 15 0;
#X connect 9 1 68 0;
#X connect 10 0 69 0;
#X connect 11 0 12 0;
#X connect 12 0 10 1;
#X connect 13 0 11 2;
#X connect 14 0 11 1;
#X connect 15 0 16 0;
#X connect 16 0 11 0;
#X connect 17 0 0 0;
#X connect 18 0 10 2;
#X connect 19 0 20 0;
#X connect 20 0 18 0;
#X connect 21 0 18 1;
#X connect 22 0 18 2;
#X connect 26 0 3 0;
#X connect 27 0 9 0;
#X connect 28 0 19 0;
#X connect 29 0 30 0;
#X connect 29 0 75 0;
#X connect 30 0 17 0;
#X connect 32 0 8 1;
#X connect 33 0 51 1;
#X connect 33 1 60 0;
#X connect 34 0 51 0;
#X connect 35 0 51 0;
#X connect 36 0 71 0;
#X connect 37 0 8 0;
#X connect 38 0 72 0;
#X connect 39 0 73 0;
#X connect 40 0 36 0;
#X connect 41 0 38 0;
#X connect 42 0 39 0;
#X connect 43 0 41 0;
#X connect 44 0 42 0;
#X connect 45 0 40 0;
#X connect 45 0 43 0;
#X connect 45 0 44 0;
#X connect 46 0 45 1;
#X connect 47 0 46 0;
#X connect 48 0 47 0;
#X connect 49 0 46 1;
#X connect 50 0 46 2;
#X connect 51 0 62 0;
#X connect 52 0 35 0;
#X connect 52 1 35 0;
#X connect 52 2 35 0;
#X connect 52 3 35 0;
#X connect 52 4 35 0;
#X connect 52 5 35 0;
#X connect 52 6 35 0;
#X connect 52 7 35 0;
#X connect 52 8 34 0;
#X connect 53 0 54 0;
#X connect 54 0 65 0;
#X connect 55 0 53 0;
#X connect 55 1 54 1;
#X connect 57 0 32 0;
#X connect 60 0 61 1;
#X connect 60 1 52 0;
#X connect 61 0 55 0;
#X connect 62 0 63 0;
#X connect 62 1 57 0;
#X connect 63 0 61 0;
#X connect 65 0 70 0;
#X connect 66 0 49 0;
#X connect 68 0 66 0;
#X connect 68 0 50 0;
#X connect 69 0 25 0;
#X connect 70 0 45 0;
#X connect 71 0 37 0;
#X connect 72 0 37 0;
#X connect 73 0 37 0;
#X connect 75 0 53 1;
#X connect 76 0 33 0;
