#N canvas 322 22 1067 660 10;
#X obj 61 270 sig~;
#X obj 61 290 lop~ 20;
#X obj 255 105 unpack f f;
#X obj 413 97 unpack f f;
#X obj 466 462 moog~;
#X obj 580 365 mgScaleMinMax~;
#X obj 579 388 mtof~;
#X obj 677 341 sig~ 120;
#X obj 630 341 sig~ 70;
#X obj 580 318 sig~;
#X obj 580 340 lop~ 20;
#X obj 61 243 mgVolToAmp;
#X obj 467 494 outlet~;
#X obj 128 104 loadbang;
#X msg 128 129 1;
#X obj 256 357 *~;
#X text 27 333 level control \, y axis;
#X text 620 320 lpf cutoff;
#X text 606 32 give a list: value/key apirs;
#X obj 666 67 inlet;
#X obj 666 96 mgSynthBufferParameters;
#X text 712 75 parameter bank number;
#X obj 866 70 inlet;
#X text 819 96 file to load \; a default is provided;
#X text 409 524 this is modeled as parameterized instrument and not
as a single voice to allow complete specifciation of envelope values
filter parameters for each buffer. a more efficient mgSynthBuffer_v
would leave out the filter and take envelope parametsr as an argument
;
#X obj 527 69 inlet eventTrigger;
#X obj 255 72 inlet xy1;
#X obj 412 72 inlet xy2;
#X obj 635 169 zl group 2;
#X obj 290 357 mgSynthBufferLoop_v;
#X obj 303 248 f;
#X obj 758 338 sig~ 0.5;
#X text 757 314 resonance;
#X obj 324 273 +;
#X obj 325 218 t b f;
#X text 207 175 vales from 0 to 1 bring the right boundary of the looped
file from 1 (whole) to zero (none);
#X text 46 444 playback rate is provided by preset \; +/- values are
added to this value;
#X text 214 42 lpf filter \, gain;
#X text 395 33 playback rate \, playback size;
#X connect 0 0 1 0;
#X connect 1 0 15 1;
#X connect 2 0 9 0;
#X connect 2 1 11 0;
#X connect 3 0 29 4;
#X connect 3 1 34 0;
#X connect 4 0 12 0;
#X connect 5 0 6 0;
#X connect 6 0 4 1;
#X connect 7 0 5 2;
#X connect 8 0 5 1;
#X connect 9 0 10 0;
#X connect 10 0 5 0;
#X connect 11 0 0 0;
#X connect 13 0 14 0;
#X connect 14 0 11 0;
#X connect 15 0 4 0;
#X connect 19 0 20 0;
#X connect 20 0 29 0;
#X connect 20 1 30 0;
#X connect 20 2 29 5;
#X connect 20 3 28 0;
#X connect 20 4 28 1;
#X connect 20 5 8 0;
#X connect 20 6 7 0;
#X connect 22 0 20 1;
#X connect 25 0 29 1;
#X connect 26 0 2 0;
#X connect 27 0 3 0;
#X connect 28 0 29 6;
#X connect 29 0 15 0;
#X connect 30 0 33 0;
#X connect 31 0 4 2;
#X connect 33 0 29 2;
#X connect 34 0 30 0;
#X connect 34 1 33 1;
