#N canvas 600 638 462 328 10;
#X obj 156 213 dac~;
#X obj 163 190 *~ 0.5;
#X msg 174 74 1;
#X msg 198 45 0;
#X msg 264 61 -1;
#X msg 267 95 0.5;
#X msg 263 29 1.5;
#X msg 44 72 13810-high-slow.aif;
#X obj 169 39 tgl 15 0 empty empty empty 17 7 0 10 -262144 -1 -1 1
1;
#X obj 163 120 mgSynthBuffer_v;
#X connect 1 0 0 0;
#X connect 1 0 0 1;
#X connect 2 0 9 1;
#X connect 3 0 9 1;
#X connect 4 0 9 2;
#X connect 5 0 9 2;
#X connect 6 0 9 2;
#X connect 7 0 9 0;
#X connect 8 0 9 1;
#X connect 9 0 1 0;
