#N canvas 98 22 1375 926 10;
#X obj 532 270 sig~;
#X obj 532 290 lop~ 20;
#X obj 534 310 mgScaleMinMax~;
#X obj 535 189 unpack f f;
#X obj 583 287 sig~ 0;
#X obj 780 232 sig~;
#X obj 780 254 lop~ 20;
#X obj 780 276 mgScaleMinMax~;
#X obj 90 435 *~;
#X obj 642 184 unpack f f;
#X obj 680 539 moog~;
#X obj 832 455 mgScaleMinMax~;
#X obj 831 478 mtof~;
#X obj 929 431 sig~ 120;
#X obj 882 431 sig~ 70;
#X obj 832 408 sig~;
#X obj 832 430 lop~ 20;
#X obj 1119 382 sig~;
#X obj 1119 407 lop~ 20;
#X obj 1121 427 mgScaleMinMax~;
#X obj 1121 449 osc~;
#X obj 681 601 *~;
#X obj 90 412 noise~;
#X obj 778 299 mtof~;
#X obj 878 255 sig~ 120;
#X obj 535 225 mgVolToAmp;
#X obj 997 446 sig~;
#X obj 996 467 lop~ 20;
#X obj 682 630 outlet~;
#X obj 537 148 inlet;
#X obj 643 151 inlet;
#X obj 738 151 inlet;
#X obj 164 34 loadbang;
#X msg 475 192 1;
#X text 537 243 level control \, y axis;
#X text 872 410 lpf cutoff;
#X text 821 227 hpf cutoff;
#X obj 1098 523 mgSelector2~;
#X obj 1097 354 t f f;
#X msg 1062 501 2;
#X msg 1093 500 1;
#X text 965 553 turn off am modulation when value is zero;
#X obj 1160 499 sig~ 0.9;
#X obj 1170 296 loadbang;
#X msg 1169 318 0;
#X obj 1070 477 sel 1;
#X obj 122 434 mgEnvlBtAdsr 40 140 0.8 600;
#X obj 52 487 pink~;
#X obj 65 514 *~;
#X obj 95 491 mgEnvlBtAdsr 40 140 0.8 600;
#X text 738 124 give a list: value/key apirs;
#X obj 781 321 mgSnapshot;
#X obj 134 464 unpack f f f f;
#X obj 181 412 unpack f f f f;
#X obj 94 686 mgSynthSahOsc_v;
#X obj 520 755 *~;
#X obj 590 368 route 1 2 3 4 5 6 7 8;
#X obj 667 332 zl rev;
#X obj 30 566 mgSynthBandpass_v;
#X obj 28 542 noise~;
#X obj 567 594 t l;
#X text 471 593 adsr parameters;
#X obj 679 473 hip~ 20;
#X obj 679 499 hip~ 20;
#X obj 830 254 sig~ 10;
#X obj 1170 406 sig~ 0.4;
#X msg 996 423 1.5;
#X obj 996 401 loadbang;
#X obj 953 152 inlet parameterBank;
#X obj 1079 152 inlet parameterFileName;
#X obj 260 64 zl group 4;
#X obj 338 66 zl group 3;
#X obj 356 89 zl group 3;
#X obj 145 566 unpack f f f;
#X obj 39 630 mgSynthBandpass_v;
#X obj 37 606 noise~;
#X obj 151 629 unpack f f f;
#X msg 228 34 1;
#X obj 626 290 sig~ 1;
#X obj 258 31 mgSynthNoiseFilterParameters _______________________________
;
#X obj 402 150 zl group 4;
#X obj 460 115 zl group 4;
#X obj 505 92 zl group 4;
#X obj 568 64 zl group 4;
#X obj 135 662 zl slice 1;
#X obj 157 732 mgSynthSahOsc_v;
#X obj 198 708 zl slice 1;
#X obj 205 776 mgSynthSahOsc_v;
#X obj 246 752 zl slice 1;
#X obj 265 816 mgSynthSahOsc_v;
#X obj 306 792 zl slice 1;
#X obj 93 512 *~ 2;
#X obj 1071 453 < 0.2;
#X obj 1226 406 sig~ 15;
#X connect 0 0 1 0;
#X connect 1 0 2 0;
#X connect 2 0 55 1;
#X connect 3 0 5 0;
#X connect 3 1 25 0;
#X connect 4 0 2 1;
#X connect 5 0 6 0;
#X connect 6 0 7 0;
#X connect 7 0 23 0;
#X connect 8 0 55 0;
#X connect 9 0 15 0;
#X connect 9 1 38 0;
#X connect 10 0 21 0;
#X connect 11 0 12 0;
#X connect 12 0 10 1;
#X connect 13 0 11 2;
#X connect 14 0 11 1;
#X connect 15 0 16 0;
#X connect 16 0 11 0;
#X connect 17 0 18 0;
#X connect 18 0 19 0;
#X connect 19 0 20 0;
#X connect 20 0 37 1;
#X connect 21 0 28 0;
#X connect 22 0 8 0;
#X connect 23 0 51 0;
#X connect 24 0 7 2;
#X connect 25 0 0 0;
#X connect 26 0 27 0;
#X connect 27 0 10 2;
#X connect 29 0 3 0;
#X connect 30 0 9 0;
#X connect 31 0 57 0;
#X connect 32 0 33 0;
#X connect 32 0 77 0;
#X connect 33 0 25 0;
#X connect 33 0 5 0;
#X connect 37 0 21 1;
#X connect 38 0 92 0;
#X connect 38 1 17 0;
#X connect 39 0 37 0;
#X connect 40 0 37 0;
#X connect 42 0 37 2;
#X connect 43 0 44 0;
#X connect 44 0 38 0;
#X connect 45 0 39 0;
#X connect 45 1 40 0;
#X connect 46 0 8 1;
#X connect 47 0 48 0;
#X connect 48 0 91 0;
#X connect 49 0 48 1;
#X connect 51 0 62 1;
#X connect 51 0 63 1;
#X connect 52 0 49 1;
#X connect 52 1 49 2;
#X connect 52 2 49 3;
#X connect 52 3 49 4;
#X connect 53 0 46 1;
#X connect 53 1 46 2;
#X connect 53 2 46 3;
#X connect 53 3 46 4;
#X connect 54 0 55 0;
#X connect 55 0 62 0;
#X connect 56 0 46 0;
#X connect 56 1 49 0;
#X connect 56 2 58 1;
#X connect 56 3 74 1;
#X connect 56 4 54 0;
#X connect 56 5 85 0;
#X connect 56 6 87 0;
#X connect 56 7 89 0;
#X connect 57 0 56 0;
#X connect 58 0 55 0;
#X connect 59 0 58 0;
#X connect 60 0 53 0;
#X connect 60 0 52 0;
#X connect 60 0 54 3;
#X connect 60 0 58 6;
#X connect 60 0 74 6;
#X connect 60 0 85 3;
#X connect 60 0 87 3;
#X connect 60 0 89 3;
#X connect 62 0 63 0;
#X connect 63 0 10 0;
#X connect 64 0 7 1;
#X connect 65 0 19 1;
#X connect 66 0 26 0;
#X connect 67 0 66 0;
#X connect 68 0 79 0;
#X connect 69 0 79 1;
#X connect 70 0 60 0;
#X connect 71 0 73 0;
#X connect 72 0 76 0;
#X connect 73 0 58 2;
#X connect 73 1 58 3;
#X connect 73 2 58 4;
#X connect 74 0 55 0;
#X connect 75 0 74 0;
#X connect 76 0 74 2;
#X connect 76 1 74 3;
#X connect 76 2 74 4;
#X connect 77 0 79 0;
#X connect 78 0 2 2;
#X connect 79 0 70 0;
#X connect 79 1 70 0;
#X connect 79 2 70 0;
#X connect 79 3 70 0;
#X connect 79 4 71 0;
#X connect 79 5 71 0;
#X connect 79 6 71 0;
#X connect 79 7 72 0;
#X connect 79 8 72 0;
#X connect 79 9 72 0;
#X connect 79 10 80 0;
#X connect 79 11 80 0;
#X connect 79 12 80 0;
#X connect 79 13 80 0;
#X connect 79 14 81 0;
#X connect 79 15 81 0;
#X connect 79 16 81 0;
#X connect 79 17 81 0;
#X connect 79 18 82 0;
#X connect 79 19 82 0;
#X connect 79 20 82 0;
#X connect 79 21 82 0;
#X connect 79 22 83 0;
#X connect 79 23 83 0;
#X connect 79 24 83 0;
#X connect 79 25 83 0;
#X connect 80 0 84 0;
#X connect 81 0 86 0;
#X connect 82 0 88 0;
#X connect 83 0 90 0;
#X connect 84 0 54 1;
#X connect 84 1 54 2;
#X connect 85 0 55 0;
#X connect 86 0 85 1;
#X connect 86 1 85 2;
#X connect 87 0 55 0;
#X connect 88 0 87 1;
#X connect 88 1 87 2;
#X connect 89 0 55 0;
#X connect 90 0 89 1;
#X connect 90 1 89 2;
#X connect 91 0 55 0;
#X connect 92 0 45 0;
#X connect 93 0 19 2;
