#N canvas 617 262 450 300 10;
#X msg 213 65 0.2 0.5 10;
#X msg 104 66 1;
#X msg 110 38 0;
#X msg 293 75 20 20 0.5 1000;
#X obj 159 165 *~ 0.2;
#X obj 157 210 dac~;
#X obj 151 111 mgSynthSahOsc_v;
#X connect 0 0 6 2;
#X connect 1 0 6 0;
#X connect 2 0 6 0;
#X connect 3 0 6 3;
#X connect 4 0 5 0;
#X connect 4 0 5 1;
#X connect 6 0 4 0;
