#N canvas 936 566 450 300 10;
#X obj 293 93 mgTableBell;
#X obj 120 95 tgl 15 0 empty empty empty 17 7 0 10 -262144 -1 -1 1
1;
#X obj 153 165 dac~;
#X obj 158 129 *~ 0.2;
#X msg 341 37;
#X floatatom 157 36 5 0 0 0 - - -;
#X obj 168 65 sig~;
#X obj 157 92 mgSynthPaf_v;
#X msg 349 59;
#X floatatom 213 38 5 0 0 0 - - -;
#X floatatom 259 39 5 0 0 0 - - -;
#X connect 1 0 7 0;
#X connect 3 0 2 0;
#X connect 3 0 2 1;
#X connect 5 0 6 0;
#X connect 6 0 7 1;
#X connect 7 0 3 0;
#X connect 9 0 7 2;
#X connect 10 0 7 3;
