#N canvas 282 362 724 494 10;
#X obj 171 67 mgOscPaf;
#X obj 170 234 outlet~;
#X obj 171 182 *~;
#X obj 18 21 inlet trigger;
#X obj 404 31 inlet envelopeParameters;
#X obj 163 29 inlet~ fq;
#X obj 243 31 inlet x;
#X obj 303 32 inlet y;
#X obj 188 155 mgEnvlMtAdsr 40 40 0.8 20 200;
#X obj 255 120 unpack f f f f f;
#X text 400 150 mono trigger;
#X connect 0 0 2 0;
#X connect 2 0 1 0;
#X connect 3 0 8 0;
#X connect 4 0 9 0;
#X connect 5 0 0 0;
#X connect 6 0 0 1;
#X connect 7 0 0 2;
#X connect 8 0 2 1;
#X connect 9 0 8 1;
#X connect 9 1 8 2;
#X connect 9 2 8 3;
#X connect 9 3 8 4;
#X connect 9 4 8 5;
