#N canvas 289 215 1326 767 10;
#X obj 393 123 sig~;
#X obj 393 143 lop~ 20;
#X obj 392 70 unpack f f;
#X obj 499 65 unpack f f;
#X obj 392 102 mgVolToAmp;
#X obj 271 24 loadbang;
#X msg 270 51 1;
#X obj 1110 320 noise~;
#X obj 203 329 unpack f f f f f f f f;
#X obj 621 329 route 1 2 3 4 5 6 7 8;
#X obj 106 139 loadbang;
#X obj 621 305 zl rev;
#X obj 519 327 t f;
#X msg 79 176 60 62 64 66 68 70 72 74;
#X obj 340 420 mgSynthBandpass_v;
#X obj 455 419 mgSynthBandpass_v;
#X obj 568 419 mgSynthBandpass_v;
#X obj 683 418 mgSynthBandpass_v;
#X obj 799 417 mgSynthBandpass_v;
#X obj 914 416 mgSynthBandpass_v;
#X obj 1027 416 mgSynthBandpass_v;
#X obj 1142 415 mgSynthBandpass_v;
#X msg 202 140 0.25;
#X obj 510 531 *~;
#X text 497 11 xy2;
#X text 398 13 xy1;
#X obj 518 675 outlet~;
#X obj 519 632 moog~;
#X obj 675 567 mgScaleMinMax~;
#X obj 674 590 mtof~;
#X obj 772 543 sig~ 120;
#X obj 725 543 sig~ 70;
#X obj 675 520 sig~;
#X obj 675 542 lop~ 20;
#X obj 836 577 mgScaleMinMax~;
#X obj 837 531 sig~;
#X obj 836 552 lop~ 20;
#X obj 886 553 sig~ 0.5;
#X obj 941 553 sig~ 3.5;
#X text 715 522 lpf cutoff;
#X text 596 14 key trigger give a list: value/button apirs;
#X obj 855 37 inlet presetBank;
#X obj 996 36 inlet presetFile;
#X obj 378 328 t f;
#X msg 164 141 20;
#X obj 820 318 t l;
#X obj 947 162 zl group 4;
#X obj 750 158 zl group 8;
#X obj 842 110 mgSynthBandpassNoiseParameters __________;
#X obj 201 301 mgScaleTranspose8;
#X obj 392 37 inlet xy1;
#X obj 498 40 inlet xy2;
#X obj 593 40 inlet eventTrigger;
#X obj 723 43 inlet octaveShift;
#X connect 0 0 1 0;
#X connect 1 0 23 1;
#X connect 2 1 4 0;
#X connect 3 0 32 0;
#X connect 3 1 35 0;
#X connect 4 0 0 0;
#X connect 5 0 6 0;
#X connect 6 0 4 0;
#X connect 6 0 48 0;
#X connect 7 0 14 0;
#X connect 7 0 15 0;
#X connect 7 0 16 0;
#X connect 7 0 17 0;
#X connect 7 0 18 0;
#X connect 7 0 19 0;
#X connect 7 0 20 0;
#X connect 7 0 21 0;
#X connect 8 0 14 3;
#X connect 8 1 15 3;
#X connect 8 2 16 3;
#X connect 8 3 17 3;
#X connect 8 4 18 3;
#X connect 8 5 19 3;
#X connect 8 6 20 3;
#X connect 8 7 21 3;
#X connect 9 0 14 1;
#X connect 9 1 15 1;
#X connect 9 2 16 1;
#X connect 9 3 17 1;
#X connect 9 4 18 1;
#X connect 9 5 19 1;
#X connect 9 6 20 1;
#X connect 9 7 21 1;
#X connect 10 0 44 0;
#X connect 10 0 13 0;
#X connect 10 0 22 0;
#X connect 11 0 9 0;
#X connect 12 0 14 4;
#X connect 12 0 15 4;
#X connect 12 0 16 4;
#X connect 12 0 17 4;
#X connect 12 0 18 4;
#X connect 12 0 19 4;
#X connect 12 0 20 4;
#X connect 12 0 21 4;
#X connect 13 0 8 0;
#X connect 14 0 23 0;
#X connect 15 0 23 0;
#X connect 16 0 23 0;
#X connect 17 0 23 0;
#X connect 18 0 23 0;
#X connect 19 0 23 0;
#X connect 20 0 23 0;
#X connect 21 0 23 0;
#X connect 22 0 12 0;
#X connect 23 0 27 0;
#X connect 27 0 26 0;
#X connect 28 0 29 0;
#X connect 29 0 27 1;
#X connect 30 0 28 2;
#X connect 31 0 28 1;
#X connect 32 0 33 0;
#X connect 33 0 28 0;
#X connect 34 0 27 2;
#X connect 35 0 36 0;
#X connect 36 0 34 0;
#X connect 37 0 34 1;
#X connect 38 0 34 2;
#X connect 41 0 48 0;
#X connect 42 0 48 1;
#X connect 43 0 14 2;
#X connect 43 0 15 2;
#X connect 43 0 16 2;
#X connect 43 0 17 2;
#X connect 43 0 18 2;
#X connect 43 0 19 2;
#X connect 43 0 20 2;
#X connect 43 0 21 2;
#X connect 44 0 43 0;
#X connect 45 0 14 6;
#X connect 45 0 15 6;
#X connect 45 0 16 6;
#X connect 45 0 17 6;
#X connect 45 0 18 6;
#X connect 45 0 19 6;
#X connect 45 0 20 6;
#X connect 45 0 21 6;
#X connect 46 0 45 0;
#X connect 47 0 49 0;
#X connect 48 0 47 0;
#X connect 48 1 47 0;
#X connect 48 2 47 0;
#X connect 48 3 47 0;
#X connect 48 4 47 0;
#X connect 48 5 47 0;
#X connect 48 6 47 0;
#X connect 48 7 47 0;
#X connect 48 8 43 0;
#X connect 48 9 12 0;
#X connect 48 10 46 0;
#X connect 48 11 46 0;
#X connect 48 12 46 0;
#X connect 48 13 46 0;
#X connect 48 14 31 0;
#X connect 48 15 30 0;
#X connect 48 16 37 0;
#X connect 48 17 38 0;
#X connect 49 0 8 0;
#X connect 50 0 2 0;
#X connect 51 0 3 0;
#X connect 52 0 11 0;
#X connect 53 0 49 1;
