#N canvas 502 22 714 422 10;
#X obj 184 348 *~;
#X obj 184 377 outlet~;
#X obj 456 102 loadbang;
#X msg 456 127 1;
#X text 117 10 give a list: value/key apirs;
#X obj -82 218 mgSoundfilerControlTrigger;
#X obj -82 246 tabread4~ \$0-buf;
#X obj -6 167 prepend \$0-buf;
#X obj -6 193 zl rot -1;
#X obj -82 298 table \$0-buf;
#X msg -6 143 read -resize \$1;
#X obj 89 288 *~;
#X obj 104 266 lop~ 20;
#X obj 104 244 sig~;
#X obj -6 120 symbol;
#X obj 245 289 unpack f f;
#X obj 119 32 inlet eventTrigger;
#X obj -6 32 inlet filePath;
#X obj 118 90 t f b;
#X obj 381 32 inlet amp;
#X obj 449 32 inlet arEnvelopeParameters;
#X obj 253 32 inlet playbackRate;
#X obj 119 61 sel 0;
#X obj 196 326 mgEnvlBtAr 5 20;
#X connect 0 0 1 0;
#X connect 2 0 3 0;
#X connect 3 0 13 0;
#X connect 5 0 6 0;
#X connect 6 0 11 0;
#X connect 7 0 8 0;
#X connect 8 0 5 1;
#X connect 10 0 7 0;
#X connect 11 0 0 0;
#X connect 12 0 11 1;
#X connect 13 0 12 0;
#X connect 14 0 10 0;
#X connect 15 0 23 1;
#X connect 15 1 23 2;
#X connect 16 0 22 0;
#X connect 17 0 14 0;
#X connect 18 0 23 0;
#X connect 18 1 5 0;
#X connect 19 0 13 0;
#X connect 20 0 15 0;
#X connect 21 0 5 2;
#X connect 22 0 23 0;
#X connect 22 1 18 0;
#X connect 23 0 0 1;
