#N canvas 294 238 1062 345 10;
#X obj 225 280 outlet~;
#X obj 188 55 counter 1 4;
#X obj 188 78 sel 1;
#X obj 94 22 inlet pulseStream;
#X obj 225 238 *~;
#X obj 210 22 inlet pulseCount;
#X msg 188 165 1;
#X obj 453 22 inlet trigger;
#X obj 251 237 mgEnvlBtAr 20 20;
#X obj -34 23 inlet~ sourceAudio;
#X obj 661 25 inlet voiceAmp;
#X obj 755 22 inlet pitch;
#X obj 840 23 inlet resonance;
#X obj 953 24 inlet adsrParameters;
#X msg 235 167 0;
#X obj 544 22 inlet duration;
#X obj 205 202 mgSynthBandpass_v;
#X obj 235 146 delay 80;
#X obj 188 99 mgGateProbabilistic1;
#X obj 188 119 t b b;
#X obj 314 22 inlet eventProbability;
#X obj 534 196 loadbang;
#X msg 536 221 1;
#X connect 1 0 2 0;
#X connect 2 0 18 0;
#X connect 3 0 1 0;
#X connect 4 0 0 0;
#X connect 5 0 1 4;
#X connect 6 0 16 1;
#X connect 7 0 8 0;
#X connect 8 0 4 1;
#X connect 9 0 16 0;
#X connect 10 0 16 2;
#X connect 11 0 16 3;
#X connect 12 0 16 4;
#X connect 13 0 16 6;
#X connect 14 0 16 1;
#X connect 15 0 17 1;
#X connect 16 0 4 0;
#X connect 17 0 14 0;
#X connect 18 0 19 0;
#X connect 19 0 17 0;
#X connect 19 1 6 0;
#X connect 20 0 18 1;
#X connect 21 0 22 0;
#X connect 22 0 18 1;
