#N canvas 136 487 1007 426 10;
#X obj 143 -65 mgSequence2x16;
#X obj 143 -37 unpack f f;
#X obj 152 116 unpack f f;
#X obj 30 144 mgEnvlBtAr 20 20;
#X obj 509 -101 inlet macroEnvelopParameters;
#X obj 140 238 *~;
#X obj 141 264 outlet~;
#X text 452 35 treat two lists as amp/pitch pairs;
#X obj 27 -105 inlet macroTrigger;
#X obj 228 -104 inlet cycleMax;
#X obj 421 -104 inlet valuesB;
#X obj 333 -104 inlet valuesA;
#X obj 143 -105 inlet pulses;
#X obj 142 65 mgSynthBuffer_v;
#X obj 697 -69 mgSynthBufferParameters;
#X text 850 -69 file to load \; a default is provided;
#X obj 673 -17 zl group 2;
#X obj 697 -98 inlet presetNumber;
#X obj 815 -98 inlet presetFile;
#X obj 140 173 moog~;
#X obj 266 95 sig~;
#X obj 266 122 lop~ 20;
#X obj 266 71 mtof;
#X obj 190 176 sig~ 0.8;
#X obj 266 12 + 72;
#X connect 0 0 1 0;
#X connect 1 0 13 1;
#X connect 1 1 24 0;
#X connect 2 0 3 1;
#X connect 2 1 3 2;
#X connect 3 0 5 1;
#X connect 4 0 2 0;
#X connect 5 0 6 0;
#X connect 8 0 3 0;
#X connect 9 0 0 2;
#X connect 10 0 0 4;
#X connect 11 0 0 3;
#X connect 12 0 0 0;
#X connect 13 0 19 0;
#X connect 14 0 13 0;
#X connect 14 1 13 2;
#X connect 14 2 13 3;
#X connect 14 3 16 0;
#X connect 14 4 16 1;
#X connect 16 0 13 4;
#X connect 17 0 14 0;
#X connect 18 0 14 1;
#X connect 19 0 5 0;
#X connect 20 0 21 0;
#X connect 21 0 19 1;
#X connect 22 0 20 0;
#X connect 23 0 19 2;
#X connect 24 0 22 0;
