#N canvas 656 22 833 455 10;
#X obj 178 267 dac~;
#X msg 16 139 \; pd dsp 1;
#X msg 16 176 \; pd dsp 0;
#X floatatom 206 138 5 0 1 0 - - -;
#X floatatom 256 138 5 0 1 0 - - -;
#X floatatom 120 143 5 0 1 0 - - -;
#X floatatom 170 143 5 0 1 0 - - -;
#X obj 216 170 mgPak2;
#X obj 130 175 mgPak2;
#X text 254 326 parameters: xy1 (lpf [0-1] \, amp [o-1]) \; xy2 (lpf
[0-1] \, amp mod [0-1]) \; trigger [0-1] \; resonance;
#X text 423 231 value/button pairs;
#X msg 306 147 0 1;
#X msg 309 171 1 1;
#X msg 347 173 1 8;
#X msg 346 148 0 8;
#X obj 281 274 mgUiSnapshot;
#X msg 392 145 0 4;
#X msg 392 172 1 4;
#X obj 372 68 mgHwDualAnalog;
#X msg 390 31 bang;
#X floatatom 336 28 5 0 0 0 - - -;
#X msg 466 169 1;
#X msg 465 146 2;
#X msg 617 195 bang;
#X obj 329 110 mgPak2;
#X msg 505 167 1;
#X msg 504 144 2;
#X msg 605 107;
#X floatatom 504 192 5 0 0 0 - - -;
#X obj 231 237 mgSynthBandpassNoise;
#X msg 464 123 -2;
#X connect 3 0 7 0;
#X connect 4 0 7 1;
#X connect 5 0 8 0;
#X connect 6 0 8 1;
#X connect 7 0 29 1;
#X connect 8 0 29 0;
#X connect 11 0 29 2;
#X connect 12 0 29 2;
#X connect 13 0 29 2;
#X connect 14 0 29 2;
#X connect 16 0 29 2;
#X connect 17 0 29 2;
#X connect 18 2 24 0;
#X connect 18 3 24 1;
#X connect 18 4 29 2;
#X connect 19 0 18 0;
#X connect 20 0 18 0;
#X connect 21 0 29 3;
#X connect 22 0 29 3;
#X connect 23 0 29 5;
#X connect 24 0 29 1;
#X connect 25 0 28 0;
#X connect 26 0 28 0;
#X connect 28 0 29 4;
#X connect 29 0 0 0;
#X connect 29 0 0 1;
#X connect 29 0 15 0;
#X connect 30 0 29 3;
