#N canvas 146 467 833 455 10;
#X obj 185 205 dac~;
#X msg 23 77 \; pd dsp 1;
#X msg 23 114 \; pd dsp 0;
#X floatatom 213 76 5 0 1 0 - - -;
#X floatatom 263 76 5 0 1 0 - - -;
#X floatatom 127 81 5 0 1 0 - - -;
#X floatatom 177 81 5 0 1 0 - - -;
#X obj 223 108 mgPak2;
#X obj 137 113 mgPak2;
#X text 261 264 parameters: xy1 (lpf [0-1] \, amp [o-1]) \; xy2 (lpf
[0-1] \, amp mod [0-1]) \; trigger [0-1] \; resonance;
#X text 430 169 value/button pairs;
#X msg 337 79 0 1;
#X msg 340 103 1 1;
#X msg 378 105 1 8;
#X msg 377 80 0 8;
#X obj 288 212 mgUiSnapshot;
#X msg 423 77 0 4;
#X msg 423 104 1 4;
#X obj 379 6 mgHwDualAnalog;
#X msg 397 -31 bang;
#X floatatom 343 -34 5 0 0 0 - - -;
#X msg 473 107 1;
#X msg 472 84 2;
#X msg 624 133 bang;
#X obj 335 48 mgPak2;
#X msg 612 45;
#X msg 471 61 -2;
#X obj 280 45 mgPak2;
#X obj 108 163 tgl 15 0 empty empty empty 17 7 0 10 -262144 -1 -1 1
1;
#X obj 322 138 t l;
#X floatatom 416 137 5 0 0 0 - - -;
#X obj 131 164 metro 80;
#X obj 238 175 mgSynthBufferPulse8;
#X floatatom 542 112 5 0 0 0 - - -;
#X floatatom 548 110 5 0 0 0 - - -;
#X msg 512 204 arizaWork02-mgSynthBufferPulse8Parameters.txt;
#X connect 3 0 7 0;
#X connect 4 0 7 1;
#X connect 5 0 8 0;
#X connect 6 0 8 1;
#X connect 7 0 32 2;
#X connect 8 0 32 1;
#X connect 11 0 29 0;
#X connect 12 0 29 0;
#X connect 13 0 29 0;
#X connect 14 0 29 0;
#X connect 16 0 29 0;
#X connect 17 0 29 0;
#X connect 18 0 27 0;
#X connect 18 1 27 1;
#X connect 18 2 24 0;
#X connect 18 3 24 1;
#X connect 18 4 29 0;
#X connect 19 0 18 0;
#X connect 20 0 18 0;
#X connect 21 0 30 0;
#X connect 22 0 30 0;
#X connect 23 0 32 5;
#X connect 24 0 32 2;
#X connect 26 0 30 0;
#X connect 27 0 32 1;
#X connect 28 0 31 0;
#X connect 29 0 32 3;
#X connect 30 0 32 4;
#X connect 31 0 32 0;
#X connect 32 0 0 0;
#X connect 32 0 0 1;
#X connect 32 0 15 0;
#X connect 35 0 32 5;
