#N canvas 568 95 928 343 10;
#X obj 37 187 zl group 2;
#X obj 47 14 inlet;
#X obj 23 303 outlet;
#X obj 68 302 outlet;
#X obj 118 304 outlet;
#X obj 163 303 outlet;
#X obj 224 299 outlet;
#X obj 269 298 outlet;
#X obj 319 300 outlet;
#X obj 47 44 route float list symbol;
#X obj 201 75 loadbang;
#X obj 288 21 inlet;
#X text 343 12 bang reloads \; symbol loads that file;
#X obj 180 145 mgTextParameters;
#X obj 290 44 route bang symbol;
#X obj 357 79 prepend symbol;
#X obj 366 298 outlet;
#X obj 434 300 outlet;
#X obj 484 302 outlet;
#X obj 529 301 outlet;
#X obj 573 301 outlet;
#X obj 649 301 outlet;
#X obj 699 303 outlet;
#X obj 140 221 route pitch1 pitch2 pitch3 pitch4 pitch5 pitch6 pitch7
pitch8 attack decay sustain release lpfMin lpfMax;
#X msg 274 113 mgSynthStochWaveParameters.txt;
#X obj 105 188 print mgSynthStochWaveParameters-loading;
#X connect 0 0 23 0;
#X connect 0 0 25 0;
#X connect 1 0 9 0;
#X connect 9 0 13 0;
#X connect 9 1 0 0;
#X connect 9 2 0 0;
#X connect 10 0 24 0;
#X connect 11 0 14 0;
#X connect 13 0 0 0;
#X connect 14 0 24 0;
#X connect 14 1 13 1;
#X connect 14 2 15 0;
#X connect 15 0 13 1;
#X connect 23 0 2 0;
#X connect 23 1 3 0;
#X connect 23 2 4 0;
#X connect 23 3 5 0;
#X connect 23 4 6 0;
#X connect 23 5 7 0;
#X connect 23 6 8 0;
#X connect 23 7 16 0;
#X connect 23 8 17 0;
#X connect 23 9 18 0;
#X connect 23 10 19 0;
#X connect 23 11 20 0;
#X connect 23 12 21 0;
#X connect 23 13 22 0;
#X connect 24 0 13 1;
