#N canvas 1025 22 738 410 10;
#X obj 66 29 inlet;
#X msg 55 110 0 1;
#X msg 90 110 0 0.25;
#X msg 142 110 0.25 0.5;
#X msg 195 110 0.5 0.75;
#X msg 254 110 0.75 1;
#X text 283 59 all unit interval;
#X obj 18 112 t b;
#X obj 71 230 outlet;
#X obj 128 229 outlet;
#X obj 71 176 unpack f f;
#X obj 73 62 sel 1 2 3 4 5 6 7 8;
#X msg 305 110 0.125 0.25;
#X msg 370 110 0.375 0.5;
#X msg 442 110 0.625 0.75;
#X msg 503 110 0.875 1;
#X connect 0 0 11 0;
#X connect 1 0 10 0;
#X connect 2 0 10 0;
#X connect 3 0 10 0;
#X connect 4 0 10 0;
#X connect 5 0 10 0;
#X connect 7 0 1 0;
#X connect 10 0 8 0;
#X connect 10 1 9 0;
#X connect 11 0 1 0;
#X connect 11 1 2 0;
#X connect 11 2 3 0;
#X connect 11 3 4 0;
#X connect 11 4 12 0;
#X connect 11 5 13 0;
#X connect 11 6 14 0;
#X connect 11 7 15 0;
#X connect 11 8 7 0;
#X connect 12 0 10 0;
#X connect 13 0 10 0;
#X connect 14 0 10 0;
#X connect 15 0 10 0;
