#N canvas 413 22 1368 494 10;
#X obj 173 134 zl group 2;
#X obj 180 -39 inlet;
#X obj 15 276 outlet;
#X obj 60 275 outlet;
#X obj 110 277 outlet;
#X obj 155 276 outlet;
#X obj 218 279 outlet;
#X obj 263 279 outlet;
#X obj 306 279 outlet;
#X obj 183 -9 route float list symbol;
#X obj 244 133 print mgSynthBufferParameters-loading;
#X obj 337 22 loadbang;
#X obj 424 -32 inlet;
#X text 479 -41 bang reloads \; symbol loads that file;
#X obj 316 92 mgTextParameters;
#X obj 426 -9 route bang symbol;
#X obj 493 26 prepend symbol;
#X msg 409 60 mgSynthNoiseFilterParameters.txt;
#X text 578 130 lpfMin lpfMax hpfMin hpfMax amMin amMax;
#X obj 380 283 outlet;
#X obj 425 283 outlet;
#X obj 471 283 outlet;
#X obj 557 282 outlet;
#X obj 602 282 outlet;
#X obj 648 282 outlet;
#X obj 687 282 outlet;
#X obj 750 282 outlet;
#X obj 796 282 outlet;
#X obj 841 282 outlet;
#X obj 886 282 outlet;
#X obj 967 282 outlet;
#X obj 1011 281 outlet;
#X obj 1056 281 outlet;
#X obj 1102 281 outlet;
#X obj 225 164 route attack decay sustain release bp1Amp bp1Pitch bp1Resonance
bp2Amp bp2Pitch bp2Resonance sah1Amp sah1Rate sah1Min sah1Max sah2Amp
sah2Rate sah2Min sah2Max sah3Amp sah3Rate sah3Min sah3Max sah4Amp sah4Rate
sah4Min sah4Max;
#X obj 1176 282 outlet;
#X obj 1221 282 outlet;
#X obj 1267 282 outlet;
#X obj 1313 283 outlet;
#X msg 311 53 1;
#X connect 0 0 10 0;
#X connect 0 0 34 0;
#X connect 1 0 9 0;
#X connect 9 0 14 0;
#X connect 9 1 0 0;
#X connect 9 2 0 0;
#X connect 11 0 17 0;
#X connect 12 0 15 0;
#X connect 14 0 0 0;
#X connect 15 0 17 0;
#X connect 15 1 14 1;
#X connect 15 2 16 0;
#X connect 16 0 14 1;
#X connect 17 0 14 1;
#X connect 34 0 2 0;
#X connect 34 1 3 0;
#X connect 34 2 4 0;
#X connect 34 3 5 0;
#X connect 34 4 6 0;
#X connect 34 5 7 0;
#X connect 34 6 8 0;
#X connect 34 7 19 0;
#X connect 34 8 20 0;
#X connect 34 9 21 0;
#X connect 34 10 22 0;
#X connect 34 11 23 0;
#X connect 34 12 24 0;
#X connect 34 13 25 0;
#X connect 34 14 26 0;
#X connect 34 15 27 0;
#X connect 34 16 28 0;
#X connect 34 17 29 0;
#X connect 34 18 30 0;
#X connect 34 19 31 0;
#X connect 34 20 32 0;
#X connect 34 21 33 0;
#X connect 34 22 35 0;
#X connect 34 23 36 0;
#X connect 34 24 37 0;
#X connect 34 25 38 0;
#X connect 39 0 14 0;
