#N canvas 1002 367 477 508 10;
#X obj 70 252 *~;
#X obj 239 93 noise~;
#X obj 226 255 *~;
#X obj 187 123 click~;
#X obj 85 84 sig~ 50;
#X obj 85 138 lop~ 90;
#X obj 85 165 lop~ 90;
#X obj 85 192 lop~ 90;
#X obj 70 51 t f b f;
#X obj 239 123 lop~ 100;
#X obj 239 147 lop~ 100;
#X obj 239 180 *~ 1.2;
#X obj 70 225 mgEnvlMtAr 1 70 15;
#X obj 226 224 mgEnvlMtAr 1 50 20;
#X obj 85 111 mgOscSaw;
#X obj 70 15 inlet trigger;
#X obj 70 329 outlet~;
#X obj 70 300 *~ 1;
#X connect 0 0 17 0;
#X connect 1 0 9 0;
#X connect 2 0 17 0;
#X connect 3 0 11 0;
#X connect 4 0 14 0;
#X connect 5 0 6 0;
#X connect 6 0 7 0;
#X connect 7 0 0 1;
#X connect 8 0 12 0;
#X connect 8 1 3 0;
#X connect 8 2 13 0;
#X connect 9 0 10 0;
#X connect 10 0 11 0;
#X connect 11 0 2 1;
#X connect 12 0 0 0;
#X connect 13 0 2 0;
#X connect 14 0 5 0;
#X connect 15 0 8 0;
#X connect 17 0 16 0;
