#N canvas 349 22 1331 687 10;
#X obj 359 259 sig~;
#X obj 359 279 lop~ 20;
#X obj 288 70 unpack f f;
#X obj 358 452 moog~;
#X obj 802 359 mgScaleMinMax~;
#X obj 801 382 mtof~;
#X obj 899 335 sig~ 120;
#X obj 852 335 sig~ 70;
#X obj 802 312 sig~;
#X obj 802 334 lop~ 20;
#X obj 358 238 mgVolToAmp;
#X obj 963 369 mgScaleMinMax~;
#X obj 964 323 sig~;
#X obj 963 344 lop~ 20;
#X obj 1013 345 sig~ 0.5;
#X obj 358 534 outlet~;
#X obj 33 4 loadbang;
#X msg 37 57 1;
#X obj 459 287 unpack f f;
#X msg 12 32 40 42 43 45 47 48 50 51;
#X obj 358 417 *~;
#X obj 415 316 mgGate8 _____________;
#X obj 212 304 t l;
#X obj 60 305 unpack f f f f f f f f;
#X obj 248 304 t l;
#X obj 453 -24 inlet eventTrigger;
#X obj 290 -25 inlet xy1;
#X obj 372 -25 inlet xy2;
#X obj 372 70 unpack f f;
#X obj 678 53 zl group 8;
#X obj 753 52 zl group 4;
#X obj 828 52 zl group 2;
#X obj 903 51 zl group 2;
#X obj 852 312 unpack f f;
#X obj 212 142 unpack f f;
#X obj 249 168 * 0;
#X obj 212 212 pack f f;
#X text 164 124 rate \, depth;
#X obj 1068 345 sig~ 3.5;
#X obj 26 365 mgSynthSaw_v;
#X obj 115 365 mgSynthSaw_v;
#X obj 199 365 mgSynthSaw_v;
#X obj 288 365 mgSynthSaw_v;
#X obj 454 362 mgSynthSaw_v;
#X obj 538 362 mgSynthSaw_v;
#X obj 627 362 mgSynthSaw_v;
#X obj 368 362 mgSynthSaw_v;
#X obj 246 189 t b f;
#X obj 723 -21 inlet parameterBankNumber;
#X obj 923 -18 inlet parameterFile;
#X obj 574 -23 inlet octaveShift;
#X msg 70 58 0;
#X text 581 22 +/- oct shift;
#X obj 723 8 mgSynthSawParameters _________________________________
;
#X obj 1044 168 f;
#X obj 60 275 mgScaleTranspose8;
#X connect 0 0 1 0;
#X connect 1 0 20 1;
#X connect 2 0 35 0;
#X connect 2 1 10 0;
#X connect 3 0 15 0;
#X connect 4 0 5 0;
#X connect 5 0 3 1;
#X connect 6 0 4 2;
#X connect 7 0 4 1;
#X connect 8 0 9 0;
#X connect 9 0 4 0;
#X connect 10 0 0 0;
#X connect 11 0 3 2;
#X connect 12 0 13 0;
#X connect 13 0 11 0;
#X connect 14 0 11 1;
#X connect 16 0 17 0;
#X connect 16 0 19 0;
#X connect 16 0 51 0;
#X connect 17 0 10 0;
#X connect 18 0 21 1;
#X connect 18 1 21 0;
#X connect 19 0 55 0;
#X connect 20 0 3 0;
#X connect 21 0 39 0;
#X connect 21 1 40 0;
#X connect 21 2 41 0;
#X connect 21 3 42 0;
#X connect 21 4 46 0;
#X connect 21 5 43 0;
#X connect 21 6 44 0;
#X connect 21 7 45 0;
#X connect 22 0 39 2;
#X connect 22 0 40 2;
#X connect 22 0 41 2;
#X connect 22 0 42 2;
#X connect 22 0 43 2;
#X connect 22 0 44 2;
#X connect 22 0 45 2;
#X connect 22 0 46 2;
#X connect 23 0 39 1;
#X connect 23 1 40 1;
#X connect 23 2 41 1;
#X connect 23 3 42 1;
#X connect 23 4 46 1;
#X connect 23 5 43 1;
#X connect 23 6 44 1;
#X connect 23 7 45 1;
#X connect 24 0 39 3;
#X connect 24 0 40 3;
#X connect 24 0 41 3;
#X connect 24 0 42 3;
#X connect 24 0 43 3;
#X connect 24 0 44 3;
#X connect 24 0 45 3;
#X connect 24 0 46 3;
#X connect 25 0 18 0;
#X connect 26 0 2 0;
#X connect 27 0 28 0;
#X connect 28 0 8 0;
#X connect 28 1 12 0;
#X connect 29 0 55 0;
#X connect 30 0 24 0;
#X connect 31 0 34 0;
#X connect 32 0 33 0;
#X connect 33 0 7 0;
#X connect 33 1 6 0;
#X connect 34 0 36 0;
#X connect 34 1 35 1;
#X connect 35 0 47 0;
#X connect 36 0 22 0;
#X connect 38 0 11 2;
#X connect 39 0 20 0;
#X connect 40 0 20 0;
#X connect 41 0 20 0;
#X connect 42 0 20 0;
#X connect 43 0 20 0;
#X connect 44 0 20 0;
#X connect 45 0 20 0;
#X connect 46 0 20 0;
#X connect 47 0 36 0;
#X connect 47 1 36 1;
#X connect 48 0 53 0;
#X connect 49 0 53 1;
#X connect 50 0 55 1;
#X connect 53 0 29 0;
#X connect 53 1 29 0;
#X connect 53 2 29 0;
#X connect 53 3 29 0;
#X connect 53 4 29 0;
#X connect 53 5 29 0;
#X connect 53 6 29 0;
#X connect 53 7 29 0;
#X connect 53 8 30 0;
#X connect 53 9 30 0;
#X connect 53 10 30 0;
#X connect 53 11 30 0;
#X connect 53 12 31 0;
#X connect 53 13 31 0;
#X connect 53 14 32 0;
#X connect 53 15 32 0;
#X connect 53 16 54 0;
#X connect 54 0 55 1;
#X connect 55 0 23 0;
