#N canvas 622 635 871 323 10;
#X obj 214 180 mgSynthSawSequence_v;
#X obj 134 100 tgl 15 0 empty empty empty 17 7 0 10 -262144 -1 -1 1
1;
#X msg 334 108 1 1 1 1 1 1 1 1 1 1 1 1 1 1 1 1;
#X msg 343 53 0.1 0.8 0.1 0.9 0 0 1 1 0 0 1 1 0 0 1 1 0 0 0 1;
#X obj 265 111 t l;
#X obj 279 132 t l;
#X obj 166 61 metro 200;
#X obj 166 39 tgl 15 0 empty empty empty 17 7 0 10 -262144 -1 -1 1
1;
#X msg 356 172 40 4;
#X obj 213 254 dac~;
#X obj 128 62 bng 15 250 50 0 empty empty empty 17 7 0 10 -262144 -1
-1;
#X obj 682 54 mgTableWaveSaw;
#X obj 682 77 mgTableWaveSquare;
#X msg 321 82 1 1 1 1 0.3 1 0.2 1 0.2 1 0 1 0.1 0.2 0.5 0.9;
#X msg 273 12;
#X floatatom 230 119 5 0 0 0 - - -;
#X floatatom 221 34 5 0 0 0 - - -;
#X obj 216 212 *~ 0.2;
#X msg 356 195 100 2;
#X msg 357 219 50 1.5;
#X obj 751 26;
#X msg 357 241 300 32;
#X msg 494 161 0 20 0 60 0 60 61 62 0 0 0 20 0 0 0 0 0 0;
#X msg 494 139 0 20 40 0 60 61 62 63 68 0 20 0 0 0 0 0 0;
#X text 594 205 envel parameters include duration;
#X msg 463 203 20 10 0.6 10 600;
#X msg 462 226 20 10 1 10 120;
#X msg 357 151 40 5;
#X connect 0 0 17 0;
#X connect 1 0 0 0;
#X connect 2 0 4 0;
#X connect 3 0 4 0;
#X connect 4 0 0 3;
#X connect 5 0 0 4;
#X connect 6 0 0 1;
#X connect 6 0 10 0;
#X connect 7 0 6 0;
#X connect 8 0 0 5;
#X connect 13 0 4 0;
#X connect 15 0 0 2;
#X connect 16 0 6 1;
#X connect 17 0 9 0;
#X connect 17 0 9 1;
#X connect 18 0 0 5;
#X connect 19 0 0 5;
#X connect 21 0 0 5;
#X connect 22 0 5 0;
#X connect 23 0 5 0;
#X connect 25 0 0 6;
#X connect 26 0 0 6;
#X connect 27 0 0 5;
