#N canvas 1 22 1613 476 10;
#X obj 37 187 zl group 2;
#X obj 47 14 inlet;
#X obj 20 357 outlet;
#X obj 77 364 outlet;
#X obj 120 366 outlet;
#X obj 165 365 outlet;
#X obj 207 366 outlet;
#X obj 252 365 outlet;
#X obj 295 367 outlet;
#X obj 47 44 route float list symbol;
#X obj 201 75 loadbang;
#X obj 288 21 inlet;
#X text 343 12 bang reloads \; symbol loads that file;
#X obj 180 145 mgTextParameters;
#X obj 290 44 route bang symbol;
#X obj 357 79 prepend symbol;
#X obj 342 365 outlet;
#X obj 385 367 outlet;
#X obj 460 363 outlet;
#X obj 526 355 outlet;
#X obj 570 355 outlet;
#X obj 612 355 outlet;
#X obj 655 357 outlet;
#X obj 699 358 outlet;
#X obj 742 357 outlet;
#X obj 789 356 outlet;
#X obj 834 356 outlet;
#X text 78 386 patternsA;
#X text 532 388 patternsB;
#X obj 906 357 outlet;
#X obj 950 358 outlet;
#X obj 993 357 outlet;
#X obj 1040 356 outlet;
#X obj 1085 356 outlet;
#X text 942 392 adsr+dur;
#X obj 1158 357 outlet;
#X obj 1203 357 outlet;
#X obj 1367 359 outlet;
#X text 1160 389 macroAR;
#X text 1369 390 octaveshift;
#X text 24 395 fp;
#X text 466 395 fp;
#X msg 153 101 1;
#X obj 1256 357 outlet;
#X obj 1301 357 outlet;
#X msg 274 113 mgSynthPafSequenceDuoParameters.txt;
#X obj 105 188 print mgSynthPafSequenceDuoParameters-loading;
#X obj 37 214 route patternFileA patternA1 patternA2 patternA3 patternA4
patternA5 patternA6 patternA7 patternA8 patternFileB patternB1 patternB2
patternB3 patternB4 patternB5 patternB6 patternB7 patternB8 attack
decay sustain release duration macroAttack macroRelease fmRate fmDepth
octaveShift pulseModA pulseModB;
#X obj 1446 359 outlet;
#X obj 1495 358 outlet;
#X text 1452 389 pulseModA/B;
#X text 1258 389 fm;
#X connect 0 0 46 0;
#X connect 0 0 47 0;
#X connect 1 0 9 0;
#X connect 9 0 13 0;
#X connect 9 1 0 0;
#X connect 9 2 0 0;
#X connect 10 0 45 0;
#X connect 11 0 14 0;
#X connect 13 0 0 0;
#X connect 14 0 45 0;
#X connect 14 1 13 1;
#X connect 14 2 15 0;
#X connect 15 0 13 1;
#X connect 42 0 13 0;
#X connect 45 0 13 1;
#X connect 47 0 2 0;
#X connect 47 1 3 0;
#X connect 47 2 4 0;
#X connect 47 3 5 0;
#X connect 47 4 6 0;
#X connect 47 5 7 0;
#X connect 47 6 8 0;
#X connect 47 7 16 0;
#X connect 47 8 17 0;
#X connect 47 9 18 0;
#X connect 47 10 19 0;
#X connect 47 11 20 0;
#X connect 47 12 21 0;
#X connect 47 13 22 0;
#X connect 47 14 23 0;
#X connect 47 15 24 0;
#X connect 47 16 25 0;
#X connect 47 17 26 0;
#X connect 47 18 29 0;
#X connect 47 19 30 0;
#X connect 47 20 31 0;
#X connect 47 21 32 0;
#X connect 47 22 33 0;
#X connect 47 23 35 0;
#X connect 47 24 36 0;
#X connect 47 25 43 0;
#X connect 47 26 44 0;
#X connect 47 27 37 0;
#X connect 47 28 48 0;
#X connect 47 29 49 0;
