#N canvas 79 542 450 300 10;
#X obj 100 186 dac~;
#X obj 109 152 *~ 0.2;
#X obj 256 361 mgEnvlBtAdsr 40 140 0.8 600;
#X obj 32 38 tgl 15 0 empty empty empty 17 7 0 10 -262144 -1 -1 1 1
;
#X msg 153 24 1;
#X msg 162 48 0;
#X obj 35 64 metro 200;
#X floatatom 287 61 5 0 0 0 - - -;
#X floatatom 200 67 5 0 0 0 - - -;
#X obj 110 120 mgSynthBandpassPulse_v;
#X obj 29 123 noise~;
#X floatatom 149 81 5 0 0 0 - - -;
#X floatatom 113 79 5 0 0 0 - - -;
#X msg 109 31 1;
#X msg 118 55 4;
#X msg 226 42 5;
#X connect 1 0 0 0;
#X connect 1 0 0 1;
#X connect 3 0 6 0;
#X connect 4 0 11 0;
#X connect 5 0 11 0;
#X connect 6 0 9 1;
#X connect 7 0 9 6;
#X connect 8 0 9 4;
#X connect 9 0 1 0;
#X connect 10 0 9 0;
#X connect 11 0 9 3;
#X connect 12 0 9 2;
#X connect 13 0 12 0;
#X connect 14 0 12 0;
#X connect 15 0 9 5;
