#N canvas 757 247 650 376 10;
#X obj 231 205 dac~;
#X obj 229 174 *~ 0.5;
#X msg 16 50 53466-spokenSpanish.aif;
#X obj 539 96 mgTableHanning;
#X floatatom 241 63 5 0 0 0 - - -;
#X floatatom 248 83 5 0 1 0 - - -;
#X floatatom 311 44 5 0 1 0 - - -;
#X floatatom 313 66 5 0 0 0 - - -;
#X floatatom 380 75 5 0 0 0 - - -;
#X floatatom 320 85 5 0 1 0 - - -;
#X obj 406 153 table \$0-grain;
#X floatatom 436 54 5 0 1 0 - - -;
#X floatatom 485 55 5 0 0 0 - - -;
#X text 428 29 density / win dur;
#X obj 232 119 mgSynthGranularSample4_v;
#X obj 187 119 tgl 15 0 empty empty empty 17 7 0 10 -262144 -1 -1 1
1;
#X msg 24 79;
#X msg 86 24 2127-mid-slow.aif;
#X connect 1 0 0 0;
#X connect 1 0 0 1;
#X connect 2 0 14 1;
#X connect 4 0 14 2;
#X connect 5 0 14 3;
#X connect 6 0 14 4;
#X connect 7 0 14 5;
#X connect 8 0 14 7;
#X connect 9 0 14 6;
#X connect 11 0 14 9;
#X connect 12 0 14 10;
#X connect 14 0 1 0;
#X connect 15 0 14 0;
#X connect 17 0 14 1;
