#N canvas 613 184 1067 660 10;
#X obj 272 256 sig~;
#X obj 272 276 lop~ 20;
#X obj 291 109 unpack f f;
#X obj 413 97 unpack f f;
#X obj 446 462 moog~;
#X obj 463 369 mgScaleMinMax~;
#X obj 462 392 mtof~;
#X obj 560 345 sig~ 120;
#X obj 513 345 sig~ 70;
#X obj 463 322 sig~;
#X obj 463 344 lop~ 20;
#X obj 272 229 mgVolToAmp;
#X obj 623 381 mgScaleMinMax~;
#X obj 624 335 sig~;
#X obj 623 356 lop~ 20;
#X obj 673 357 sig~ 0.5;
#X obj 728 357 sig~ 3.5;
#X obj 447 494 outlet~;
#X obj 128 104 loadbang;
#X msg 128 129 1;
#X obj 256 357 *~;
#X text 114 259 level control \, y axis;
#X text 503 324 lpf cutoff;
#X text 523 19 give a list: value/key apirs;
#X obj 666 96 mgSynthBufferParameters;
#X text 668 47 parameter bank number;
#X text 819 96 file to load \; a default is provided;
#X text 267 517 this is modeled as parameterized instrument and not
as a single voice to allow complete specifciation of envelope values
filter parameters for each buffer. a more efficient mgSynthBuffer_v
would leave out the filter and take envelope parametsr as an argument
;
#X obj 527 69 inlet eventTrigger;
#X obj 291 76 inlet xy1;
#X obj 412 72 inlet xy2;
#X obj 635 169 zl group 2;
#X obj 290 357 mgSynthBuffer_v;
#X obj 866 70 inlet presetFile;
#X obj 666 67 inlet presetNumber;
#X connect 0 0 1 0;
#X connect 1 0 20 1;
#X connect 2 1 11 0;
#X connect 3 0 9 0;
#X connect 3 1 13 0;
#X connect 4 0 17 0;
#X connect 5 0 6 0;
#X connect 6 0 4 1;
#X connect 7 0 5 2;
#X connect 8 0 5 1;
#X connect 9 0 10 0;
#X connect 10 0 5 0;
#X connect 11 0 0 0;
#X connect 12 0 4 2;
#X connect 13 0 14 0;
#X connect 14 0 12 0;
#X connect 15 0 12 1;
#X connect 16 0 12 2;
#X connect 18 0 19 0;
#X connect 19 0 11 0;
#X connect 20 0 4 0;
#X connect 24 0 32 0;
#X connect 24 1 32 2;
#X connect 24 2 32 3;
#X connect 24 3 31 0;
#X connect 24 4 31 1;
#X connect 24 5 8 0;
#X connect 24 6 7 0;
#X connect 28 0 32 1;
#X connect 29 0 2 0;
#X connect 30 0 3 0;
#X connect 31 0 32 4;
#X connect 32 0 20 0;
#X connect 33 0 24 1;
#X connect 34 0 24 0;
