#N canvas 55 22 1566 440 10;
#X obj 37 187 zl group 2;
#X obj 44 14 inlet;
#X obj -14 356 outlet;
#X obj 31 356 outlet;
#X obj 81 356 outlet;
#X obj 126 356 outlet;
#X obj 175 356 outlet;
#X obj 220 356 outlet;
#X obj 270 356 outlet;
#X obj 47 44 route float list symbol;
#X obj 201 75 loadbang;
#X obj 288 21 inlet;
#X text 343 12 bang reloads \; symbol loads that file;
#X obj 180 145 mgTextParameters;
#X obj 290 44 route bang symbol;
#X obj 357 79 prepend symbol;
#X obj 324 356 outlet;
#X obj 398 357 outlet;
#X obj 448 359 outlet;
#X obj 493 358 outlet;
#X obj 540 356 outlet;
#X obj 591 355 outlet;
#X obj 641 357 outlet;
#X obj 686 356 outlet;
#X obj 730 356 outlet;
#X obj 831 354 outlet;
#X obj 881 354 outlet;
#X obj 108 186 print mgSynthBandpassNoiseParameters-loading;
#X obj 926 355 outlet;
#X obj 1019 355 outlet;
#X obj 1065 355 outlet;
#X obj 1109 355 outlet;
#X obj 1154 350 outlet;
#X obj 1268 354 outlet;
#X obj 1314 354 outlet;
#X obj 1358 354 outlet;
#X text 168 403 8 pitches \, 8 counts;
#X text 1030 392 adsr;
#X text 1269 392 lpfMinMax \, lpfResonanceMinMax;
#X msg 274 113 mgSynthBandpassNoisePulseParameters.txt;
#X obj 57 245 route pitch1 pitch2 pitch3 pitch4 pitch5 pitch6 pitch7
pitch8 count1 count2 count3 count4 count5 count6 count7 count8 duration
amp bpResonance attack decay sustain release lpfMin lpfMax lpfResonanceMin
lpfResonanceMax;
#X text 824 386 dur \, amp \, bpResonance;
#X obj 1406 354 outlet;
#X connect 0 0 27 0;
#X connect 0 0 40 0;
#X connect 1 0 9 0;
#X connect 9 0 13 0;
#X connect 9 1 0 0;
#X connect 9 2 0 0;
#X connect 10 0 39 0;
#X connect 11 0 14 0;
#X connect 13 0 0 0;
#X connect 14 0 39 0;
#X connect 14 1 13 1;
#X connect 14 2 15 0;
#X connect 15 0 13 1;
#X connect 39 0 13 1;
#X connect 40 0 2 0;
#X connect 40 1 3 0;
#X connect 40 2 4 0;
#X connect 40 3 5 0;
#X connect 40 4 6 0;
#X connect 40 5 7 0;
#X connect 40 6 8 0;
#X connect 40 7 16 0;
#X connect 40 8 17 0;
#X connect 40 9 18 0;
#X connect 40 10 19 0;
#X connect 40 11 20 0;
#X connect 40 12 21 0;
#X connect 40 13 22 0;
#X connect 40 14 23 0;
#X connect 40 15 24 0;
#X connect 40 16 25 0;
#X connect 40 17 26 0;
#X connect 40 18 28 0;
#X connect 40 19 29 0;
#X connect 40 20 30 0;
#X connect 40 21 31 0;
#X connect 40 22 32 0;
#X connect 40 23 33 0;
#X connect 40 24 34 0;
#X connect 40 25 35 0;
#X connect 40 26 42 0;
