#N canvas 823 501 1025 514 10;
#X obj 182 90 unpack f f f;
#X obj 143 177 *~;
#X obj 225 175 mgEnvlBtAdsr 40 140 0.8 600;
#X obj 294 140 unpack f f f f;
#X obj 178 119 mgSahOsc_v;
#X obj 300 24 inlet sahParameters;
#X obj 433 21 inlet adsrParameters;
#X obj 143 246 outlet~;
#X obj 142 149 *~;
#X obj 166 34 sig~;
#X obj 166 55 lop~ 20;
#X obj 167 8 inlet voiceAmp;
#X obj 21 23 inlet eventTrigger;
#X obj 279 -50 loadbang;
#X msg 288 -23 1;
#X connect 0 0 4 0;
#X connect 0 1 4 1;
#X connect 0 2 4 2;
#X connect 1 0 7 0;
#X connect 2 0 1 1;
#X connect 3 0 2 1;
#X connect 3 1 2 2;
#X connect 3 2 2 3;
#X connect 3 3 2 4;
#X connect 4 0 8 0;
#X connect 5 0 0 0;
#X connect 6 0 3 0;
#X connect 8 0 1 0;
#X connect 9 0 10 0;
#X connect 10 0 8 1;
#X connect 11 0 9 0;
#X connect 12 0 2 0;
#X connect 13 0 14 0;
#X connect 14 0 9 0;
