#N canvas 423 156 1087 547 10;
#X obj 261 475 outlet~;
#X text 314 13 give a list: value/key apirs;
#X obj 326 68 zl rev;
#X obj 291 101 route 1 2 3 4 5 6 7 8;
#X text 492 66 parameter bank number;
#X text 642 78 parameter file name;
#X obj 464 108 mgSynthBuffer8Parameters;
#X obj -52 243 mgSynthBuffer;
#X obj 55 241 mgSynthBuffer;
#X obj 150 243 mgSynthBuffer;
#X obj 257 241 mgSynthBuffer;
#X obj 353 246 mgSynthBuffer;
#X obj 460 244 mgSynthBuffer;
#X obj 555 246 mgSynthBuffer;
#X obj 662 244 mgSynthBuffer;
#X text 634 110 order of output here is not determined by outlet \,
but by the parameter bank list order;
#X obj 460 48 inlet parameterBank;
#X obj 649 45 inlet parameterFileName;
#X obj 89 95 inlet xy1;
#X obj 196 89 inlet xy2;
#X obj 327 44 inlet eventTrigger;
#X connect 2 0 3 0;
#X connect 3 0 7 2;
#X connect 3 1 8 2;
#X connect 3 2 9 2;
#X connect 3 3 10 2;
#X connect 3 4 11 2;
#X connect 3 5 12 2;
#X connect 3 6 13 2;
#X connect 3 7 14 2;
#X connect 6 0 7 3;
#X connect 6 1 8 3;
#X connect 6 2 9 3;
#X connect 6 3 10 3;
#X connect 6 4 11 3;
#X connect 6 5 12 3;
#X connect 6 6 13 3;
#X connect 6 7 14 3;
#X connect 6 8 7 4;
#X connect 6 8 8 4;
#X connect 6 8 9 4;
#X connect 6 8 10 4;
#X connect 6 8 11 4;
#X connect 6 8 12 4;
#X connect 6 8 13 4;
#X connect 6 8 14 4;
#X connect 7 0 0 0;
#X connect 8 0 0 0;
#X connect 9 0 0 0;
#X connect 10 0 0 0;
#X connect 11 0 0 0;
#X connect 12 0 0 0;
#X connect 13 0 0 0;
#X connect 14 0 0 0;
#X connect 16 0 6 0;
#X connect 17 0 6 1;
#X connect 18 0 7 0;
#X connect 18 0 8 0;
#X connect 18 0 9 0;
#X connect 18 0 10 0;
#X connect 18 0 11 0;
#X connect 18 0 12 0;
#X connect 18 0 13 0;
#X connect 18 0 14 0;
#X connect 19 0 7 1;
#X connect 19 0 8 1;
#X connect 19 0 9 1;
#X connect 19 0 10 1;
#X connect 19 0 11 1;
#X connect 19 0 12 1;
#X connect 19 0 13 1;
#X connect 19 0 14 1;
#X connect 20 0 2 0;
