#N canvas 477 321 1012 449 10;
#X obj 134 100 tgl 15 0 empty empty empty 17 7 0 10 -262144 -1 -1 1
1;
#X msg 334 108 1 1 1 1 1 1 1 1 1 1 1 1 1 1 1 1;
#X msg 343 53 0.1 0.8 0.1 0.9 0 0 1 1 0 0 1 1 0 0 1 1 0 0 0 1;
#X obj 265 111 t l;
#X obj 279 132 t l;
#X obj 166 61 metro 200;
#X obj 166 39 tgl 15 0 empty empty empty 17 7 0 10 -262144 -1 -1 1
1;
#X obj 213 254 dac~;
#X obj 128 62 bng 15 250 50 0 empty empty empty 17 7 0 10 -262144 -1
-1;
#X msg 321 82 1 1 1 1 0.3 1 0.2 1 0.2 1 0 1 0.1 0.2 0.5 0.9;
#X msg 273 12;
#X floatatom 230 119 5 0 0 0 - - -;
#X floatatom 221 34 5 0 0 0 - - -;
#X obj 216 212 *~ 0.2;
#X msg 656 68 0 20 0 60 0 60 61 62 0 0 0 20 0 0 0 0 0 0;
#X msg 656 46 0 20 40 0 60 61 62 63 68 0 20 0 0 0 0 0 0;
#X text 691 320 envel parameters include duration;
#X msg 560 318 20 10 0.6 10 600;
#X msg 559 341 20 10 1 10 120;
#X msg 398 143 1;
#X msg 429 144 2;
#X msg 413 195 mgSynthBufferParameters.txt;
#X msg 426 218 symbol mgSynthBufferParameters.txt;
#X floatatom 455 143 5 0 0 0 - - -;
#X obj 492 143 counter 1 52;
#X msg 576 144 bang;
#X msg 613 144 bang;
#X msg 439 239 arizaWork03-mgSynthBufferParameters.txt;
#X obj 214 180 mgSynthBufferSequence_v;
#X connect 0 0 28 0;
#X connect 1 0 3 0;
#X connect 2 0 3 0;
#X connect 3 0 28 3;
#X connect 4 0 28 4;
#X connect 5 0 8 0;
#X connect 5 0 28 1;
#X connect 6 0 5 0;
#X connect 9 0 3 0;
#X connect 11 0 28 2;
#X connect 12 0 5 1;
#X connect 13 0 7 0;
#X connect 13 0 7 1;
#X connect 14 0 4 0;
#X connect 15 0 4 0;
#X connect 19 0 23 0;
#X connect 20 0 23 0;
#X connect 21 0 28 7;
#X connect 22 0 28 7;
#X connect 23 0 28 6;
#X connect 24 0 23 0;
#X connect 25 0 24 0;
#X connect 26 0 24 2;
#X connect 27 0 28 7;
#X connect 28 0 13 0;
