#N canvas 776 22 786 616 10;
#X obj 98 180 sig~;
#X obj 98 202 lop~ 20;
#X obj 221 499 *~;
#X obj 223 535 outlet~;
#X obj 0 68 loadbang;
#X obj 32 360 mgOscSaw;
#X obj 90 359 mgOscSaw;
#X obj 148 361 mgOscSquare;
#X obj 32 340 mtof~;
#X obj 90 340 mtof~;
#X obj 149 340 mtof~;
#X obj 32 275 +~;
#X obj 98 281 mgScaleMinMax~;
#X obj 97 256 mgRectify~;
#X obj 97 230 osc~ 40;
#X obj 164 256 sig~ -4;
#X obj 214 257 sig~ 4;
#X obj 31 231 sig~;
#X obj 165 233 * -1;
#X text 196 279 vibrato/fm;
#X obj 168 210 f;
#X obj 32 385 *~ 0.4;
#X obj 91 385 *~ 0.4;
#X obj 149 384 *~ 0.4;
#X text 102 161 FM rate;
#X obj 288 36 inlet pitch;
#X obj 392 70 unpack f f;
#X obj 92 425 *~ 1;
#X obj 392 38 inlet fmRateDepth;
#X msg 57 101 1 0;
#X obj 194 35 inlet trigger;
#X obj 507 39 inlet envelopParameters;
#X msg 12 102 40;
#X obj 241 370 f;
#X msg 269 411 0;
#X obj 90 317 -~ 12.02;
#X obj 149 317 +~ 11.98;
#X obj 290 443 unpack f f f f f;
#X obj 248 498 mgEnvlMtAdsr 40 140 0.8 20 100;
#X obj 29 254 lop~ 15;
#X connect 0 0 1 0;
#X connect 1 0 14 0;
#X connect 2 0 3 0;
#X connect 4 0 32 0;
#X connect 4 0 29 0;
#X connect 5 0 21 0;
#X connect 6 0 22 0;
#X connect 7 0 23 0;
#X connect 8 0 5 0;
#X connect 9 0 6 0;
#X connect 10 0 7 0;
#X connect 11 0 8 0;
#X connect 11 0 35 0;
#X connect 11 0 36 0;
#X connect 12 0 11 1;
#X connect 13 0 12 0;
#X connect 14 0 13 0;
#X connect 15 0 12 1;
#X connect 16 0 12 2;
#X connect 17 0 39 0;
#X connect 18 0 15 0;
#X connect 20 0 18 0;
#X connect 20 0 16 0;
#X connect 21 0 27 0;
#X connect 22 0 27 0;
#X connect 23 0 27 0;
#X connect 25 0 17 0;
#X connect 26 0 0 0;
#X connect 26 1 20 0;
#X connect 27 0 2 0;
#X connect 28 0 26 0;
#X connect 29 0 26 0;
#X connect 30 0 33 0;
#X connect 31 0 37 0;
#X connect 32 0 17 0;
#X connect 33 0 38 0;
#X connect 34 0 38 0;
#X connect 35 0 9 0;
#X connect 36 0 10 0;
#X connect 37 0 38 1;
#X connect 37 1 38 2;
#X connect 37 2 38 3;
#X connect 37 3 38 4;
#X connect 37 4 38 5;
#X connect 38 0 2 1;
#X connect 39 0 11 0;
