#N canvas 933 236 569 451 10;
#X obj 99 253 dac~;
#X obj 108 219 *~ 0.2;
#X obj 31 105 tgl 15 0 empty empty empty 17 7 0 10 -262144 -1 -1 0
1;
#X msg 152 91 1;
#X msg 161 115 0;
#X obj 34 131 metro 200;
#X floatatom 323 190 5 0 0 0 - - -;
#X floatatom 199 134 5 0 0 0 - - -;
#X floatatom 148 148 5 0 0 0 - - -;
#X floatatom 112 146 5 0 0 0 - - -;
#X msg 108 98 1;
#X msg 117 122 4;
#X obj 109 187 mgSynthBufferPulse _____________;
#X msg 329 17 bang;
#X obj 380 62 mgHwDualAnalog;
#X floatatom 401 18 5 0 0 0 - - -;
#X obj 460 105 unpack f f;
#X obj 313 99 mgPak2 f f;
#X obj 387 99 mgPak2 f f;
#X obj 523 61 print;
#X msg 361 190 bang;
#X connect 1 0 0 0;
#X connect 1 0 0 1;
#X connect 2 0 5 0;
#X connect 3 0 8 0;
#X connect 4 0 8 0;
#X connect 5 0 12 0;
#X connect 6 0 12 6;
#X connect 7 0 12 4;
#X connect 8 0 12 2;
#X connect 9 0 12 1;
#X connect 10 0 9 0;
#X connect 11 0 9 0;
#X connect 12 0 1 0;
#X connect 13 0 14 0;
#X connect 14 0 17 0;
#X connect 14 1 17 1;
#X connect 14 2 18 0;
#X connect 14 3 18 1;
#X connect 14 4 16 0;
#X connect 14 4 19 0;
#X connect 15 0 14 0;
#X connect 16 0 12 3;
#X connect 18 0 12 5;
#X connect 20 0 12 7;
