#N canvas 336 675 850 375 10;
#X obj 413 -86 line;
#X obj 414 -62 mtof;
#X obj 188 68 *~;
#X obj 215 67 mgEnvlBtAdsr 40 140 0.8 600;
#X obj 329 -91 lop~ 20;
#X obj 188 47 *~;
#X obj 76 -172 inlet~ sourceAudio;
#X obj 327 -181 inlet voiceAmp;
#X obj 425 -176 inlet pitch;
#X obj 411 -112 pack f f;
#X obj 606 -170 inlet timeToPitch;
#X obj 641 -120 loadbang;
#X obj 187 115 outlet~;
#X obj 388 28 unpack f f f f;
#X obj 719 -174 inlet adsrParameters;
#X obj 203 -173 inlet eventTrigger;
#X obj 476 -66 line;
#X obj 474 -92 pack f f;
#X obj 505 -172 inlet resonance;
#X obj 190 3 mgFilterBandpass 200 2;
#X msg 630 -86 60;
#X obj 329 -112 sig~ 1;
#X connect 0 0 1 0;
#X connect 1 0 19 1;
#X connect 2 0 12 0;
#X connect 3 0 2 1;
#X connect 4 0 5 1;
#X connect 5 0 2 0;
#X connect 6 0 19 0;
#X connect 7 0 21 0;
#X connect 8 0 9 0;
#X connect 9 0 0 0;
#X connect 10 0 9 1;
#X connect 11 0 20 0;
#X connect 13 0 3 1;
#X connect 13 1 3 2;
#X connect 13 2 3 3;
#X connect 13 3 3 4;
#X connect 14 0 13 0;
#X connect 15 0 3 0;
#X connect 16 0 19 2;
#X connect 17 0 16 0;
#X connect 18 0 17 0;
#X connect 19 0 5 0;
#X connect 20 0 9 1;
#X connect 20 0 17 1;
#X connect 21 0 4 0;
