#N canvas 966 523 615 364 10;
#X obj 151 185 *~ 0.7;
#X obj 153 219 dac~;
#X msg 127 49 1;
#X msg 97 48 0;
#X msg 287 54 -1;
#X msg 290 88 0.5;
#X msg 286 22 1.5;
#X msg 54 82 13810-high-slow.aif;
#X obj 179 49 tgl 15 0 empty empty empty 17 7 0 10 -262144 -1 -1 0
1;
#X obj 149 127 mgSynthBufferLoop_v;
#X floatatom 322 106 10 0 0 0 - - -;
#X floatatom 388 106 10 0 1 0 - - -;
#X floatatom 454 106 10 0 1 0 - - -;
#X connect 0 0 1 0;
#X connect 0 0 1 1;
#X connect 2 0 9 1;
#X connect 3 0 9 1;
#X connect 4 0 10 0;
#X connect 5 0 10 0;
#X connect 6 0 10 0;
#X connect 7 0 9 0;
#X connect 9 0 0 0;
#X connect 10 0 9 2;
#X connect 11 0 9 3;
#X connect 12 0 9 4;
