#N canvas 223 652 689 346 10;
#X obj 208 214 dac~;
#X msg 29 23 \; pd dsp 1;
#X msg 29 60 \; pd dsp 0;
#X msg 258 88 1;
#X msg 289 89 0;
#X floatatom 219 22 5 0 1 0 - - -;
#X floatatom 269 22 5 0 1 0 - - -;
#X floatatom 133 27 5 0 1 0 - - -;
#X floatatom 183 27 5 0 1 0 - - -;
#X obj 229 54 mgPak2;
#X obj 143 59 mgPak2;
#X text 351 187 parameters: xy1 (lpf [0-1] \, amp [o-1]) \; xy2 (lpf
[0-1] \, amp mod [0-1]) \; trigger [0-1] \; resonance;
#X msg 412 20 bang;
#X obj 463 65 mgHwDualAnalog;
#X floatatom 484 21 5 0 0 0 - - -;
#X obj 543 108 unpack f f;
#X obj 396 102 mgPak2 f f;
#X obj 470 102 mgPak2 f f;
#X msg 341 161 1;
#X msg 372 162 2;
#X obj 606 64 print;
#X msg 345 259 mgSynthBufferParameters.txt;
#X msg 360 292 symbol mgSynthBufferParameters.txt;
#X obj 208 181 *~ 0.8;
#X floatatom 398 161 5 0 0 0 - - -;
#X obj 435 161 counter 1 52;
#X msg 519 162 bang;
#X msg 556 162 bang;
#X obj 217 158 mgSynthBufferLoop;
#X msg 524 23 2;
#X connect 3 0 28 2;
#X connect 4 0 28 2;
#X connect 5 0 9 0;
#X connect 6 0 9 1;
#X connect 7 0 10 0;
#X connect 8 0 10 1;
#X connect 9 0 28 1;
#X connect 10 0 28 0;
#X connect 12 0 13 0;
#X connect 13 0 16 0;
#X connect 13 1 16 1;
#X connect 13 2 17 0;
#X connect 13 3 17 1;
#X connect 13 4 15 0;
#X connect 13 4 20 0;
#X connect 14 0 13 0;
#X connect 15 0 28 2;
#X connect 16 0 28 0;
#X connect 17 0 28 1;
#X connect 18 0 28 3;
#X connect 19 0 28 3;
#X connect 21 0 28 4;
#X connect 22 0 28 4;
#X connect 23 0 0 0;
#X connect 23 0 0 1;
#X connect 24 0 28 3;
#X connect 25 0 24 0;
#X connect 26 0 25 0;
#X connect 27 0 25 2;
#X connect 28 0 23 0;
#X connect 29 0 13 0;
