#N canvas 255 430 1169 568 10;
#X obj 752 343 sig~;
#X obj 750 363 lop~ 20;
#X obj 332 88 unpack f f;
#X obj 751 322 mgVolToAmp;
#X obj 565 518 outlet~;
#X obj 110 25 loadbang;
#X msg 114 78 1;
#X obj 512 193 unpack f f;
#X obj 565 455 *~;
#X obj 468 222 mgGate8 _____________;
#X obj 128 220 unpack f f f f f f f f;
#X obj 626 343 t l;
#X obj 512 -6 inlet eventTrigger;
#X obj 332 -3 inlet xy1;
#X obj 416 -7 inlet xy2;
#X obj 416 88 unpack f f;
#X obj 737 59 zl group 8;
#X obj 977 244 zl group 4;
#X obj 939 112 zl group 2;
#X obj 709 2 inlet parameterBankNumber;
#X obj 909 5 inlet parameterFile;
#X obj 523 340 t f;
#X obj 596 343 t f;
#X obj 27 293 mgNonZeroMonoTrigger4 _____;
#X obj 218 291 mgNonZeroMonoTrigger4 _____;
#X obj 128 190 t l;
#X text 843 375 select between 2 banks of 4 playback rates?;
#X text 251 53 x1 playback / y1 amp;
#X text 423 57 y2: density / x2: windowSpeed;
#X obj 596 310 mgScaleMinMax;
#X text 535 137 window speeed in ms;
#X text 774 134 playbackDeviation / windowDeviation / windowMin / windowMax
/ amp / ampDeviation;
#X obj 709 31 mgSynthGranularSampleParameters ____________________________
;
#X obj 295 399 mgSynthGranularSample4_v _______________;
#X obj 790 111 zl group 2;
#X obj 862 111 zl group 2;
#X obj 455 338 unpack f f;
#X obj 656 346 unpack f f;
#X obj 221 319 mgSynthGranularWindowRanges;
#X obj 35 320 mgSynthGranularWindowRanges;
#X obj 26 397 mgSynthGranularSample4_v _______________;
#X obj 414 338 t f;
#X obj 634 285 unpack f f;
#X msg 90 53 1 2 3 4 1 2 3 4;
#X obj 596 261 mgSubtractReverse 1;
#X text 1051 244 adsr;
#X obj 523 318 clip 0.05 1;
#X connect 0 0 1 0;
#X connect 1 0 8 1;
#X connect 2 0 41 0;
#X connect 2 1 3 0;
#X connect 3 0 0 0;
#X connect 5 0 6 0;
#X connect 5 0 43 0;
#X connect 6 0 3 0;
#X connect 7 0 9 1;
#X connect 7 1 9 0;
#X connect 8 0 4 0;
#X connect 9 0 23 0;
#X connect 9 1 23 1;
#X connect 9 2 23 2;
#X connect 9 3 23 3;
#X connect 9 4 24 0;
#X connect 9 5 24 1;
#X connect 9 6 24 2;
#X connect 9 7 24 3;
#X connect 10 0 23 4;
#X connect 10 1 23 5;
#X connect 10 2 23 6;
#X connect 10 3 23 7;
#X connect 10 4 24 4;
#X connect 10 5 24 5;
#X connect 10 6 24 6;
#X connect 10 7 24 7;
#X connect 11 0 33 11;
#X connect 11 0 40 11;
#X connect 12 0 7 0;
#X connect 13 0 2 0;
#X connect 14 0 15 0;
#X connect 15 0 44 0;
#X connect 15 1 46 0;
#X connect 16 0 25 0;
#X connect 17 0 11 0;
#X connect 18 0 37 0;
#X connect 19 0 32 0;
#X connect 20 0 32 1;
#X connect 21 0 33 9;
#X connect 21 0 40 9;
#X connect 22 0 33 10;
#X connect 22 0 40 10;
#X connect 23 0 40 0;
#X connect 23 1 39 0;
#X connect 24 0 33 0;
#X connect 24 1 38 0;
#X connect 25 0 10 0;
#X connect 29 0 22 0;
#X connect 32 0 40 1;
#X connect 32 1 33 1;
#X connect 32 2 16 0;
#X connect 32 3 16 0;
#X connect 32 4 16 0;
#X connect 32 5 16 0;
#X connect 32 6 16 0;
#X connect 32 7 16 0;
#X connect 32 8 16 0;
#X connect 32 9 16 0;
#X connect 32 10 17 0;
#X connect 32 11 17 0;
#X connect 32 12 17 0;
#X connect 32 13 17 0;
#X connect 32 14 34 0;
#X connect 32 15 34 0;
#X connect 32 16 35 0;
#X connect 32 17 35 0;
#X connect 32 18 18 0;
#X connect 32 19 18 0;
#X connect 33 0 8 0;
#X connect 34 0 36 0;
#X connect 35 0 42 0;
#X connect 36 0 33 3;
#X connect 36 0 40 3;
#X connect 36 1 33 6;
#X connect 36 1 40 6;
#X connect 37 0 33 7;
#X connect 37 0 40 7;
#X connect 37 1 33 8;
#X connect 37 1 40 8;
#X connect 38 0 33 4;
#X connect 38 1 33 5;
#X connect 39 0 40 4;
#X connect 39 1 40 5;
#X connect 40 0 8 0;
#X connect 41 0 40 2;
#X connect 41 0 33 2;
#X connect 42 0 29 1;
#X connect 42 1 29 2;
#X connect 43 0 25 0;
#X connect 44 0 29 0;
#X connect 46 0 21 0;
