#N canvas 269 566 680 293 10;
#X obj 191 151 dac~;
#X msg 29 23 \; pd dsp 1;
#X msg 29 60 \; pd dsp 0;
#X floatatom 219 22 5 0 1 0 - - -;
#X floatatom 269 22 5 0 1 0 - - -;
#X floatatom 133 27 5 0 1 0 - - -;
#X floatatom 183 27 5 0 1 0 - - -;
#X obj 229 54 mgPak2;
#X obj 143 59 mgPak2;
#X text 267 210 parameters: xy1 (lpf [0-1] \, amp [o-1]) \; xy2 (lpf
[0-1] \, amp mod [0-1]) \; trigger [0-1] \; resonance;
#X obj 30 110 mgTableWaveSaw;
#X obj 30 133 mgTableWaveSquare;
#X text 369 87 value/button pairs;
#X msg 319 31 0 1;
#X msg 322 55 1 1;
#X msg 360 57 1 8;
#X msg 359 32 0 8;
#X obj 422 37;
#X obj 213 95 mgSynthMonoSaw;
#X connect 3 0 7 0;
#X connect 4 0 7 1;
#X connect 5 0 8 0;
#X connect 6 0 8 1;
#X connect 7 0 18 1;
#X connect 8 0 18 0;
#X connect 13 0 18 2;
#X connect 14 0 18 2;
#X connect 15 0 18 2;
#X connect 16 0 18 2;
#X connect 18 0 0 0;
#X connect 18 0 0 1;
