#N canvas 102 22 1293 680 10;
#X obj 388 92 unpack f f;
#X obj 484 628 outlet~;
#X obj 166 29 loadbang;
#X msg 166 62 1;
#X obj 153 226 unpack f f;
#X obj 484 565 *~;
#X obj 109 255 mgGate8 _____________;
#X obj 568 -2 inlet eventTrigger;
#X obj 388 1 inlet xy1;
#X obj 472 -3 inlet xy2;
#X obj 472 92 unpack f f;
#X obj 755 112 zl group 8;
#X obj 765 6 inlet parameterBankNumber;
#X obj 965 9 inlet parameterFile;
#X text 307 57 x1 filter fq / y1 amp;
#X obj 828 111 zl group 2;
#X obj 636 458 sig~;
#X obj 636 480 lop~ 20;
#X obj 635 437 mgVolToAmp;
#X obj 484 596 moog~;
#X obj 756 470 mgScaleMinMax~;
#X obj 755 493 mtof~;
#X obj 853 446 sig~ 120;
#X obj 806 446 sig~ 70;
#X obj 756 423 sig~;
#X obj 756 445 lop~ 20;
#X obj 806 423 unpack f f;
#X obj 534 596 sig~ 1.2;
#X obj 69 4 inlet pulseStream;
#X text 280 327 select patterns;
#X obj 68 325 t b;
#X obj 289 233 t l;
#X obj 556 435 t l;
#X obj 329 369 mgDataPulsePatterns16;
#X text 502 228 pattern preset numbers in 8 element lists;
#X obj 124 364 mgDataPulsePatterns16;
#X text 252 179 amp/pitch;
#X obj 288 256 zl slice 4;
#X obj 579 293 symbol;
#X obj 584 435 t l;
#X text 477 61 x2 / y2 not yet implemented;
#X obj 523 405 t f;
#X obj 488 405 t f;
#X text 484 384 center/index;
#X obj 528 117 mgScaleMinMax 0 200;
#X obj 484 140 mgScaleMinMax 0 200;
#X text 549 101 make min/max here configurable;
#X obj 765 35 mgSynthADSequenceDuoParameters ___________________________
;
#X obj 111 479 mgSynthADSnareSequence_v;
#X obj 287 479 mgSynthADKickSequence_v;
#X obj 89 297 mgNonZeroMonoTrigger1x4 _____;
#X obj 275 299 mgNonZeroMonoTrigger1x4 _____;
#X obj 286 502 *~ 4;
#X connect 0 0 24 0;
#X connect 0 1 18 0;
#X connect 2 0 3 0;
#X connect 3 0 18 0;
#X connect 4 0 6 1;
#X connect 4 1 6 0;
#X connect 5 0 19 0;
#X connect 6 0 50 0;
#X connect 6 1 50 1;
#X connect 6 2 50 2;
#X connect 6 3 50 3;
#X connect 6 4 51 0;
#X connect 6 5 51 1;
#X connect 6 6 51 2;
#X connect 6 7 51 3;
#X connect 7 0 4 0;
#X connect 8 0 0 0;
#X connect 9 0 10 0;
#X connect 10 0 45 0;
#X connect 10 1 44 0;
#X connect 11 0 31 0;
#X connect 12 0 47 0;
#X connect 13 0 47 1;
#X connect 15 0 39 0;
#X connect 16 0 17 0;
#X connect 17 0 5 1;
#X connect 18 0 16 0;
#X connect 19 0 1 0;
#X connect 20 0 21 0;
#X connect 21 0 19 1;
#X connect 22 0 20 2;
#X connect 23 0 20 1;
#X connect 24 0 25 0;
#X connect 25 0 20 0;
#X connect 26 0 23 0;
#X connect 26 1 22 0;
#X connect 27 0 19 2;
#X connect 28 0 30 0;
#X connect 30 0 48 1;
#X connect 30 0 49 1;
#X connect 31 0 37 0;
#X connect 33 2 49 3;
#X connect 35 2 48 3;
#X connect 37 0 50 4;
#X connect 37 1 51 4;
#X connect 38 0 35 1;
#X connect 38 0 33 1;
#X connect 39 0 49 4;
#X connect 39 0 48 4;
#X connect 44 0 41 0;
#X connect 45 0 42 0;
#X connect 47 0 38 0;
#X connect 47 1 11 0;
#X connect 47 2 11 0;
#X connect 47 3 11 0;
#X connect 47 4 11 0;
#X connect 47 5 11 0;
#X connect 47 6 11 0;
#X connect 47 7 11 0;
#X connect 47 8 11 0;
#X connect 47 9 15 0;
#X connect 47 10 15 0;
#X connect 48 0 5 0;
#X connect 49 0 52 0;
#X connect 50 0 48 0;
#X connect 50 1 35 0;
#X connect 51 0 49 0;
#X connect 51 1 33 0;
#X connect 52 0 5 0;
