#N canvas 619 567 1115 451 10;
#X obj 37 187 zl group 2;
#X obj 44 14 inlet;
#X obj 23 303 outlet;
#X obj 68 302 outlet;
#X obj 118 304 outlet;
#X obj 163 303 outlet;
#X obj 219 302 outlet;
#X obj 264 301 outlet;
#X obj 314 303 outlet;
#X obj 47 44 route float list symbol;
#X obj 201 75 loadbang;
#X obj 288 21 inlet;
#X text 343 12 bang reloads \; symbol loads that file;
#X obj 180 145 mgTextParameters;
#X obj 290 44 route bang symbol;
#X obj 357 79 prepend symbol;
#X obj 368 303 outlet;
#X obj 413 302 outlet;
#X obj 463 304 outlet;
#X obj 508 303 outlet;
#X obj 569 301 outlet;
#X obj 614 300 outlet;
#X obj 664 302 outlet;
#X obj 709 301 outlet;
#X obj 176 223 route pitch1 pitch2 pitch3 pitch4 pitch5 pitch6 pitch7
pitch8 amp bpResonance attack decay sustain release lpfMin lpfMax lpfResonanceMin
lpfResonanceMax;
#X obj 767 303 outlet;
#X obj 812 302 outlet;
#X obj 862 304 outlet;
#X msg 274 113 mgSynthBandpassNoiseParameters.txt;
#X obj 108 186 print mgSynthBandpassNoiseParameters-loading;
#X connect 0 0 24 0;
#X connect 0 0 29 0;
#X connect 1 0 9 0;
#X connect 9 0 13 0;
#X connect 9 1 0 0;
#X connect 9 2 0 0;
#X connect 10 0 28 0;
#X connect 11 0 14 0;
#X connect 13 0 0 0;
#X connect 14 0 28 0;
#X connect 14 1 13 1;
#X connect 14 2 15 0;
#X connect 15 0 13 1;
#X connect 24 0 2 0;
#X connect 24 1 3 0;
#X connect 24 2 4 0;
#X connect 24 3 5 0;
#X connect 24 4 6 0;
#X connect 24 5 7 0;
#X connect 24 6 8 0;
#X connect 24 7 16 0;
#X connect 24 8 17 0;
#X connect 24 9 18 0;
#X connect 24 10 19 0;
#X connect 24 11 20 0;
#X connect 24 12 21 0;
#X connect 24 13 22 0;
#X connect 24 14 23 0;
#X connect 24 15 25 0;
#X connect 24 16 26 0;
#X connect 24 17 27 0;
#X connect 28 0 13 1;
