#N canvas 71 437 1356 537 10;
#X obj 261 475 outlet~;
#X obj 327 44 inlet;
#X text 314 13 give a list: value/key apirs;
#X obj 326 68 zl rev;
#X obj 326 284 route 1 2 3 4 5 6 7 8;
#X text 492 66 parameter bank number;
#X text 642 78 parameter file name;
#X text 540 6 order of output here is not determined by outlet \, but
by the parameter bank list order;
#X obj 460 48 inlet parameterBank;
#X obj 649 45 inlet parameterFileName;
#X obj -21 373 mgSynthBufferLoop;
#X obj 97 373 mgSynthBufferLoop;
#X obj 215 375 mgSynthBufferLoop;
#X obj 333 373 mgSynthBufferLoop;
#X obj 457 377 mgSynthBufferLoop;
#X obj 576 375 mgSynthBufferLoop;
#X obj 693 377 mgSynthBufferLoop;
#X obj 811 375 mgSynthBufferLoop;
#X obj 194 47 inlet xy2;
#X obj 204 282 pack f f;
#X obj 98 46 inlet xy1;
#X obj 189 88 unpack f f;
#X obj 744 246 zl group 2;
#X obj 100 285 t l;
#X obj 204 135 mgScaleUnitToMirrorSplit 0;
#X obj 204 161 mgScaleMinMax 0 1;
#X obj 323 161 mgScaleMinMax 0 1;
#X obj 387 137 unpack f f;
#X obj 244 232 f;
#X obj 543 212 mgSynthBufferLoop8Parameters;
#X obj 148 232 clip 0.01 1;
#X text -50 194 0.01 found through experimentation \; there may small
values for longer samples that can be used;
#X connect 1 0 3 0;
#X connect 3 0 4 0;
#X connect 4 0 10 2;
#X connect 4 1 11 2;
#X connect 4 2 12 2;
#X connect 4 3 13 2;
#X connect 4 4 14 2;
#X connect 4 5 15 2;
#X connect 4 6 16 2;
#X connect 4 7 17 2;
#X connect 8 0 29 0;
#X connect 9 0 29 1;
#X connect 10 0 0 0;
#X connect 11 0 0 0;
#X connect 12 0 0 0;
#X connect 13 0 0 0;
#X connect 14 0 0 0;
#X connect 15 0 0 0;
#X connect 16 0 0 0;
#X connect 17 0 0 0;
#X connect 18 0 21 0;
#X connect 19 0 10 1;
#X connect 19 0 11 1;
#X connect 19 0 12 1;
#X connect 19 0 13 1;
#X connect 19 0 14 1;
#X connect 19 0 15 1;
#X connect 19 0 16 1;
#X connect 19 0 17 1;
#X connect 20 0 23 0;
#X connect 21 0 30 0;
#X connect 21 1 24 0;
#X connect 22 0 27 0;
#X connect 23 0 10 0;
#X connect 23 0 11 0;
#X connect 23 0 12 0;
#X connect 23 0 13 0;
#X connect 23 0 14 0;
#X connect 23 0 15 0;
#X connect 23 0 16 0;
#X connect 23 0 17 0;
#X connect 24 0 25 0;
#X connect 24 1 26 0;
#X connect 25 0 28 0;
#X connect 26 0 28 0;
#X connect 27 0 25 2;
#X connect 27 1 26 2;
#X connect 28 0 19 1;
#X connect 29 0 10 3;
#X connect 29 1 11 3;
#X connect 29 2 12 3;
#X connect 29 3 13 3;
#X connect 29 4 14 3;
#X connect 29 5 15 3;
#X connect 29 6 16 3;
#X connect 29 7 17 3;
#X connect 29 8 10 4;
#X connect 29 8 11 4;
#X connect 29 8 12 4;
#X connect 29 8 13 4;
#X connect 29 8 14 4;
#X connect 29 8 15 4;
#X connect 29 8 16 4;
#X connect 29 8 17 4;
#X connect 29 9 22 0;
#X connect 29 10 22 0;
#X connect 30 0 19 0;
