#N canvas 496 433 925 348 10;
#X obj 195 214 dac~;
#X msg 29 23 \; pd dsp 1;
#X msg 29 60 \; pd dsp 0;
#X floatatom 219 22 5 0 1 0 - - -;
#X floatatom 269 22 5 0 1 0 - - -;
#X floatatom 133 27 5 0 1 0 - - -;
#X floatatom 183 27 5 0 1 0 - - -;
#X obj 229 54 mgPak2;
#X obj 143 59 mgPak2;
#X text 319 239 parameters: xy1 (lpf [0-1] \, amp [o-1]) \; xy2 (lpf
[0-1] \, amp mod [0-1]) \; trigger [0-1] \; resonance;
#X msg 412 20 bang;
#X obj 463 65 mgHwDualAnalog;
#X floatatom 484 21 5 0 0 0 - - -;
#X obj 396 102 mgPak2 f f;
#X obj 470 102 mgPak2 f f;
#X msg 347 163 1;
#X msg 374 162 2;
#X obj 514 265 print;
#X msg 331 60 1 1;
#X msg 362 61 0 1;
#X obj 217 158 mgSynthBuffer8;
#X msg 335 38 1 2;
#X msg 365 40 0 2;
#X msg 583 95 mgSynthBuffer8Parameters.txt;
#X obj 441 160 counter 1 6;
#X floatatom 404 162 5 0 0 0 - - -;
#X msg 520 160 bang;
#X msg 557 161 bang;
#X obj 208 181 *~ 0.8;
#X msg 592 69 arizaWork02-mgSynthBuffer8Parameters.txt;
#X floatatom 418 65 5 0 0 0 - - -;
#X msg 523 21 11;
#X msg 365 191 3;
#X msg 575 118 arizaWork03-mgSynthBuffer8Parameters.txt;
#X connect 3 0 7 0;
#X connect 4 0 7 1;
#X connect 5 0 8 0;
#X connect 6 0 8 1;
#X connect 7 0 20 1;
#X connect 8 0 20 0;
#X connect 10 0 11 0;
#X connect 11 0 13 0;
#X connect 11 0 30 0;
#X connect 11 1 13 1;
#X connect 11 2 14 0;
#X connect 11 3 14 1;
#X connect 11 4 20 2;
#X connect 12 0 11 0;
#X connect 13 0 20 0;
#X connect 14 0 20 1;
#X connect 15 0 20 3;
#X connect 16 0 20 3;
#X connect 18 0 20 2;
#X connect 19 0 20 2;
#X connect 20 0 28 0;
#X connect 21 0 20 2;
#X connect 22 0 20 2;
#X connect 23 0 20 4;
#X connect 24 0 25 0;
#X connect 25 0 20 3;
#X connect 26 0 24 0;
#X connect 27 0 24 2;
#X connect 28 0 0 0;
#X connect 28 0 0 1;
#X connect 29 0 20 4;
#X connect 31 0 11 0;
#X connect 32 0 20 3;
#X connect 33 0 20 4;
