#N canvas 36 635 1723 522 10;
#X obj 321 86 mgScaleCenterToMinMax;
#X obj 117 257 table \$0-grain;
#X obj 30 183 mgGranularSample1_v \$0 ________________;
#X obj 102 30 inlet soundFile;
#X text 120 59 as all share same buffer;
#X obj 274 182 mgGranularSample1_v \$0 ________________;
#X obj 522 182 mgGranularSample1_v \$0 ________________;
#X obj 768 183 mgGranularSample1_v \$0 ________________;
#X obj 120 124 t s;
#X obj 405 265 *~ 0.7;
#X obj 406 375 outlet~;
#X obj 121 93 symbol;
#X obj 321 33 inlet playbackRate;
#X obj 442 32 inlet playbackDeviation;
#X obj 611 87 mgScaleCenterToMinMax;
#X obj 785 83 mgScaleCenterToMinMax;
#X obj 621 32 inlet start;
#X obj 701 30 inlet end;
#X text 628 5 values w/n unit interval;
#X obj 763 30 inlet positionDeviation;
#X msg 583 87 0;
#X msg 754 85 1;
#X msg 292 88 1;
#X obj 324 -14 loadbang;
#X obj 966 84 mgScaleCenterToMinMax;
#X obj 960 29 inlet amp;
#X obj 1029 28 inlet ampDeviation;
#X msg 933 85 1;
#X obj 1169 83 f;
#X obj 1170 29 inlet density;
#X obj 1283 86 mgScaleCenterToMinMax;
#X obj 1277 31 inlet windowDur;
#X msg 1250 87 60;
#X obj 426 309 mgEnvlBtAdsr 40 140 0.8 600;
#X obj 14 29 inlet trigger;
#X obj 493 274 unpack f f f f;
#X obj 1453 29 inlet envelopeParameters;
#X obj 406 341 *~;
#X connect 0 0 2 1;
#X connect 0 0 5 1;
#X connect 0 0 6 1;
#X connect 0 0 7 1;
#X connect 0 1 2 2;
#X connect 0 1 5 2;
#X connect 0 1 6 2;
#X connect 0 1 7 2;
#X connect 2 0 9 0;
#X connect 3 0 11 0;
#X connect 5 0 9 0;
#X connect 6 0 9 0;
#X connect 7 0 9 0;
#X connect 8 0 2 0;
#X connect 8 0 5 0;
#X connect 8 0 6 0;
#X connect 8 0 7 0;
#X connect 9 0 37 0;
#X connect 11 0 8 0;
#X connect 12 0 0 0;
#X connect 13 0 0 1;
#X connect 14 0 2 3;
#X connect 14 0 5 3;
#X connect 14 0 6 3;
#X connect 14 0 7 3;
#X connect 14 1 2 4;
#X connect 14 1 5 4;
#X connect 14 1 6 4;
#X connect 14 1 7 4;
#X connect 15 0 2 5;
#X connect 15 0 5 5;
#X connect 15 0 6 5;
#X connect 15 0 7 5;
#X connect 15 1 2 6;
#X connect 15 1 5 6;
#X connect 15 1 6 6;
#X connect 15 1 7 6;
#X connect 16 0 14 0;
#X connect 17 0 15 0;
#X connect 19 0 14 1;
#X connect 19 0 15 1;
#X connect 20 0 14 0;
#X connect 21 0 15 0;
#X connect 22 0 0 0;
#X connect 23 0 22 0;
#X connect 23 0 20 0;
#X connect 23 0 21 0;
#X connect 23 0 27 0;
#X connect 23 0 32 0;
#X connect 24 0 2 7;
#X connect 24 0 5 7;
#X connect 24 0 6 7;
#X connect 24 0 7 7;
#X connect 24 1 2 8;
#X connect 24 1 5 8;
#X connect 24 1 6 8;
#X connect 24 1 7 8;
#X connect 25 0 24 0;
#X connect 26 0 24 1;
#X connect 27 0 24 0;
#X connect 28 0 7 9;
#X connect 28 0 6 9;
#X connect 28 0 5 9;
#X connect 28 0 2 9;
#X connect 29 0 28 0;
#X connect 30 0 2 10;
#X connect 30 0 5 10;
#X connect 30 0 6 10;
#X connect 30 0 7 10;
#X connect 30 1 2 11;
#X connect 30 1 5 11;
#X connect 30 1 6 11;
#X connect 30 1 7 11;
#X connect 31 0 30 0;
#X connect 32 0 30 0;
#X connect 33 0 37 1;
#X connect 34 0 33 0;
#X connect 35 0 33 1;
#X connect 35 1 33 2;
#X connect 35 2 33 3;
#X connect 35 3 33 4;
#X connect 36 0 35 0;
#X connect 37 0 10 0;
