#N canvas 102 553 617 497 10;
#X obj 37 187 zl group 2;
#X obj 44 14 inlet;
#X obj 23 303 outlet;
#X obj 68 302 outlet;
#X obj 118 304 outlet;
#X obj 163 303 outlet;
#X obj 224 299 outlet;
#X obj 269 298 outlet;
#X obj 319 300 outlet;
#X obj 36 219 route filePath playbackRate gain attack release lpfMin
lpfMax;
#X obj 47 44 route float list symbol;
#X obj 108 186 print mgSynthBufferParameters-loading;
#X msg 274 113 mgSynthBufferParameters.txt;
#X obj 201 75 loadbang;
#X obj 288 21 inlet;
#X text 343 12 bang reloads \; symbol loads that file;
#X obj 180 145 mgTextParameters;
#X obj 290 44 route bang symbol;
#X obj 357 79 prepend symbol;
#X connect 0 0 9 0;
#X connect 0 0 11 0;
#X connect 1 0 10 0;
#X connect 9 0 2 0;
#X connect 9 1 3 0;
#X connect 9 2 4 0;
#X connect 9 3 5 0;
#X connect 9 4 6 0;
#X connect 9 5 7 0;
#X connect 9 6 8 0;
#X connect 10 0 16 0;
#X connect 10 1 0 0;
#X connect 10 2 0 0;
#X connect 12 0 16 1;
#X connect 13 0 12 0;
#X connect 14 0 17 0;
#X connect 16 0 0 0;
#X connect 17 0 12 0;
#X connect 17 1 16 1;
#X connect 17 2 18 0;
#X connect 18 0 16 1;
