#N canvas 171 125 1341 806 10;
#X obj 388 92 unpack f f;
#X obj 622 750 outlet~;
#X obj 0 42 loadbang;
#X msg 18 69 1;
#X obj 153 226 unpack f f;
#X obj 619 575 *~;
#X obj 109 255 mgGate8 _____________;
#X obj 568 -2 inlet eventTrigger;
#X obj 388 1 inlet xy1;
#X obj 472 -3 inlet xy2;
#X obj 472 92 unpack f f;
#X obj 818 110 zl group 8;
#X obj 765 6 inlet parameterBankNumber;
#X obj 965 9 inlet parameterFile;
#X text 307 57 x1 filter fq / y1 amp;
#X obj 973 111 zl group 2;
#X obj 636 458 sig~;
#X obj 634 478 lop~ 20;
#X obj 635 437 mgVolToAmp;
#X obj 619 606 moog~;
#X obj 756 470 mgScaleMinMax~;
#X obj 755 493 mtof~;
#X obj 853 446 sig~ 120;
#X obj 806 446 sig~ 70;
#X obj 756 423 sig~;
#X obj 756 445 lop~ 20;
#X obj 806 423 unpack f f;
#X obj 69 4 inlet pulseStream;
#X text 280 327 select patterns;
#X obj 68 325 t b;
#X obj 89 297 mgNonZeroMonoTrigger2x4 _____;
#X obj 275 299 mgNonZeroMonoTrigger2x4 _____;
#X obj 182 324 unpack f f;
#X obj 381 324 unpack f f;
#X obj 892 110 zl group 8;
#X obj 289 233 t l;
#X obj 390 234 t l;
#X obj 329 369 mgDataPulsePatterns16;
#X text 502 228 pattern preset numbers in 8 element lists;
#X obj 124 364 mgDataPulsePatterns16;
#X text 252 179 amp/pitch;
#X text 457 324 amp/pitch;
#X obj 329 392 mgDataPitchPatterns16;
#X obj 124 387 mgDataPitchPatterns16;
#X obj 389 255 zl slice 4;
#X obj 288 256 zl slice 4;
#X obj 579 293 symbol;
#X obj 626 292 symbol;
#X obj 1044 280 zl group 2;
#X obj 492 452 t l;
#X text 477 61 x2 / y2 not yet implemented;
#X text 484 384 center/index;
#X obj 1199 302 zl group 2;
#X obj 64 471 counter;
#X obj 64 494 sel 1;
#X obj 133 469 counter;
#X obj 133 494 sel 1;
#X msg -20 471 min 1;
#X msg 20 471 max 1;
#X msg 70 441 max \$1;
#X msg 136 439 max \$1;
#X obj 183 439 unpack f f;
#X obj 291 538 mgSynthBufferSequence_v;
#X obj 765 35 mgSynthBufferSequenceDuoParameters _________________________
;
#X obj 1122 279 zl group 2;
#X obj 233 506 unpack f s;
#X obj 427 509 unpack f s;
#X obj 1044 302 zl rev;
#X obj 1122 304 zl rev;
#X text 967 667 turn off am modulation when value is zero;
#X obj 625 695 *~ 1;
#X obj 115 540 mgSynthBufferSequence_v;
#X obj 925 468 mgScaleMinMax~;
#X obj 925 421 sig~;
#X obj 925 443 lop~ 20;
#X obj 975 421 unpack f f;
#X obj 1029 444 sig~ 2.5;
#X obj 975 444 sig~ 0.4;
#X connect 0 1 18 0;
#X connect 2 0 3 0;
#X connect 2 0 57 0;
#X connect 2 0 58 0;
#X connect 3 0 18 0;
#X connect 4 0 6 1;
#X connect 4 1 6 0;
#X connect 5 0 19 0;
#X connect 6 0 30 0;
#X connect 6 1 30 1;
#X connect 6 2 30 2;
#X connect 6 3 30 3;
#X connect 6 4 31 0;
#X connect 6 5 31 1;
#X connect 6 6 31 2;
#X connect 6 7 31 3;
#X connect 7 0 4 0;
#X connect 8 0 0 0;
#X connect 9 0 10 0;
#X connect 10 0 24 0;
#X connect 10 1 73 0;
#X connect 11 0 35 0;
#X connect 12 0 63 0;
#X connect 13 0 63 1;
#X connect 15 0 49 0;
#X connect 16 0 17 0;
#X connect 17 0 5 1;
#X connect 18 0 16 0;
#X connect 19 0 70 0;
#X connect 20 0 21 0;
#X connect 21 0 19 1;
#X connect 22 0 20 2;
#X connect 23 0 20 1;
#X connect 24 0 25 0;
#X connect 25 0 20 0;
#X connect 26 0 23 0;
#X connect 26 1 22 0;
#X connect 27 0 29 0;
#X connect 29 0 53 0;
#X connect 29 0 55 0;
#X connect 30 0 71 0;
#X connect 30 1 32 0;
#X connect 31 0 62 0;
#X connect 31 1 33 0;
#X connect 32 0 39 0;
#X connect 32 1 43 0;
#X connect 33 0 37 0;
#X connect 33 1 42 0;
#X connect 34 0 36 0;
#X connect 35 0 45 0;
#X connect 36 0 44 0;
#X connect 37 2 62 3;
#X connect 39 2 71 3;
#X connect 42 2 62 4;
#X connect 43 2 71 4;
#X connect 44 0 30 5;
#X connect 44 1 31 5;
#X connect 45 0 30 4;
#X connect 45 1 31 4;
#X connect 46 0 39 1;
#X connect 46 0 37 1;
#X connect 47 0 43 1;
#X connect 47 0 42 1;
#X connect 48 0 67 0;
#X connect 49 0 62 5;
#X connect 49 0 71 5;
#X connect 52 0 61 0;
#X connect 53 0 54 0;
#X connect 54 0 71 1;
#X connect 55 0 56 0;
#X connect 56 0 62 1;
#X connect 57 0 53 0;
#X connect 57 0 55 0;
#X connect 58 0 53 0;
#X connect 58 0 55 0;
#X connect 59 0 53 0;
#X connect 60 0 55 0;
#X connect 61 0 59 0;
#X connect 61 1 60 0;
#X connect 62 0 5 0;
#X connect 63 0 46 0;
#X connect 63 1 11 0;
#X connect 63 2 11 0;
#X connect 63 3 11 0;
#X connect 63 4 11 0;
#X connect 63 5 11 0;
#X connect 63 6 11 0;
#X connect 63 7 11 0;
#X connect 63 8 11 0;
#X connect 63 9 47 0;
#X connect 63 10 34 0;
#X connect 63 11 34 0;
#X connect 63 12 34 0;
#X connect 63 13 34 0;
#X connect 63 14 34 0;
#X connect 63 15 34 0;
#X connect 63 16 34 0;
#X connect 63 17 34 0;
#X connect 63 18 15 0;
#X connect 63 19 15 0;
#X connect 63 20 48 0;
#X connect 63 21 48 0;
#X connect 63 22 64 0;
#X connect 63 23 64 0;
#X connect 63 24 52 0;
#X connect 63 25 52 0;
#X connect 64 0 68 0;
#X connect 65 0 71 6;
#X connect 65 1 71 7;
#X connect 66 0 62 6;
#X connect 66 1 62 7;
#X connect 67 0 65 0;
#X connect 68 0 66 0;
#X connect 70 0 1 0;
#X connect 71 0 5 0;
#X connect 72 0 19 2;
#X connect 73 0 74 0;
#X connect 74 0 72 0;
#X connect 75 0 77 0;
#X connect 75 1 76 0;
#X connect 76 0 72 2;
#X connect 77 0 72 1;
