#N canvas 458 460 1070 400 10;
#X obj 143 -11 mgSequence2x16;
#X obj 143 17 unpack f f;
#X obj 674 -103 inlet eventEnvelopParameters;
#X obj 152 116 unpack f f;
#X obj 30 144 mgEnvlBtAr 20 20;
#X obj 854 -105 inlet macroEnvelopParameters;
#X obj 144 184 *~;
#X obj 144 219 outlet~;
#X text 452 35 treat two lists as amp/pitch pairs;
#X obj 563 -102 inlet fmRateDepth;
#X obj 27 -105 inlet macroTrigger;
#X obj 258 -104 inlet cycleMax;
#X obj 451 -104 inlet valuesB;
#X obj 363 -104 inlet valuesA;
#X obj 143 -105 inlet pulses;
#X obj 143 86 mgSynthSawMt_v;
#X connect 0 0 1 0;
#X connect 1 0 15 0;
#X connect 1 1 15 1;
#X connect 2 0 15 3;
#X connect 3 0 4 1;
#X connect 3 1 4 2;
#X connect 4 0 6 1;
#X connect 5 0 3 0;
#X connect 6 0 7 0;
#X connect 9 0 15 2;
#X connect 10 0 4 0;
#X connect 11 0 0 2;
#X connect 12 0 0 4;
#X connect 13 0 0 3;
#X connect 14 0 0 0;
#X connect 15 0 6 0;
