#N canvas 578 481 579 484 10;
#X obj 79 140 osc~ 180;
#X obj 141 141 osc~ 330;
#X obj 233 121 noise~;
#X obj 80 173 *~ 0.5;
#X obj 233 152 lop~ 4000;
#X obj 382 108 noise~;
#X obj 382 154 hip~ 1000;
#X obj 382 181 *~ 0.6;
#X obj 382 131 lop~ 4000;
#X obj 66 236 *~;
#X obj 219 235 *~;
#X obj 369 240 *~;
#X obj 197 290 *~ 1;
#X obj 66 76 t f f f;
#X obj 234 179 *~ 0.6;
#X obj 66 204 mgEnvlMtAr 5 20 50;
#X obj 205 205 mgEnvlMtAr 5 10 10;
#X obj 356 209 mgEnvlMtAr 5 60 15;
#X obj 66 35 inlet trigger;
#X obj 197 348 outlet~;
#X connect 0 0 3 0;
#X connect 1 0 3 0;
#X connect 2 0 4 0;
#X connect 3 0 9 1;
#X connect 4 0 14 0;
#X connect 5 0 8 0;
#X connect 6 0 7 0;
#X connect 7 0 11 1;
#X connect 8 0 6 0;
#X connect 9 0 12 0;
#X connect 10 0 12 0;
#X connect 11 0 12 0;
#X connect 12 0 19 0;
#X connect 13 0 15 0;
#X connect 13 1 16 0;
#X connect 13 2 17 0;
#X connect 14 0 10 1;
#X connect 15 0 9 0;
#X connect 16 0 10 0;
#X connect 17 0 11 0;
#X connect 18 0 13 0;
