#N canvas 1368 728 450 300 10;
#X obj 117 179 print 1;
#X obj 150 201 print 2;
#X obj 170 224 print 3;
#X obj 203 247 print 4;
#X obj 196 176 print 5;
#X obj 229 198 print 6;
#X obj 249 221 print 7;
#X obj 282 244 print 8;
#X msg 151 44 1;
#X msg 107 41 2;
#X floatatom 50 49 5 0 0 0 - - -;
#X msg 290 55 bang;
#X obj 140 109 mgSynthSawParameters _______________;
#X connect 8 0 12 0;
#X connect 9 0 12 0;
#X connect 10 0 12 0;
#X connect 11 0 12 1;
#X connect 12 0 0 0;
#X connect 12 1 1 0;
#X connect 12 2 2 0;
#X connect 12 3 3 0;
#X connect 12 4 4 0;
#X connect 12 5 5 0;
#X connect 12 6 6 0;
#X connect 12 7 7 0;
