#N canvas 520 22 780 332 10;
#X obj 195 214 dac~;
#X msg 29 23 \; pd dsp 1;
#X msg 29 60 \; pd dsp 0;
#X floatatom 175 25 5 0 1 0 - - -;
#X floatatom 210 27 5 0 1 0 - - -;
#X floatatom 99 30 5 0 1 0 - - -;
#X floatatom 134 33 5 0 1 0 - - -;
#X obj 185 57 mgPak2;
#X obj 109 62 mgPak2;
#X text 336 205 parameters: xy1 (lpf [0-1] \, amp [o-1]) \; xy2 (lpf
[0-1] \, amp mod [0-1]) \; trigger [0-1] \; resonance;
#X msg 350 -19 bang;
#X obj 401 26 mgHwDualAnalog;
#X floatatom 422 -18 5 0 0 0 - - -;
#X obj 208 181 *~ 0.2;
#X obj 334 63 mgPak2 f f;
#X obj 427 63 mgPak2 f f;
#X msg 325 183 1;
#X msg 356 183 2;
#X obj 531 231 print;
#X msg 258 49 1 1;
#X msg 289 50 0 1;
#X msg 262 27 1 2;
#X msg 292 29 0 2;
#X msg 384 183 3;
#X msg 416 183 4;
#X obj 298 218 f;
#X obj 217 157 mgSynthStochWave;
#X msg 477 128 mgSynthStochWaveParameters.txt;
#X msg 480 100 arizaWork03-mgSynthStochWaveParameters.txt;
#X msg 445 183 5;
#X msg 474 183 6;
#X floatatom 356 29 5 0 0 0 - - -;
#X floatatom 636 167 5 0 0 0 - - -;
#X msg 502 183 7;
#X connect 3 0 7 0;
#X connect 4 0 7 1;
#X connect 5 0 8 0;
#X connect 6 0 8 1;
#X connect 7 0 26 1;
#X connect 8 0 26 0;
#X connect 10 0 11 0;
#X connect 11 0 14 0;
#X connect 11 0 31 0;
#X connect 11 1 14 1;
#X connect 11 2 15 0;
#X connect 11 3 15 1;
#X connect 11 4 26 2;
#X connect 12 0 11 0;
#X connect 13 0 0 0;
#X connect 13 0 0 1;
#X connect 14 0 26 0;
#X connect 15 0 26 1;
#X connect 16 0 25 0;
#X connect 17 0 25 0;
#X connect 19 0 26 2;
#X connect 20 0 26 2;
#X connect 21 0 26 2;
#X connect 22 0 26 2;
#X connect 23 0 25 0;
#X connect 24 0 25 0;
#X connect 25 0 26 3;
#X connect 26 0 13 0;
#X connect 27 0 26 4;
#X connect 28 0 26 4;
#X connect 29 0 25 0;
#X connect 30 0 25 0;
#X connect 33 0 25 0;
