#N canvas 103 34 780 332 10;
#X obj 191 214 dac~;
#X msg 29 23 \; pd dsp 1;
#X msg 29 60 \; pd dsp 0;
#X floatatom 175 25 5 0 1 0 - - -;
#X floatatom 210 27 5 0 1 0 - - -;
#X floatatom 99 30 5 0 1 0 - - -;
#X floatatom 134 33 5 0 1 0 - - -;
#X obj 185 57 mgPak2;
#X obj 109 62 mgPak2;
#X text 336 205 parameters: xy1 (lpf [0-1] \, amp [o-1]) \; xy2 (lpf
[0-1] \, amp mod [0-1]) \; trigger [0-1] \; resonance;
#X msg 350 -19 bang;
#X obj 401 26 mgHwDualAnalog;
#X floatatom 422 -18 5 0 0 0 - - -;
#X obj 278 66 mgPak2 f f;
#X obj 352 66 mgPak2 f f;
#X msg 325 183 1;
#X msg 356 184 2;
#X obj 531 231 print;
#X msg 384 183 3;
#X msg 416 183 4;
#X obj 288 217 f;
#X floatatom 356 28 5 0 0 0 - - -;
#X obj 43 211 tgl 15 0 empty empty empty 17 7 0 10 -262144 -1 -1 1
1;
#X obj 68 210 metro 100;
#X obj 59 181 mgBpmToMs;
#X floatatom 59 156 5 0 0 0 - - -;
#X msg 78 127 300;
#X msg 112 126 450;
#X msg 146 127 600;
#X obj 217 157 mgSynthBufferSequenceDuo;
#X msg 477 128 mgSynthBufferSequenceDuoParameters.txt;
#X msg 480 100 arizaWork03-mgSynthBufferSequenceDuoParameters.txt;
#X obj 208 181 *~ 0.8;
#X msg 447 182 5;
#X floatatom 591 169 5 0 0 0 - - -;
#X msg 479 184 6;
#X msg 512 184 7;
#X msg 30 131 200;
#X connect 3 0 7 0;
#X connect 4 0 7 1;
#X connect 5 0 8 0;
#X connect 6 0 8 1;
#X connect 7 0 29 2;
#X connect 8 0 29 1;
#X connect 10 0 11 0;
#X connect 11 0 13 0;
#X connect 11 0 21 0;
#X connect 11 1 13 1;
#X connect 11 2 14 0;
#X connect 11 3 14 1;
#X connect 11 4 29 3;
#X connect 12 0 11 0;
#X connect 13 0 29 1;
#X connect 14 0 29 2;
#X connect 15 0 20 0;
#X connect 16 0 20 0;
#X connect 18 0 20 0;
#X connect 19 0 20 0;
#X connect 20 0 29 4;
#X connect 22 0 23 0;
#X connect 23 0 29 0;
#X connect 24 0 23 1;
#X connect 25 0 24 0;
#X connect 26 0 25 0;
#X connect 27 0 25 0;
#X connect 28 0 25 0;
#X connect 29 0 32 0;
#X connect 30 0 29 5;
#X connect 31 0 29 5;
#X connect 32 0 0 0;
#X connect 32 0 0 1;
#X connect 33 0 20 0;
#X connect 35 0 20 0;
#X connect 36 0 20 0;
#X connect 37 0 25 0;
