#N canvas 69 304 1184 593 10;
#X obj 188 55 counter 1 4;
#X obj 188 78 sel 1;
#X obj 94 22 inlet pulseStream;
#X obj 225 238 *~;
#X obj 210 22 inlet pulseCount;
#X msg 188 165 1;
#X obj 453 22 inlet trigger;
#X msg 235 167 0;
#X obj 542 24 inlet duration;
#X obj 235 146 delay 80;
#X obj 188 99 mgGateProbabilistic1;
#X obj 188 119 t b b;
#X obj 314 22 inlet eventProbability;
#X obj 89 82 loadbang;
#X msg 91 107 1;
#X obj 205 202 mgSynthBuffer_v;
#X obj 736 62 mgSynthBufferParameters;
#X text 744 7 parameter bank number;
#X text 889 62 file to load \; a default is provided;
#X obj 712 114 zl group 2;
#X obj 655 51 unpack f f;
#X obj 348 410 moog~;
#X obj 365 317 mgScaleMinMax~;
#X obj 364 340 mtof~;
#X obj 462 293 sig~ 120;
#X obj 415 293 sig~ 70;
#X obj 365 270 sig~;
#X obj 365 292 lop~ 20;
#X obj 525 329 mgScaleMinMax~;
#X obj 526 283 sig~;
#X obj 525 304 lop~ 20;
#X obj 575 305 sig~ 0.5;
#X obj 630 305 sig~ 3.5;
#X obj 349 442 outlet~;
#X text 405 272 lpf cutoff;
#X obj 654 26 inlet xy2;
#X obj 736 33 inlet presetNumber;
#X obj 936 36 inlet presetFile;
#X obj 251 237 mgEnvlBtAr 5 5;
#X connect 0 0 1 0;
#X connect 1 0 10 0;
#X connect 2 0 0 0;
#X connect 3 0 21 0;
#X connect 4 0 0 4;
#X connect 5 0 15 1;
#X connect 6 0 38 0;
#X connect 7 0 15 1;
#X connect 8 0 9 1;
#X connect 9 0 7 0;
#X connect 10 0 11 0;
#X connect 11 0 9 0;
#X connect 11 1 5 0;
#X connect 12 0 10 1;
#X connect 13 0 14 0;
#X connect 14 0 10 1;
#X connect 15 0 3 0;
#X connect 16 0 15 0;
#X connect 16 1 15 2;
#X connect 16 2 15 3;
#X connect 16 3 19 0;
#X connect 16 4 19 1;
#X connect 19 0 15 4;
#X connect 20 0 26 0;
#X connect 20 1 29 0;
#X connect 21 0 33 0;
#X connect 22 0 23 0;
#X connect 23 0 21 1;
#X connect 24 0 22 2;
#X connect 25 0 22 1;
#X connect 26 0 27 0;
#X connect 27 0 22 0;
#X connect 28 0 21 2;
#X connect 29 0 30 0;
#X connect 30 0 28 0;
#X connect 31 0 28 1;
#X connect 32 0 28 2;
#X connect 35 0 20 0;
#X connect 36 0 16 0;
#X connect 37 0 16 1;
#X connect 38 0 3 1;
