#N canvas 124 22 1404 749 10;
#X obj 300 86 sig~;
#X obj 300 106 lop~ 20;
#X obj 268 31 unpack f f;
#X obj 375 26 unpack f f;
#X obj 299 65 mgVolToAmp;
#X obj 1183 -24 loadbang;
#X msg 1182 3 1;
#X obj 38 340 noise~;
#X obj 1124 322 loadbang;
#X obj 339 312 zl rev;
#X msg 1097 359 60 62 64 66 68 70 72 74;
#X msg 1288 359 0.25;
#X obj 393 512 *~;
#X text 373 -28 xy2;
#X text 274 -26 xy1;
#X obj 396 637 outlet~;
#X obj 395 593 moog~;
#X obj 654 586 mgScaleMinMax~;
#X obj 653 609 mtof~;
#X obj 751 562 sig~ 120;
#X obj 704 562 sig~ 70;
#X obj 654 539 sig~;
#X obj 654 561 lop~ 20;
#X obj 815 596 mgScaleMinMax~;
#X obj 816 550 sig~;
#X obj 815 571 lop~ 20;
#X obj 865 572 sig~ 0.5;
#X obj 920 572 sig~ 3.5;
#X text 694 541 lpf cutoff;
#X text 472 -25 key trigger give a list: value/button apirs;
#X obj 731 -2 inlet presetBank;
#X obj 872 -3 inlet presetFile;
#X msg 1250 360 20;
#X obj 1064 154 zl group 4;
#X obj 907 127 zl group 8;
#X obj 558 312 mgScaleTranspose8;
#X obj 268 -2 inlet xy1;
#X obj 374 1 inlet xy2;
#X obj 469 1 inlet eventTrigger;
#X obj 599 4 inlet octaveShift;
#X obj 51 -3 inlet pulseStream;
#X obj 340 340 route 1 2 3 4 5 6 7 8;
#X obj 110 340 t b;
#X obj 142 340 unpack f f f f f f f f;
#X obj 53 422 mgSynthBandpassPulse_v;
#X obj 202 422 mgSynthBandpassPulse_v;
#X obj 342 422 mgSynthBandpassPulse_v;
#X obj 489 422 mgSynthBandpassPulse_v;
#X obj 635 422 mgSynthBandpassPulse_v;
#X obj 784 422 mgSynthBandpassPulse_v;
#X obj 941 422 mgSynthBandpassPulse_v;
#X obj 1092 422 mgSynthBandpassPulse_v;
#X obj 701 340 t f;
#X obj 733 340 t l;
#X obj 301 340 t f;
#X obj 480 338 t f;
#X obj 519 340 t f;
#X obj 558 340 unpack f f f f f f f f;
#X text 683 305 resonance;
#X msg 1317 366 100;
#X text 147 318 count;
#X text 259 315 eventProb;
#X obj 983 130 zl group 8;
#X obj 918 76 mgSynthBandpassNoisePulseParameters ________________________
;
#X text 485 319 dur \, amp;
#X connect 0 0 1 0;
#X connect 1 0 12 1;
#X connect 2 0 54 0;
#X connect 2 1 4 0;
#X connect 3 0 21 0;
#X connect 3 1 24 0;
#X connect 4 0 0 0;
#X connect 5 0 6 0;
#X connect 6 0 4 0;
#X connect 6 0 63 0;
#X connect 7 0 44 0;
#X connect 7 0 45 0;
#X connect 7 0 46 0;
#X connect 7 0 47 0;
#X connect 7 0 48 0;
#X connect 7 0 49 0;
#X connect 7 0 50 0;
#X connect 7 0 51 0;
#X connect 8 0 32 0;
#X connect 8 0 10 0;
#X connect 8 0 11 0;
#X connect 8 0 59 0;
#X connect 9 0 41 0;
#X connect 10 0 35 0;
#X connect 11 0 52 0;
#X connect 12 0 16 0;
#X connect 16 0 15 0;
#X connect 17 0 18 0;
#X connect 18 0 16 1;
#X connect 19 0 17 2;
#X connect 20 0 17 1;
#X connect 21 0 22 0;
#X connect 22 0 17 0;
#X connect 23 0 16 2;
#X connect 24 0 25 0;
#X connect 25 0 23 0;
#X connect 26 0 23 1;
#X connect 27 0 23 2;
#X connect 30 0 63 0;
#X connect 31 0 63 1;
#X connect 33 0 53 0;
#X connect 34 0 35 0;
#X connect 35 0 57 0;
#X connect 36 0 2 0;
#X connect 37 0 3 0;
#X connect 38 0 9 0;
#X connect 39 0 35 1;
#X connect 40 0 42 0;
#X connect 41 0 44 4;
#X connect 41 1 45 4;
#X connect 41 2 46 4;
#X connect 41 3 47 4;
#X connect 41 4 48 4;
#X connect 41 5 49 4;
#X connect 41 6 50 4;
#X connect 41 7 51 4;
#X connect 42 0 44 1;
#X connect 42 0 45 1;
#X connect 42 0 46 1;
#X connect 42 0 47 1;
#X connect 42 0 48 1;
#X connect 42 0 49 1;
#X connect 42 0 50 1;
#X connect 42 0 51 1;
#X connect 43 0 44 2;
#X connect 43 1 45 2;
#X connect 43 2 46 2;
#X connect 43 3 47 2;
#X connect 43 4 48 2;
#X connect 43 5 49 2;
#X connect 43 6 50 2;
#X connect 43 7 51 2;
#X connect 44 0 12 0;
#X connect 45 0 12 0;
#X connect 46 0 12 0;
#X connect 47 0 12 0;
#X connect 48 0 12 0;
#X connect 49 0 12 0;
#X connect 50 0 12 0;
#X connect 51 0 12 0;
#X connect 52 0 44 8;
#X connect 52 0 45 8;
#X connect 52 0 46 8;
#X connect 52 0 47 8;
#X connect 52 0 48 8;
#X connect 52 0 49 8;
#X connect 52 0 50 8;
#X connect 52 0 51 8;
#X connect 53 0 51 9;
#X connect 53 0 50 9;
#X connect 53 0 49 9;
#X connect 53 0 48 9;
#X connect 53 0 47 9;
#X connect 53 0 46 9;
#X connect 53 0 45 9;
#X connect 53 0 44 9;
#X connect 54 0 44 3;
#X connect 54 0 45 3;
#X connect 54 0 46 3;
#X connect 54 0 47 3;
#X connect 54 0 48 3;
#X connect 54 0 49 3;
#X connect 54 0 50 3;
#X connect 54 0 51 3;
#X connect 55 0 44 5;
#X connect 55 0 45 5;
#X connect 55 0 46 5;
#X connect 55 0 47 5;
#X connect 55 0 48 5;
#X connect 55 0 49 5;
#X connect 55 0 50 5;
#X connect 55 0 51 5;
#X connect 56 0 44 6;
#X connect 56 0 45 6;
#X connect 56 0 46 6;
#X connect 56 0 47 6;
#X connect 56 0 48 6;
#X connect 56 0 49 6;
#X connect 56 0 50 6;
#X connect 56 0 51 6;
#X connect 57 0 44 7;
#X connect 57 1 45 7;
#X connect 57 2 46 7;
#X connect 57 3 47 7;
#X connect 57 4 48 7;
#X connect 57 5 49 7;
#X connect 57 6 50 7;
#X connect 57 7 51 7;
#X connect 62 0 43 0;
#X connect 63 0 34 0;
#X connect 63 1 34 0;
#X connect 63 2 34 0;
#X connect 63 3 34 0;
#X connect 63 4 34 0;
#X connect 63 5 34 0;
#X connect 63 6 34 0;
#X connect 63 7 34 0;
#X connect 63 8 62 0;
#X connect 63 9 62 0;
#X connect 63 10 62 0;
#X connect 63 11 62 0;
#X connect 63 12 62 0;
#X connect 63 13 62 0;
#X connect 63 14 62 0;
#X connect 63 15 62 0;
#X connect 63 16 55 0;
#X connect 63 17 56 0;
#X connect 63 18 52 0;
#X connect 63 19 33 0;
#X connect 63 20 33 0;
#X connect 63 21 33 0;
#X connect 63 22 33 0;
#X connect 63 23 20 0;
#X connect 63 24 19 0;
#X connect 63 25 26 0;
#X connect 63 26 27 0;
