#N canvas 224 465 1189 516 10;
#X obj 65 216 zl group 2;
#X obj 14 342 outlet;
#X obj 56 342 outlet;
#X obj 100 342 outlet;
#X obj 145 342 outlet;
#X obj 202 342 outlet;
#X obj 247 342 outlet;
#X obj 296 342 outlet;
#X obj 342 342 outlet;
#X obj 47 44 route float list symbol;
#X obj 238 93 loadbang;
#X obj 327 62 route bang symbol;
#X text 455 35 bang reloads \; symbol loads that file;
#X obj 216 163 mgTextParameters;
#X obj 389 93 prepend symbol;
#X text 708 277 provide the file path for where to get the presets
from;
#X obj 407 341 outlet;
#X obj 449 341 outlet;
#X obj 493 341 outlet;
#X obj 538 341 outlet;
#X obj 595 341 outlet;
#X obj 640 341 outlet;
#X obj 689 341 outlet;
#X obj 735 341 outlet;
#X obj 136 215 print mgSynthBufferPulse8Parameters-loading;
#X msg 311 131 mgSynthBufferPulse8Parameters.txt;
#X obj 44 14 inlet presetNumber;
#X obj 325 39 inlet presetFile;
#X obj 100 251 route preset1 preset2 preset3 preset4 preset5 preset6
preset7 preset8 count1 count2 count3 count4 count5 count6 count7 count8
filePath duration;
#X obj 810 342 outlet;
#X obj 855 342 outlet;
#X connect 0 0 24 0;
#X connect 0 0 28 0;
#X connect 9 0 13 0;
#X connect 9 1 0 0;
#X connect 9 2 0 0;
#X connect 10 0 25 0;
#X connect 11 0 25 0;
#X connect 11 1 13 1;
#X connect 11 2 14 0;
#X connect 13 0 0 0;
#X connect 14 0 13 1;
#X connect 25 0 13 1;
#X connect 26 0 9 0;
#X connect 27 0 11 0;
#X connect 28 0 1 0;
#X connect 28 1 2 0;
#X connect 28 2 3 0;
#X connect 28 3 4 0;
#X connect 28 4 5 0;
#X connect 28 5 6 0;
#X connect 28 6 7 0;
#X connect 28 7 8 0;
#X connect 28 8 16 0;
#X connect 28 9 17 0;
#X connect 28 10 18 0;
#X connect 28 11 19 0;
#X connect 28 12 20 0;
#X connect 28 13 21 0;
#X connect 28 14 22 0;
#X connect 28 15 23 0;
#X connect 28 16 29 0;
#X connect 28 17 30 0;
