#N canvas 126 171 802 447 10;
#X obj 65 216 zl group 2;
#X obj 44 14 inlet;
#X obj 51 332 outlet;
#X obj 96 331 outlet;
#X obj 146 333 outlet;
#X obj 191 332 outlet;
#X obj 252 328 outlet;
#X obj 297 327 outlet;
#X obj 347 329 outlet;
#X obj 392 328 outlet;
#X obj 47 44 route float list symbol;
#X obj 136 215 print mgSynthBufferParameters8-loading;
#X obj 238 93 loadbang;
#X obj 327 62 route bang symbol;
#X obj 325 39 inlet;
#X text 380 30 bang reloads \; symbol loads that file;
#X obj 480 327 outlet;
#X obj 64 248 route preset1 preset2 preset3 preset4 preset5 preset6
preset7 preset8 filePath;
#X text 481 291 provide the file path for presets;
#X msg 311 131 mgSynthBuffer8Parameters.txt;
#X obj 216 163 mgTextParameters;
#X obj 389 93 prepend symbol;
#X connect 0 0 11 0;
#X connect 0 0 17 0;
#X connect 1 0 10 0;
#X connect 10 0 20 0;
#X connect 10 1 0 0;
#X connect 10 2 0 0;
#X connect 12 0 19 0;
#X connect 13 0 19 0;
#X connect 13 1 20 1;
#X connect 13 2 21 0;
#X connect 14 0 13 0;
#X connect 17 0 2 0;
#X connect 17 1 3 0;
#X connect 17 2 4 0;
#X connect 17 3 5 0;
#X connect 17 4 6 0;
#X connect 17 5 7 0;
#X connect 17 6 8 0;
#X connect 17 7 9 0;
#X connect 17 8 16 0;
#X connect 19 0 20 1;
#X connect 20 0 0 0;
#X connect 21 0 20 1;
