#N canvas 48 158 1488 472 10;
#X obj 37 187 zl group 2;
#X obj 47 14 inlet;
#X obj 19 366 outlet;
#X obj 77 366 outlet;
#X obj 120 366 outlet;
#X obj 165 366 outlet;
#X obj 207 366 outlet;
#X obj 252 366 outlet;
#X obj 295 366 outlet;
#X obj 47 44 route float list symbol;
#X obj 201 75 loadbang;
#X obj 288 21 inlet;
#X text 343 12 bang reloads \; symbol loads that file;
#X obj 180 145 mgTextParameters;
#X obj 290 44 route bang symbol;
#X obj 357 79 prepend symbol;
#X obj 342 366 outlet;
#X obj 385 366 outlet;
#X obj 460 366 outlet;
#X obj 506 367 outlet;
#X obj 568 369 outlet;
#X text 110 393 patternsA;
#X text 942 392 adsr+dur;
#X text 454 393 macroAR;
#X text 1369 390 octaveshift;
#X text 24 395 fp;
#X msg 153 101 1;
#X obj 31 229 route patternFile pattern1 pattern2 pattern3 pattern4
pattern5 pattern6 pattern7 pattern8 macroAttack macroRelease pulseModulus
;
#X obj 105 188 print mgSynthADSequenceDuoParameters-loading;
#X msg 273 113 mgSynthADSequenceDuoParameters.txt;
#X connect 0 0 27 0;
#X connect 0 0 28 0;
#X connect 1 0 9 0;
#X connect 9 0 13 0;
#X connect 9 1 0 0;
#X connect 9 2 0 0;
#X connect 10 0 29 0;
#X connect 11 0 14 0;
#X connect 13 0 0 0;
#X connect 14 0 29 0;
#X connect 14 1 13 1;
#X connect 14 2 15 0;
#X connect 15 0 13 1;
#X connect 26 0 13 0;
#X connect 27 0 2 0;
#X connect 27 1 3 0;
#X connect 27 2 4 0;
#X connect 27 3 5 0;
#X connect 27 4 6 0;
#X connect 27 5 7 0;
#X connect 27 6 8 0;
#X connect 27 7 16 0;
#X connect 27 8 17 0;
#X connect 27 9 18 0;
#X connect 27 10 19 0;
#X connect 27 11 20 0;
#X connect 29 0 13 1;
