#N canvas 327 394 739 582 10;
#X obj 427 222 mgRandom -1 1;
#X obj 228 271 until;
#X obj 310 303 counter;
#X obj 340 187 t b b b;
#X obj 310 350 f;
#X obj 340 160 metro;
#X obj 228 220 mgRandom 1 100;
#X obj 310 324 t b f;
#X text 378 159 rate of segment drawing;
#X text 364 300 set max to table size;
#X text 393 277 segment start;
#X obj 310 374 tabwrite \$0-wave;
#X obj 160 374 table \$0-wave 1024;
#X msg 417 185 1024;
#X obj 329 220 mgRandom 0 1024;
#X obj 329 270 % 1023;
#X obj 518 16 loadbang;
#X msg 524 45 1;
#X obj 92 243 lop~ 18000;
#X obj 92 170 phasor~ 50;
#X obj 92 276 hip~ 10;
#X obj 91 549 outlet~;
#X obj 214 10 inlet segmentSize;
#X text 232 128 unit interval input;
#X obj 228 247 i;
#X obj 329 246 i;
#X obj 92 215 tabread4~ \$0-wave;
#X obj 92 193 *~ 1024;
#X obj 364 11 inlet rateUnitInterval;
#X obj 369 114 * 100;
#X obj 367 137 clip 1 100;
#X obj 213 146 * 256;
#X obj 212 173 clip 1 256;
#X obj 306 92 f \$1;
#X obj 439 90 f \$2;
#X obj 95 9 inlet~ frequency;
#X obj 377 464 mgEnvlBtAdsr 40 140 0.8 600;
#X obj 8 11 inlet trigger;
#X obj 444 429 unpack f f f f;
#X obj 91 515 *~;
#X obj 578 15 inlet envelopeParameters;
#X connect 0 0 4 1;
#X connect 1 0 2 0;
#X connect 2 0 7 0;
#X connect 3 0 6 0;
#X connect 3 1 14 0;
#X connect 3 2 0 0;
#X connect 4 0 11 0;
#X connect 5 0 3 0;
#X connect 6 0 24 0;
#X connect 7 0 4 0;
#X connect 7 1 11 1;
#X connect 13 0 2 4;
#X connect 13 0 14 2;
#X connect 14 0 25 0;
#X connect 15 0 2 2;
#X connect 16 0 13 0;
#X connect 16 0 17 0;
#X connect 16 0 34 0;
#X connect 16 0 33 0;
#X connect 17 0 5 0;
#X connect 18 0 20 0;
#X connect 19 0 27 0;
#X connect 20 0 39 0;
#X connect 22 0 31 0;
#X connect 24 0 1 0;
#X connect 25 0 15 0;
#X connect 26 0 18 0;
#X connect 27 0 26 0;
#X connect 28 0 29 0;
#X connect 29 0 30 0;
#X connect 30 0 5 1;
#X connect 31 0 32 0;
#X connect 32 0 6 2;
#X connect 33 0 31 1;
#X connect 33 0 32 2;
#X connect 34 0 30 2;
#X connect 34 0 29 1;
#X connect 35 0 19 0;
#X connect 36 0 39 1;
#X connect 37 0 36 0;
#X connect 38 0 36 1;
#X connect 38 1 36 2;
#X connect 38 2 36 3;
#X connect 38 3 36 4;
#X connect 39 0 21 0;
#X connect 40 0 38 0;
