#N canvas 262 577 1046 569 10;
#X obj 296 77 unpack f f;
#X obj 529 507 outlet~;
#X obj 74 14 loadbang;
#X msg 78 67 1;
#X obj 289 179 unpack f f;
#X obj 529 444 *~;
#X obj 245 208 mgGate8 _____________;
#X obj 92 209 unpack f f f f f f f f;
#X obj 437 340 t l;
#X obj 476 -17 inlet eventTrigger;
#X obj 296 -14 inlet xy1;
#X obj 380 -18 inlet xy2;
#X obj 380 77 unpack f f;
#X obj 628 65 zl group 8;
#X obj 739 69 zl group 4;
#X obj 853 63 zl group 2;
#X obj 673 -9 inlet parameterBankNumber;
#X obj 873 -6 inlet parameterFile;
#X obj 23 305 mtof;
#X obj 23 327 sig~;
#X obj 23 348 lop~ 10;
#X msg 54 42 4 42 120 45 47 48 50 51;
#X obj 378 339 t f;
#X obj 406 339 t f;
#X text 458 104 comment;
#X text 387 46 y2: segment redraw rate / x2: segment size;
#X obj 439 102 mgSubtractReverse 1;
#X obj 11 282 mgNonZeroMonoTrigger4 _____;
#X obj 182 280 mgNonZeroMonoTrigger4 _____;
#X obj 194 303 mtof;
#X obj 194 324 sig~;
#X obj 194 344 lop~ 10;
#X obj 92 179 t l;
#X text 215 42 x1 filter fq / y1 amp;
#X obj 182 387 mgSynthPaf_v;
#X obj 11 386 mgSynthPaf_v;
#X obj 673 20 mgSynthPafDuoParameters _________________________________
;
#X obj 942 65 zl group 2;
#X obj 395 265 unpack f f;
#X obj 378 290 mgScaleMinMax;
#X obj 485 264 unpack f f;
#X obj 468 289 mgScaleMinMax;
#X obj 547 395 sig~;
#X obj 545 415 lop~ 20;
#X obj 546 374 mgVolToAmp;
#X obj 530 475 moog~;
#X obj 703 269 mgScaleMinMax~;
#X obj 702 292 mtof~;
#X obj 800 245 sig~ 120;
#X obj 753 245 sig~ 70;
#X obj 703 222 sig~;
#X obj 703 244 lop~ 20;
#X obj 753 222 unpack f f;
#X obj 602 481 sig~ 1.2;
#X obj 92 154 mgScaleTranspose8;
#X obj 1014 66 t f;
#X connect 0 0 50 0;
#X connect 0 1 44 0;
#X connect 2 0 3 0;
#X connect 2 0 21 0;
#X connect 3 0 44 0;
#X connect 4 0 6 1;
#X connect 4 1 6 0;
#X connect 5 0 45 0;
#X connect 6 0 27 0;
#X connect 6 1 27 1;
#X connect 6 2 27 2;
#X connect 6 3 27 3;
#X connect 6 4 28 0;
#X connect 6 5 28 1;
#X connect 6 6 28 2;
#X connect 6 7 28 3;
#X connect 7 0 27 4;
#X connect 7 1 27 5;
#X connect 7 2 27 6;
#X connect 7 3 27 7;
#X connect 7 4 28 4;
#X connect 7 5 28 5;
#X connect 7 6 28 6;
#X connect 7 7 28 7;
#X connect 8 0 34 4;
#X connect 8 0 35 4;
#X connect 9 0 4 0;
#X connect 10 0 0 0;
#X connect 11 0 12 0;
#X connect 12 0 39 0;
#X connect 12 1 26 0;
#X connect 13 0 54 0;
#X connect 14 0 8 0;
#X connect 15 0 38 0;
#X connect 16 0 36 0;
#X connect 17 0 36 1;
#X connect 18 0 19 0;
#X connect 19 0 20 0;
#X connect 20 0 35 1;
#X connect 21 0 54 0;
#X connect 22 0 34 2;
#X connect 22 0 35 2;
#X connect 23 0 34 3;
#X connect 23 0 35 3;
#X connect 26 0 41 0;
#X connect 27 0 35 0;
#X connect 27 1 18 0;
#X connect 28 0 34 0;
#X connect 28 1 29 0;
#X connect 29 0 30 0;
#X connect 30 0 31 0;
#X connect 31 0 34 1;
#X connect 32 0 7 0;
#X connect 34 0 5 0;
#X connect 35 0 5 0;
#X connect 36 0 13 0;
#X connect 36 1 13 0;
#X connect 36 2 13 0;
#X connect 36 3 13 0;
#X connect 36 4 13 0;
#X connect 36 5 13 0;
#X connect 36 6 13 0;
#X connect 36 7 13 0;
#X connect 36 8 14 0;
#X connect 36 9 14 0;
#X connect 36 10 14 0;
#X connect 36 11 14 0;
#X connect 36 12 15 0;
#X connect 36 13 15 0;
#X connect 36 14 37 0;
#X connect 36 15 37 0;
#X connect 36 16 55 0;
#X connect 37 0 40 0;
#X connect 38 0 39 1;
#X connect 38 1 39 2;
#X connect 39 0 22 0;
#X connect 40 0 41 1;
#X connect 40 1 41 2;
#X connect 41 0 23 0;
#X connect 42 0 43 0;
#X connect 43 0 5 1;
#X connect 44 0 42 0;
#X connect 45 0 1 0;
#X connect 46 0 47 0;
#X connect 47 0 45 1;
#X connect 48 0 46 2;
#X connect 49 0 46 1;
#X connect 50 0 51 0;
#X connect 51 0 46 0;
#X connect 52 0 49 0;
#X connect 52 1 48 0;
#X connect 53 0 45 2;
#X connect 54 0 32 0;
#X connect 55 0 54 1;
