#N canvas 78 580 776 370 10;
#X obj 86 195 dac~;
#X floatatom 124 10 5 0 0 0 - - -;
#X floatatom 191 79 5 0 1 0 - - -;
#X floatatom 274 71 5 0 1 0 - - -;
#X obj 85 166 *~ 0.1;
#X obj 123 35 mtof;
#X obj 123 54 sig~;
#X obj 123 82 lop~ 30;
#X msg 72 84 1;
#X msg 72 59 0;
#X obj 115 117 mgSynthStochWave_v 256 50;
#X connect 1 0 5 0;
#X connect 2 0 10 2;
#X connect 3 0 10 3;
#X connect 4 0 0 0;
#X connect 4 0 0 1;
#X connect 5 0 6 0;
#X connect 6 0 7 0;
#X connect 7 0 10 1;
#X connect 8 0 10 0;
#X connect 9 0 10 0;
#X connect 10 0 4 0;
