#N canvas 483 282 992 538 10;
#X obj 294 285 sig~;
#X obj 294 305 lop~ 20;
#X obj 396 397 *~;
#X obj 397 478 outlet~;
#X obj 41 181 loadbang;
#X msg 41 206 1;
#X obj 279 331 *~;
#X text 335 259 level control \, y axis;
#X text 681 460 turn off am modulation when value is zero;
#X obj 408 375 mgEnvlBtAr 40 140;
#X text 414 279 take any value;
#X obj 165 209 tabread4~ \$0-buf;
#X obj 165 128 prepend \$0-buf;
#X obj 165 151 zl rot -1;
#X obj 123 425 table \$0-buf;
#X msg 165 105 read -resize \$1;
#X obj 165 82 symbol;
#X obj 165 181 mgSoundfilerControl;
#X obj 167 34 inlet filePath;
#X obj 800 37 inlet amp;
#X obj 867 35 inlet arEnvelopeParameters;
#X obj 481 324 unpack f f;
#X obj 278 35 inlet eventTrigger;
#X obj 410 39 inlet playBackRate;
#X obj 527 39 inlet startTimeScalar;
#X obj 670 35 inlet endTimeScalar;
#X connect 0 0 1 0;
#X connect 1 0 6 1;
#X connect 2 0 3 0;
#X connect 4 0 5 0;
#X connect 5 0 0 0;
#X connect 6 0 2 0;
#X connect 9 0 2 1;
#X connect 11 0 6 0;
#X connect 12 0 13 0;
#X connect 13 0 17 0;
#X connect 15 0 12 0;
#X connect 16 0 15 0;
#X connect 17 0 11 0;
#X connect 18 0 16 0;
#X connect 19 0 0 0;
#X connect 20 0 21 0;
#X connect 21 0 9 1;
#X connect 21 1 9 2;
#X connect 22 0 9 0;
#X connect 23 0 17 1;
#X connect 24 0 17 2;
#X connect 25 0 17 3;
