#N canvas 214 22 847 623 10;
#X obj 276 194 textfile;
#X msg 275 112 print;
#X obj 434 49 inlet;
#X text 361 179 reading multiple files does not concatenate;
#X obj 102 44 inlet;
#X obj 276 221 zl slice 1;
#X obj 296 461 zl reg;
#X obj 240 333 sel 1;
#X msg 133 135 rewind;
#X obj 102 136 t b;
#X obj 178 358 gate;
#X msg 122 358 1;
#X msg 149 358 0;
#X msg 198 334 bang;
#X text 43 414 if not selected \, try to send bang;
#X text 75 25 request a parameter set by number;
#X obj 434 113 prepend read;
#X obj 614 432 f;
#X obj 617 522 print mgTextParameters-loading;
#X obj 653 476 symbol;
#X obj 617 498 prepend;
#X obj 616 453 t f b;
#X obj 712 445 prepend symbol;
#X obj 239 304 t f f;
#X obj 49 135 delay 1;
#X text 53 201 need to decouple call chain loop;
#X text 411 20 provide a file path;
#X obj 104 111 t b b b f b;
#X obj 102 73 route bang float;
#X text 491 246 filter out symbols like # that are comments;
#X obj 686 420 route symbol;
#X text 688 400 display output;
#X obj 277 244 route float;
#X obj 352 244 symbol;
#X obj 372 575 outlet comment;
#X obj 295 575 outlet data;
#X obj 295 485 gate 2;
#X msg 265 485 1;
#X msg 236 485 2;
#X obj 18 299 t b;
#X obj 268 531 t b;
#X obj 452 419 gate;
#X msg 394 419 0;
#X msg 424 419 1;
#X obj 434 269 t b b;
#X obj 452 441 t b b;
#X obj 240 356 t b b b b;
#X obj 364 527 t b;
#X text 414 531 close comment gate after output;
#X text 65 553 look for comment with one more line;
#X obj 397 244 sel # comment;
#X text 483 268 all comments must trigger next line and try to output
;
#X text 397 377 only open comment gate if last number matched;
#X obj 473 85 print mgTextParametersCommented-filePathReceived;
#X text 124 378 get next line;
#X connect 0 0 5 0;
#X connect 0 1 12 0;
#X connect 1 0 0 0;
#X connect 2 0 16 0;
#X connect 2 0 30 0;
#X connect 2 0 53 0;
#X connect 4 0 28 0;
#X connect 5 0 32 0;
#X connect 5 1 6 1;
#X connect 6 0 36 1;
#X connect 7 0 46 0;
#X connect 7 1 13 0;
#X connect 8 0 0 0;
#X connect 9 0 0 0;
#X connect 10 0 24 0;
#X connect 11 0 10 0;
#X connect 12 0 10 0;
#X connect 13 0 10 1;
#X connect 16 0 0 0;
#X connect 17 0 21 0;
#X connect 19 0 20 1;
#X connect 20 0 18 0;
#X connect 21 0 20 0;
#X connect 21 1 19 0;
#X connect 22 0 19 1;
#X connect 23 0 7 0;
#X connect 23 1 17 1;
#X connect 24 0 9 0;
#X connect 27 1 9 0;
#X connect 27 2 8 0;
#X connect 27 3 7 1;
#X connect 27 4 11 0;
#X connect 28 0 1 0;
#X connect 28 1 27 0;
#X connect 30 0 19 1;
#X connect 30 1 22 0;
#X connect 32 0 23 0;
#X connect 32 1 33 0;
#X connect 33 0 50 0;
#X connect 36 0 40 0;
#X connect 36 0 35 0;
#X connect 36 1 34 0;
#X connect 36 1 47 0;
#X connect 37 0 36 0;
#X connect 38 0 36 0;
#X connect 39 0 24 0;
#X connect 40 0 39 0;
#X connect 41 0 45 0;
#X connect 42 0 41 0;
#X connect 43 0 41 0;
#X connect 44 0 13 0;
#X connect 44 1 41 1;
#X connect 45 0 6 0;
#X connect 45 1 38 0;
#X connect 46 0 6 0;
#X connect 46 1 17 0;
#X connect 46 2 37 0;
#X connect 46 3 43 0;
#X connect 47 0 42 0;
#X connect 50 0 13 0;
#X connect 50 1 44 0;
