#N canvas 426 77 938 508 10;
#X msg 219 36 mgSynthBufferParameters.txt;
#X obj 125 200 print out;
#X msg 119 47 1;
#X msg 86 58 8;
#X msg 80 29 7;
#X msg 117 21 bang;
#X msg 154 59 2;
#X msg 232 56 work01-mgSynthBufferParameters.txt;
#X msg 246 85 symbol work01-mgSynthBufferParameters.txt;
#X msg 200 12 arizaWork01-partA.txt;
#X obj 250 199 print comment;
#X obj 131 124 mgTextParametersCommented;
#X obj 391 134 zl iter 1;
#X msg 371 282 comment "Scene 1: Begin with instrument 2;
#X obj 391 111 t l b;
#X msg 459 135 set comment;
#X obj 339 133 list;
#X obj 460 164 prepend add2;
#X connect 0 0 11 1;
#X connect 2 0 11 0;
#X connect 3 0 11 0;
#X connect 4 0 11 0;
#X connect 5 0 11 0;
#X connect 6 0 11 0;
#X connect 7 0 11 1;
#X connect 8 0 11 1;
#X connect 9 0 11 1;
#X connect 11 0 1 0;
#X connect 11 1 10 0;
#X connect 11 1 16 0;
#X connect 12 0 17 0;
#X connect 14 0 12 0;
#X connect 14 1 15 0;
#X connect 15 0 13 0;
#X connect 16 0 14 0;
#X connect 17 0 13 0;
