#N canvas 393 403 938 493 10;
#X msg 219 36 mgSynthBufferParameters.txt;
#X obj 169 175 print out;
#X msg 119 47 1;
#X msg 86 58 8;
#X msg 80 29 7;
#X msg 117 21 bang;
#X msg 154 59 2;
#X msg 232 56 work01-mgSynthBufferParameters.txt;
#X msg 246 85 symbol work01-mgSynthBufferParameters.txt;
#X obj 131 124 mgTextParameters;
#X msg 200 12 arizaWork01-partA.txt;
#X obj 68 176 route preset1;
#X connect 0 0 9 1;
#X connect 2 0 9 0;
#X connect 3 0 9 0;
#X connect 4 0 9 0;
#X connect 5 0 9 0;
#X connect 6 0 9 0;
#X connect 7 0 9 1;
#X connect 8 0 9 1;
#X connect 9 0 1 0;
#X connect 9 0 11 0;
#X connect 10 0 9 1;
