#N canvas 214 22 648 519 10;
#X obj 249 199 textfile;
#X msg 249 127 print;
#X obj 406 51 inlet;
#X text 317 200 reading multiple files does not concatenate;
#X obj 270 483 outlet;
#X obj 72 56 inlet;
#X obj 249 226 zl slice 1;
#X obj 270 351 zl reg;
#X obj 250 305 sel 1;
#X msg 106 140 rewind;
#X obj 75 141 t b;
#X obj 191 329 gate;
#X msg 132 330 1;
#X msg 159 330 0;
#X msg 211 305 bang;
#X text 29 359 if not selected \, try to send bang;
#X text 48 30 request a parameter set by number;
#X obj 271 170 prepend read;
#X obj 332 349 f;
#X obj 267 326 t b b;
#X obj 334 439 print mgTextParameters-loading;
#X obj 373 391 symbol;
#X obj 334 415 prepend;
#X obj 334 370 t f b;
#X obj 432 340 prepend symbol;
#X obj 249 276 t f f;
#X obj 56 186 delay 1;
#X text 26 206 need to decouple call chain loop;
#X text 384 25 provide a file path;
#X obj 77 116 t b b b f b;
#X obj 73 78 route bang float;
#X obj 250 249 route float;
#X text 332 253 filter out symbols like # that are comments;
#X msg 313 274 bang;
#X obj 406 315 route symbol;
#X obj 379 103 print mgTextParameters-filePathReceived;
#X connect 0 0 6 0;
#X connect 0 1 13 0;
#X connect 1 0 0 0;
#X connect 2 0 17 0;
#X connect 2 0 34 0;
#X connect 2 0 35 0;
#X connect 5 0 30 0;
#X connect 6 0 31 0;
#X connect 6 1 7 1;
#X connect 7 0 4 0;
#X connect 8 0 19 0;
#X connect 8 1 14 0;
#X connect 9 0 0 0;
#X connect 10 0 0 0;
#X connect 11 0 26 0;
#X connect 12 0 11 0;
#X connect 13 0 11 0;
#X connect 14 0 11 1;
#X connect 17 0 0 0;
#X connect 18 0 23 0;
#X connect 19 0 7 0;
#X connect 19 1 18 0;
#X connect 21 0 22 1;
#X connect 22 0 20 0;
#X connect 23 0 22 0;
#X connect 23 1 21 0;
#X connect 24 0 21 1;
#X connect 25 0 8 0;
#X connect 25 1 18 1;
#X connect 26 0 10 0;
#X connect 29 1 10 0;
#X connect 29 2 9 0;
#X connect 29 3 8 1;
#X connect 29 4 12 0;
#X connect 30 0 1 0;
#X connect 30 1 29 0;
#X connect 31 0 25 0;
#X connect 31 1 33 0;
#X connect 33 0 14 0;
#X connect 34 0 21 1;
#X connect 34 1 24 0;
