#N canvas 590 247 878 589 10;
#X obj 157 80 inlet;
#X obj 260 78 inlet;
#X text 372 105 convert 2 toggles into three different triggers //
this permits using two 1/0 buttons to deliver three different bang
messages.;
#X obj 63 496 outlet;
#X obj 231 498 outlet;
#X obj 420 479 outlet;
#X obj 260 114 f;
#X obj 157 112 f;
#X obj 259 146 sel 0;
#X obj 155 148 sel 0;
#X obj 180 185 t b b;
#X obj 285 185 t b b;
#X obj 236 184 t b b;
#X obj 131 186 t b b;
#X obj 352 242 counter 0 1;
#X obj 352 275 sel 1;
#X msg 86 371 1;
#X msg 255 371 1;
#X obj 12 311 loadbang;
#X obj 314 444 counter 0 1;
#X obj 266 415 gate 2;
#X obj 131 412 gate 2;
#X msg 57 372 2;
#X msg 225 372 2;
#X obj 146 443 counter 0 1;
#X obj 105 445 sel 1;
#X obj 273 442 sel 1;
#X obj 364 318 t b b b b b;
#X obj 231 442 t b;
#X obj 62 444 t b;
#X obj 271 466 t b b;
#X obj 104 469 t b b;
#X text 368 190 increment counter for every non-zero (1) \; reset counter
for every zero \; thus \, must get two 1s to trigger third output;
#X connect 0 0 7 0;
#X connect 1 0 6 0;
#X connect 6 0 8 0;
#X connect 7 0 9 0;
#X connect 8 0 12 0;
#X connect 8 1 11 0;
#X connect 9 0 13 0;
#X connect 9 1 10 0;
#X connect 10 1 14 0;
#X connect 11 1 14 0;
#X connect 12 0 20 1;
#X connect 12 1 14 2;
#X connect 13 0 21 1;
#X connect 13 1 14 2;
#X connect 14 0 15 0;
#X connect 15 0 27 0;
#X connect 16 0 21 0;
#X connect 17 0 20 0;
#X connect 18 0 17 0;
#X connect 18 0 16 0;
#X connect 18 0 14 2;
#X connect 19 0 26 0;
#X connect 20 0 28 0;
#X connect 20 1 19 0;
#X connect 21 0 29 0;
#X connect 21 1 24 0;
#X connect 22 0 21 0;
#X connect 23 0 20 0;
#X connect 24 0 25 0;
#X connect 25 0 31 0;
#X connect 26 0 30 0;
#X connect 27 0 5 0;
#X connect 27 1 22 0;
#X connect 27 2 23 0;
#X connect 27 3 24 2;
#X connect 27 4 19 2;
#X connect 28 0 4 0;
#X connect 29 0 3 0;
#X connect 30 0 4 0;
#X connect 30 1 17 0;
#X connect 31 0 3 0;
#X connect 31 1 16 0;
