#N canvas 98 152 937 465 10;
#X obj 384 35 openpanel;
#X msg 384 16 bang;
#X floatatom 103 141 10 0 0 0 - - -;
#X floatatom 216 141 10 0 1 0 - - -;
#X floatatom 282 141 10 0 1 0 - - -;
#X msg 579 133 1;
#X msg 612 133 0;
#X obj 685 134 loadbang;
#X obj 646 133 t b b;
#X obj 385 193 mgSoundfilerControl;
#X obj 653 83 table \$0-tab 88200;
#X msg 622 231 \; \$0-tab normalize;
#X obj 105 121 bng 15 250 50 0 empty empty empty 17 7 0 10 -228856
-99865 -1;
#X text 125 120 load;
#X floatatom 312 121 5 0 3 0 - - -;
#X obj 381 270 outlet~;
#X obj 243 243 mgVolToAmp;
#X obj 243 266 sig~;
#X obj 241 287 lop~ 30;
#X obj 384 249 *~;
#X msg 204 45 1;
#X obj 174 16 loadbang;
#X obj 388 217 tabread4~ \$0-tab;
#X msg 386 61 read -resize \$1;
#X obj 384 81 prepend \$0-tab;
#X obj 381 107 zl rot -1;
#X symbolatom 102 160 40 0 0 0 - - -;
#X obj 494 77 prepend set;
#X msg 508 51 none;
#X connect 0 0 23 0;
#X connect 0 0 27 0;
#X connect 1 0 0 0;
#X connect 2 0 9 1;
#X connect 3 0 9 2;
#X connect 4 0 9 3;
#X connect 5 0 4 0;
#X connect 5 0 2 0;
#X connect 6 0 3 0;
#X connect 7 0 8 0;
#X connect 8 0 5 0;
#X connect 8 1 6 0;
#X connect 9 0 22 0;
#X connect 12 0 1 0;
#X connect 14 0 16 0;
#X connect 16 0 17 0;
#X connect 17 0 18 0;
#X connect 18 0 19 1;
#X connect 19 0 15 0;
#X connect 20 0 14 0;
#X connect 21 0 20 0;
#X connect 21 0 28 0;
#X connect 22 0 19 0;
#X connect 23 0 24 0;
#X connect 24 0 25 0;
#X connect 25 0 9 0;
#X connect 27 0 26 0;
#X connect 28 0 27 0;
#X coords 0 -1 1 1 250 80 1 100 100;
