#N canvas 524 787 450 300 10;
#X floatatom 3 20 6 0 300 0 - - -;
#X msg 9 99 1;
#X floatatom 42 20 6 0 300 0 - - -;
#X msg 56 99 1;
#X floatatom 81 20 6 0 300 0 - - -;
#X msg 87 99 1;
#X floatatom 120 20 6 0 300 0 - - -;
#X msg 126 99 1;
#X floatatom 159 20 6 0 300 0 - - -;
#X msg 165 99 1;
#X floatatom 198 20 6 0 300 0 - - -;
#X msg 204 99 1;
#X floatatom 237 20 6 0 300 0 - - -;
#X obj 132 -51 inlet;
#X msg 243 99 1;
#X obj 313 75 loadbang;
#X floatatom 276 20 6 0 300 0 - - -;
#X obj -44 -51 inlet;
#X msg 282 99 1;
#X obj 131 164 f;
#X obj 174 164 f;
#X obj 217 164 f;
#X obj 260 164 f;
#X obj 303 164 f;
#X obj 88 164 f;
#X obj 45 164 f;
#X obj 2 164 f;
#X obj 14 207 outlet;
#X obj -31 133 sel 1 2 3 4 5 6 7 8;
#X obj 132 -27 unpack f f f f f f f f;
#X connect 0 0 26 1;
#X connect 1 0 0 0;
#X connect 2 0 25 1;
#X connect 3 0 2 0;
#X connect 4 0 24 1;
#X connect 5 0 4 0;
#X connect 6 0 19 1;
#X connect 7 0 6 0;
#X connect 8 0 20 1;
#X connect 9 0 8 0;
#X connect 10 0 21 1;
#X connect 11 0 10 0;
#X connect 12 0 22 1;
#X connect 13 0 29 0;
#X connect 14 0 12 0;
#X connect 15 0 18 0;
#X connect 15 0 14 0;
#X connect 15 0 11 0;
#X connect 15 0 9 0;
#X connect 15 0 7 0;
#X connect 15 0 5 0;
#X connect 15 0 3 0;
#X connect 15 0 1 0;
#X connect 16 0 23 1;
#X connect 17 0 28 0;
#X connect 18 0 16 0;
#X connect 19 0 27 0;
#X connect 20 0 27 0;
#X connect 21 0 27 0;
#X connect 22 0 27 0;
#X connect 23 0 27 0;
#X connect 24 0 27 0;
#X connect 25 0 27 0;
#X connect 26 0 27 0;
#X connect 28 0 26 0;
#X connect 28 1 25 0;
#X connect 28 2 24 0;
#X connect 28 3 19 0;
#X connect 28 4 20 0;
#X connect 28 5 21 0;
#X connect 28 6 22 0;
#X connect 28 7 23 0;
#X connect 29 0 0 0;
#X connect 29 1 2 0;
#X connect 29 2 4 0;
#X connect 29 3 6 0;
#X connect 29 4 8 0;
#X connect 29 5 10 0;
#X connect 29 6 12 0;
#X connect 29 7 16 0;
#X coords 0 -1 1 1 316 40 1 0 0;
