#N canvas 324 288 661 380 10;
#X obj 427 96 openpanel;
#X msg 427 55 bang;
#X msg 427 189 open \$1 1;
#X obj 427 226 readsf~;
#X obj 427 117 zl reg;
#X obj 427 142 unpack s;
#X symbolatom 103 141 40 0 0 0 - - -;
#X obj 341 66 prepend set;
#X msg 361 40 none;
#X obj 395 12 loadbang;
#X obj 426 322 outlet~;
#X obj 103 122 bng 15 250 50 0 empty empty empty 17 7 0 10 -228856
-99865 -1;
#X text 123 121 load;
#X floatatom 313 120 5 0 3 0 - - -;
#X obj 326 246 mgVolToAmp;
#X obj 326 269 sig~;
#X obj 324 290 lop~ 30;
#X obj 427 252 *~;
#X msg 330 37 1;
#X obj 427 74 t b b;
#X obj 214 122 tgl 15 0 empty empty empty 17 7 0 10 -262144 -1 -1 0
1;
#X text 231 121 loop;
#X obj 387 226 gate;
#X msg 386 189 start;
#X obj 155 122 bng 15 250 50 0 empty empty empty 17 7 0 10 -228856
-99865 -1;
#X text 175 121 start;
#X obj 427 164 t b s;
#X msg 348 189 stop;
#X obj 306 189 t b b;
#X connect 0 0 4 0;
#X connect 1 0 19 0;
#X connect 2 0 3 0;
#X connect 3 0 17 0;
#X connect 3 1 22 1;
#X connect 4 0 7 0;
#X connect 4 0 5 0;
#X connect 5 0 26 0;
#X connect 7 0 6 0;
#X connect 8 0 7 0;
#X connect 9 0 8 0;
#X connect 9 0 18 0;
#X connect 11 0 1 0;
#X connect 13 0 14 0;
#X connect 14 0 15 0;
#X connect 15 0 16 0;
#X connect 16 0 17 1;
#X connect 17 0 10 0;
#X connect 18 0 13 0;
#X connect 19 1 0 0;
#X connect 20 0 22 0;
#X connect 22 0 4 0;
#X connect 23 0 3 0;
#X connect 24 0 28 0;
#X connect 26 0 23 0;
#X connect 26 1 2 0;
#X connect 27 0 3 0;
#X connect 28 0 4 0;
#X connect 28 1 27 0;
#X coords 0 -1 1 1 250 60 1 100 100;
