#N canvas 748 129 450 300 10;
#X obj 115 101 sig~;
#X obj 145 70 loadbang;
#X obj 114 126 lop~ 30;
#X obj 124 43 mgScaleMinMaxExp 60 18000 4;
#X floatatom 3 39 10 0 0 0 - - -;
#X floatatom 3 20 10 0 1 0 - - -;
#X obj 114 151 outlet~;
#X obj 118 13 inlet;
#X msg 115 70 0.1;
#X obj 181 148 outlet;
#X connect 0 0 2 0;
#X connect 1 0 8 0;
#X connect 2 0 6 0;
#X connect 3 0 4 0;
#X connect 4 0 0 0;
#X connect 4 0 9 0;
#X connect 5 0 3 0;
#X connect 7 0 5 0;
#X connect 8 0 5 0;
#X coords 0 -1 1 1 70 60 1 0 0;
