#N canvas 149 434 667 533 10;
#N canvas 0 22 450 300 (subpatch) 0;
#X array \$0-time-domain 441 float 0;
#X coords 0 4 440 -4 300 150 1;
#X restore 6 16 graph;
#N canvas 0 22 450 300 (subpatch) 0;
#X array \$0-frequency-domain 512 float 0;
#X coords 0 2500 511 0 300 150 1;
#X restore 311 16 graph;
#X obj 240 349 metro 50;
#X obj 25 241 inlet~;
#X obj 240 267 inlet;
#X obj 26 283 rfft~;
#X obj 26 316 *~;
#X obj 57 316 *~;
#X obj 26 346 sqrt~;
#X obj 279 268 block~ 4096 1;
#X obj 26 372 biquad~ 0 0 0 0 1;
#X text 91 277 Fourier series;
#X text 95 337 magnitude;
#X text 93 322 calculate;
#X text 80 249 signal to analyze;
#X text 37 394 delay for better graphing;
#X obj 240 298 sel 0 1;
#X text 295 296 0 and 1 turn on and off \; otherwise values control
speed;
#X msg 222 322 0;
#X msg 250 322 1;
#X obj 26 418 *~ 1;
#X obj 207 426 *~ 1;
#X floatatom 245 170 10 0 10 0 - - -;
#X floatatom 549 170 10 0 10 0 - - -;
#X obj 293 209 loadbang;
#X msg 293 231 1;
#X obj 26 452 tabwrite~ \$0-frequency-domain;
#X obj 207 453 tabwrite~ \$0-time-domain;
#X connect 2 0 26 0;
#X connect 2 0 27 0;
#X connect 3 0 5 0;
#X connect 3 0 21 0;
#X connect 4 0 16 0;
#X connect 5 0 6 0;
#X connect 5 0 6 1;
#X connect 5 1 7 0;
#X connect 5 1 7 1;
#X connect 6 0 8 0;
#X connect 7 0 8 0;
#X connect 8 0 10 0;
#X connect 10 0 20 0;
#X connect 16 0 18 0;
#X connect 16 1 19 0;
#X connect 16 2 2 1;
#X connect 18 0 2 0;
#X connect 19 0 2 0;
#X connect 20 0 26 0;
#X connect 21 0 27 0;
#X connect 22 0 21 1;
#X connect 23 0 20 1;
#X connect 24 0 25 0;
#X connect 25 0 23 0;
#X connect 25 0 22 0;
#X connect 25 0 16 0;
#X coords 0 -1 1 1 620 190 2 0 0;
