#N canvas 210 401 906 463 10;
#X obj -202 217 lop~ 30;
#X floatatom 2 20 6 0 10 0 - - -;
#X msg 9 99 1;
#X obj -135 217 lop~ 30;
#X floatatom 42 20 6 0 10 0 - - -;
#X msg 49 99 1;
#X obj -56 214 lop~ 30;
#X floatatom 81 20 6 0 10 0 - - -;
#X msg 87 99 1;
#X obj 17 217 lop~ 30;
#X floatatom 120 20 6 0 10 0 - - -;
#X msg 126 99 1;
#X obj 123 217 lop~ 30;
#X floatatom 159 20 6 0 10 0 - - -;
#X msg 165 99 1;
#X obj 214 217 lop~ 30;
#X floatatom 198 20 6 0 10 0 - - -;
#X msg 204 99 1;
#X obj 323 217 lop~ 30;
#X floatatom 237 20 6 0 10 0 - - -;
#X msg 243 99 1;
#X obj 313 75 loadbang;
#X obj 421 217 lop~ 30;
#X floatatom 276 20 6 0 10 0 - - -;
#X msg 282 99 1;
#X obj 96 -30 unpack f f f f f f f f;
#X obj -217 245 inlet~;
#X obj -217 291 *~;
#X obj -217 344 outlet~;
#X obj -150 245 inlet~;
#X obj -150 291 *~;
#X obj -150 344 outlet~;
#X obj -71 242 inlet~;
#X obj -71 288 *~;
#X obj -71 341 outlet~;
#X obj 28 242 inlet~;
#X obj 28 288 *~;
#X obj 28 341 outlet~;
#X obj 107 240 inlet~;
#X obj 107 286 *~;
#X obj 107 339 outlet~;
#X obj 199 240 inlet~;
#X obj 199 286 *~;
#X obj 199 339 outlet~;
#X obj 308 237 inlet~;
#X obj 308 283 *~;
#X obj 308 336 outlet~;
#X obj 406 237 inlet~;
#X obj 406 283 *~;
#X obj 406 336 outlet~;
#X obj -202 162 mgVolToAmp;
#X obj -202 186 sig~;
#X obj 3 121 f;
#X obj 43 121 f;
#X obj 81 121 f;
#X obj 120 121 f;
#X obj 159 121 f;
#X obj 198 121 f;
#X obj 237 121 f;
#X obj 276 121 f;
#X obj -135 161 mgVolToAmp;
#X obj -135 185 sig~;
#X obj -56 167 mgVolToAmp;
#X obj -56 191 sig~;
#X obj 17 171 mgVolToAmp;
#X obj 17 195 sig~;
#X obj 123 172 mgVolToAmp;
#X obj 123 196 sig~;
#X obj 214 173 mgVolToAmp;
#X obj 214 197 sig~;
#X obj 323 171 mgVolToAmp;
#X obj 323 195 sig~;
#X obj 421 171 mgVolToAmp;
#X obj 421 195 sig~;
#X connect 0 0 27 1;
#X connect 1 0 52 0;
#X connect 2 0 1 0;
#X connect 3 0 30 1;
#X connect 4 0 53 0;
#X connect 5 0 4 0;
#X connect 6 0 33 1;
#X connect 7 0 54 0;
#X connect 8 0 7 0;
#X connect 9 0 36 1;
#X connect 10 0 55 0;
#X connect 11 0 10 0;
#X connect 12 0 39 1;
#X connect 13 0 56 0;
#X connect 14 0 13 0;
#X connect 15 0 42 1;
#X connect 16 0 57 0;
#X connect 17 0 16 0;
#X connect 18 0 45 1;
#X connect 19 0 58 0;
#X connect 20 0 19 0;
#X connect 21 0 24 0;
#X connect 21 0 20 0;
#X connect 21 0 17 0;
#X connect 21 0 14 0;
#X connect 21 0 11 0;
#X connect 21 0 8 0;
#X connect 21 0 5 0;
#X connect 21 0 2 0;
#X connect 22 0 48 1;
#X connect 23 0 59 0;
#X connect 24 0 23 0;
#X connect 25 0 1 0;
#X connect 25 1 4 0;
#X connect 25 2 7 0;
#X connect 25 3 10 0;
#X connect 25 4 13 0;
#X connect 25 5 16 0;
#X connect 25 6 19 0;
#X connect 25 7 23 0;
#X connect 26 0 27 0;
#X connect 27 0 28 0;
#X connect 29 0 30 0;
#X connect 30 0 31 0;
#X connect 32 0 33 0;
#X connect 33 0 34 0;
#X connect 35 0 36 0;
#X connect 36 0 37 0;
#X connect 38 0 39 0;
#X connect 39 0 40 0;
#X connect 41 0 42 0;
#X connect 42 0 43 0;
#X connect 44 0 45 0;
#X connect 45 0 46 0;
#X connect 47 0 48 0;
#X connect 48 0 49 0;
#X connect 50 0 51 0;
#X connect 51 0 0 0;
#X connect 52 0 50 0;
#X connect 53 0 60 0;
#X connect 54 0 62 0;
#X connect 55 0 64 0;
#X connect 56 0 66 0;
#X connect 57 0 68 0;
#X connect 58 0 70 0;
#X connect 59 0 72 0;
#X connect 60 0 61 0;
#X connect 61 0 3 0;
#X connect 62 0 63 0;
#X connect 63 0 6 0;
#X connect 64 0 65 0;
#X connect 65 0 9 0;
#X connect 66 0 67 0;
#X connect 67 0 12 0;
#X connect 68 0 69 0;
#X connect 69 0 15 0;
#X connect 70 0 71 0;
#X connect 71 0 18 0;
#X connect 72 0 73 0;
#X connect 73 0 22 0;
#X coords 0 -1 1 1 316 40 1 0 0;
