#N canvas 1086 611 570 377 10;
#X obj 3 121 sig~;
#X obj 3 141 lop~ 30;
#X floatatom 2 20 6 0 300 0 - - -;
#X obj 3 161 outlet~;
#X msg 9 99 1;
#X obj 50 121 sig~;
#X obj 42 141 lop~ 30;
#X floatatom 42 20 6 0 300 0 - - -;
#X obj 42 161 outlet~;
#X msg 56 99 1;
#X obj 81 121 sig~;
#X obj 81 141 lop~ 30;
#X floatatom 81 20 6 0 300 0 - - -;
#X obj 81 161 outlet~;
#X msg 87 99 1;
#X obj 120 121 sig~;
#X obj 120 141 lop~ 30;
#X floatatom 120 20 6 0 300 0 - - -;
#X obj 120 161 outlet~;
#X msg 126 99 1;
#X obj 159 121 sig~;
#X obj 159 141 lop~ 30;
#X floatatom 159 20 6 0 300 0 - - -;
#X obj 159 161 outlet~;
#X msg 165 99 1;
#X obj 198 121 sig~;
#X obj 198 141 lop~ 30;
#X floatatom 198 20 6 0 300 0 - - -;
#X obj 198 161 outlet~;
#X msg 204 99 1;
#X obj 237 121 sig~;
#X obj 237 141 lop~ 30;
#X floatatom 237 20 6 0 300 0 - - -;
#X obj 237 161 outlet~;
#X msg 243 99 1;
#X obj 276 121 sig~;
#X obj 313 75 loadbang;
#X obj 276 141 lop~ 30;
#X floatatom 276 20 6 0 300 0 - - -;
#X obj 276 161 outlet~;
#X msg 282 99 1;
#X obj 96 -54 inlet;
#X obj 96 -30 unpack f f f f f f f f;
#X connect 0 0 1 0;
#X connect 1 0 3 0;
#X connect 2 0 0 0;
#X connect 4 0 2 0;
#X connect 5 0 6 0;
#X connect 6 0 8 0;
#X connect 7 0 5 0;
#X connect 9 0 7 0;
#X connect 10 0 11 0;
#X connect 11 0 13 0;
#X connect 12 0 10 0;
#X connect 14 0 12 0;
#X connect 15 0 16 0;
#X connect 16 0 18 0;
#X connect 17 0 15 0;
#X connect 19 0 17 0;
#X connect 20 0 21 0;
#X connect 21 0 23 0;
#X connect 22 0 20 0;
#X connect 24 0 22 0;
#X connect 25 0 26 0;
#X connect 26 0 28 0;
#X connect 27 0 25 0;
#X connect 29 0 27 0;
#X connect 30 0 31 0;
#X connect 31 0 33 0;
#X connect 32 0 30 0;
#X connect 34 0 32 0;
#X connect 35 0 37 0;
#X connect 36 0 40 0;
#X connect 36 0 34 0;
#X connect 36 0 29 0;
#X connect 36 0 24 0;
#X connect 36 0 19 0;
#X connect 36 0 14 0;
#X connect 36 0 9 0;
#X connect 36 0 4 0;
#X connect 37 0 39 0;
#X connect 38 0 35 0;
#X connect 40 0 38 0;
#X connect 41 0 42 0;
#X connect 42 0 2 0;
#X connect 42 1 7 0;
#X connect 42 2 12 0;
#X connect 42 3 17 0;
#X connect 42 4 22 0;
#X connect 42 5 27 0;
#X connect 42 6 32 0;
#X connect 42 7 38 0;
#X coords 0 -1 1 1 316 40 1 0 0;
