#N canvas 559 79 705 493 10;
#X floatatom 117 40 5 0 0 0 - - -;
#X obj 66 40 ctlin 0;
#X obj 210 44 notein;
#X obj 265 43 pack f f f;
#X obj 337 41 print;
#X obj 65 193 mtof~;
#X obj 65 227 mgOscSaw;
#X obj 340 435 dac~;
#X obj 65 100 sig~;
#X obj 65 122 lop~ 20;
#X obj 65 144 mgScaleMinMax~;
#X obj 115 122 sig~ 40;
#X obj 194 311 *~;
#X obj 123 205 mtof~;
#X obj 340 369 moog~;
#X obj 420 305 mgScaleMinMax~;
#X obj 419 328 mtof~;
#X obj 490 279 sig~ 70;
#X obj 226 310 mgEnvlBtAdsr 100 40 0.8 200;
#X obj 65 62 * 0.00787402;
#X obj 226 71 sel 0;
#X msg 226 96 0;
#X msg 260 96 1;
#X obj 340 401 *~ 0.2;
#X obj 521 172 mgTableWaveSaw;
#X obj 523 196 mgTableWaveSquare;
#X floatatom 472 41 5 0 0 0 - - -;
#X obj 421 41 ctlin 1;
#X obj 421 63 * 0.00787402;
#X obj 421 281 lop~ 20;
#X obj 421 255 sig~;
#X obj 65 255 *~ 1;
#X obj 163 123 sig~ 52;
#X text 63 16 cc0 controls pitch;
#X text 419 15 cc1 control filter cutoff frequency;
#X text 209 18 any note-on triggers an event;
#X obj 542 278 sig~ 134;
#X obj 381 369 sig~ 2;
#X obj 122 182 +~ 11.98;
#X obj 123 228 mgOscSquare;
#X connect 1 0 0 0;
#X connect 1 0 19 0;
#X connect 2 0 3 0;
#X connect 2 1 3 1;
#X connect 2 1 20 0;
#X connect 2 2 3 2;
#X connect 3 0 4 0;
#X connect 5 0 6 0;
#X connect 6 0 31 0;
#X connect 8 0 9 0;
#X connect 9 0 10 0;
#X connect 10 0 5 0;
#X connect 10 0 38 0;
#X connect 11 0 10 1;
#X connect 12 0 14 0;
#X connect 13 0 39 0;
#X connect 14 0 23 0;
#X connect 15 0 16 0;
#X connect 16 0 14 1;
#X connect 17 0 15 1;
#X connect 18 0 12 1;
#X connect 19 0 8 0;
#X connect 20 0 21 0;
#X connect 20 1 22 0;
#X connect 21 0 18 0;
#X connect 22 0 18 0;
#X connect 23 0 7 0;
#X connect 23 0 7 1;
#X connect 27 0 26 0;
#X connect 27 0 28 0;
#X connect 28 0 30 0;
#X connect 29 0 15 0;
#X connect 30 0 29 0;
#X connect 31 0 12 0;
#X connect 32 0 10 2;
#X connect 36 0 15 2;
#X connect 37 0 14 2;
#X connect 38 0 13 0;
#X connect 39 0 31 0;
