#N canvas 105 22 775 558 10;
#X obj 134 307 dac~;
#X obj 134 263 *~;
#X obj 134 284 *~ 0.2;
#X msg 652 342 \; pd dsp 1;
#X msg 652 379 \; pd dsp 0;
#X obj 22 341 mgUiSignalDisplay;
#X obj 232 264 tgl 15 0 empty empty empty 17 7 0 10 -262144 -1 -1 1
1;
#X obj 636 315 tgl 15 0 empty empty empty 17 7 0 10 -262144 -1 -1 1
1;
#X obj 161 263 mgEnvlBtAr;
#X obj 135 236 *~ 1;
#X obj 97 17 t f;
#X obj 19 75 phasor~ 0.125;
#X obj 109 73 mgUiSnapshot;
#X obj 19 209 *~;
#X obj 117 210 tgl 15 0 empty empty empty 17 7 0 10 -262144 -1 -1 1
1;
#X obj 46 209 mgEnvlBtAr;
#X obj 19 135 mgScaleMinMax~;
#X obj 49 113 sig~ 20;
#X obj 109 113 sig~ 18000;
#X obj 19 185 osc~;
#X obj 312 84 mgUiSnapshot;
#X obj 222 207 *~;
#X obj 320 208 tgl 15 0 empty empty empty 17 7 0 10 -262144 -1 -1 0
1;
#X obj 249 207 mgEnvlBtAr;
#X obj 222 146 mgScaleMinMax~;
#X obj 252 124 sig~ 20;
#X obj 312 124 sig~ 18000;
#X obj 222 183 osc~;
#X obj 222 41 phasor~ 0.125;
#X obj 66 179 ftom~;
#X obj 109 162 mgUiSnapshot;
#X obj 270 181 ftom~;
#X obj 313 164 mgUiSnapshot;
#X obj 435 84 phasor~ 0.125;
#X obj 435 131 mgScaleMinMax~;
#X obj 466 109 sig~ 15;
#X obj 525 109 sig~ 132;
#X obj 435 203 *~;
#X obj 533 204 tgl 15 0 empty empty empty 17 7 0 10 -262144 -1 -1 0
1;
#X obj 462 203 mgEnvlBtAr;
#X obj 435 179 osc~;
#X obj 435 155 mtof~;
#X obj 484 179 ftom~;
#X obj 527 162 mgUiSnapshot;
#X obj 221 62 expr~ pow($v1 \, 4);
#X msg 122 15 0.125;
#X connect 1 0 2 0;
#X connect 2 0 0 0;
#X connect 2 0 0 1;
#X connect 6 0 8 0;
#X connect 7 0 5 1;
#X connect 8 0 1 1;
#X connect 9 0 1 0;
#X connect 9 0 5 0;
#X connect 10 0 28 1;
#X connect 10 0 11 1;
#X connect 11 0 12 0;
#X connect 11 0 16 0;
#X connect 13 0 9 0;
#X connect 14 0 15 0;
#X connect 15 0 13 1;
#X connect 16 0 19 0;
#X connect 16 0 29 0;
#X connect 17 0 16 1;
#X connect 18 0 16 2;
#X connect 19 0 13 0;
#X connect 21 0 9 0;
#X connect 22 0 23 0;
#X connect 23 0 21 1;
#X connect 24 0 27 0;
#X connect 24 0 31 0;
#X connect 25 0 24 1;
#X connect 26 0 24 2;
#X connect 27 0 21 0;
#X connect 28 0 44 0;
#X connect 29 0 30 0;
#X connect 31 0 32 0;
#X connect 33 0 34 0;
#X connect 34 0 41 0;
#X connect 35 0 34 1;
#X connect 36 0 34 2;
#X connect 37 0 9 0;
#X connect 38 0 39 0;
#X connect 39 0 37 1;
#X connect 40 0 37 0;
#X connect 41 0 40 0;
#X connect 41 0 42 0;
#X connect 42 0 43 0;
#X connect 44 0 24 0;
#X connect 44 0 20 0;
#X connect 45 0 10 0;
#X connect 45 0 33 1;
