#N canvas 516 22 793 560 10;
#X obj 106 311 dac~;
#X obj 106 267 *~;
#X obj 106 288 *~ 0.2;
#X obj 624 275 loadbang;
#X msg 647 336 \; pd dsp 1;
#X msg 647 373 \; pd dsp 0;
#X obj 18 335 mgUiSignalDisplay;
#X obj 204 268 tgl 15 0 empty empty empty 17 7 0 10 -262144 -1 -1 0
1;
#X obj 632 309 tgl 15 0 empty empty empty 17 7 0 10 -262144 -1 -1 1
1;
#X obj 133 267 mgEnvlBtAr;
#X obj 23 124 noise~;
#X obj 22 152 *~;
#X obj 22 179 *~;
#X obj 120 180 tgl 15 0 empty empty empty 17 7 0 10 -262144 -1 -1 0
1;
#X obj 49 179 mgEnvlBtAr;
#X obj 107 240 *~ 1;
#X obj 361 126 noise~;
#X obj 360 154 *~;
#X obj 360 198 *~;
#X obj 458 199 tgl 15 0 empty empty empty 17 7 0 10 -262144 -1 -1 0
1;
#X obj 387 198 mgEnvlBtAr;
#X obj 412 107 *~ 100;
#X text 365 63 100 dB is set at 1;
#X obj 412 131 dbtorms~;
#X obj 178 124 noise~;
#X obj 177 152 *~;
#X obj 177 190 *~;
#X obj 275 191 tgl 15 0 empty empty empty 17 7 0 10 -262144 -1 -1 0
1;
#X obj 204 190 mgEnvlBtAr;
#X obj 230 118 expr~ pow($v1 \, 4);
#X obj 75 136 mgUiSnapshot;
#X obj 230 142 mgUiSnapshot;
#X obj 75 108 phasor~ 0.125;
#X obj 230 95 phasor~ 0.125;
#X obj 412 84 phasor~ 0.125;
#X obj 412 153 mgUiSnapshot;
#X obj 288 54 t f;
#X msg 290 33 0;
#X text 472 129 can use dbtopow~;
#X connect 1 0 2 0;
#X connect 2 0 0 0;
#X connect 2 0 0 1;
#X connect 3 0 8 0;
#X connect 7 0 9 0;
#X connect 8 0 6 1;
#X connect 9 0 1 1;
#X connect 10 0 11 0;
#X connect 11 0 12 0;
#X connect 12 0 15 0;
#X connect 13 0 14 0;
#X connect 14 0 12 1;
#X connect 15 0 1 0;
#X connect 15 0 6 0;
#X connect 16 0 17 0;
#X connect 17 0 18 0;
#X connect 18 0 15 0;
#X connect 19 0 20 0;
#X connect 20 0 18 1;
#X connect 21 0 23 0;
#X connect 23 0 17 1;
#X connect 23 0 35 0;
#X connect 24 0 25 0;
#X connect 25 0 26 0;
#X connect 26 0 15 0;
#X connect 27 0 28 0;
#X connect 28 0 26 1;
#X connect 29 0 31 0;
#X connect 29 0 25 1;
#X connect 32 0 11 1;
#X connect 32 0 30 0;
#X connect 33 0 29 0;
#X connect 34 0 21 0;
#X connect 36 0 32 1;
#X connect 36 0 33 1;
#X connect 36 0 34 1;
#X connect 37 0 36 0;
