#N canvas 631 22 809 528 10;
#X obj 43 41 tgl 15 0 empty empty empty 17 7 0 10 -262144 -1 -1 0 1
;
#X obj 682 266 loadbang;
#X obj 48 290 mgUiSignalDisplay;
#X msg 681 292 \; pd dsp 1;
#X msg 681 330 \; pd dsp 0;
#X obj 661 266 tgl 15 0 empty empty empty 17 7 0 10 -262144 -1 -1 1
1;
#X obj 126 250 dac~;
#X obj 126 206 *~;
#X obj 126 227 *~ 0.2;
#X obj 224 207 tgl 15 0 empty empty empty 17 7 0 10 -262144 -1 -1 0
1;
#X obj 153 206 mgEnvlBtAr;
#X obj 42 62 metro 60;
#X obj 126 181 *~ 1;
#X obj 43 115 *~;
#X obj 141 116 tgl 15 0 empty empty empty 17 7 0 10 -262144 -1 -1 0
1;
#X obj 70 115 mgEnvlBtAr;
#X obj 43 86 click~;
#X floatatom 86 37 5 0 0 0 - - -;
#X msg 122 36 20;
#X msg 150 36 30;
#X msg 182 36 40;
#X obj 44 137 *~ 2;
#X msg 211 37 120;
#X obj 275 127 *~;
#X obj 373 128 tgl 15 0 empty empty empty 17 7 0 10 -262144 -1 -1 0
1;
#X obj 302 127 mgEnvlBtAr;
#X floatatom 275 74 10 0 0 0 - - -;
#X msg 269 34 20;
#X obj 275 98 osc~;
#X msg 297 34 40;
#X msg 329 34 80;
#X msg 358 34 160;
#X msg 390 33 320;
#X msg 418 33 640;
#X msg 452 33 1280;
#X msg 495 34 2560;
#X msg 536 34 5120;
#X msg 574 33 10240;
#X msg 377 62 15000;
#X msg 421 62 17000;
#X msg 466 62 19000;
#X connect 0 0 11 0;
#X connect 1 0 5 0;
#X connect 5 0 2 1;
#X connect 7 0 8 0;
#X connect 8 0 6 0;
#X connect 8 0 6 1;
#X connect 9 0 10 0;
#X connect 10 0 7 1;
#X connect 11 0 16 0;
#X connect 12 0 7 0;
#X connect 12 0 2 0;
#X connect 13 0 21 0;
#X connect 14 0 15 0;
#X connect 15 0 13 1;
#X connect 16 0 13 0;
#X connect 17 0 11 1;
#X connect 18 0 17 0;
#X connect 19 0 17 0;
#X connect 20 0 17 0;
#X connect 21 0 12 0;
#X connect 22 0 17 0;
#X connect 23 0 12 0;
#X connect 24 0 25 0;
#X connect 25 0 23 1;
#X connect 26 0 28 0;
#X connect 27 0 26 0;
#X connect 28 0 23 0;
#X connect 29 0 26 0;
#X connect 30 0 26 0;
#X connect 31 0 26 0;
#X connect 32 0 26 0;
#X connect 33 0 26 0;
#X connect 34 0 26 0;
#X connect 35 0 26 0;
#X connect 36 0 26 0;
#X connect 37 0 26 0;
#X connect 38 0 26 0;
#X connect 39 0 26 0;
#X connect 40 0 26 0;
