#N canvas 0 22 887 560 10;
#X obj 326 222 *~ 1;
#X obj 325 295 dac~;
#X obj 325 251 *~;
#X obj 325 272 *~ 0.2;
#X obj 674 273 loadbang;
#X msg 690 325 \; pd dsp 1;
#X msg 690 362 \; pd dsp 0;
#X obj 61 324 mgUiSignalDisplay;
#X obj 423 252 tgl 15 0 empty empty empty 17 7 0 10 -262144 -1 -1 1
1;
#X obj 674 298 tgl 15 0 empty empty empty 17 7 0 10 -262144 -1 -1 1
1;
#X obj 352 251 mgEnvlBtAr;
#X obj 297 83 osc~;
#X floatatom 296 58 5 0 0 0 - - -;
#X msg 330 33 220;
#X obj 297 104 *~;
#X obj 433 79 *~;
#X obj 433 58 noise~;
#X obj 460 80 mgEnvlBtAr;
#X obj 324 104 mgEnvlBtAr;
#X msg 298 33 110;
#X msg 364 33 440;
#X msg 396 33 880;
#X obj 530 81 tgl 15 0 empty empty empty 17 7 0 10 -262144 -1 -1 0
1;
#X obj 393 104 tgl 15 0 empty empty empty 17 7 0 10 -262144 -1 -1 1
1;
#X obj 326 200 *~;
#X obj 629 54 mgEnvlBtAdsr 30 40 0.2 100;
#X obj 604 54 tgl 15 0 empty empty empty 17 7 0 10 -262144 -1 -1 0
1;
#X obj 618 77 tgl 15 0 empty empty empty 17 7 0 10 -262144 -1 -1 0
1;
#X floatatom 662 26 5 0 6000 0 - - -;
#X obj 639 77 mgEnvlBtAr 300 30;
#X obj 632 97 tgl 15 0 empty empty empty 17 7 0 10 -262144 -1 -1 0
1;
#X floatatom 783 24 5 0 6000 0 - - -;
#X floatatom 701 28 5 0 6000 0 - - -;
#X floatatom 744 27 5 0 1 0 - - -;
#X obj 653 97 mgEnvlBtAr 30 600;
#X obj 38 44 mgUiSfloop;
#X obj 657 127 mgEnvlMtAr 30 120 40;
#X msg 621 125 1;
#X obj 38 132 *~;
#X obj 65 132 mgEnvlBtAr;
#X obj 134 132 tgl 15 0 empty empty empty 17 7 0 10 -262144 -1 -1 0
1;
#X connect 0 0 2 0;
#X connect 0 0 7 0;
#X connect 2 0 3 0;
#X connect 3 0 1 0;
#X connect 3 0 1 1;
#X connect 4 0 9 0;
#X connect 8 0 10 0;
#X connect 9 0 7 1;
#X connect 10 0 2 1;
#X connect 11 0 14 0;
#X connect 12 0 11 0;
#X connect 13 0 12 0;
#X connect 14 0 24 0;
#X connect 15 0 24 0;
#X connect 16 0 15 0;
#X connect 17 0 15 1;
#X connect 18 0 14 1;
#X connect 19 0 12 0;
#X connect 20 0 12 0;
#X connect 21 0 12 0;
#X connect 22 0 17 0;
#X connect 23 0 18 0;
#X connect 24 0 0 0;
#X connect 25 0 24 1;
#X connect 26 0 25 0;
#X connect 27 0 29 0;
#X connect 28 0 25 1;
#X connect 29 0 24 1;
#X connect 30 0 34 0;
#X connect 31 0 25 4;
#X connect 32 0 25 2;
#X connect 33 0 25 3;
#X connect 34 0 24 1;
#X connect 35 0 38 0;
#X connect 36 0 24 1;
#X connect 37 0 36 0;
#X connect 38 0 24 0;
#X connect 39 0 38 1;
#X connect 40 0 39 0;
