#N canvas 92 22 658 482 10;
#X text 333 139 number of pitch outlets (1-3 \, default 1);
#X text 333 161 number of peaks to find (1-100 \, default 20);
#X text 333 183 number of peaks to output (default 0.);
#X text 333 117 window size (128-2048 \, default 1024);
#X obj 29 167 print pitch;
#X floatatom 226 185 5 0 0 0 - - -;
#X obj 306 32 mgUiSfPlay;
#X obj 107 437 dac~;
#X obj 456 271 mgTableWaveSaw;
#X obj 107 275 mgOscSaw;
#X obj 107 335 *~;
#X obj 107 414 *~ 0.2;
#X msg 457 295 \; pd dsp 1;
#X msg 457 332 \; pd dsp 0;
#X obj 305 246 *~;
#X obj 402 246 tgl 15 0 empty empty empty 17 7 0 10 -262144 -1 -1 0
1;
#X obj 332 246 mgEnvlBtAr;
#X obj 107 204 mtof;
#X obj 107 227 sig~;
#X obj 107 248 lop~ 30;
#X msg 169 275 1;
#X obj 28 190 print event;
#X obj 136 334 +~;
#X obj 169 332 *~ 0.5;
#X obj 113 297 sig~ 0.5;
#X obj 169 300 mgEnvlMtAr 10 40 220;
#X obj 157 141 fiddle~ 1024 2 20 3;
#X obj 107 383 *~;
#X obj 240 390 sig~;
#X obj 240 412 lop~ 30;
#X obj 240 367 expr ($f1 / 90) + 0.3;
#X connect 6 0 14 0;
#X connect 6 0 26 0;
#X connect 9 0 10 0;
#X connect 10 0 27 0;
#X connect 11 0 7 0;
#X connect 11 0 7 1;
#X connect 14 0 7 1;
#X connect 15 0 16 0;
#X connect 16 0 14 1;
#X connect 17 0 18 0;
#X connect 18 0 19 0;
#X connect 19 0 9 0;
#X connect 20 0 25 0;
#X connect 22 0 10 1;
#X connect 23 0 22 1;
#X connect 24 0 22 0;
#X connect 25 0 23 0;
#X connect 26 0 4 0;
#X connect 26 0 17 0;
#X connect 26 1 20 0;
#X connect 26 1 21 0;
#X connect 26 4 5 0;
#X connect 26 4 30 0;
#X connect 27 0 11 0;
#X connect 28 0 29 0;
#X connect 29 0 27 1;
#X connect 30 0 28 0;
