#N canvas 103 22 910 568 10;
#X obj -15 236 *~ 1;
#X obj -16 309 dac~;
#X obj -16 265 *~;
#X obj -16 286 *~ 0.2;
#X msg 576 342 \; pd dsp 1;
#X msg 576 379 \; pd dsp 0;
#X obj -53 341 mgUiSignalDisplay;
#X obj 82 266 tgl 15 0 empty empty empty 17 7 0 10 -262144 -1 -1 0
1;
#X obj 11 265 mgEnvlBtAr;
#X obj -32 105 *~;
#X obj 227 80 *~;
#X obj 227 59 noise~;
#X obj 254 81 mgEnvlBtAr;
#X obj -5 105 mgEnvlBtAr;
#X obj 324 82 tgl 15 0 empty empty empty 17 7 0 10 -262144 -1 -1 0
1;
#X obj 64 105 tgl 15 0 empty empty empty 17 7 0 10 -262144 -1 -1 1
1;
#X obj -32 20 mgUiSfLoop;
#X obj 6 158 *~ 1;
#X obj 42 207 mgSelector8~ ___________;
#X obj 37 179 mgFilterLowPass 200 20;
#X msg -84 166 1;
#X floatatom -29 207 5 0 0 0 - - -;
#X floatatom 100 154 5 0 0 0 - - -;
#X floatatom 141 156 5 0 0 0 - - -;
#X floatatom 242 154 5 0 0 0 - - -;
#X floatatom 283 156 5 0 0 0 - - -;
#X obj 179 179 mgFilterHighPass 200 20;
#X msg -85 185 2;
#X floatatom 392 154 5 0 0 0 - - -;
#X floatatom 433 156 5 0 0 0 - - -;
#X msg -85 207 3;
#X floatatom 531 153 5 0 0 0 - - -;
#X floatatom 572 155 5 0 0 0 - - -;
#X msg -85 228 4;
#X obj 479 178 mgFilterParametric 200 20 20;
#X floatatom 610 155 5 0 0 0 - - -;
#X obj 329 179 mgFilterBandPass 200 10;
#X connect 0 0 2 0;
#X connect 0 0 6 0;
#X connect 2 0 3 0;
#X connect 3 0 1 0;
#X connect 3 0 1 1;
#X connect 7 0 8 0;
#X connect 8 0 2 1;
#X connect 9 0 17 0;
#X connect 10 0 17 0;
#X connect 11 0 10 0;
#X connect 12 0 10 1;
#X connect 13 0 9 1;
#X connect 14 0 12 0;
#X connect 15 0 13 0;
#X connect 16 0 9 0;
#X connect 17 0 19 0;
#X connect 17 0 26 0;
#X connect 17 0 34 0;
#X connect 17 0 36 0;
#X connect 18 0 0 0;
#X connect 19 0 18 1;
#X connect 20 0 21 0;
#X connect 21 0 18 0;
#X connect 22 0 19 1;
#X connect 23 0 19 2;
#X connect 24 0 26 1;
#X connect 25 0 26 2;
#X connect 26 0 18 2;
#X connect 27 0 21 0;
#X connect 28 0 36 1;
#X connect 29 0 36 2;
#X connect 30 0 21 0;
#X connect 31 0 34 1;
#X connect 32 0 34 2;
#X connect 33 0 21 0;
#X connect 34 0 18 4;
#X connect 35 0 34 3;
#X connect 36 0 18 3;
