#N canvas 26 22 987 715 10;
#X obj 218 98 adc~;
#X obj 165 98 mgGate2~;
#X obj 204 172 dac~;
#X obj 214 196 adc~;
#X obj 165 196 mgGate2~;
#X msg 113 32 bang;
#X obj 113 56 t b b;
#X msg 135 98 2;
#X msg 106 98 1;
#X obj 204 127 delwrite~ a 4000;
#X obj 38 128 delay 4000;
#X msg 133 195 2;
#X msg 104 195 1;
#X obj 34 221 delay 4000;
#X obj 75 56 t b;
#X obj 17 58 loadbang;
#X msg 76 31 bang;
#X obj 109 126 t b b b;
#X obj 215 280 adc~;
#X obj 165 280 mgGate2~;
#X msg 131 281 2;
#X msg 102 281 1;
#X obj 30 304 delay 4000;
#X obj 106 221 t b b b;
#X obj 204 219 delwrite~ b 4000;
#X obj 204 148 delread~ a 4000;
#X obj 204 238 delread~ b 4000;
#X obj 204 322 delread~ c 4000;
#X obj 204 302 delwrite~ c 4000;
#X obj 204 258 dac~;
#X obj 204 343 dac~;
#X obj 104 303 t b b b;
#X msg 439 69 \; pd dsp 1;
#X msg 439 106 \; pd dsp 0;
#X obj 892 139 loadbang;
#X obj 953 142 tgl 15 0 empty empty empty 17 7 0 10 -262144 -1 -1 1
1;
#X obj 340 166 mgUiSignalDisplay;
#X obj 258 81 mgUiSnapshot;
#X text 114 7 start;
#X text 74 6 clear;
#X obj 217 365 adc~;
#X obj 165 365 mgGate2~;
#X msg 131 366 2;
#X msg 102 366 1;
#X obj 30 389 delay 4000;
#X obj 204 428 dac~;
#X obj 104 388 t b b b;
#X obj 216 452 adc~;
#X obj 166 451 mgGate2~;
#X msg 132 452 2;
#X msg 103 452 1;
#X obj 31 473 delay 4000;
#X obj 205 512 dac~;
#X obj 105 472 t b b b;
#X obj 204 387 delwrite~ d 4000;
#X obj 204 407 delread~ d 4000;
#X obj 205 471 delwrite~ e 4000;
#X obj 205 491 delread~ e 4000;
#X obj 214 534 adc~;
#X obj 166 534 mgGate2~;
#X msg 132 535 2;
#X msg 103 535 1;
#X obj 31 559 delay 4000;
#X obj 205 598 dac~;
#X obj 105 558 t b b b;
#X obj 217 619 adc~;
#X obj 167 620 mgGate2~;
#X msg 133 621 2;
#X msg 104 621 1;
#X obj 32 647 delay 4000;
#X obj 207 683 dac~;
#X obj 106 646 t b b b;
#X obj 205 555 delwrite~ f 4000;
#X obj 205 577 delread~ f 4000;
#X obj 206 643 delwrite~ g 4000;
#X obj 207 662 delread~ g 4000;
#X connect 0 0 1 1;
#X connect 0 0 37 0;
#X connect 1 1 9 0;
#X connect 1 1 36 0;
#X connect 3 0 4 1;
#X connect 4 1 24 0;
#X connect 4 1 36 0;
#X connect 5 0 6 0;
#X connect 6 0 10 0;
#X connect 6 1 7 0;
#X connect 7 0 1 0;
#X connect 8 0 1 0;
#X connect 10 0 17 0;
#X connect 11 0 4 0;
#X connect 12 0 4 0;
#X connect 13 0 23 0;
#X connect 14 0 8 0;
#X connect 14 0 12 0;
#X connect 14 0 21 0;
#X connect 14 0 43 0;
#X connect 14 0 50 0;
#X connect 14 0 61 0;
#X connect 14 0 68 0;
#X connect 15 0 14 0;
#X connect 16 0 14 0;
#X connect 17 0 13 0;
#X connect 17 1 11 0;
#X connect 17 2 8 0;
#X connect 18 0 19 1;
#X connect 19 1 28 0;
#X connect 19 1 36 0;
#X connect 20 0 19 0;
#X connect 21 0 19 0;
#X connect 22 0 31 0;
#X connect 23 0 22 0;
#X connect 23 1 20 0;
#X connect 23 2 12 0;
#X connect 25 0 2 0;
#X connect 26 0 29 0;
#X connect 27 0 30 0;
#X connect 31 0 44 0;
#X connect 31 1 42 0;
#X connect 31 2 21 0;
#X connect 34 0 35 0;
#X connect 35 0 36 1;
#X connect 40 0 41 1;
#X connect 41 1 54 0;
#X connect 41 1 36 0;
#X connect 42 0 41 0;
#X connect 43 0 41 0;
#X connect 44 0 46 0;
#X connect 46 0 51 0;
#X connect 46 1 49 0;
#X connect 46 2 43 0;
#X connect 47 0 48 1;
#X connect 48 1 56 0;
#X connect 48 1 36 0;
#X connect 49 0 48 0;
#X connect 50 0 48 0;
#X connect 51 0 53 0;
#X connect 53 0 62 0;
#X connect 53 1 60 0;
#X connect 53 2 50 0;
#X connect 55 0 45 0;
#X connect 57 0 52 0;
#X connect 58 0 59 1;
#X connect 59 1 72 0;
#X connect 59 1 36 0;
#X connect 60 0 59 0;
#X connect 61 0 59 0;
#X connect 62 0 64 0;
#X connect 64 0 69 0;
#X connect 64 1 67 0;
#X connect 64 2 61 0;
#X connect 65 0 66 1;
#X connect 66 1 74 0;
#X connect 66 1 36 0;
#X connect 67 0 66 0;
#X connect 68 0 66 0;
#X connect 69 0 71 0;
#X connect 71 2 68 0;
#X connect 73 0 63 0;
#X connect 75 0 70 0;
