#N canvas 84 22 813 594 10;
#X obj 206 310 dac~;
#X obj 206 266 *~;
#X obj 206 287 *~ 0.2;
#X msg 243 19 50;
#X msg 660 360 \; pd dsp 1;
#X msg 660 397 \; pd dsp 0;
#X floatatom 206 19 5 0 120 0 - - -;
#X obj 303 266 tgl 15 0 empty empty empty 17 7 0 10 -262144 -1 -1 0
1;
#X obj 233 266 mgEnvlBtAr;
#X obj 604 138 mgTableWaveTri;
#X obj 206 173 *~;
#X obj 303 173 tgl 15 0 empty empty empty 17 7 0 10 -262144 -1 -1 1
1;
#X obj 233 173 mgEnvlBtAr;
#X obj 205 109 mgOscTri;
#X obj 31 359 mgUiSignalDisplay;
#X obj 206 81 mtof~;
#X obj 206 39 sig~;
#X obj 345 163 tgl 15 0 empty empty empty 17 7 0 10 -262144 -1 -1 1
1;
#X obj 364 212 *~;
#X obj 394 212 cycle~;
#X floatatom 447 212 5 0 0 0 - - -;
#X floatatom 413 186 5 0 200 0 - - -;
#X obj 366 164 mgEnvlBtAr 300 800;
#X obj 517 128 loadbang;
#X obj 207 237 *~;
#X obj 313 211 sig~ 1;
#X obj 348 238 +~;
#X obj 365 186 *~ 1;
#X msg 450 184 1;
#X msg 486 212 32;
#X obj 604 116 mgTableWaveSaw;
#X obj 267 109 mgOscSaw;
#X obj 141 109 osc~ 220;
#X obj 325 109 mgOscSquare;
#X obj 604 160 mgTableWaveSquare;
#X obj 206 149 mgSelector4~;
#X floatatom 169 150 5 1 4 0 - - -;
#X obj 280 19 loadbang;
#X obj 206 60 lop~ 30;
#X msg 137 149 1;
#X obj 79 148 loadbang;
#X obj 665 335 loadbang;
#X obj 644 335 tgl 15 0 empty empty empty 17 7 0 10 -262144 -1 -1 0
1;
#X connect 1 0 2 0;
#X connect 2 0 0 0;
#X connect 2 0 0 1;
#X connect 3 0 6 0;
#X connect 6 0 16 0;
#X connect 7 0 8 0;
#X connect 8 0 1 1;
#X connect 10 0 24 0;
#X connect 11 0 12 0;
#X connect 12 0 10 1;
#X connect 13 0 35 2;
#X connect 15 0 13 0;
#X connect 15 0 32 0;
#X connect 15 0 31 0;
#X connect 15 0 33 0;
#X connect 16 0 38 0;
#X connect 17 0 22 0;
#X connect 18 0 26 1;
#X connect 19 0 18 1;
#X connect 20 0 19 0;
#X connect 21 0 27 1;
#X connect 22 0 27 0;
#X connect 23 0 28 0;
#X connect 23 0 29 0;
#X connect 24 0 1 0;
#X connect 24 0 14 0;
#X connect 25 0 26 0;
#X connect 26 0 24 1;
#X connect 27 0 18 0;
#X connect 28 0 21 0;
#X connect 29 0 20 0;
#X connect 31 0 35 3;
#X connect 32 0 35 1;
#X connect 33 0 35 4;
#X connect 35 0 10 0;
#X connect 36 0 35 0;
#X connect 37 0 3 0;
#X connect 38 0 15 0;
#X connect 39 0 36 0;
#X connect 40 0 39 0;
#X connect 41 0 42 0;
#X connect 42 0 14 1;
