#N canvas 84 22 741 650 10;
#X obj 81 382 dac~;
#X obj 81 338 *~;
#X obj 81 359 *~ 0.2;
#X obj 522 398 loadbang;
#X msg 517 423 \; pd dsp 1;
#X msg 517 460 \; pd dsp 0;
#X obj 178 338 tgl 15 0 empty empty empty 17 7 0 10 -262144 -1 -1 1
1;
#X obj 501 398 tgl 15 0 empty empty empty 17 7 0 10 -262144 -1 -1 1
1;
#X obj 108 338 mgEnvlBtAr;
#X obj 459 330 mgTableWaveTri;
#X obj -112 422 mgUiSignalDisplay;
#X obj 459 308 mgTableWaveSaw;
#X obj 459 352 mgTableWaveSquare;
#X obj 81 282 mgSelector8~ _____;
#X obj 81 311 *~ 1;
#X obj -64 109 sig~;
#X obj -64 130 lop~ 30;
#X obj -64 155 osc~;
#X obj 80 189 *~;
#X obj 125 71 sig~;
#X obj 34 49 loadbang;
#X obj 125 92 lop~ 30;
#X obj 125 117 osc~;
#X obj 335 186 +~;
#X obj 347 162 *~ 0.2;
#X obj 344 138 noise~;
#X obj 9 90 loadbang;
#X floatatom 42 280 5 1 8 0 - - -;
#X obj -64 192 *~ 1;
#X obj 540 81 *~ 1;
#X obj 432 186 *~ 1;
#X msg 94 49 120;
#X msg -26 90 7000;
#X obj 449 113 lop~ 30;
#X obj 449 87 sig~;
#X msg 447 43 7000;
#X obj 41 190 *~ 1;
#X obj 430 137 vcf~ 30;
#X floatatom 125 49 5 0 0 0 - - -;
#X floatatom -63 87 5 0 0 0 - - -;
#X obj 540 113 *~;
#X obj 540 137 lop~ 600;
#X obj 540 159 lop~ 600;
#X floatatom 447 66 5 0 0 0 - - -;
#X obj 487 42 loadbang;
#X obj 95 151 mgSelector2~;
#X floatatom 59 150 5 1 2 0 - - -;
#X msg 28 150 1;
#X obj 540 182 *~ 20;
#X obj 28 127 loadbang;
#X obj 180 41 mgUiSfPlay;
#X connect 1 0 2 0;
#X connect 2 0 0 0;
#X connect 2 0 0 1;
#X connect 3 0 7 0;
#X connect 6 0 8 0;
#X connect 7 0 10 1;
#X connect 8 0 1 1;
#X connect 13 0 14 0;
#X connect 14 0 1 0;
#X connect 14 0 10 0;
#X connect 15 0 16 0;
#X connect 16 0 17 0;
#X connect 17 0 28 0;
#X connect 18 0 23 0;
#X connect 18 0 13 3;
#X connect 19 0 21 0;
#X connect 20 0 31 0;
#X connect 21 0 22 0;
#X connect 22 0 45 1;
#X connect 23 0 13 4;
#X connect 23 0 37 0;
#X connect 24 0 23 1;
#X connect 25 0 24 0;
#X connect 26 0 32 0;
#X connect 27 0 13 0;
#X connect 28 0 18 0;
#X connect 28 0 13 1;
#X connect 29 0 40 0;
#X connect 29 0 40 1;
#X connect 30 0 29 0;
#X connect 30 0 13 5;
#X connect 31 0 38 0;
#X connect 32 0 39 0;
#X connect 33 0 37 1;
#X connect 34 0 33 0;
#X connect 35 0 43 0;
#X connect 36 0 13 2;
#X connect 37 0 30 0;
#X connect 38 0 19 0;
#X connect 39 0 15 0;
#X connect 40 0 41 0;
#X connect 41 0 42 0;
#X connect 42 0 48 0;
#X connect 43 0 34 0;
#X connect 44 0 35 0;
#X connect 45 0 36 0;
#X connect 45 0 18 1;
#X connect 46 0 45 0;
#X connect 47 0 46 0;
#X connect 48 0 13 6;
#X connect 49 0 47 0;
#X connect 50 0 45 2;
