#N canvas 162 22 790 600 10;
#X obj 220 252 *~ 1;
#X obj 219 325 dac~;
#X obj 219 281 *~;
#X obj 219 302 *~ 0.2;
#X obj 343 278 loadbang;
#X obj 678 350 loadbang;
#X msg 673 375 \; pd dsp 1;
#X msg 673 412 \; pd dsp 0;
#X obj 316 281 tgl 15 0 empty empty empty 17 7 0 10 -262144 -1 -1 1
1;
#X obj 657 350 tgl 15 0 empty empty empty 17 7 0 10 -262144 -1 -1 1
1;
#X obj 246 281 mgEnvlBtAr;
#X obj 44 374 mgUiSignalDisplay;
#X obj 384 63 tgl 15 0 empty empty empty 17 7 0 10 -262144 -1 -1 1
1;
#X obj 221 101 +~;
#X obj 403 112 *~;
#X obj 433 112 cycle~;
#X floatatom 486 112 5 0 0 0 - - -;
#X obj 404 86 *~ 0.1;
#X floatatom 452 86 5 0 200 0 - - -;
#X obj 405 64 mgEnvlBtAr 300 800;
#X obj 556 28 loadbang;
#X msg 257 30 50;
#X floatatom 220 30 5 0 120 0 - - -;
#X obj 221 221 *~;
#X obj 318 221 tgl 15 0 empty empty empty 17 7 0 10 -262144 -1 -1 1
1;
#X obj 248 221 mgEnvlBtAr;
#X obj 220 157 mgOscTri;
#X obj 221 129 mtof~;
#X obj 220 50 sig~;
#X obj 282 157 mgOscSaw;
#X obj 156 157 osc~ 220;
#X obj 340 157 mgOscSquare;
#X obj 221 197 mgSelector4~;
#X floatatom 184 198 5 1 4 0 - - -;
#X obj 294 30 loadbang;
#X obj 220 71 lop~ 30;
#X msg 152 197 1;
#X obj 94 196 loadbang;
#X obj 569 216 mgTableWaveTri;
#X obj 569 194 mgTableWaveSaw;
#X obj 569 238 mgTableWaveSquare;
#X msg 492 86 7;
#X msg 525 112 14;
#X connect 0 0 2 0;
#X connect 0 0 11 0;
#X connect 2 0 3 0;
#X connect 3 0 1 0;
#X connect 3 0 1 1;
#X connect 5 0 9 0;
#X connect 8 0 10 0;
#X connect 9 0 11 1;
#X connect 10 0 2 1;
#X connect 12 0 19 0;
#X connect 13 0 27 0;
#X connect 14 0 13 1;
#X connect 15 0 14 1;
#X connect 16 0 15 0;
#X connect 17 0 14 0;
#X connect 18 0 17 1;
#X connect 19 0 17 0;
#X connect 20 0 41 0;
#X connect 20 0 42 0;
#X connect 21 0 22 0;
#X connect 22 0 28 0;
#X connect 23 0 0 0;
#X connect 24 0 25 0;
#X connect 25 0 23 1;
#X connect 26 0 32 2;
#X connect 27 0 26 0;
#X connect 27 0 30 0;
#X connect 27 0 29 0;
#X connect 27 0 31 0;
#X connect 28 0 35 0;
#X connect 29 0 32 3;
#X connect 30 0 32 1;
#X connect 31 0 32 4;
#X connect 32 0 23 0;
#X connect 33 0 32 0;
#X connect 34 0 21 0;
#X connect 35 0 13 0;
#X connect 36 0 33 0;
#X connect 37 0 36 0;
#X connect 41 0 18 0;
#X connect 42 0 16 0;
