#N canvas 490 22 741 650 10;
#X obj 20 393 dac~;
#X obj 20 349 *~;
#X obj 20 370 *~ 0.2;
#X obj 530 398 loadbang;
#X msg 525 423 \; pd dsp 1;
#X msg 525 460 \; pd dsp 0;
#X obj 117 349 tgl 15 0 empty empty empty 17 7 0 10 -262144 -1 -1 1
1;
#X obj 509 398 tgl 15 0 empty empty empty 17 7 0 10 -262144 -1 -1 1
1;
#X obj 47 349 mgEnvlBtAr;
#X obj -104 422 mgUiSignalDisplay;
#X obj 20 326 *~ 1;
#X obj 63 50 sig~;
#X obj -28 28 loadbang;
#X obj 63 71 lop~ 30;
#X obj 63 96 osc~;
#X floatatom -19 302 5 1 8 0 - - -;
#X msg 32 28 120;
#X floatatom 63 28 5 0 0 0 - - -;
#X floatatom -3 129 5 1 4 0 - - -;
#X msg -34 129 1;
#X obj -34 106 loadbang;
#X obj 33 130 mgSelector4~;
#X obj 104 98 noise~;
#X obj 80 164 *~ 1;
#X obj 20 304 mgSelector4~;
#X obj 84 221 delread~ a;
#X obj 69 251 +~;
#X obj 80 190 delwrite~ a 1000;
#X obj 112 251 *~;
#X floatatom 141 251 5 0 1 0 - - -;
#X floatatom 153 223 5 0 0 0 - - -;
#X obj 153 77 click~;
#X msg 153 56 bang;
#X msg 192 223 250;
#X obj 153 97 *~ 2;
#X msg 175 251 0.1;
#X obj 211 54 mgUiSfPlay;
#X connect 1 0 2 0;
#X connect 2 0 0 0;
#X connect 2 0 0 1;
#X connect 3 0 7 0;
#X connect 6 0 8 0;
#X connect 7 0 9 1;
#X connect 8 0 1 1;
#X connect 10 0 1 0;
#X connect 10 0 9 0;
#X connect 11 0 13 0;
#X connect 12 0 16 0;
#X connect 13 0 14 0;
#X connect 14 0 21 1;
#X connect 15 0 24 0;
#X connect 16 0 17 0;
#X connect 17 0 11 0;
#X connect 18 0 21 0;
#X connect 19 0 18 0;
#X connect 20 0 19 0;
#X connect 21 0 24 1;
#X connect 21 0 23 0;
#X connect 21 0 26 0;
#X connect 22 0 21 2;
#X connect 23 0 27 0;
#X connect 24 0 10 0;
#X connect 25 0 26 1;
#X connect 25 0 28 0;
#X connect 26 0 24 2;
#X connect 28 0 23 0;
#X connect 29 0 28 1;
#X connect 30 0 25 0;
#X connect 31 0 34 0;
#X connect 32 0 31 0;
#X connect 33 0 30 0;
#X connect 34 0 21 3;
#X connect 35 0 29 0;
#X connect 36 0 21 4;
