#N canvas 84 22 741 650 10;
#X obj 81 382 dac~;
#X obj 81 338 *~;
#X obj 81 359 *~ 0.2;
#X obj 522 398 loadbang;
#X msg 517 423 \; pd dsp 1;
#X msg 517 460 \; pd dsp 0;
#X obj 178 338 tgl 15 0 empty empty empty 17 7 0 10 -262144 -1 -1 0
1;
#X obj 501 398 tgl 15 0 empty empty empty 17 7 0 10 -262144 -1 -1 1
1;
#X obj 108 338 mgEnvlBtAr;
#X obj -112 422 mgUiSignalDisplay;
#X obj 81 311 *~ 1;
#X obj 125 87 sig~;
#X obj 34 65 loadbang;
#X obj 125 108 lop~ 30;
#X obj 125 133 osc~;
#X floatatom 42 280 5 1 8 0 - - -;
#X msg 94 65 120;
#X floatatom 125 65 5 0 0 0 - - -;
#X obj 95 167 mgSelector2~;
#X floatatom 59 166 5 1 2 0 - - -;
#X msg 28 166 1;
#X obj 28 143 loadbang;
#X obj 81 282 mgSelector4~;
#X obj 138 241 clip~ -0.8 0.8;
#X obj 138 212 *~;
#X floatatom 167 211 5 0 20 0 - - -;
#X msg 204 210 1;
#X obj 204 187 loadbang;
#X obj 196 90 mgUiSfPlay;
#X connect 1 0 2 0;
#X connect 2 0 0 0;
#X connect 2 0 0 1;
#X connect 3 0 7 0;
#X connect 6 0 8 0;
#X connect 7 0 9 1;
#X connect 8 0 1 1;
#X connect 10 0 1 0;
#X connect 10 0 9 0;
#X connect 11 0 13 0;
#X connect 12 0 16 0;
#X connect 13 0 14 0;
#X connect 14 0 18 1;
#X connect 15 0 22 0;
#X connect 16 0 17 0;
#X connect 17 0 11 0;
#X connect 18 0 22 1;
#X connect 18 0 24 0;
#X connect 19 0 18 0;
#X connect 20 0 19 0;
#X connect 21 0 20 0;
#X connect 22 0 10 0;
#X connect 23 0 22 2;
#X connect 24 0 23 0;
#X connect 25 0 24 1;
#X connect 26 0 25 0;
#X connect 27 0 26 0;
#X connect 28 0 18 2;
