#N canvas 601 22 741 650 10;
#X obj 17 393 dac~;
#X obj 17 349 *~;
#X obj 17 370 *~ 0.2;
#X obj 527 398 loadbang;
#X msg 522 423 \; pd dsp 1;
#X msg 522 460 \; pd dsp 0;
#X obj 114 349 tgl 15 0 empty empty empty 17 7 0 10 -262144 -1 -1 0
1;
#X obj 506 398 tgl 15 0 empty empty empty 17 7 0 10 -262144 -1 -1 1
1;
#X obj 44 349 mgEnvlBtAr;
#X obj -107 422 mgUiSignalDisplay;
#X obj 17 326 *~ 1;
#X obj 60 50 sig~;
#X obj -31 28 loadbang;
#X obj 60 71 lop~ 30;
#X obj 60 96 osc~;
#X floatatom -22 302 5 1 8 0 - - -;
#X msg 29 28 120;
#X floatatom 60 28 5 0 0 0 - - -;
#X floatatom -6 129 5 1 4 0 - - -;
#X msg -37 129 1;
#X obj -37 106 loadbang;
#X obj 30 130 mgSelector4~;
#X obj 129 96 noise~;
#X obj 54 275 moog~;
#X obj 53 164 *~ 1;
#X obj 151 163 mgUiFqBrowser;
#X floatatom 105 276 5 1 100 0 - - -;
#X obj 175 277 loadbang;
#X obj 17 304 mgSelector4~;
#X obj 255 171 osc~;
#X obj 255 217 mgScaleMinMax~;
#X obj 133 249 mgSelector4~;
#X floatatom 93 247 5 1 4 0 - - -;
#X msg 65 247 1;
#X obj 65 226 loadbang;
#X obj 255 194 mgRectify~;
#X floatatom 258 143 5 0 0 0 - - -;
#X msg 144 278 3.5;
#X obj 296 170 sig~ 400;
#X obj 351 170 sig~ 2000;
#X obj 326 141 loadbang;
#X msg 295 142 0.5;
#X obj 182 53 mgUiSfPlay;
#X connect 1 0 2 0;
#X connect 2 0 0 0;
#X connect 2 0 0 1;
#X connect 3 0 7 0;
#X connect 6 0 8 0;
#X connect 7 0 9 1;
#X connect 8 0 1 1;
#X connect 10 0 1 0;
#X connect 10 0 9 0;
#X connect 11 0 13 0;
#X connect 12 0 16 0;
#X connect 13 0 14 0;
#X connect 14 0 21 1;
#X connect 15 0 28 0;
#X connect 16 0 17 0;
#X connect 17 0 11 0;
#X connect 18 0 21 0;
#X connect 19 0 18 0;
#X connect 20 0 19 0;
#X connect 21 0 28 1;
#X connect 21 0 24 0;
#X connect 22 0 21 2;
#X connect 23 0 28 2;
#X connect 24 0 23 0;
#X connect 25 0 31 1;
#X connect 26 0 23 2;
#X connect 27 0 37 0;
#X connect 28 0 10 0;
#X connect 29 0 35 0;
#X connect 30 0 31 2;
#X connect 31 0 23 1;
#X connect 32 0 31 0;
#X connect 33 0 32 0;
#X connect 34 0 33 0;
#X connect 35 0 30 0;
#X connect 36 0 29 0;
#X connect 37 0 26 0;
#X connect 38 0 30 1;
#X connect 39 0 30 2;
#X connect 40 0 41 0;
#X connect 41 0 36 0;
#X connect 42 0 21 3;
