#N canvas 746 22 855 637 10;
#X obj 12 394 dac~;
#X obj 12 350 *~;
#X obj 12 371 *~ 0.2;
#X obj 522 398 loadbang;
#X msg 517 423 \; pd dsp 1;
#X msg 517 460 \; pd dsp 0;
#X obj 109 350 tgl 15 0 empty empty empty 17 7 0 10 -262144 -1 -1 0
1;
#X obj 501 398 tgl 15 0 empty empty empty 17 7 0 10 -262144 -1 -1 1
1;
#X obj 39 350 mgEnvlBtAr;
#X obj -112 422 mgUiSignalDisplay;
#X obj 12 327 *~ 1;
#X obj 55 41 sig~;
#X obj -36 19 loadbang;
#X obj 55 62 lop~ 30;
#X obj 55 87 osc~;
#X floatatom -27 303 5 1 8 0 - - -;
#X msg 24 19 120;
#X floatatom 55 19 5 0 0 0 - - -;
#X floatatom -11 120 5 1 4 0 - - -;
#X msg -42 120 1;
#X obj -42 97 loadbang;
#X obj 25 121 mgSelector4~;
#X obj 96 89 noise~;
#X obj 52 164 *~ 1;
#X obj 12 305 mgSelector4~;
#X obj 71 271 +~;
#X obj 52 186 delwrite~ a 1000;
#X obj 145 68 click~;
#X msg 145 47 bang;
#X obj 145 88 *~ 2;
#X obj 49 217 delread~ a 10;
#X obj 137 217 delread~ a 20;
#X obj 225 216 delread~ a 25;
#X obj 81 237 delread~ a 30;
#X obj 166 237 delread~ a 60;
#X obj 252 235 delread~ a 90;
#X obj 312 215 delread~ a 50;
#X obj 339 234 delread~ a 113;
#X obj 237 270 *~ 0.1;
#X obj 193 194 unpack f f f f f f f f;
#X obj 171 269 lop~ 2000;
#X msg 183 174 30 65 84 110 150 160 180 200;
#X msg 207 152 10 19 22 29 38 48 52 58;
#X obj 445 275 freeverb~;
#X msg 511 150 roomsize \$1;
#X msg 511 172 damping \$1;
#X msg 511 199 width \$1;
#X msg 511 223 wet \$1;
#X msg 511 245 dry \$1;
#X obj 464 149 *~ 1;
#X obj 511 128 unpack f f f f f;
#X msg 510 106 0.5 0.8 0 0.7 0.3;
#X obj 201 47 mgUiSfPlay;
#X connect 1 0 2 0;
#X connect 2 0 0 0;
#X connect 2 0 0 1;
#X connect 3 0 7 0;
#X connect 6 0 8 0;
#X connect 7 0 9 1;
#X connect 8 0 1 1;
#X connect 10 0 1 0;
#X connect 10 0 9 0;
#X connect 11 0 13 0;
#X connect 12 0 16 0;
#X connect 13 0 14 0;
#X connect 14 0 21 1;
#X connect 15 0 24 0;
#X connect 16 0 17 0;
#X connect 17 0 11 0;
#X connect 18 0 21 0;
#X connect 19 0 18 0;
#X connect 20 0 19 0;
#X connect 21 0 24 1;
#X connect 21 0 23 0;
#X connect 21 0 25 0;
#X connect 21 0 49 0;
#X connect 22 0 21 2;
#X connect 23 0 26 0;
#X connect 24 0 10 0;
#X connect 25 0 24 2;
#X connect 27 0 29 0;
#X connect 28 0 27 0;
#X connect 29 0 21 3;
#X connect 30 0 40 0;
#X connect 31 0 40 0;
#X connect 32 0 40 0;
#X connect 33 0 40 0;
#X connect 34 0 40 0;
#X connect 35 0 40 0;
#X connect 36 0 40 0;
#X connect 37 0 40 0;
#X connect 38 0 23 0;
#X connect 39 0 30 0;
#X connect 39 1 31 0;
#X connect 39 2 32 0;
#X connect 39 3 36 0;
#X connect 39 4 33 0;
#X connect 39 5 34 0;
#X connect 39 6 35 0;
#X connect 39 7 37 0;
#X connect 40 0 25 1;
#X connect 40 0 38 0;
#X connect 41 0 39 0;
#X connect 42 0 39 0;
#X connect 43 0 24 3;
#X connect 44 0 43 0;
#X connect 45 0 43 0;
#X connect 46 0 43 0;
#X connect 47 0 43 0;
#X connect 48 0 43 0;
#X connect 49 0 43 0;
#X connect 49 0 43 1;
#X connect 50 0 44 0;
#X connect 50 1 45 0;
#X connect 50 2 46 0;
#X connect 50 3 47 0;
#X connect 50 4 48 0;
#X connect 51 0 50 0;
#X connect 52 0 21 4;
