#N canvas 601 22 741 650 10;
#X obj 12 393 dac~;
#X obj 12 349 *~;
#X obj 12 370 *~ 0.2;
#X obj 522 398 loadbang;
#X msg 517 423 \; pd dsp 1;
#X msg 517 460 \; pd dsp 0;
#X obj 109 349 tgl 15 0 empty empty empty 17 7 0 10 -262144 -1 -1 1
1;
#X obj 501 398 tgl 15 0 empty empty empty 17 7 0 10 -262144 -1 -1 1
1;
#X obj 39 349 mgEnvlBtAr;
#X obj -112 422 mgUiSignalDisplay;
#X obj 12 326 *~ 1;
#X obj 55 50 sig~;
#X obj -36 28 loadbang;
#X obj 55 71 lop~ 30;
#X obj 55 96 osc~;
#X floatatom -27 302 5 1 8 0 - - -;
#X msg 24 28 120;
#X floatatom 55 28 5 0 0 0 - - -;
#X floatatom -11 129 5 1 4 0 - - -;
#X msg -42 129 1;
#X obj -42 106 loadbang;
#X obj 25 130 mgSelector4~;
#X obj 96 98 noise~;
#X obj 72 164 *~ 1;
#X obj 12 304 mgSelector4~;
#X obj 61 251 +~;
#X obj 72 190 delwrite~ a 1000;
#X obj 104 251 *~;
#X floatatom 131 252 5 0 1 0 - - -;
#X obj 145 77 click~;
#X msg 145 56 bang;
#X obj 145 97 *~ 2;
#X msg 167 251 0.1;
#X obj 75 221 vd~ a;
#X obj 201 179 osc~;
#X obj 201 225 mgScaleMinMax~;
#X obj 201 202 mgRectify~;
#X floatatom 201 156 5 0 2000 0 - - -;
#X obj 269 154 loadbang;
#X msg 238 155 0.5;
#X obj 286 179 sig~ 6;
#X obj 242 178 sig~ 2;
#X obj 194 53 mgUiSfPlay;
#X connect 1 0 2 0;
#X connect 2 0 0 0;
#X connect 2 0 0 1;
#X connect 3 0 7 0;
#X connect 6 0 8 0;
#X connect 7 0 9 1;
#X connect 8 0 1 1;
#X connect 10 0 1 0;
#X connect 10 0 9 0;
#X connect 11 0 13 0;
#X connect 12 0 16 0;
#X connect 13 0 14 0;
#X connect 14 0 21 1;
#X connect 15 0 24 0;
#X connect 16 0 17 0;
#X connect 17 0 11 0;
#X connect 18 0 21 0;
#X connect 19 0 18 0;
#X connect 20 0 19 0;
#X connect 21 0 24 1;
#X connect 21 0 23 0;
#X connect 21 0 25 0;
#X connect 22 0 21 2;
#X connect 23 0 26 0;
#X connect 24 0 10 0;
#X connect 25 0 24 2;
#X connect 27 0 23 0;
#X connect 28 0 27 1;
#X connect 29 0 31 0;
#X connect 30 0 29 0;
#X connect 31 0 21 3;
#X connect 32 0 28 0;
#X connect 33 0 25 1;
#X connect 33 0 27 0;
#X connect 34 0 36 0;
#X connect 35 0 33 0;
#X connect 36 0 35 0;
#X connect 37 0 34 0;
#X connect 38 0 39 0;
#X connect 39 0 37 0;
#X connect 40 0 35 2;
#X connect 41 0 35 1;
#X connect 42 0 21 4;
