#N canvas 562 22 741 650 10;
#X obj 12 393 dac~;
#X obj 12 349 *~;
#X obj 12 370 *~ 0.2;
#X obj 522 398 loadbang;
#X msg 517 423 \; pd dsp 1;
#X msg 517 460 \; pd dsp 0;
#X obj 109 349 tgl 15 0 empty empty empty 17 7 0 10 -262144 -1 -1 0
1;
#X obj 501 398 tgl 15 0 empty empty empty 17 7 0 10 -262144 -1 -1 1
1;
#X obj 39 349 mgEnvlBtAr;
#X obj -112 422 mgUiSignalDisplay;
#X obj 12 326 *~ 1;
#X obj 55 50 sig~;
#X obj -36 28 loadbang;
#X obj 55 71 lop~ 30;
#X obj 55 96 osc~;
#X floatatom -27 302 5 1 8 0 - - -;
#X msg 24 28 120;
#X floatatom 55 28 5 0 0 0 - - -;
#X floatatom -11 129 5 1 4 0 - - -;
#X msg -42 129 1;
#X obj -42 106 loadbang;
#X obj 48 253 lop~;
#X obj 153 249 hip~;
#X obj 12 304 mgSelector8~ _______;
#X obj 48 158 *~ 1;
#X obj 153 157 *~ 1;
#X obj 57 182 mgUiFqBrowser;
#X obj 166 181 mgUiFqBrowser;
#X obj 25 130 mgSelector4~;
#X obj 124 96 noise~;
#X obj 263 248 vcf~;
#X obj 271 180 mgUiFqBrowser;
#X obj 263 157 *~ 1;
#X floatatom 302 248 5 1 100 0 - - -;
#X msg 341 249 30;
#X obj 372 249 loadbang;
#X text 85 160 lowpass;
#X text 189 161 highpass;
#X text 300 158 bandpass;
#X obj 185 54 mgUiSfPlay;
#X connect 1 0 2 0;
#X connect 2 0 0 0;
#X connect 2 0 0 1;
#X connect 3 0 7 0;
#X connect 6 0 8 0;
#X connect 7 0 9 1;
#X connect 8 0 1 1;
#X connect 10 0 1 0;
#X connect 10 0 9 0;
#X connect 11 0 13 0;
#X connect 12 0 16 0;
#X connect 13 0 14 0;
#X connect 14 0 28 1;
#X connect 15 0 23 0;
#X connect 16 0 17 0;
#X connect 17 0 11 0;
#X connect 18 0 28 0;
#X connect 19 0 18 0;
#X connect 20 0 19 0;
#X connect 21 0 23 2;
#X connect 22 0 23 3;
#X connect 23 0 10 0;
#X connect 24 0 21 0;
#X connect 25 0 22 0;
#X connect 26 1 21 1;
#X connect 27 1 22 1;
#X connect 28 0 23 1;
#X connect 28 0 24 0;
#X connect 28 0 25 0;
#X connect 28 0 32 0;
#X connect 29 0 28 2;
#X connect 30 0 23 4;
#X connect 31 0 30 1;
#X connect 32 0 30 0;
#X connect 33 0 30 2;
#X connect 34 0 33 0;
#X connect 35 0 34 0;
#X connect 39 0 28 3;
