#N canvas 757 44 763 572 10;
#X obj 317 239 *~ 1;
#X obj 317 305 dac~;
#X obj 317 261 *~;
#X obj 317 282 *~ 0.2;
#X obj 441 258 loadbang;
#X obj 645 315 loadbang;
#X obj 95 82 mtof;
#X msg 95 18 50;
#X msg 640 340 \; pd dsp 1;
#X msg 640 377 \; pd dsp 0;
#X floatatom 95 40 5 0 120 0 - - -;
#X obj 594 106 mgTableWaveSaw;
#X obj 31 105 mgOscSaw;
#X obj 94 105 osc~ 220;
#X obj 414 261 tgl 15 0 empty empty empty 17 7 0 10 -262144 -1 -1 1
1;
#X obj 624 315 tgl 15 0 empty empty empty 17 7 0 10 -262144 -1 -1 1
1;
#X obj 344 261 mgEnvlBtAr;
#X obj 93 168 *~;
#X obj 11 339 mgUiSignalDisplay;
#X obj 119 169 mgEnvlMtAr 30 30 60;
#X msg 236 -25 bang;
#X obj 264 21 delay 20;
#X obj 236 -3 t b b;
#X obj 413 87 mtof;
#X obj 412 110 osc~ 220;
#X obj 415 64 + 1;
#X obj 95 61 t f f;
#X obj 413 164 *~;
#X obj 439 165 mgEnvlMtAr 30 30 60;
#X msg 119 146 1;
#X msg 439 143 1;
#X floatatom 321 22 5 0 200 0 - - -;
#X obj 416 199 *~ 1;
#X obj 94 198 *~ 1;
#X floatatom 131 197 5 0 10 0 - - -;
#X floatatom 444 64 5 0 0 0 - - -;
#X floatatom 450 199 5 0 4 0 - - -;
#X obj 355 112 mgOscSaw;
#X obj 360 139 mgSelector2~;
#X obj 37 143 mgSelector2~;
#X obj 238 101 t f f;
#X msg 238 77 1;
#X msg 269 76 2;
#X connect 0 0 2 0;
#X connect 0 0 18 0;
#X connect 2 0 3 0;
#X connect 3 0 1 0;
#X connect 3 0 1 1;
#X connect 5 0 15 0;
#X connect 6 0 13 0;
#X connect 6 0 12 0;
#X connect 7 0 10 0;
#X connect 10 0 26 0;
#X connect 12 0 39 1;
#X connect 13 0 39 2;
#X connect 14 0 16 0;
#X connect 15 0 18 1;
#X connect 16 0 2 1;
#X connect 17 0 33 0;
#X connect 19 0 17 1;
#X connect 20 0 22 0;
#X connect 21 0 30 0;
#X connect 22 0 29 0;
#X connect 22 1 21 0;
#X connect 23 0 24 0;
#X connect 23 0 37 0;
#X connect 24 0 38 2;
#X connect 25 0 23 0;
#X connect 26 0 6 0;
#X connect 26 1 25 0;
#X connect 27 0 32 0;
#X connect 28 0 27 1;
#X connect 29 0 19 0;
#X connect 30 0 28 0;
#X connect 31 0 21 1;
#X connect 32 0 0 0;
#X connect 33 0 0 0;
#X connect 34 0 33 1;
#X connect 35 0 25 1;
#X connect 36 0 32 1;
#X connect 37 0 38 1;
#X connect 38 0 27 0;
#X connect 39 0 17 0;
#X connect 40 0 39 0;
#X connect 40 1 38 0;
#X connect 41 0 40 0;
#X connect 42 0 40 0;
