#N canvas 785 22 824 619 10;
#X obj 174 304 *~ 1;
#X obj 207 348 dac~;
#X obj 207 304 *~;
#X obj 207 325 *~ 0.2;
#X obj 678 350 loadbang;
#X msg 673 375 \; pd dsp 1;
#X msg 673 412 \; pd dsp 0;
#X obj 374 304 tgl 15 0 empty empty empty 17 7 0 10 -262144 -1 -1 1
1;
#X obj 657 350 tgl 15 0 empty empty empty 17 7 0 10 -262144 -1 -1 1
1;
#X obj 304 304 mgEnvlBtAr;
#X obj 44 374 mgUiSignalDisplay;
#X obj 252 303 *~;
#X obj 252 324 *~ 0.2;
#X obj 222 266 mgPanStereoSqrt;
#X obj 356 206 line;
#X msg 355 154 0;
#X msg 384 152 1;
#X obj 356 181 pack f 1000;
#X floatatom 356 231 5 0 0 0 - - -;
#X obj 147 96 +~;
#X msg 183 25 50;
#X floatatom 146 25 5 0 120 0 - - -;
#X obj 146 152 mgOscTri;
#X obj 147 124 mtof~;
#X obj 146 45 sig~;
#X obj 208 152 mgOscSaw;
#X obj 82 152 osc~ 220;
#X obj 266 152 mgOscSquare;
#X obj 147 192 mgSelector4~;
#X floatatom 110 193 5 1 4 0 - - -;
#X obj 220 25 loadbang;
#X obj 146 66 lop~ 30;
#X msg 78 192 1;
#X obj 20 191 loadbang;
#X obj 545 166 mgTableWaveTri;
#X obj 545 144 mgTableWaveSaw;
#X obj 545 188 mgTableWaveSquare;
#X connect 0 0 10 0;
#X connect 2 0 3 0;
#X connect 3 0 1 0;
#X connect 4 0 8 0;
#X connect 7 0 9 0;
#X connect 8 0 10 1;
#X connect 9 0 11 1;
#X connect 9 0 2 1;
#X connect 11 0 12 0;
#X connect 12 0 1 1;
#X connect 13 0 2 0;
#X connect 13 0 0 0;
#X connect 13 1 11 0;
#X connect 13 1 0 0;
#X connect 14 0 18 0;
#X connect 15 0 17 0;
#X connect 16 0 17 0;
#X connect 17 0 14 0;
#X connect 18 0 13 1;
#X connect 19 0 23 0;
#X connect 20 0 21 0;
#X connect 21 0 24 0;
#X connect 22 0 28 2;
#X connect 23 0 22 0;
#X connect 23 0 26 0;
#X connect 23 0 25 0;
#X connect 23 0 27 0;
#X connect 24 0 31 0;
#X connect 25 0 28 3;
#X connect 26 0 28 1;
#X connect 27 0 28 4;
#X connect 28 0 13 0;
#X connect 29 0 28 0;
#X connect 30 0 20 0;
#X connect 31 0 19 0;
#X connect 32 0 29 0;
#X connect 33 0 32 0;
