#N canvas 86 22 788 622 10;
#X obj 183 6 openpanel;
#X msg 183 -13 bang;
#X obj 253 340 dac~;
#X obj 253 296 *~;
#X obj 475 314 loadbang;
#X msg 491 366 \; pd dsp 1;
#X msg 491 406 \; pd dsp 0;
#X obj 351 297 tgl 15 0 empty empty empty 17 7 0 10 -262144 -1 -1 0
1;
#X obj 475 339 tgl 15 0 empty empty empty 17 7 0 10 -262144 -1 -1 1
1;
#X obj 280 296 mgEnvlBtAr;
#N canvas 0 22 450 300 (subpatch) 0;
#X array samplePlayerA 24516 float 0;
#X coords 0 2 24515 -2 300 150 1;
#X restore -130 3 graph;
#X obj -137 367 mgUiSignalDisplay;
#X obj 184 128 hip~;
#X obj 184 148 lop~;
#X floatatom 222 128 10 0 20000 0 - - -;
#X floatatom 221 148 10 0 20000 0 - - -;
#X msg 292 128 20;
#X msg 292 148 20000;
#X obj 333 116 loadbang;
#X floatatom 200 70 10 0 0 0 - - -;
#X floatatom 266 70 10 0 1 0 - - -;
#X floatatom 332 70 10 0 1 0 - - -;
#N canvas 0 22 450 300 (subpatch) 0;
#X array samplePlayerB 2.34902e+06 float 0;
#X coords 0 2 2.34901e+06 -2 300 150 1;
#X restore -131 173 graph;
#X msg 247 -12 \; samplePlayerA normalize;
#X obj 404 6 openpanel;
#X msg 404 -13 bang;
#X floatatom 421 70 10 0 0 0 - - -;
#X floatatom 487 70 10 0 1 0 - - -;
#X floatatom 553 70 10 0 1 0 - - -;
#X obj 405 131 hip~;
#X obj 405 151 lop~;
#X floatatom 443 131 10 0 20000 0 - - -;
#X floatatom 442 151 10 0 20000 0 - - -;
#X msg 513 131 20;
#X msg 513 151 20000;
#X msg 183 25 read -resize \$1 samplePlayerA;
#X msg 404 25 read -resize \$1 samplePlayerB;
#X obj 179 336 *~ 1;
#X obj 555 133 loadbang;
#X msg 466 -12 \; samplePlayerB normalize;
#X obj 380 297 writesf~ 1;
#X msg 401 250 start;
#X msg 401 270 stop;
#X msg 448 230 bang;
#X obj 448 270 prepend open;
#X obj 448 250 savepanel;
#X obj 298 316 loadbang;
#X obj 253 256 *~ 1;
#X obj 184 170 *~;
#X obj 405 170 *~;
#X obj 217 170 mgUiAmpBrowser;
#X obj 438 170 mgUiAmpBrowser;
#X obj 253 317 *~ 0.9;
#X msg 200 47 1;
#X msg 266 47 0;
#X msg 421 47 1;
#X msg 487 47 0;
#X obj 339 48 loadbang;
#X obj 300 47 t b b;
#X obj 564 47 loadbang;
#X obj 525 47 t b b;
#X obj 184 89 mgSoundfilerControl;
#X obj 405 89 mgSoundfilerControl;
#X obj 184 108 tabread4~ samplePlayerA;
#X obj 405 108 tabread4~ samplePlayerB;
#X connect 0 0 35 0;
#X connect 1 0 0 0;
#X connect 3 0 52 0;
#X connect 4 0 8 0;
#X connect 7 0 9 0;
#X connect 8 0 11 1;
#X connect 9 0 3 1;
#X connect 12 0 13 0;
#X connect 13 0 48 0;
#X connect 14 0 12 1;
#X connect 15 0 13 1;
#X connect 16 0 14 0;
#X connect 17 0 15 0;
#X connect 18 0 16 0;
#X connect 18 0 17 0;
#X connect 19 0 61 1;
#X connect 20 0 61 2;
#X connect 21 0 61 3;
#X connect 24 0 36 0;
#X connect 25 0 24 0;
#X connect 26 0 62 1;
#X connect 27 0 62 2;
#X connect 28 0 62 3;
#X connect 29 0 30 0;
#X connect 30 0 49 0;
#X connect 31 0 29 1;
#X connect 32 0 30 1;
#X connect 33 0 31 0;
#X connect 34 0 32 0;
#X connect 35 0 61 0;
#X connect 36 0 62 0;
#X connect 37 0 11 0;
#X connect 38 0 33 0;
#X connect 38 0 34 0;
#X connect 41 0 40 0;
#X connect 42 0 40 0;
#X connect 43 0 45 0;
#X connect 44 0 40 0;
#X connect 45 0 44 0;
#X connect 46 0 7 0;
#X connect 47 0 3 0;
#X connect 47 0 37 0;
#X connect 47 0 40 0;
#X connect 48 0 47 0;
#X connect 49 0 47 0;
#X connect 50 0 48 1;
#X connect 51 0 49 1;
#X connect 52 0 2 0;
#X connect 52 0 2 1;
#X connect 53 0 21 0;
#X connect 53 0 19 0;
#X connect 54 0 20 0;
#X connect 55 0 28 0;
#X connect 55 0 26 0;
#X connect 56 0 27 0;
#X connect 57 0 58 0;
#X connect 58 0 53 0;
#X connect 58 1 54 0;
#X connect 59 0 60 0;
#X connect 60 0 55 0;
#X connect 60 1 56 0;
#X connect 61 0 63 0;
#X connect 62 0 64 0;
#X connect 63 0 12 0;
#X connect 64 0 29 0;
