#N canvas 757 100 757 606 10;
#X obj 208 275 *~ 1;
#X obj 207 348 dac~;
#X obj 207 304 *~;
#X obj 207 325 *~ 0.2;
#X obj 678 350 loadbang;
#X msg 673 375 \; pd dsp 1;
#X msg 673 412 \; pd dsp 0;
#X obj 304 304 tgl 15 0 empty empty empty 17 7 0 10 -262144 -1 -1 1
1;
#X obj 657 350 tgl 15 0 empty empty empty 17 7 0 10 -262144 -1 -1 1
1;
#X obj 234 304 mgEnvlBtAr;
#X obj 44 374 mgUiSignalDisplay;
#X floatatom 52 46 5 0 120 0 - - -;
#X obj 52 66 sig~;
#X obj 52 137 osc~ 220;
#X obj 208 250 mgSelector4~;
#X floatatom 171 251 5 1 4 0 - - -;
#X obj 126 46 loadbang;
#X obj 52 87 lop~ 30;
#X msg 139 250 1;
#X obj 81 249 loadbang;
#X obj 238 192 samphold~;
#X obj 289 172 phasor~;
#X msg 356 111 50;
#X obj 289 130 sig~;
#X obj 386 111 loadbang;
#X obj 289 150 lop~ 30;
#X obj 290 90 mgScaleMinMaxExp 60 18000 4;
#X floatatom 290 111 10 0 0 0 - - -;
#X floatatom 290 71 5 0 1 0 - - -;
#X msg 126 70 0;
#X msg 89 46 220;
#X obj 365 230 lop~ 600;
#X obj 365 252 lop~ 600;
#X obj 365 273 hip~ 60;
#X connect 0 0 2 0;
#X connect 0 0 10 0;
#X connect 2 0 3 0;
#X connect 3 0 1 0;
#X connect 3 0 1 1;
#X connect 4 0 8 0;
#X connect 7 0 9 0;
#X connect 8 0 10 1;
#X connect 9 0 2 1;
#X connect 11 0 12 0;
#X connect 12 0 17 0;
#X connect 13 0 14 1;
#X connect 13 0 20 0;
#X connect 14 0 0 0;
#X connect 15 0 14 0;
#X connect 16 0 30 0;
#X connect 16 0 29 0;
#X connect 17 0 13 0;
#X connect 18 0 15 0;
#X connect 19 0 18 0;
#X connect 20 0 14 2;
#X connect 20 0 31 0;
#X connect 21 0 20 1;
#X connect 22 0 27 0;
#X connect 23 0 25 0;
#X connect 24 0 22 0;
#X connect 25 0 21 0;
#X connect 26 0 27 0;
#X connect 27 0 23 0;
#X connect 28 0 26 0;
#X connect 29 0 21 1;
#X connect 29 0 13 1;
#X connect 30 0 11 0;
#X connect 31 0 32 0;
#X connect 32 0 33 0;
#X connect 33 0 14 3;
