#N canvas 313 22 763 572 10;
#X obj 257 217 *~ 1;
#X obj 256 290 dac~;
#X obj 256 246 *~;
#X obj 645 315 loadbang;
#X obj 226 89 mtof;
#X msg 215 37 50;
#X msg 640 340 \; pd dsp 1;
#X msg 640 377 \; pd dsp 0;
#X floatatom 243 37 5 0 120 0 - - -;
#X obj 644 115 mgTableWaveSaw;
#X obj 234 140 mgOscSaw;
#X obj 115 139 osc~ 220;
#X obj 353 246 tgl 15 0 empty empty empty 17 7 0 10 -262144 -1 -1 1
1;
#X obj 624 315 tgl 15 0 empty empty empty 17 7 0 10 -262144 -1 -1 1
1;
#X obj 234 162 *~;
#X obj 331 162 tgl 15 0 empty empty empty 17 7 0 10 -262144 -1 -1 0
1;
#X obj 261 162 mgEnvlBtAr;
#X obj 283 246 mgEnvlBtAr;
#X obj 644 137 mgTableWaveTri;
#X obj 363 157 *~;
#X obj 460 157 tgl 15 0 empty empty empty 17 7 0 10 -262144 -1 -1 0
1;
#X obj 390 157 mgEnvlBtAr;
#X obj 363 135 mgOscTri;
#X obj 114 162 *~;
#X obj 211 162 tgl 15 0 empty empty empty 17 7 0 10 -262144 -1 -1 0
1;
#X obj 141 162 mgEnvlBtAr;
#X obj 487 157 *~;
#X obj 584 157 tgl 15 0 empty empty empty 17 7 0 10 -262144 -1 -1 0
1;
#X obj 514 157 mgEnvlBtAr;
#X obj 487 135 mgOscSquare;
#X obj 644 159 mgTableWaveSquare;
#X obj 290 26 mgHwNanoKey;
#X floatatom 365 50 5 0 0 0 - - -;
#X obj 290 50 unpack 0 0;
#X obj 11 339 mgUiSignalDisplay;
#X msg 328 216 0;
#X msg 297 216 1;
#X obj 256 267 *~ 0.2;
#X obj -3 164 *~;
#X obj 94 164 tgl 15 0 empty empty empty 17 7 0 10 -262144 -1 -1 0
1;
#X obj 24 164 mgEnvlBtAr;
#X obj -2 141 noise~;
#X obj 151 36 loadbang;
#X connect 0 0 2 0;
#X connect 0 0 34 0;
#X connect 2 0 37 0;
#X connect 3 0 13 0;
#X connect 4 0 10 0;
#X connect 4 0 22 0;
#X connect 4 0 11 0;
#X connect 4 0 29 0;
#X connect 5 0 4 0;
#X connect 8 0 4 0;
#X connect 10 0 14 0;
#X connect 11 0 23 0;
#X connect 12 0 17 0;
#X connect 13 0 34 1;
#X connect 14 0 0 0;
#X connect 15 0 16 0;
#X connect 16 0 14 1;
#X connect 17 0 2 1;
#X connect 19 0 0 0;
#X connect 20 0 21 0;
#X connect 21 0 19 1;
#X connect 22 0 19 0;
#X connect 23 0 0 0;
#X connect 24 0 25 0;
#X connect 25 0 23 1;
#X connect 26 0 0 0;
#X connect 27 0 28 0;
#X connect 28 0 26 1;
#X connect 29 0 26 0;
#X connect 31 0 33 0;
#X connect 33 0 32 0;
#X connect 33 0 4 0;
#X connect 35 0 0 1;
#X connect 36 0 0 1;
#X connect 37 0 1 0;
#X connect 37 0 1 1;
#X connect 38 0 0 0;
#X connect 39 0 40 0;
#X connect 40 0 38 1;
#X connect 41 0 38 0;
#X connect 42 0 5 0;
