#N canvas 48 22 917 642 10;
#X obj 29 181 osc~;
#X floatatom 28 156 5 0 0 0 - - -;
#X msg 62 131 220;
#X obj 119 306 *~ 1;
#X obj 118 379 dac~;
#X obj 118 335 *~;
#X obj 118 356 *~ 0.2;
#X obj 29 202 *~;
#X obj 168 202 *~;
#X obj 168 181 noise~;
#X obj 329 179 osc~;
#X obj 329 204 *~;
#X obj 310 204 tgl 15 0 empty empty empty 17 7 0 10 -262144 -1 -1 0
1;
#X obj 376 179 osc~;
#X obj 376 204 *~;
#X obj 357 204 tgl 15 0 empty empty empty 17 7 0 10 -262144 -1 -1 0
1;
#X obj 429 179 osc~;
#X obj 429 204 *~;
#X obj 410 204 tgl 15 0 empty empty empty 17 7 0 10 -262144 -1 -1 0
1;
#X obj 476 179 osc~;
#X obj 476 204 *~;
#X obj 457 204 tgl 15 0 empty empty empty 17 7 0 10 -262144 -1 -1 0
1;
#X obj 329 228 *~;
#X obj 375 228 *~;
#X obj 428 228 *~;
#X obj 477 227 *~;
#X obj 534 179 osc~;
#X obj 534 204 *~;
#X obj 515 204 tgl 15 0 empty empty empty 17 7 0 10 -262144 -1 -1 0
1;
#X obj 581 179 osc~;
#X obj 581 204 *~;
#X obj 562 204 tgl 15 0 empty empty empty 17 7 0 10 -262144 -1 -1 0
1;
#X obj 634 179 osc~;
#X obj 634 204 *~;
#X obj 615 204 tgl 15 0 empty empty empty 17 7 0 10 -262144 -1 -1 0
1;
#X obj 672 204 tgl 15 0 empty empty empty 17 7 0 10 -262144 -1 -1 0
1;
#X obj 534 228 *~;
#X obj 580 228 *~;
#X obj 633 228 *~;
#X obj 330 253 *~ 1;
#X obj 352 134 unpack f f f f f f f f;
#X obj 520 136 unpack f f f f f f f f;
#X obj 724 135 unpack f f f f f f f f;
#X msg 728 102 1 1 1 1 1 1 1 1;
#X msg 388 53 60 120 340 560 843 1200 2400 5400;
#X obj 328 276 *~;
#X msg 518 112 0.5 0.5 0.5 0.5 0.5 0.5 0.5 0.5;
#N canvas 248 473 524 361 harmonic 0;
#X obj 81 28 inlet;
#X obj 77 119 * 1;
#X obj 113 119 * 2;
#X obj 146 119 * 3;
#X obj 182 119 * 4;
#X obj 222 119 * 5;
#X obj 258 119 * 6;
#X obj 291 115 * 7;
#X obj 161 194 pack f f f f f f f f;
#X obj 79 81 f;
#X obj 166 244 outlet;
#X obj 322 117 * 8;
#X connect 0 0 9 0;
#X connect 1 0 8 0;
#X connect 2 0 8 1;
#X connect 3 0 8 2;
#X connect 4 0 8 3;
#X connect 5 0 8 4;
#X connect 6 0 8 5;
#X connect 7 0 8 6;
#X connect 8 0 10 0;
#X connect 9 0 1 0;
#X connect 9 0 2 0;
#X connect 9 0 3 0;
#X connect 9 0 4 0;
#X connect 9 0 5 0;
#X connect 9 0 6 0;
#X connect 9 0 7 0;
#X connect 9 0 11 1;
#X connect 11 0 8 6;
#X restore 288 76 pd harmonic;
#X floatatom 288 49 5 0 0 0 - - -;
#X msg 384 30 234 289 599 738 1294 2388 3299 6384;
#X obj 640 384 loadbang;
#X obj 195 203 mgEnvlBtAr;
#X obj 56 202 mgEnvlBtAr;
#X msg 657 436 \; pd dsp 1;
#X msg 657 472 \; pd dsp 0;
#X msg 30 131 110;
#X msg 96 131 440;
#X msg 128 131 880;
#X obj 27 435 mgUiSignalDisplay;
#X msg 369 8 120 240 360 480 600 720 840 960;
#X obj 692 180 osc~;
#X obj 692 203 *~;
#X obj 692 224 *~;
#X obj 876 136 t f;
#X msg 877 99 1;
#X msg 516 85 1 0.5 0.333333 0.25 0.2 0.166667 0.142857 0.125;
#X obj 423 275 tgl 15 0 empty empty empty 17 7 0 10 -262144 -1 -1 0
1;
#X obj 265 204 tgl 15 0 empty empty empty 17 7 0 10 -262144 -1 -1 0
1;
#X obj 125 202 tgl 15 0 empty empty empty 17 7 0 10 -262144 -1 -1 0
1;
#X obj 216 336 tgl 15 0 empty empty empty 17 7 0 10 -262144 -1 -1 0
1;
#X obj 640 409 tgl 15 0 empty empty empty 17 7 0 10 -262144 -1 -1 1
1;
#X obj 145 335 mgEnvlBtAr;
#X obj 354 276 mgEnvlBtAr;
#X connect 0 0 7 0;
#X connect 1 0 0 0;
#X connect 2 0 1 0;
#X connect 3 0 5 0;
#X connect 3 0 58 0;
#X connect 5 0 6 0;
#X connect 6 0 4 0;
#X connect 6 0 4 1;
#X connect 7 0 3 0;
#X connect 8 0 3 0;
#X connect 9 0 8 0;
#X connect 10 0 11 0;
#X connect 11 0 22 0;
#X connect 12 0 11 1;
#X connect 13 0 14 0;
#X connect 14 0 23 0;
#X connect 15 0 14 1;
#X connect 16 0 17 0;
#X connect 17 0 24 0;
#X connect 18 0 17 1;
#X connect 19 0 20 0;
#X connect 20 0 25 0;
#X connect 21 0 20 1;
#X connect 22 0 39 0;
#X connect 23 0 39 0;
#X connect 24 0 39 0;
#X connect 25 0 39 0;
#X connect 26 0 27 0;
#X connect 27 0 36 0;
#X connect 28 0 27 1;
#X connect 29 0 30 0;
#X connect 30 0 37 0;
#X connect 31 0 30 1;
#X connect 32 0 33 0;
#X connect 33 0 38 0;
#X connect 34 0 33 1;
#X connect 35 0 61 1;
#X connect 36 0 39 0;
#X connect 37 0 39 0;
#X connect 38 0 39 0;
#X connect 39 0 45 0;
#X connect 40 0 10 0;
#X connect 40 1 13 0;
#X connect 40 2 16 0;
#X connect 40 3 19 0;
#X connect 40 4 26 0;
#X connect 40 5 29 0;
#X connect 40 6 32 0;
#X connect 40 7 60 0;
#X connect 41 0 22 1;
#X connect 41 1 23 1;
#X connect 41 2 24 1;
#X connect 41 3 25 1;
#X connect 41 4 36 1;
#X connect 41 5 37 1;
#X connect 41 6 38 1;
#X connect 41 7 62 1;
#X connect 42 0 12 0;
#X connect 42 1 15 0;
#X connect 42 2 18 0;
#X connect 42 3 21 0;
#X connect 42 4 28 0;
#X connect 42 5 31 0;
#X connect 42 6 34 0;
#X connect 42 7 35 0;
#X connect 43 0 42 0;
#X connect 44 0 40 0;
#X connect 45 0 3 0;
#X connect 46 0 41 0;
#X connect 47 0 40 0;
#X connect 48 0 47 0;
#X connect 49 0 40 0;
#X connect 50 0 70 0;
#X connect 51 0 8 1;
#X connect 52 0 7 1;
#X connect 55 0 1 0;
#X connect 56 0 1 0;
#X connect 57 0 1 0;
#X connect 59 0 40 0;
#X connect 60 0 61 0;
#X connect 61 0 62 0;
#X connect 62 0 39 0;
#X connect 63 0 60 1;
#X connect 63 0 32 1;
#X connect 63 0 29 1;
#X connect 63 0 26 1;
#X connect 63 0 19 1;
#X connect 63 0 16 1;
#X connect 63 0 13 1;
#X connect 63 0 10 1;
#X connect 64 0 63 0;
#X connect 65 0 41 0;
#X connect 66 0 72 0;
#X connect 67 0 51 0;
#X connect 68 0 52 0;
#X connect 69 0 71 0;
#X connect 70 0 58 1;
#X connect 71 0 5 1;
#X connect 72 0 45 1;
