#N canvas 509 22 797 591 10;
#X obj 28 124 osc~;
#X obj 68 128 osc~;
#X obj 111 124 osc~;
#X obj 116 321 dac~;
#X obj 116 277 *~;
#X obj 634 285 loadbang;
#X msg 656 345 \; pd dsp 1;
#X msg 656 381 \; pd dsp 0;
#X obj 214 278 tgl 15 0 empty empty empty 17 7 0 10 -262144 -1 -1 0
1;
#X obj 642 319 tgl 15 0 empty empty empty 17 7 0 10 -262144 -1 -1 1
1;
#X obj 143 277 mgEnvlBtAr;
#X obj 135 299 *~;
#X obj 233 300 tgl 15 0 empty empty empty 17 7 0 10 -262144 -1 -1 0
1;
#X obj 162 299 mgEnvlBtAr;
#X floatatom 58 21 5 0 0 0 - - -;
#X obj 28 102 * 227;
#X obj 68 102 * 229;
#X obj 111 102 * 233;
#X obj 156 124 osc~;
#X obj 196 124 osc~;
#X obj 239 124 osc~;
#X obj 156 102 * 239;
#X obj 196 102 * 241;
#X obj 239 102 * 251;
#X obj 278 126 osc~;
#X obj 319 124 osc~;
#X obj 362 124 osc~;
#X obj 279 102 * 257;
#X obj 320 98 * 263;
#X obj 362 98 * 269;
#X obj 402 124 osc~;
#X obj 441 124 osc~;
#X obj 482 124 osc~;
#X obj 525 124 osc~;
#X obj 402 98 * 271;
#X obj 440 102 * 277;
#X obj 483 98 * 281;
#X obj 527 98 * 283;
#X obj 573 124 osc~;
#X obj 616 124 osc~;
#X obj 573 98 * 279;
#X obj 618 98 * 261;
#X obj 207 185 *~ 0.1;
#X obj 370 194 *~ 0.1;
#X obj 560 192 *~ 0.1;
#X obj 24 200 *~ 0.1;
#X msg 27 23 7;
#X obj 665 125 osc~;
#X obj 666 99 * 288;
#X obj 95 19 loadbang;
#X obj 28 345 mgUiSignalDisplay;
#X obj 75 58 f;
#X connect 0 0 45 0;
#X connect 1 0 45 0;
#X connect 2 0 45 0;
#X connect 4 0 3 0;
#X connect 4 0 50 0;
#X connect 5 0 9 0;
#X connect 8 0 10 0;
#X connect 9 0 50 1;
#X connect 10 0 4 1;
#X connect 11 0 3 1;
#X connect 11 0 50 0;
#X connect 12 0 13 0;
#X connect 13 0 11 1;
#X connect 14 0 51 0;
#X connect 15 0 0 0;
#X connect 16 0 1 0;
#X connect 17 0 2 0;
#X connect 18 0 45 0;
#X connect 19 0 42 0;
#X connect 20 0 42 0;
#X connect 21 0 18 0;
#X connect 22 0 19 0;
#X connect 23 0 20 0;
#X connect 24 0 42 0;
#X connect 25 0 42 0;
#X connect 26 0 43 0;
#X connect 27 0 24 0;
#X connect 28 0 25 0;
#X connect 29 0 26 0;
#X connect 30 0 43 0;
#X connect 31 0 43 0;
#X connect 32 0 43 0;
#X connect 33 0 44 0;
#X connect 34 0 30 0;
#X connect 35 0 31 0;
#X connect 36 0 32 0;
#X connect 37 0 33 0;
#X connect 38 0 44 0;
#X connect 39 0 44 0;
#X connect 40 0 38 0;
#X connect 41 0 39 0;
#X connect 42 0 11 0;
#X connect 43 0 4 0;
#X connect 44 0 11 0;
#X connect 45 0 4 0;
#X connect 46 0 51 0;
#X connect 47 0 44 0;
#X connect 48 0 47 0;
#X connect 49 0 46 0;
#X connect 51 0 15 0;
#X connect 51 0 16 0;
#X connect 51 0 17 0;
#X connect 51 0 21 0;
#X connect 51 0 22 0;
#X connect 51 0 23 0;
#X connect 51 0 27 0;
#X connect 51 0 28 0;
#X connect 51 0 29 0;
#X connect 51 0 34 0;
#X connect 51 0 35 0;
#X connect 51 0 36 0;
#X connect 51 0 37 0;
#X connect 51 0 40 0;
#X connect 51 0 41 0;
#X connect 51 0 48 0;
