#N canvas 734 490 1099 513 10;
#X obj 96 27 mgUiSfPlay;
#X obj 92 480 dac~;
#X obj 108 417 *~ 1;
#X msg 20 151 1;
#X msg 21 130 0;
#X floatatom 57 132 5 0 0 0 - - -;
#X obj 705 321 mgSelector4~;
#X obj 601 323 mgRandomInt 1 4;
#X msg 601 270 1;
#X msg 20 175 2;
#X msg 20 196 3;
#X msg 20 217 4;
#X obj 159 286 lop~ 200;
#X obj 146 248 delread~ a 200;
#X obj 601 292 metro 200;
#X obj 318 240 delread~ b 500;
#X obj 340 279 *~;
#X obj 400 347 mgRectify~;
#X obj 400 324 cycle~ 10;
#X obj 400 300 sig~;
#X msg 402 268 0.5;
#X msg 437 269 5;
#X msg 467 269 10;
#X msg 501 269 40;
#X msg 531 267 2000;
#X obj 162 310 *~ 0.8;
#X obj 220 285 hip~ 10000;
#X obj 226 311 *~ 0.4;
#X obj 340 305 *~ 0.4;
#X obj 622 237 delread~ c 1000;
#X obj 726 238 delread~ c 2000;
#X obj 664 261 delread~ c 3000;
#X obj 765 260 delread~ c 4000;
#X obj 618 195 delwrite~ c 5000;
#X obj 318 190 delwrite~ b 5000;
#X obj 148 189 delwrite~ a 5000;
#X obj 875 293 mgRectify~;
#X obj 875 270 osc~ 0.2;
#X obj 95 133 mgGate8~ _________________;
#X msg 20 239 5;
#X obj 872 339 vd~ d;
#X msg 876 221 0.5;
#X msg 911 222 5;
#X msg 941 222 10;
#X msg 975 222 40;
#X msg 1005 220 2000;
#X obj 872 315 mgScaleMinMaxConstant~ 1 100;
#X obj 129 481 writesf~ 1;
#X msg 150 434 start;
#X msg 150 454 stop;
#X msg 197 414 bang;
#X obj 197 454 prepend open;
#X obj 197 434 savepanel;
#X obj 392 31 loadbang;
#X obj 877 246 sig~ 0.5;
#X obj 872 194 delwrite~ d 4000;
#X text 283 450 open a file before starting recording;
#X connect 0 0 38 1;
#X connect 2 0 1 1;
#X connect 2 0 47 0;
#X connect 3 0 5 0;
#X connect 4 0 5 0;
#X connect 5 0 38 0;
#X connect 6 0 2 0;
#X connect 7 0 6 0;
#X connect 8 0 14 0;
#X connect 9 0 5 0;
#X connect 10 0 5 0;
#X connect 11 0 5 0;
#X connect 12 0 2 0;
#X connect 12 0 25 0;
#X connect 13 0 12 0;
#X connect 13 0 26 0;
#X connect 14 0 7 0;
#X connect 15 0 16 0;
#X connect 16 0 2 0;
#X connect 16 0 28 0;
#X connect 17 0 16 1;
#X connect 18 0 17 0;
#X connect 19 0 18 0;
#X connect 20 0 19 0;
#X connect 21 0 19 0;
#X connect 22 0 19 0;
#X connect 23 0 19 0;
#X connect 24 0 19 0;
#X connect 25 0 35 0;
#X connect 26 0 2 0;
#X connect 26 0 27 0;
#X connect 27 0 35 0;
#X connect 28 0 34 0;
#X connect 29 0 6 1;
#X connect 30 0 6 2;
#X connect 31 0 6 3;
#X connect 32 0 6 4;
#X connect 36 0 46 0;
#X connect 37 0 36 0;
#X connect 38 0 1 0;
#X connect 38 1 35 0;
#X connect 38 2 34 0;
#X connect 38 3 33 0;
#X connect 38 4 55 0;
#X connect 39 0 5 0;
#X connect 40 0 2 0;
#X connect 41 0 54 0;
#X connect 42 0 54 0;
#X connect 43 0 54 0;
#X connect 44 0 54 0;
#X connect 45 0 54 0;
#X connect 46 0 40 0;
#X connect 48 0 47 0;
#X connect 49 0 47 0;
#X connect 50 0 52 0;
#X connect 51 0 47 0;
#X connect 52 0 51 0;
#X connect 53 0 8 0;
#X connect 54 0 37 0;
