#N canvas 432 22 734 597 10;
#X obj 202 31 sig~ 432;
#X obj 270 356 dac~;
#X obj 366 208 lop~ 16000;
#X obj 226 286 *~;
#X obj 352 285 *~;
#X msg 58 29 1;
#X obj 57 55 t f f;
#X obj 275 318 *~ 1;
#X obj 274 33 sig~ 483;
#X obj 349 36 sig~ 512;
#X obj 126 33 sig~ 400;
#X obj 240 209 lop~ 8000;
#X obj 240 231 hip~ 4000;
#X obj 366 233 hip~ 12000;
#X obj 423 34 sig~ 528;
#X obj 268 147 hip~ 2000;
#X obj 266 170 hip~ 2000;
#X obj 268 118 *~ 0.1;
#X obj 126 60 mgOscSquare;
#X obj 202 60 mgOscSquare;
#X obj 274 60 mgOscSquare;
#X obj 349 60 mgOscSquare;
#X obj 423 60 mgOscSquare;
#X obj 212 259 mgEnvlMtAr 5 300 10;
#X obj 337 257 mgEnvlMtAr 5 700 100;
#X obj 651 363 loadbang;
#X obj 17 387 mgUiSignalDisplay;
#X msg 650 411 \; pd dsp 1;
#X msg 650 449 \; pd dsp 0;
#X obj 630 363 tgl 15 0 empty empty empty 17 7 0 10 -262144 -1 -1 1
1;
#X obj 530 58 mgTableWaveSquare;
#X connect 0 0 19 0;
#X connect 2 0 13 0;
#X connect 3 0 7 0;
#X connect 4 0 7 0;
#X connect 5 0 6 0;
#X connect 6 0 23 0;
#X connect 6 1 24 0;
#X connect 7 0 1 0;
#X connect 7 0 1 1;
#X connect 7 0 26 0;
#X connect 8 0 20 0;
#X connect 9 0 21 0;
#X connect 10 0 18 0;
#X connect 11 0 12 0;
#X connect 12 0 3 1;
#X connect 13 0 4 1;
#X connect 14 0 22 0;
#X connect 15 0 16 0;
#X connect 16 0 2 0;
#X connect 16 0 11 0;
#X connect 17 0 15 0;
#X connect 18 0 17 0;
#X connect 19 0 17 0;
#X connect 20 0 17 0;
#X connect 21 0 17 0;
#X connect 22 0 17 0;
#X connect 23 0 3 0;
#X connect 24 0 4 0;
#X connect 25 0 29 0;
#X connect 29 0 26 1;
