#N canvas 236 22 744 590 10;
#X obj 71 242 *~;
#X obj 96 281 *~ 1;
#X obj 96 310 dac~;
#X msg 54 9 1;
#X obj 230 83 noise~;
#X obj 216 245 *~;
#X obj 177 113 click~;
#X obj 75 74 sig~ 50;
#X obj 77 128 lop~ 90;
#X obj 78 153 lop~ 90;
#X obj 78 180 lop~ 90;
#X obj 62 41 t f b f;
#X obj 230 113 lop~ 100;
#X obj 229 137 lop~ 100;
#X obj 229 170 *~ 1.2;
#X obj 60 215 mgEnvlMtAr 1 70 15;
#X obj 200 214 mgEnvlMtAr 1 50 20;
#X obj 77 101 mgOscSaw;
#X obj 308 58 mgTableWaveSaw;
#X obj 656 318 loadbang;
#X obj 22 342 mgUiSignalDisplay;
#X msg 655 366 \; pd dsp 1;
#X msg 655 404 \; pd dsp 0;
#X obj 635 318 tgl 15 0 empty empty empty 17 7 0 10 -262144 -1 -1 1
1;
#X connect 0 0 1 0;
#X connect 1 0 2 0;
#X connect 1 0 2 1;
#X connect 1 0 20 0;
#X connect 3 0 11 0;
#X connect 4 0 12 0;
#X connect 5 0 1 0;
#X connect 6 0 14 0;
#X connect 7 0 17 0;
#X connect 8 0 9 0;
#X connect 9 0 10 0;
#X connect 10 0 0 1;
#X connect 11 0 15 0;
#X connect 11 1 6 0;
#X connect 11 2 16 0;
#X connect 12 0 13 0;
#X connect 13 0 14 0;
#X connect 14 0 5 1;
#X connect 15 0 0 0;
#X connect 16 0 5 0;
#X connect 17 0 8 0;
#X connect 19 0 23 0;
#X connect 23 0 20 1;
