#N canvas 158 22 754 577 10;
#X obj 69 130 osc~ 180;
#X obj 131 131 osc~ 330;
#X obj 223 111 noise~;
#X obj 70 163 *~ 0.5;
#X obj 223 142 lop~ 4000;
#X obj 372 98 noise~;
#X obj 372 144 hip~ 1000;
#X obj 372 171 *~ 0.6;
#X obj 372 121 lop~ 4000;
#X obj 56 226 *~;
#X obj 209 225 *~;
#X obj 359 230 *~;
#X obj 187 280 *~ 1;
#X obj 186 317 dac~;
#X obj 46 66 t f f f;
#X msg 47 38 1;
#X obj 224 169 *~ 0.6;
#X obj 56 194 mgEnvlMtAr 5 20 50;
#X obj 195 195 mgEnvlMtAr 5 10 10;
#X obj 346 199 mgEnvlMtAr 5 60 15;
#X obj 657 335 loadbang;
#X obj 23 359 mgUiSignalDisplay;
#X msg 656 383 \; pd dsp 1;
#X msg 656 421 \; pd dsp 0;
#X obj 636 335 tgl 15 0 empty empty empty 17 7 0 10 -262144 -1 -1 0
1;
#X connect 0 0 3 0;
#X connect 1 0 3 0;
#X connect 2 0 4 0;
#X connect 3 0 9 1;
#X connect 4 0 16 0;
#X connect 5 0 8 0;
#X connect 6 0 7 0;
#X connect 7 0 11 1;
#X connect 8 0 6 0;
#X connect 9 0 12 0;
#X connect 10 0 12 0;
#X connect 11 0 12 0;
#X connect 12 0 13 0;
#X connect 12 0 13 1;
#X connect 12 0 21 0;
#X connect 14 0 17 0;
#X connect 14 1 18 0;
#X connect 14 2 19 0;
#X connect 15 0 14 0;
#X connect 16 0 10 1;
#X connect 17 0 9 0;
#X connect 18 0 10 0;
#X connect 19 0 11 0;
#X connect 20 0 24 0;
#X connect 24 0 21 1;
