#N canvas 381 22 783 569 10;
#X obj 197 227 *~ 1;
#X obj 196 300 dac~;
#X obj 196 256 *~;
#X obj 196 277 *~ 0.2;
#X obj 655 325 loadbang;
#X msg 234 54 50;
#X msg 650 350 \; pd dsp 1;
#X msg 650 387 \; pd dsp 0;
#X floatatom 197 53 5 0 120 0 - - -;
#X obj 293 256 tgl 15 0 empty empty empty 17 7 0 10 -262144 -1 -1 0
1;
#X obj 634 325 tgl 15 0 empty empty empty 17 7 0 10 -262144 -1 -1 1
1;
#X obj 223 256 mgEnvlBtAr;
#X obj 656 251 mgTableWaveTri;
#X obj 196 196 *~;
#X obj 293 196 tgl 15 0 empty empty empty 17 7 0 10 -262144 -1 -1 0
1;
#X obj 223 196 mgEnvlBtAr;
#X obj 196 174 mgOscTri;
#X obj 21 349 mgUiSignalDisplay;
#X obj 196 144 mtof~;
#X obj 196 77 sig~;
#X obj 281 59 tgl 15 0 empty empty empty 17 7 0 10 -262144 -1 -1 0
1;
#X obj 196 114 +~;
#X obj 300 108 *~;
#X obj 330 108 cycle~;
#X floatatom 383 108 5 0 0 0 - - -;
#X text 450 82 vibrato depth in semitones;
#X text 452 103 vibrato rate in hertz;
#X msg 422 108 4.5;
#X obj 301 82 *~ 0.1;
#X floatatom 349 82 5 0 200 0 - - -;
#X msg 389 82 0.1;
#X obj 302 60 mgEnvlBtAr 300 800;
#X obj 453 24 loadbang;
#X connect 0 0 2 0;
#X connect 0 0 17 0;
#X connect 2 0 3 0;
#X connect 3 0 1 0;
#X connect 3 0 1 1;
#X connect 4 0 10 0;
#X connect 5 0 8 0;
#X connect 8 0 19 0;
#X connect 9 0 11 0;
#X connect 10 0 17 1;
#X connect 11 0 2 1;
#X connect 13 0 0 0;
#X connect 14 0 15 0;
#X connect 15 0 13 1;
#X connect 16 0 13 0;
#X connect 18 0 16 0;
#X connect 19 0 21 0;
#X connect 20 0 31 0;
#X connect 21 0 18 0;
#X connect 22 0 21 1;
#X connect 23 0 22 1;
#X connect 24 0 23 0;
#X connect 27 0 24 0;
#X connect 28 0 22 0;
#X connect 29 0 28 1;
#X connect 30 0 29 0;
#X connect 31 0 28 0;
#X connect 32 0 30 0;
#X connect 32 0 27 0;
