#N canvas 748 39 925 539 10;
#X obj 131 -125 mgUiSfPlay;
#X obj 93 216 dac~ 1 2;
#X obj 93 190 *~;
#X obj 191 191 tgl 15 0 empty empty empty 17 7 0 10 -262144 -1 -1 1
1;
#X obj 120 190 mgEnvlBtAr;
#X obj 92 -49 mgGate2~;
#X obj 131 -25 hip~ 100;
#X obj 131 -1 lop~ 10000;
#X msg 46 -50 2;
#X obj 92 166 *~ 0.2;
#X msg 15 -51 1;
#X obj 221 115 mgUiSignalDisplay;
#X msg 830 91 1;
#X obj 131 85 lop~ 20;
#X obj 131 108 *~ 10;
#X obj 827 69 loadbang;
#X obj 92 141 *~ 1;
#X obj 131 19 abs~;
#X obj 131 40 pow~ 2;
#X obj 131 63 -~ 1;
#X floatatom 171 108 5 0 0 0 - - -;
#X connect 0 0 5 1;
#X connect 2 0 1 0;
#X connect 2 0 1 1;
#X connect 3 0 4 0;
#X connect 4 0 2 1;
#X connect 5 0 16 0;
#X connect 5 1 6 0;
#X connect 6 0 7 0;
#X connect 7 0 17 0;
#X connect 8 0 5 0;
#X connect 9 0 2 0;
#X connect 10 0 5 0;
#X connect 12 0 11 1;
#X connect 13 0 14 0;
#X connect 14 0 16 0;
#X connect 15 0 12 0;
#X connect 16 0 11 0;
#X connect 16 0 9 0;
#X connect 17 0 18 0;
#X connect 18 0 19 0;
#X connect 19 0 13 0;
#X connect 20 0 14 1;
