#N canvas 112 447 949 603 10;
#X obj 701 122 unpack f f;
#X obj 330 142 mgPak2;
#X obj 330 97 mgScaleUnitMinMidMax 0 0.2 1;
#X obj 378 186 mgScaleUnitMinMidMax 0 0.8 2;
#X obj 378 228 mgPak2;
#X obj 386 206 mgScaleUnitToMirror 0;
#X obj 336 119 mgScaleUnitMinMidMax 0 0.8 1.2;
#X obj 328 422 outlet~;
#X obj 706 169 gate 1;
#X obj 705 144 == 11;
#X text 698 94 get dPad values;
#X obj 749 268 sel 1 2 3 4 0;
#X msg 840 299 0;
#X msg 738 302 1;
#X msg 767 302 1;
#X obj 338 256 mgSynthBuffer8;
#X obj 306 -28 inlet controllerId;
#X obj 541 222 loadbang;
#X msg 539 245 1;
#X obj 733 357 mgProcFreeverb 1 0.75 0.94;
#X msg 796 300 1;
#X obj 307 24 mgHwDualAnalogPoly1ChillStream;
#X obj 330 66 unpack f f;
#X obj 420 161 unpack f f;
#X obj 57 396 outlet displayParameters;
#X obj 542 356 mgProcDelayFeedback 240 0.5;
#X obj 353 355 mgProcDelayFeedback 500 0.4;
#X connect 0 0 8 1;
#X connect 0 1 9 0;
#X connect 1 0 15 0;
#X connect 2 0 1 0;
#X connect 3 0 4 0;
#X connect 4 0 15 1;
#X connect 5 0 4 1;
#X connect 6 0 1 1;
#X connect 8 0 11 0;
#X connect 9 0 8 0;
#X connect 11 0 13 0;
#X connect 11 1 14 0;
#X connect 11 2 20 0;
#X connect 11 4 12 0;
#X connect 12 0 19 1;
#X connect 12 0 25 1;
#X connect 12 0 26 1;
#X connect 13 0 26 1;
#X connect 14 0 25 1;
#X connect 15 0 7 0;
#X connect 15 0 19 0;
#X connect 15 0 25 0;
#X connect 15 0 26 0;
#X connect 16 0 21 0;
#X connect 17 0 18 0;
#X connect 18 0 15 3;
#X connect 19 0 7 0;
#X connect 20 0 19 1;
#X connect 21 0 24 0;
#X connect 21 2 22 0;
#X connect 21 3 23 0;
#X connect 21 4 15 2;
#X connect 21 4 0 0;
#X connect 22 0 2 0;
#X connect 22 1 6 0;
#X connect 23 0 3 0;
#X connect 23 1 5 0;
#X connect 25 0 7 0;
#X connect 26 0 7 0;
