#N canvas 138 22 1782 701 10;
#X obj 265 182 mgScaleUnitMinMidMax 0 0.2 1;
#X obj 275 272 mgScaleUnitMinMidMax 0 0.8 2;
#X obj 283 292 mgScaleUnitToMirror 0;
#X obj 271 204 mgScaleUnitMinMidMax 0 0.8 1.2;
#X obj 265 159 unpack f f;
#X obj 274 250 unpack f f;
#X obj 709 658 outlet~;
#X msg 1259 574 0;
#X msg 1167 573 1;
#X msg 1199 573 1;
#X obj 476 279 mgScaleUnitMinMidMax 0 0.8 2;
#X obj 484 299 mgScaleUnitToMirror 0;
#X obj 473 209 mgScaleUnitMinMidMax 0 0.8 1.2;
#X obj 467 164 unpack f f;
#X obj 476 257 unpack f f;
#X obj 467 187 mgScaleUnitMinMidMax -40 0 40;
#X obj 487 319 mgScaleMinMax 0 0.5;
#X obj 467 387 mgSynthBuffer8;
#X obj 1159 615 mgProcFreeverb 1 0.75 0.94;
#X msg 1229 573 1;
#X obj 801 614 mgProcDelayFeedback 650 0.4;
#X obj 989 615 mgProcDelayFeedback 240 0.7;
#X text 1312 573 get dPad values from 1 and 2;
#X obj 265 391 mgSynthNoiseFilter;
#X obj 678 410 mgSynthSaw ____;
#X obj 699 294 mgScaleUnitToMirror 0;
#X obj 678 143 unpack f f;
#X obj 687 252 unpack f f;
#X obj 678 164 mgScaleUnitToMirror 0;
#X obj 678 184 mgScaleMinMax 0 0.5;
#X obj 699 314 mgScaleMinMax 0 1;
#X msg -84 143 1;
#X obj 208 24 inlet controllerId;
#X obj 103 205 unpack f f f f f f;
#X obj 103 228 pack f f f f f f;
#X obj 218 205 t b f;
#X text 149 245 add scene to parameters;
#X msg 820 380 0;
#X msg 755 380 -1;
#X msg 786 380 1;
#X obj 688 275 mgScaleUnitMinMidMax 0 0.8 1;
#X obj 689 206 mgScaleUnitMinMidMax 0 0.75 1;
#X obj 636 96 mgHwDualAnalogPoly6ChillStream ________________________________________
;
#X obj 967 202 mgScaleUnitMinMidMax 0 0.8 1.2;
#X obj 960 157 unpack f f;
#X obj 975 250 unpack f f;
#X obj 961 388 mgSynthBufferLoop8;
#X obj 1198 302 mgScaleUnitToMirror 0;
#X obj 1187 213 mgScaleUnitMinMidMax 0 0.8 1.2;
#X obj 1181 168 unpack f f;
#X obj 1190 260 unpack f f;
#X obj 1488 313 mgScaleUnitToMirror 0;
#X obj 1464 221 mgScaleUnitMinMidMax 0 0.8 1.2;
#X obj 1458 176 unpack f f;
#X obj 1473 269 unpack f f;
#X obj 1442 409 mgSynthBufferPulse8;
#X msg 1315 373 0;
#X msg 1250 373 -1;
#X msg 1281 373 1;
#X obj 1181 236 pack f f;
#X obj 1190 328 pack f f;
#X obj 1473 334 pack f f;
#X obj 1458 244 pack f f;
#X obj 975 294 pack f f;
#X obj 961 225 pack f f;
#X obj 678 229 pack f f;
#X obj 688 380 pack f f;
#X obj 476 342 pack f f;
#X obj 467 232 pack f f;
#X obj 275 314 pack f f;
#X obj 265 227 pack f f;
#X obj 960 180 mgScaleUnitMinMidMax 0 0.8 2;
#X obj 975 272 mgScaleUnitMinMidMax 0 1 0;
#X obj 1473 291 mgScaleUnitMinMidMax 0 0.8 1;
#X obj 1190 282 mgScaleUnitMinMidMax 0 0.8 1;
#X obj 1181 191 mgScaleUnitMinMidMax 0.1 1 0.1;
#X obj 1457 198 mgScaleUnitMinMidMax 0.1 1 0.1;
#X obj 1157 418 mgSynthBandpassNoisePulse;
#X obj -56 644 outlet controllerDisplay;
#X obj 78 23 inlet partScriptFile;
#X text 43 453 take in a part script file \, which will specialize
this for each part;
#X obj 1564 409 unpack f s;
#X obj -87 249 s beatPulse;
#X obj 1157 382 r beatPulse;
#X obj 1442 380 r beatPulse;
#X obj 775 336 mgHwDualAnalogButtonFilter 11;
#X obj 1158 514 mgHwDualAnalogButtonFilter 11;
#X obj 793 358 s fxVerbOn;
#X obj 1194 542 r fxVerbOn;
#X obj 1264 542 r fxOff;
#X obj 864 358 s fxOff;
#X obj 1259 330 mgHwDualAnalogButtonFilter 11;
#X obj 1277 352 s fxVerbOn;
#X obj 1347 352 s fxOff;
#X obj -87 283 s pgm1;
#X obj -44 284 s pgm2;
#X obj -1 284 s pgm3;
#X obj 43 284 s pgm4;
#X obj 87 284 s pgm5;
#X obj 131 284 s pgm6;
#X obj 380 369 r pgm1;
#X obj 561 365 r pgm2;
#X obj 849 408 r pgm3;
#X obj 1074 366 r pgm4;
#X obj 1313 395 r pgm5;
#X obj 1564 384 r pgm6;
#X obj 252 644 outlet comments;
#X obj 101 644 outlet numericalDisplay;
#X obj 488 643 outlet displayStatus;
#X obj 1313 417 unpack f s;
#X obj 1076 388 unpack f s;
#X obj 780 409 unpack f s;
#X obj 559 386 unpack f s;
#X obj 381 391 unpack f s;
#X obj 1317 542 loadbang;
#X obj 711 70 s btn1;
#X obj 326 366 r btn1;
#X obj 767 70 s btn2;
#X obj 516 361 r btn2;
#X obj 823 70 s btn3;
#X obj 835 311 r btn3;
#X obj 879 70 s btn4;
#X obj 1025 364 r btn4;
#X obj 936 70 s btn5;
#X obj 1205 354 r btn5;
#X obj 991 70 s btn6;
#X obj 1515 382 r btn6;
#X obj 1157 483 r btn1;
#X obj 1201 482 r btn2;
#X obj 1246 483 r btn4;
#X obj 1290 484 r btn6;
#X obj 559 70 s ctrlPmtrs;
#X obj 102 177 r ctrlPmtrs;
#X obj 637 70 s ctrlScene;
#X obj -84 122 r ctrlScene;
#X obj 265 417 send~ ch1;
#X obj 528 503 receive~ ch1;
#X obj 467 414 send~ ch2;
#X obj 612 503 receive~ ch2;
#X obj 678 436 send~ ch3;
#X obj 703 503 receive~ ch3;
#X obj 961 414 send~ ch4;
#X obj 790 503 receive~ ch4;
#X obj 1157 443 send~ ch5;
#X obj 876 503 receive~ ch5;
#X obj 1442 431 send~ ch6;
#X obj 964 503 receive~ ch6;
#X msg 71 91 arizaWork02-partA.txt;
#X msg 81 112 arizaWork02-partB.txt;
#X msg 95 134 arizaWork02-partC.txt;
#X obj 78 46 symbol;
#X obj 78 69 sel A B C;
#X obj -79 32 mgTableWaveSaw;
#X obj -78 55 mgTableWaveSquare;
#X obj -85 206 mgPartDirector6 ______________;
#X obj 29 248 s initInst;
#X obj 972 38 r initInst;
#X obj 353 644 outlet commentsNext;
#X obj -84 167 mgRangeCircular 0 19;
#X connect 0 0 70 0;
#X connect 1 0 69 0;
#X connect 2 0 69 1;
#X connect 3 0 70 1;
#X connect 4 0 0 0;
#X connect 4 1 3 0;
#X connect 5 0 1 0;
#X connect 5 1 2 0;
#X connect 7 0 18 1;
#X connect 7 0 20 1;
#X connect 7 0 21 1;
#X connect 8 0 20 1;
#X connect 9 0 21 1;
#X connect 10 0 67 0;
#X connect 11 0 16 0;
#X connect 12 0 68 1;
#X connect 13 0 15 0;
#X connect 13 1 12 0;
#X connect 14 0 10 0;
#X connect 14 1 11 0;
#X connect 15 0 68 0;
#X connect 16 0 67 1;
#X connect 17 0 137 0;
#X connect 18 0 6 0;
#X connect 19 0 18 1;
#X connect 20 0 6 0;
#X connect 21 0 6 0;
#X connect 23 0 135 0;
#X connect 24 0 139 0;
#X connect 25 0 30 0;
#X connect 26 0 28 0;
#X connect 26 1 41 0;
#X connect 27 0 40 0;
#X connect 27 1 25 0;
#X connect 28 0 29 0;
#X connect 29 0 65 0;
#X connect 30 0 66 1;
#X connect 31 0 158 0;
#X connect 32 0 42 0;
#X connect 33 0 34 0;
#X connect 33 1 34 1;
#X connect 33 2 34 2;
#X connect 33 3 34 3;
#X connect 33 4 34 4;
#X connect 34 0 78 0;
#X connect 35 0 34 0;
#X connect 35 1 34 5;
#X connect 37 0 24 3;
#X connect 38 0 24 3;
#X connect 39 0 24 3;
#X connect 40 0 66 0;
#X connect 41 0 65 1;
#X connect 42 0 131 0;
#X connect 42 1 133 0;
#X connect 42 2 4 0;
#X connect 42 3 5 0;
#X connect 42 4 115 0;
#X connect 42 5 13 0;
#X connect 42 6 14 0;
#X connect 42 7 117 0;
#X connect 42 8 26 0;
#X connect 42 9 27 0;
#X connect 42 10 119 0;
#X connect 42 11 44 0;
#X connect 42 12 45 0;
#X connect 42 13 121 0;
#X connect 42 14 49 0;
#X connect 42 15 50 0;
#X connect 42 16 123 0;
#X connect 42 17 53 0;
#X connect 42 18 54 0;
#X connect 42 19 125 0;
#X connect 43 0 64 1;
#X connect 44 0 71 0;
#X connect 44 1 43 0;
#X connect 45 0 72 0;
#X connect 45 1 63 1;
#X connect 46 0 141 0;
#X connect 47 0 60 1;
#X connect 48 0 59 1;
#X connect 49 0 75 0;
#X connect 49 1 48 0;
#X connect 50 0 74 0;
#X connect 50 1 47 0;
#X connect 51 0 61 1;
#X connect 52 0 62 1;
#X connect 53 0 76 0;
#X connect 53 1 52 0;
#X connect 54 0 73 0;
#X connect 54 1 51 0;
#X connect 55 0 145 0;
#X connect 56 0 77 4;
#X connect 57 0 77 4;
#X connect 58 0 77 4;
#X connect 59 0 77 1;
#X connect 60 0 77 2;
#X connect 61 0 55 2;
#X connect 62 0 55 1;
#X connect 63 0 46 1;
#X connect 64 0 46 0;
#X connect 65 0 24 0;
#X connect 66 0 24 1;
#X connect 67 0 17 1;
#X connect 68 0 17 0;
#X connect 69 0 23 1;
#X connect 70 0 23 0;
#X connect 71 0 64 0;
#X connect 72 0 63 0;
#X connect 73 0 61 0;
#X connect 74 0 60 0;
#X connect 75 0 59 0;
#X connect 76 0 62 0;
#X connect 77 0 143 0;
#X connect 79 0 150 0;
#X connect 81 0 55 4;
#X connect 81 1 55 5;
#X connect 83 0 77 0;
#X connect 84 0 55 0;
#X connect 85 0 38 0;
#X connect 85 1 87 0;
#X connect 85 2 39 0;
#X connect 85 3 37 0;
#X connect 85 4 90 0;
#X connect 86 0 8 0;
#X connect 86 1 19 0;
#X connect 86 2 9 0;
#X connect 86 4 7 0;
#X connect 88 0 19 0;
#X connect 89 0 7 0;
#X connect 91 0 57 0;
#X connect 91 1 92 0;
#X connect 91 2 58 0;
#X connect 91 3 56 0;
#X connect 91 4 93 0;
#X connect 100 0 113 0;
#X connect 101 0 112 0;
#X connect 102 0 111 0;
#X connect 103 0 110 0;
#X connect 104 0 109 0;
#X connect 105 0 81 0;
#X connect 109 0 77 5;
#X connect 109 1 77 6;
#X connect 110 0 46 3;
#X connect 110 1 46 4;
#X connect 111 0 24 4;
#X connect 111 1 24 5;
#X connect 112 0 17 3;
#X connect 112 1 17 4;
#X connect 113 0 23 3;
#X connect 113 1 23 4;
#X connect 114 0 7 0;
#X connect 116 0 23 2;
#X connect 118 0 17 2;
#X connect 120 0 24 2;
#X connect 120 0 85 0;
#X connect 122 0 46 2;
#X connect 124 0 91 0;
#X connect 124 0 77 3;
#X connect 126 0 55 3;
#X connect 127 0 86 0;
#X connect 128 0 86 0;
#X connect 129 0 86 0;
#X connect 130 0 86 0;
#X connect 132 0 33 0;
#X connect 134 0 31 0;
#X connect 136 0 20 0;
#X connect 136 0 21 0;
#X connect 136 0 18 0;
#X connect 136 0 6 0;
#X connect 138 0 6 0;
#X connect 138 0 20 0;
#X connect 138 0 21 0;
#X connect 138 0 18 0;
#X connect 140 0 6 0;
#X connect 140 0 18 0;
#X connect 142 0 6 0;
#X connect 142 0 20 0;
#X connect 142 0 21 0;
#X connect 142 0 18 0;
#X connect 144 0 6 0;
#X connect 144 0 18 0;
#X connect 146 0 18 0;
#X connect 146 0 21 0;
#X connect 146 0 6 0;
#X connect 146 0 20 0;
#X connect 147 0 154 2;
#X connect 148 0 154 2;
#X connect 149 0 154 2;
#X connect 150 0 151 0;
#X connect 151 0 147 0;
#X connect 151 1 148 0;
#X connect 151 2 149 0;
#X connect 154 0 82 0;
#X connect 154 1 107 0;
#X connect 154 2 106 0;
#X connect 154 3 157 0;
#X connect 154 4 108 0;
#X connect 154 5 155 0;
#X connect 154 6 94 0;
#X connect 154 7 95 0;
#X connect 154 8 96 0;
#X connect 154 9 97 0;
#X connect 154 10 98 0;
#X connect 154 11 99 0;
#X connect 156 0 42 1;
#X connect 158 0 35 0;
#X connect 158 0 154 1;
