#N canvas 855 22 719 426 12;
#X msg -82 187 Instructions: "Scene 0: Pre-load";
#X obj 111 96 mgPartDirectorUi;
#X obj -134 96 mgHwDualAnalogPolyUi;
#X msg -134 -19 \; pd dsp 1;
#X msg -62 -19 \; pd dsp 0;
#X obj 86 63 dac~;
#X msg -20 32 bang;
#X floatatom 22 32 5 0 0 0 - - -;
#X msg -134 32 A;
#X msg -100 32 B;
#X msg -64 32 C;
#X obj -134 63 arizaWork02-performanceVirtual;
#X msg 11 -19 Initialization: (1) Start DSP (2) Select controller id
(3) Enter part message (4) Advance to scene 1;
#X msg -82 279 Next: "Scene 1: Tacit";
#X obj 175 63 s msg2;
#X obj -134 279 r msg2;
#X obj 124 63 s msg1;
#X obj -133 187 r msg1;
#X connect 6 0 11 1;
#X connect 7 0 11 1;
#X connect 8 0 11 0;
#X connect 9 0 11 0;
#X connect 10 0 11 0;
#X connect 11 0 2 0;
#X connect 11 1 1 0;
#X connect 11 2 16 0;
#X connect 11 3 14 0;
#X connect 11 4 1 1;
#X connect 11 5 5 0;
#X connect 11 5 5 1;
#X connect 15 0 13 0;
#X connect 17 0 0 0;
