#N canvas 41 447 1879 622 10;
#X obj 1607 304 unpack f f;
#X obj 332 53 mgScaleUnitMinMidMax 0 0.2 1;
#X obj 380 120 mgScaleUnitMinMidMax 0 0.8 2;
#X obj 388 140 mgScaleUnitToMirror 0;
#X obj 338 75 mgScaleUnitMinMidMax 0 0.8 1.2;
#X text 991 462 need to add button filtering for button 9 and 10 to
double joystick functionality \; provide mode output as a number;
#X obj 332 30 unpack f f;
#X obj 379 98 unpack f f;
#X obj 403 463 outlet~;
#X obj 1612 351 gate 1;
#X obj 1632 327 == 11;
#X obj 1662 355 sel 1 2 3 4 0;
#X msg 1736 384 0;
#X msg 1644 383 1;
#X msg 1676 383 1;
#X obj 601 123 mgScaleUnitMinMidMax 0 0.8 2;
#X obj 609 143 mgScaleUnitToMirror 0;
#X obj 563 78 mgScaleUnitMinMidMax 0 0.8 1.2;
#X obj 557 33 unpack f f;
#X obj 601 101 unpack f f;
#X obj 557 56 mgScaleUnitMinMidMax -40 0 40;
#X obj 612 163 mgScaleMinMax 0 0.5;
#X obj 557 256 mgSynthBuffer8;
#X obj 272 166 loadbang;
#X msg 272 187 bang;
#X obj 1271 411 mgProcFreeverb 1 0.75 0.94;
#X msg 1706 384 1;
#X obj 889 410 mgProcDelayFeedback 650 0.4;
#X obj 1077 411 mgProcDelayFeedback 240 0.7;
#X text 1333 379 get dPad values from 1 and 2;
#X obj 332 262 mgSynthNoiseFilter;
#X obj 782 256 mgSynthSaw ____;
#X obj 838 152 mgScaleUnitToMirror 0;
#X obj 780 24 unpack f f;
#X obj 826 110 unpack f f;
#X obj 782 45 mgScaleUnitToMirror 0;
#X obj 782 65 mgScaleMinMax 0 0.5;
#X obj 838 172 mgScaleMinMax 0 1;
#X obj 272 464 outlet displayData;
#X msg 47 41 1;
#X obj 1099 -91 inlet controllerId;
#X obj 170 66 unpack f f f f f f;
#X obj 170 89 pack f f f f f f;
#X obj 285 66 t b f;
#X text 162 42 add scene to parameters;
#X text 43 248 preset selection;
#X obj 1005 81 unpack f f;
#X obj 1010 128 gate 1;
#X obj 1030 104 == 11;
#X obj 46 64 mgRangeCircular 1 4;
#X obj 1010 152 sel 1 2 3 4 0;
#X msg 962 207 0;
#X msg 897 207 -1;
#X msg 928 207 1;
#X obj 827 132 mgScaleUnitMinMidMax 0 0.8 1;
#X obj 793 87 mgScaleUnitMinMidMax 0 0.75 1;
#X obj 1101 -50 mgHwDualAnalogPoly6Joystick ________________________________________
;
#X obj 1101 70 mgScaleUnitMinMidMax 0 0.8 1.2;
#X obj 1095 25 unpack f f;
#X obj 1149 93 unpack f f;
#X obj 1095 256 mgSynthBufferLoop8;
#X obj 47 204 unpack f f f f f f;
#X obj 1373 142 mgScaleUnitToMirror 0;
#X obj 1327 77 mgScaleUnitMinMidMax 0 0.8 1.2;
#X obj 1321 32 unpack f f;
#X obj 1365 100 unpack f f;
#X obj 1695 160 mgScaleUnitToMirror 0;
#X obj 1629 93 mgScaleUnitMinMidMax 0 0.8 1.2;
#X obj 1623 48 unpack f f;
#X obj 1680 116 unpack f f;
#X obj 203 190 t b;
#X obj 1610 256 mgSynthBufferPulse8;
#X obj 49 181 zl group 6;
#X obj 1534 91 unpack f f;
#X obj 1539 138 gate 1;
#X obj 1559 114 == 11;
#X obj 1539 162 sel 1 2 3 4 0;
#X msg 1498 206 0;
#X msg 1433 206 -1;
#X msg 1464 206 1;
#X obj 203 170 metro 100;
#X obj 202 147 mgBpmToMs;
#X msg 221 125 1;
#X obj 1321 100 pack f f;
#X obj 1365 185 pack f f;
#X obj 1680 201 pack f f;
#X obj 1623 116 pack f f;
#X obj 1149 178 pack f f;
#X obj 1095 93 pack f f;
#X obj 782 110 pack f f;
#X obj 827 195 pack f f;
#X obj 601 186 pack f f;
#X obj 557 101 pack f f;
#X obj 380 162 pack f f;
#X obj 332 98 pack f f;
#X obj 1094 48 mgScaleUnitMinMidMax 0 0.8 2;
#X obj 1149 115 mgScaleUnitMinMidMax 0 1 0;
#X obj 1680 138 mgScaleUnitMinMidMax 0 0.8 1;
#X obj 1365 122 mgScaleUnitMinMidMax 0 0.8 1;
#X obj 1321 55 mgScaleUnitMinMidMax 0.1 1 0.1;
#X obj 1622 70 mgScaleUnitMinMidMax 0.1 1 0.1;
#X obj 46 147 performance-dParameters;
#X obj 1297 255 mgSynthBandpassNoisePulse;
#X connect 0 0 9 1;
#X connect 0 1 10 0;
#X connect 1 0 94 0;
#X connect 2 0 93 0;
#X connect 3 0 93 1;
#X connect 4 0 94 1;
#X connect 6 0 1 0;
#X connect 6 1 4 0;
#X connect 7 0 2 0;
#X connect 7 1 3 0;
#X connect 9 0 11 0;
#X connect 10 0 9 0;
#X connect 11 0 13 0;
#X connect 11 1 26 0;
#X connect 11 2 14 0;
#X connect 11 4 12 0;
#X connect 12 0 25 1;
#X connect 12 0 27 1;
#X connect 12 0 28 1;
#X connect 13 0 27 1;
#X connect 14 0 28 1;
#X connect 15 0 91 0;
#X connect 16 0 21 0;
#X connect 17 0 92 1;
#X connect 18 0 20 0;
#X connect 18 1 17 0;
#X connect 19 0 15 0;
#X connect 19 1 16 0;
#X connect 20 0 92 0;
#X connect 21 0 91 1;
#X connect 22 0 8 0;
#X connect 22 0 25 0;
#X connect 22 0 27 0;
#X connect 22 0 28 0;
#X connect 23 0 24 0;
#X connect 23 0 82 0;
#X connect 24 0 22 4;
#X connect 24 0 30 4;
#X connect 24 0 31 5;
#X connect 24 0 60 4;
#X connect 24 0 71 5;
#X connect 24 0 102 6;
#X connect 25 0 8 0;
#X connect 26 0 25 1;
#X connect 27 0 8 0;
#X connect 28 0 8 0;
#X connect 30 0 8 0;
#X connect 30 0 25 0;
#X connect 30 0 27 0;
#X connect 30 0 28 0;
#X connect 31 0 8 0;
#X connect 31 0 25 0;
#X connect 32 0 37 0;
#X connect 33 0 35 0;
#X connect 33 1 55 0;
#X connect 34 0 54 0;
#X connect 34 1 32 0;
#X connect 35 0 36 0;
#X connect 36 0 89 0;
#X connect 37 0 90 1;
#X connect 39 0 49 0;
#X connect 40 0 56 0;
#X connect 41 0 42 0;
#X connect 41 1 42 1;
#X connect 41 2 42 2;
#X connect 41 3 42 3;
#X connect 41 4 42 4;
#X connect 42 0 38 0;
#X connect 43 0 42 0;
#X connect 43 1 42 5;
#X connect 46 0 47 1;
#X connect 46 1 48 0;
#X connect 47 0 50 0;
#X connect 48 0 47 0;
#X connect 49 0 43 0;
#X connect 49 0 101 0;
#X connect 50 0 52 0;
#X connect 50 1 26 0;
#X connect 50 2 53 0;
#X connect 50 3 51 0;
#X connect 50 4 12 0;
#X connect 51 0 31 3;
#X connect 52 0 31 3;
#X connect 53 0 31 3;
#X connect 54 0 90 0;
#X connect 55 0 89 1;
#X connect 56 0 41 0;
#X connect 56 1 39 0;
#X connect 56 2 6 0;
#X connect 56 3 7 0;
#X connect 56 4 0 0;
#X connect 56 4 30 2;
#X connect 56 5 18 0;
#X connect 56 6 19 0;
#X connect 56 7 0 0;
#X connect 56 7 22 2;
#X connect 56 8 33 0;
#X connect 56 9 34 0;
#X connect 56 10 31 2;
#X connect 56 10 46 0;
#X connect 56 11 58 0;
#X connect 56 12 59 0;
#X connect 56 13 60 2;
#X connect 56 13 0 0;
#X connect 56 14 64 0;
#X connect 56 15 65 0;
#X connect 56 16 73 0;
#X connect 56 16 102 3;
#X connect 56 17 68 0;
#X connect 56 18 69 0;
#X connect 56 19 71 3;
#X connect 56 19 0 0;
#X connect 57 0 88 1;
#X connect 58 0 95 0;
#X connect 58 1 57 0;
#X connect 59 0 96 0;
#X connect 59 1 87 1;
#X connect 60 0 8 0;
#X connect 60 0 25 0;
#X connect 60 0 28 0;
#X connect 60 0 27 0;
#X connect 61 0 30 3;
#X connect 61 1 22 3;
#X connect 61 2 31 4;
#X connect 61 3 60 3;
#X connect 61 4 102 5;
#X connect 61 5 71 4;
#X connect 62 0 84 1;
#X connect 63 0 83 1;
#X connect 64 0 99 0;
#X connect 64 1 63 0;
#X connect 65 0 98 0;
#X connect 65 1 62 0;
#X connect 66 0 85 1;
#X connect 67 0 86 1;
#X connect 68 0 100 0;
#X connect 68 1 67 0;
#X connect 69 0 97 0;
#X connect 69 1 66 0;
#X connect 70 0 71 0;
#X connect 70 0 102 0;
#X connect 71 0 8 0;
#X connect 71 0 25 0;
#X connect 71 0 28 0;
#X connect 71 0 27 0;
#X connect 72 0 61 0;
#X connect 73 0 74 1;
#X connect 73 1 75 0;
#X connect 74 0 76 0;
#X connect 75 0 74 0;
#X connect 76 0 78 0;
#X connect 76 1 26 0;
#X connect 76 2 79 0;
#X connect 76 3 77 0;
#X connect 76 4 12 0;
#X connect 77 0 102 4;
#X connect 78 0 102 4;
#X connect 79 0 102 4;
#X connect 80 0 70 0;
#X connect 81 0 80 1;
#X connect 82 0 80 0;
#X connect 82 0 101 0;
#X connect 83 0 102 1;
#X connect 84 0 102 2;
#X connect 85 0 71 2;
#X connect 86 0 71 1;
#X connect 87 0 60 1;
#X connect 88 0 60 0;
#X connect 89 0 31 0;
#X connect 90 0 31 1;
#X connect 91 0 22 1;
#X connect 92 0 22 0;
#X connect 93 0 30 1;
#X connect 94 0 30 0;
#X connect 95 0 88 0;
#X connect 96 0 87 0;
#X connect 97 0 85 0;
#X connect 98 0 84 0;
#X connect 99 0 83 0;
#X connect 100 0 86 0;
#X connect 101 0 72 0;
#X connect 101 1 72 0;
#X connect 101 2 72 0;
#X connect 101 3 72 0;
#X connect 101 4 72 0;
#X connect 101 5 72 0;
#X connect 101 6 81 0;
#X connect 102 0 8 0;
#X connect 102 0 25 0;
