#N canvas 619 537 595 434 10;
#X obj -133 67 mgHwTouchOscAccelerometer;
#X obj 45 67 mgHwTouchOscDualAnalog;
#X obj -139 141 -;
#X obj -76 18 dumpOSC 8000;
#X obj -139 163 abs;
#X obj -139 185 > 0.4;
#X obj -139 93 zl group 3;
#X obj -139 119 unpack f f f;
#X obj -139 206 change;
#X obj 45 335 mgSynthBufferLoop8;
#X obj -139 226 sel 1;
#X obj -139 286 pack f 1;
#X obj 45 374 dac~;
#X obj 251 116 route 1;
#X obj 251 138 sel 9 10;
#X msg 283 161 1;
#X msg 251 160 -1;
#X floatatom 251 210 5 0 0 0 - - -;
#X obj -139 261 mgRangeCircular 0 1;
#X obj 251 184 mgRangeCircular 1 5;
#X obj -36 179 mgPak2;
#X obj 96 156 unpack f f;
#X obj 96 181 sel 0;
#X obj 96 232 zl iter 1;
#X msg 96 205 1 2 3 4 5 6 7 8;
#X obj 98 262 prepend 0;
#X connect 0 0 6 0;
#X connect 0 1 20 1;
#X connect 0 2 20 0;
#X connect 1 0 9 0;
#X connect 1 2 21 0;
#X connect 1 3 13 0;
#X connect 2 0 4 0;
#X connect 3 0 0 0;
#X connect 3 0 1 0;
#X connect 4 0 5 0;
#X connect 5 0 8 0;
#X connect 6 0 7 0;
#X connect 7 0 2 0;
#X connect 7 2 2 1;
#X connect 8 0 10 0;
#X connect 9 0 12 0;
#X connect 9 0 12 1;
#X connect 10 0 18 0;
#X connect 11 0 9 2;
#X connect 13 0 14 0;
#X connect 14 0 16 0;
#X connect 14 1 15 0;
#X connect 15 0 19 0;
#X connect 16 0 19 0;
#X connect 17 0 9 3;
#X connect 18 0 11 0;
#X connect 19 0 17 0;
#X connect 20 0 9 1;
#X connect 21 0 22 0;
#X connect 21 1 11 1;
#X connect 22 0 24 0;
#X connect 23 0 25 0;
#X connect 24 0 23 0;
#X connect 25 0 9 2;
