#N canvas 466 528 1258 647 10;
#X obj 464 275 sig~;
#X obj 464 295 lop~ 20;
#X obj 466 315 mgScaleMinMax~;
#X obj 562 169 unpack f f;
#X obj 515 292 sig~ 0;
#X obj 558 295 sig~ 1;
#X obj 620 198 sig~;
#X obj 620 220 lop~ 20;
#X obj 620 242 mgScaleMinMax~;
#X obj 670 220 sig~ 40;
#X obj 333 405 *~;
#X obj 721 142 unpack f f;
#X obj 378 511 moog~;
#X obj 714 421 mgScaleMinMax~;
#X obj 713 444 mtof~;
#X obj 836 394 sig~ 120;
#X obj 784 395 sig~ 70;
#X obj 713 369 sig~;
#X obj 710 393 lop~ 20;
#X obj 465 254 mgVolToAmp;
#X obj 914 382 sig~;
#X obj 914 402 lop~ 20;
#X obj 916 422 mgScaleMinMax~;
#X obj 916 442 osc~;
#X obj 965 401 sig~ 1;
#X obj 1019 401 sig~ 60;
#X obj 244 403 noise~;
#X obj 618 265 mtof~;
#X obj 377 467 hip~;
#X obj 618 287 mgUiSnapshot;
#X obj 378 489 hip~;
#X obj -146 33 inlet;
#X obj 115 26 inlet;
#X obj 171 27 inlet;
#X obj 237 28 inlet;
#X obj 281 26 inlet;
#X obj 333 24 inlet;
#X text 83 8 OSCroute /xy1 /xy2 /fader1 /multifader1 /multifader2;
#X obj -206 205 counter 1 8;
#X obj -206 182 sel 1;
#X obj -206 158 counter 1 2;
#X text -148 11 tempo bangs;
#X obj -45 272 f;
#X obj -2 272 f;
#X obj 41 272 f;
#X obj 84 272 f;
#X obj 127 272 f;
#X obj -88 272 f;
#X obj -131 272 f;
#X obj -174 272 f;
#X obj -207 241 sel 1 2 3 4 5 6 7 8;
#X obj -35 323 f;
#X obj -51 238 OSCroute /1 /2 /3 /4 /5 /6 /7 /8;
#X obj 378 593 outlet~;
#X obj -35 345 mgVolToAmp;
#X obj 10 434 osc~ 180;
#X obj 68 434 osc~ 330;
#X obj 173 435 *~;
#X obj 202 435 mgEnvlMtAr 5 20 50;
#X obj 125 434 *~ 0.3;
#X text 434 221 fader control overall level;
#X obj 379 559 *~;
#X obj 281 140 loadbang;
#X msg 282 168 1;
#X obj 365 403 mgEnvlMtAr 5 50 15;
#X obj 718 221 sig~ 100;
#X obj 289 404 *~ 0.6;
#X obj -115 74 OSCroute /1 /2;
#X obj -117 103 mgQuantizeUnitOct;
#X obj 5 105 mgQuantizeUnitOct;
#X obj 4 126 t b f;
#X obj -119 125 t b f;
#X connect 0 0 1 0;
#X connect 1 0 2 0;
#X connect 2 0 61 1;
#X connect 3 1 6 0;
#X connect 4 0 2 1;
#X connect 5 0 2 2;
#X connect 6 0 7 0;
#X connect 7 0 8 0;
#X connect 8 0 27 0;
#X connect 9 0 8 1;
#X connect 10 0 28 0;
#X connect 11 0 20 0;
#X connect 11 1 17 0;
#X connect 12 0 61 0;
#X connect 13 0 14 0;
#X connect 14 0 12 1;
#X connect 15 0 13 2;
#X connect 16 0 13 1;
#X connect 17 0 18 0;
#X connect 18 0 13 0;
#X connect 19 0 0 0;
#X connect 20 0 21 0;
#X connect 21 0 22 0;
#X connect 22 0 23 0;
#X connect 24 0 22 1;
#X connect 25 0 22 2;
#X connect 26 0 66 0;
#X connect 27 0 29 0;
#X connect 28 0 30 0;
#X connect 29 0 28 1;
#X connect 29 0 30 1;
#X connect 30 0 12 0;
#X connect 31 0 40 0;
#X connect 32 0 3 0;
#X connect 33 0 11 0;
#X connect 34 0 19 0;
#X connect 35 0 52 0;
#X connect 36 0 67 0;
#X connect 38 0 50 0;
#X connect 39 0 38 0;
#X connect 40 0 39 0;
#X connect 42 0 51 0;
#X connect 43 0 51 0;
#X connect 44 0 51 0;
#X connect 45 0 51 0;
#X connect 46 0 51 0;
#X connect 47 0 51 0;
#X connect 48 0 51 0;
#X connect 49 0 51 0;
#X connect 50 0 49 0;
#X connect 50 1 48 0;
#X connect 50 2 47 0;
#X connect 50 3 42 0;
#X connect 50 4 43 0;
#X connect 50 5 44 0;
#X connect 50 6 45 0;
#X connect 50 7 46 0;
#X connect 51 0 54 0;
#X connect 52 0 49 1;
#X connect 52 1 48 1;
#X connect 52 2 47 1;
#X connect 52 3 42 1;
#X connect 52 4 43 1;
#X connect 52 5 44 1;
#X connect 52 6 45 1;
#X connect 52 7 46 1;
#X connect 54 0 58 0;
#X connect 54 0 64 0;
#X connect 55 0 59 0;
#X connect 56 0 59 0;
#X connect 57 0 28 0;
#X connect 58 0 57 1;
#X connect 59 0 57 0;
#X connect 61 0 53 0;
#X connect 62 0 63 0;
#X connect 63 0 49 1;
#X connect 63 0 19 0;
#X connect 64 0 10 1;
#X connect 65 0 8 2;
#X connect 66 0 10 0;
#X connect 67 0 68 0;
#X connect 67 1 69 0;
#X connect 68 0 71 0;
#X connect 69 0 70 0;
#X connect 70 0 38 2;
#X connect 70 1 38 4;
#X connect 71 0 40 2;
#X connect 71 1 40 4;
