#N canvas 991 581 465 293 10;
#X obj 149 -101 dumpOSC 8000;
#X obj 5 2 mgTableWaveSaw;
#X obj 150 59 dac~;
#X obj 237 -103 print raw;
#X obj 5 27 mgTableWaveSquare;
#X msg 9 -117 \; pd dsp 1;
#X msg 9 -80 \; pd dsp 0;
#X obj 149 17 mgSynthSaw;
#X obj 318 7 mgRangeCircular 1 5;
#X obj 318 -61 route 1;
#X obj 318 -39 sel 9 10;
#X msg 350 -16 1;
#X msg 318 -17 -1;
#X floatatom 318 33 5 0 0 0 - - -;
#X obj 149 -23 mgHwTouchOscDualAnalog;
#X connect 0 0 3 0;
#X connect 0 0 14 0;
#X connect 7 0 2 0;
#X connect 7 0 2 1;
#X connect 8 0 13 0;
#X connect 9 0 10 0;
#X connect 10 0 12 0;
#X connect 10 1 11 0;
#X connect 11 0 8 0;
#X connect 12 0 8 0;
#X connect 13 0 7 4;
#X connect 14 0 7 0;
#X connect 14 1 7 1;
#X connect 14 2 7 2;
#X connect 14 3 9 0;
