#N canvas 1034 508 465 293 10;
#X obj 135 -100 dumpOSC 8000;
#X obj 135 76 dac~;
#X obj 223 -102 print raw;
#X msg 9 -117 \; pd dsp 1;
#X msg 9 -80 \; pd dsp 0;
#X obj 135 34 mgSynthBufferLoop8;
#X obj 308 -3 mgRangeCircular 1 5;
#X obj 308 -71 route 1;
#X obj 308 -49 sel 9 10;
#X msg 340 -26 1;
#X msg 308 -27 -1;
#X floatatom 308 23 5 0 0 0 - - -;
#X obj 135 -26 mgHwTouchOscDualAnalog;
#X connect 0 0 2 0;
#X connect 0 0 12 0;
#X connect 5 0 1 0;
#X connect 5 0 1 1;
#X connect 6 0 11 0;
#X connect 6 0 5 3;
#X connect 7 0 8 0;
#X connect 8 0 10 0;
#X connect 8 1 9 0;
#X connect 9 0 6 0;
#X connect 10 0 6 0;
#X connect 12 0 5 0;
#X connect 12 1 5 1;
#X connect 12 2 5 2;
#X connect 12 3 7 0;
