#N canvas 652 497 465 293 10;
#X obj 135 -93 dumpOSC 8000;
#X obj 136 54 dac~;
#X obj 223 -95 print raw;
#X msg 9 -117 \; pd dsp 1;
#X msg 9 -80 \; pd dsp 0;
#X obj 135 12 mgSynthNoiseFilter;
#X msg 291 -18 1;
#X obj 135 -26 mgHwTouchOscDualAnalog;
#X connect 0 0 2 0;
#X connect 0 0 7 0;
#X connect 5 0 1 0;
#X connect 5 0 1 1;
#X connect 6 0 5 3;
#X connect 7 0 5 0;
#X connect 7 1 5 1;
#X connect 7 2 5 2;
