#N canvas 374 22 465 293 10;
#X obj 135 -103 dumpOSC 8000;
#X obj 148 51 dac~;
#X obj 223 -105 print raw;
#X msg 9 -117 \; pd dsp 1;
#X msg 9 -80 \; pd dsp 0;
#X obj 148 17 mgSynthBufferPulse8;
#X msg 59 -7 1;
#X obj 298 -13 mgRangeCircular 1 5;
#X obj 298 -81 route 1;
#X obj 298 -59 sel 9 10;
#X msg 330 -36 1;
#X msg 298 -37 -1;
#X floatatom 298 13 5 0 0 0 - - -;
#X obj 59 18 metro 100;
#X obj 135 -26 mgHwTouchOscDualAnalog;
#X obj 59 -31 loadbang;
#X connect 0 0 2 0;
#X connect 0 0 14 0;
#X connect 5 0 1 0;
#X connect 5 0 1 1;
#X connect 6 0 13 0;
#X connect 7 0 12 0;
#X connect 7 0 5 4;
#X connect 8 0 9 0;
#X connect 9 0 11 0;
#X connect 9 1 10 0;
#X connect 10 0 7 0;
#X connect 11 0 7 0;
#X connect 13 0 5 0;
#X connect 14 0 5 1;
#X connect 14 1 5 2;
#X connect 14 2 5 3;
#X connect 14 3 8 0;
#X connect 15 0 6 0;
