#N canvas 150 22 1318 689 10;
#X obj 297 156 mgScaleUnitMinMidMax 0 0.2 1;
#X obj 307 246 mgScaleUnitMinMidMax 0 0.8 2;
#X obj 315 266 mgScaleUnitToMirror 0;
#X obj 303 178 mgScaleUnitMinMidMax 0 0.8 1.2;
#X obj 297 133 unpack f f;
#X obj 306 224 unpack f f;
#X obj 781 633 outlet~;
#X msg 1291 548 0;
#X msg 1199 547 1;
#X msg 1231 547 1;
#X obj 508 253 mgScaleUnitMinMidMax 0 0.8 2;
#X obj 516 273 mgScaleUnitToMirror 0;
#X obj 505 183 mgScaleUnitMinMidMax 0 0.8 1.2;
#X obj 499 138 unpack f f;
#X obj 508 231 unpack f f;
#X obj 499 161 mgScaleUnitMinMidMax -40 0 40;
#X obj 519 293 mgScaleMinMax 0 0.5;
#X obj 499 361 mgSynthBuffer8;
#X obj 1191 589 mgProcFreeverb 1 0.75 0.94;
#X msg 1261 547 1;
#X text 1344 547 get dPad values from 1 and 2;
#X obj 297 365 mgSynthNoiseFilter;
#X obj 696 129 unpack f f;
#X obj 705 238 unpack f f;
#X msg -52 117 1;
#X obj 686 -9 inlet controllerId;
#X obj 135 157 unpack f f f f f f;
#X obj 135 180 pack f f f f f f;
#X obj 250 157 t b f;
#X text 181 197 add scene to parameters;
#X obj 911 176 mgScaleUnitMinMidMax 0 0.8 1.2;
#X obj 904 131 unpack f f;
#X obj 919 224 unpack f f;
#X obj 1142 112 unpack f f;
#X obj 1151 204 unpack f f;
#X obj 1385 256 mgScaleUnitToMirror 0;
#X obj 1361 164 mgScaleUnitMinMidMax 0 0.8 1.2;
#X obj 1367 119 unpack f f;
#X obj 1370 212 unpack f f;
#X obj 1142 180 pack f f;
#X obj 1151 255 pack f f;
#X obj 1370 277 pack f f;
#X obj 1355 187 pack f f;
#X obj 919 268 pack f f;
#X obj 905 199 pack f f;
#X obj 696 193 pack f f;
#X obj 707 286 pack f f;
#X obj 508 316 pack f f;
#X obj 499 206 pack f f;
#X obj 307 288 pack f f;
#X obj 297 201 pack f f;
#X obj 904 154 mgScaleUnitMinMidMax 0 0.8 2;
#X obj 919 246 mgScaleUnitMinMidMax 0 1 0;
#X obj 1370 234 mgScaleUnitMinMidMax 0 0.8 1;
#X obj 1354 141 mgScaleUnitMinMidMax 0.1 1 0.1;
#X obj -41 581 outlet controllerDisplay;
#X obj 88 -12 inlet partScriptFile;
#X text 142 454 take in a part script file \, which will specialize
this for each part;
#X obj 1478 352 unpack f s;
#X obj -55 223 s beatPulse;
#X obj 1118 326 r beatPulse;
#X obj 1339 323 r beatPulse;
#X obj 1190 488 mgHwDualAnalogButtonFilter 11;
#X obj 1226 516 r fxVerbOn;
#X obj 1296 516 r fxOff;
#X obj -55 257 s pgm1;
#X obj -12 258 s pgm2;
#X obj 31 258 s pgm3;
#X obj 75 258 s pgm4;
#X obj 119 258 s pgm5;
#X obj 163 258 s pgm6;
#X obj 412 343 r pgm1;
#X obj 593 339 r pgm2;
#X obj 801 331 r pgm3;
#X obj 1044 339 r pgm4;
#X obj 1257 341 r pgm5;
#X obj 1478 327 r pgm6;
#X obj 267 581 outlet comments;
#X obj 116 581 outlet numericalDisplay;
#X obj 495 581 outlet displayStatus;
#X obj 1257 363 unpack f s;
#X obj 1044 361 unpack f s;
#X obj 798 356 unpack f s;
#X obj 591 360 unpack f s;
#X obj 413 365 unpack f s;
#X obj 1349 516 loadbang;
#X obj 743 46 s btn1;
#X obj 358 340 r btn1;
#X obj 785 46 s btn2;
#X obj 548 335 r btn2;
#X obj 828 45 s btn3;
#X obj 871 45 s btn4;
#X obj 966 333 r btn4;
#X obj 914 45 s btn5;
#X obj 1195 328 r btn5;
#X obj 957 45 s btn6;
#X obj 1412 325 r btn6;
#X obj 1189 457 r btn1;
#X obj 1233 457 r btn2;
#X obj 1318 457 r btn4;
#X obj 1410 457 r btn6;
#X obj 594 44 s ctrlPmtrs;
#X obj 134 129 r ctrlPmtrs;
#X obj 669 45 s ctrlScene;
#X obj -52 96 r ctrlScene;
#X obj 297 395 send~ ch1;
#X obj 482 492 receive~ ch1;
#X obj 499 395 send~ ch2;
#X obj 566 492 receive~ ch2;
#X obj 696 383 send~ ch3;
#X obj 646 492 receive~ ch3;
#X obj 905 388 send~ ch4;
#X obj 732 492 receive~ ch4;
#X obj 1118 385 send~ ch5;
#X obj 818 492 receive~ ch5;
#X obj 1337 374 send~ ch6;
#X obj 901 492 receive~ ch6;
#X obj 696 357 mgSynthStochWave;
#X obj 696 150 mgScaleUnitMinMidMax 0 0.8 2;
#X obj 707 170 mgScaleUnitMinMidMax 0 0.8 1.2;
#X obj 1118 362 mgSynthSawSequenceDuo;
#X obj 1142 135 mgScaleUnitMinMidMax 0 0.8 2;
#X obj 1148 157 mgScaleUnitMinMidMax 0 0.8 1.2;
#X obj 905 362 mgSynthGranularSample;
#X obj 741 333 r btn3;
#X obj 1275 457 r btn3;
#X obj 1361 457 r btn5;
#X obj 686 66 mgHwDualAnalogPoly8Joystick ________________________________________
;
#X obj 1000 45 s btn7;
#X obj 1043 44 s btn8;
#X obj 1596 259 mgScaleUnitToMirror 0;
#X obj 1572 167 mgScaleUnitMinMidMax 0 0.8 1.2;
#X obj 1578 122 unpack f f;
#X obj 1581 215 unpack f f;
#X obj 1581 280 pack f f;
#X obj 1566 190 pack f f;
#X obj 1565 144 mgScaleUnitMinMidMax 0.1 1 0.1;
#X obj 1700 355 unpack f s;
#X obj 1550 326 r beatPulse;
#X obj 1817 262 mgScaleUnitToMirror 0;
#X obj 1793 170 mgScaleUnitMinMidMax 0 0.8 1.2;
#X obj 1799 125 unpack f f;
#X obj 1802 218 unpack f f;
#X obj 1802 283 pack f f;
#X obj 1787 193 pack f f;
#X obj 1786 147 mgScaleUnitMinMidMax 0.1 1 0.1;
#X obj 1924 358 unpack f s;
#X obj 1771 329 r beatPulse;
#X obj 1623 328 r btn7;
#X obj 1844 331 r btn8;
#X obj 1924 333 r pgm8;
#X obj 1700 330 r pgm7;
#X obj 1548 377 send~ ch7;
#X obj 1769 380 send~ ch8;
#X obj 981 492 receive~ ch7;
#X obj 1065 492 receive~ ch8;
#X obj -53 180 mgPartDirector8 ______________;
#X obj 205 258 s pgm7;
#X obj 249 258 s pgm8;
#X msg 76 57 arizaWork03-partA.txt;
#X msg 94 76 arizaWork03-partB.txt;
#X msg 119 97 arizaWork03-partC.txt;
#X obj 87 9 symbol;
#X obj 87 34 sel A B C;
#X obj -52 -7 mgTableWaveSaw;
#X obj -52 15 mgTableWaveSquare;
#X obj -52 36 mgTableHanning;
#X obj 1456 457 r btn7;
#X obj 1502 457 r btn8;
#X obj -52 58 mgTableBell;
#X obj 1339 352 mgSynthPafSequenceDuo;
#X text 1563 412 use mgSynthNoise/Buffer/SequenceDuo or similar;
#X obj 49 223 s initInst;
#X obj 1012 15 r initInst;
#X obj 833 588 mgProcDelayFeedback 600 0.4;
#X text 1095 622 tempo related to 300 bpm;
#X obj 1550 355 mgSynthBufferSequenceDuo;
#X obj 1771 358 mgSynthBufferSequenceDuo;
#X obj 1021 589 mgProcDelayFeedback 200 0.7;
#X obj 368 581 outlet commentsNext;
#X obj 1151 225 mgScaleUnitMinMidMax 0 0.8 2;
#X obj 1581 237 mgScaleUnitMinMidMax 0 0.8 2;
#X obj 1802 240 mgScaleUnitMinMidMax 0 0.8 2;
#X obj -52 141 mgRangeCircular 0 15;
#X connect 0 0 50 0;
#X connect 1 0 49 0;
#X connect 2 0 49 1;
#X connect 3 0 50 1;
#X connect 4 0 0 0;
#X connect 4 1 3 0;
#X connect 5 0 1 0;
#X connect 5 1 2 0;
#X connect 7 0 18 1;
#X connect 7 0 174 1;
#X connect 7 0 178 1;
#X connect 8 0 174 1;
#X connect 9 0 178 1;
#X connect 10 0 47 0;
#X connect 11 0 16 0;
#X connect 12 0 48 1;
#X connect 13 0 15 0;
#X connect 13 1 12 0;
#X connect 14 0 10 0;
#X connect 14 1 11 0;
#X connect 15 0 48 0;
#X connect 16 0 47 1;
#X connect 17 0 107 0;
#X connect 18 0 6 0;
#X connect 19 0 18 1;
#X connect 21 0 105 0;
#X connect 22 0 118 0;
#X connect 22 1 119 0;
#X connect 23 0 46 0;
#X connect 23 1 46 1;
#X connect 24 0 183 0;
#X connect 25 0 127 0;
#X connect 26 0 27 0;
#X connect 26 1 27 1;
#X connect 26 2 27 2;
#X connect 26 3 27 3;
#X connect 26 4 27 4;
#X connect 27 0 55 0;
#X connect 28 0 27 0;
#X connect 28 1 27 5;
#X connect 30 0 44 1;
#X connect 31 0 51 0;
#X connect 31 1 30 0;
#X connect 32 0 52 0;
#X connect 32 1 43 1;
#X connect 33 0 121 0;
#X connect 33 1 122 0;
#X connect 34 0 180 0;
#X connect 34 1 40 1;
#X connect 35 0 41 1;
#X connect 36 0 42 1;
#X connect 37 0 54 0;
#X connect 37 1 36 0;
#X connect 38 0 53 0;
#X connect 38 1 35 0;
#X connect 39 0 120 1;
#X connect 40 0 120 2;
#X connect 41 0 170 2;
#X connect 42 0 170 1;
#X connect 43 0 123 1;
#X connect 44 0 123 0;
#X connect 45 0 117 0;
#X connect 46 0 117 1;
#X connect 47 0 17 1;
#X connect 48 0 17 0;
#X connect 49 0 21 1;
#X connect 50 0 21 0;
#X connect 51 0 44 0;
#X connect 52 0 43 0;
#X connect 53 0 41 0;
#X connect 54 0 42 0;
#X connect 56 0 162 0;
#X connect 58 0 170 4;
#X connect 58 1 170 5;
#X connect 60 0 120 0;
#X connect 61 0 170 0;
#X connect 62 0 8 0;
#X connect 62 1 19 0;
#X connect 62 2 9 0;
#X connect 62 4 7 0;
#X connect 63 0 19 0;
#X connect 64 0 7 0;
#X connect 71 0 84 0;
#X connect 72 0 83 0;
#X connect 73 0 82 0;
#X connect 74 0 81 0;
#X connect 75 0 80 0;
#X connect 76 0 58 0;
#X connect 80 0 120 4;
#X connect 80 1 120 5;
#X connect 81 0 123 3;
#X connect 81 1 123 4;
#X connect 82 0 117 3;
#X connect 82 1 117 4;
#X connect 83 0 17 3;
#X connect 83 1 17 4;
#X connect 84 0 21 3;
#X connect 84 1 21 4;
#X connect 85 0 7 0;
#X connect 87 0 21 2;
#X connect 89 0 17 2;
#X connect 92 0 123 2;
#X connect 94 0 120 3;
#X connect 96 0 170 3;
#X connect 97 0 62 0;
#X connect 98 0 62 0;
#X connect 99 0 62 0;
#X connect 100 0 62 0;
#X connect 102 0 26 0;
#X connect 104 0 24 0;
#X connect 106 0 18 0;
#X connect 106 0 6 0;
#X connect 106 0 174 0;
#X connect 106 0 178 0;
#X connect 108 0 6 0;
#X connect 108 0 18 0;
#X connect 108 0 174 0;
#X connect 108 0 178 0;
#X connect 110 0 6 0;
#X connect 110 0 18 0;
#X connect 110 0 174 0;
#X connect 110 0 178 0;
#X connect 112 0 6 0;
#X connect 112 0 18 0;
#X connect 112 0 174 0;
#X connect 112 0 178 0;
#X connect 114 0 6 0;
#X connect 114 0 18 0;
#X connect 114 0 174 0;
#X connect 114 0 178 0;
#X connect 116 0 18 0;
#X connect 116 0 6 0;
#X connect 116 0 174 0;
#X connect 116 0 178 0;
#X connect 117 0 109 0;
#X connect 118 0 45 0;
#X connect 119 0 45 1;
#X connect 120 0 113 0;
#X connect 121 0 39 0;
#X connect 122 0 39 1;
#X connect 123 0 111 0;
#X connect 124 0 117 2;
#X connect 125 0 62 0;
#X connect 126 0 62 0;
#X connect 127 0 101 0;
#X connect 127 1 103 0;
#X connect 127 2 4 0;
#X connect 127 3 5 0;
#X connect 127 4 86 0;
#X connect 127 5 13 0;
#X connect 127 6 14 0;
#X connect 127 7 88 0;
#X connect 127 8 22 0;
#X connect 127 9 23 0;
#X connect 127 10 90 0;
#X connect 127 11 31 0;
#X connect 127 12 32 0;
#X connect 127 13 91 0;
#X connect 127 14 33 0;
#X connect 127 15 34 0;
#X connect 127 16 93 0;
#X connect 127 17 37 0;
#X connect 127 18 38 0;
#X connect 127 19 95 0;
#X connect 127 20 132 0;
#X connect 127 21 133 0;
#X connect 127 22 128 0;
#X connect 127 23 141 0;
#X connect 127 24 142 0;
#X connect 127 25 129 0;
#X connect 130 0 134 1;
#X connect 131 0 135 1;
#X connect 132 0 136 0;
#X connect 132 1 131 0;
#X connect 133 0 181 0;
#X connect 133 1 130 0;
#X connect 134 0 176 2;
#X connect 135 0 176 1;
#X connect 136 0 135 0;
#X connect 137 0 176 4;
#X connect 137 1 176 5;
#X connect 138 0 176 0;
#X connect 139 0 143 1;
#X connect 140 0 144 1;
#X connect 141 0 145 0;
#X connect 141 1 140 0;
#X connect 142 0 182 0;
#X connect 142 1 139 0;
#X connect 143 0 177 2;
#X connect 144 0 177 1;
#X connect 145 0 144 0;
#X connect 146 0 177 4;
#X connect 146 1 177 5;
#X connect 147 0 177 0;
#X connect 148 0 176 3;
#X connect 149 0 177 3;
#X connect 150 0 146 0;
#X connect 151 0 137 0;
#X connect 154 0 6 0;
#X connect 154 0 18 0;
#X connect 154 0 174 0;
#X connect 154 0 178 0;
#X connect 155 0 6 0;
#X connect 155 0 18 0;
#X connect 155 0 174 0;
#X connect 155 0 178 0;
#X connect 156 0 59 0;
#X connect 156 1 78 0;
#X connect 156 2 77 0;
#X connect 156 3 179 0;
#X connect 156 4 79 0;
#X connect 156 5 172 0;
#X connect 156 6 65 0;
#X connect 156 7 66 0;
#X connect 156 8 67 0;
#X connect 156 9 68 0;
#X connect 156 10 69 0;
#X connect 156 11 70 0;
#X connect 156 12 157 0;
#X connect 156 13 158 0;
#X connect 159 0 156 2;
#X connect 160 0 156 2;
#X connect 161 0 156 2;
#X connect 162 0 163 0;
#X connect 163 0 159 0;
#X connect 163 1 160 0;
#X connect 163 2 161 0;
#X connect 167 0 62 0;
#X connect 168 0 62 0;
#X connect 170 0 115 0;
#X connect 173 0 127 1;
#X connect 174 0 6 0;
#X connect 176 0 152 0;
#X connect 177 0 153 0;
#X connect 178 0 6 0;
#X connect 180 0 40 0;
#X connect 181 0 134 0;
#X connect 182 0 143 0;
#X connect 183 0 28 0;
#X connect 183 0 156 1;
