#N canvas 263 22 715 426 12;
#X obj 111 95 mgPartDirectorUi;
#X obj -134 95 mgHwDualAnalogPolyUi;
#X msg -134 -19 \; pd dsp 1;
#X msg -60 -19 \; pd dsp 0;
#X obj 83 62 dac~;
#X msg -22 33 bang;
#X floatatom 20 33 5 0 0 0 - - -;
#X obj -134 62 arizaWork03-performanceChillStream;
#X msg -134 33 A;
#X msg -101 33 B;
#X msg -66 33 C;
#X msg 13 -19 Initialization: (1) Start DSP (2) Select controller id
(3) Enter part message (4) Advance to scene 1;
#X msg -82 182 Instructions: "Scene 15: FINE";
#X msg -83 265 Next: "Scene 15: FINE";
#X obj -135 265 r msg2;
#X obj -134 182 r msg1;
#X obj 119 62 s msg1;
#X obj 170 62 s msg2;
#X connect 5 0 7 1;
#X connect 6 0 7 1;
#X connect 7 0 1 0;
#X connect 7 1 0 0;
#X connect 7 2 16 0;
#X connect 7 3 17 0;
#X connect 7 4 0 1;
#X connect 7 5 4 0;
#X connect 7 5 4 1;
#X connect 8 0 7 0;
#X connect 9 0 7 0;
#X connect 10 0 7 0;
#X connect 14 0 13 0;
#X connect 15 0 12 0;
