#N canvas 371 199 908 582 10;
#X obj 185 -85 inlet;
#X text 428 -95 controller id;
#X obj 681 34 unpack f f;
#X obj 209 85 mgPak2;
#X obj 209 40 mgScaleUnitMinMidMax 0 0.2 1;
#X obj 257 107 mgScaleUnitMinMidMax 0 0.8 2;
#X obj 257 149 mgPak2;
#X obj 265 127 mgScaleUnitToMirror 0;
#X obj 215 62 mgScaleUnitMinMidMax 0 0.8 1.2;
#X text 481 323 need to add button filtering for button 9 and 10 to
double joystick functionality \; provide mode output as a number;
#X obj 209 17 unpack f f;
#X obj 256 85 unpack f f;
#X obj 220 342 outlet~;
#X obj 134 253 outlet;
#X obj 686 81 gate 1;
#X obj 186 -33 mgHwDualAnalogPoly2 ______________________________;
#X obj 217 177 mgSynthNoiseFilter;
#X obj 706 57 == 11;
#X text 686 9 get dPad values;
#X obj 686 213 sel 1 2 3 4 0;
#X msg 756 238 0;
#X msg 676 237 1;
#X msg 705 237 1;
#X obj 440 93 mgPak2;
#X obj 488 115 mgScaleUnitMinMidMax 0 0.8 2;
#X obj 485 178 mgPak2;
#X obj 496 135 mgScaleUnitToMirror 0;
#X obj 446 70 mgScaleUnitMinMidMax 0 0.8 1.2;
#X obj 440 25 unpack f f;
#X obj 487 93 unpack f f;
#X obj 440 48 mgScaleUnitMinMidMax -40 0 40;
#X obj 499 155 mgScaleMinMax 0 0.5;
#X obj 432 218 mgSynthMonoSaw;
#X obj 341 285 mgProcDelayFeedback 500 0.4;
#X obj 530 286 mgProcDelayFeedback 240 0.5;
#X connect 0 0 15 0;
#X connect 2 0 14 1;
#X connect 2 1 17 0;
#X connect 3 0 16 0;
#X connect 4 0 3 0;
#X connect 5 0 6 0;
#X connect 6 0 16 1;
#X connect 7 0 6 1;
#X connect 8 0 3 1;
#X connect 10 0 4 0;
#X connect 10 1 8 0;
#X connect 11 0 5 0;
#X connect 11 1 7 0;
#X connect 14 0 19 0;
#X connect 15 0 13 0;
#X connect 15 2 10 0;
#X connect 15 3 11 0;
#X connect 15 4 16 2;
#X connect 15 4 2 0;
#X connect 15 5 28 0;
#X connect 15 6 29 0;
#X connect 15 7 2 0;
#X connect 15 7 32 2;
#X connect 16 0 12 0;
#X connect 16 0 33 0;
#X connect 16 0 34 0;
#X connect 17 0 14 0;
#X connect 19 0 21 0;
#X connect 19 1 22 0;
#X connect 19 4 20 0;
#X connect 20 0 33 1;
#X connect 20 0 34 1;
#X connect 21 0 33 1;
#X connect 22 0 34 1;
#X connect 23 0 32 0;
#X connect 24 0 25 0;
#X connect 25 0 32 1;
#X connect 26 0 31 0;
#X connect 27 0 23 1;
#X connect 28 0 30 0;
#X connect 28 1 27 0;
#X connect 29 0 24 0;
#X connect 29 1 26 0;
#X connect 30 0 23 0;
#X connect 31 0 25 1;
#X connect 32 0 12 0;
#X connect 32 0 33 0;
#X connect 32 0 34 0;
#X connect 33 0 12 0;
#X connect 34 0 12 0;
