#N canvas 559 79 705 493 10;
#X obj 65 193 mtof~;
#X obj 65 227 mgOscSaw;
#X obj 194 311 *~;
#X obj 123 205 mtof~;
#X obj 340 369 moog~;
#X obj 420 305 mgScaleMinMax~;
#X obj 419 328 mtof~;
#X obj 490 279 sig~ 70;
#X obj 226 310 mgEnvlBtAdsr 100 40 0.8 200;
#X obj 421 281 lop~ 20;
#X obj 421 255 sig~;
#X obj 65 255 *~ 1;
#X obj 542 278 sig~ 134;
#X obj 381 369 sig~ 2;
#X obj 122 182 +~ 11.98;
#X obj 123 228 mgOscSquare;
#X obj 340 415 outlet~;
#X obj 257 36 mgHwNanoKey;
#X obj 168 84 unpack f f;
#X obj 65 144 lop~ 30;
#X obj 65 120 sig~;
#X text 312 137 use velocity to trigger both envelop peak amp and cutoff
filter;
#X msg 282 86 0;
#X connect 0 0 1 0;
#X connect 1 0 11 0;
#X connect 2 0 4 0;
#X connect 3 0 15 0;
#X connect 4 0 16 0;
#X connect 5 0 6 0;
#X connect 6 0 4 1;
#X connect 7 0 5 1;
#X connect 8 0 2 1;
#X connect 9 0 5 0;
#X connect 10 0 9 0;
#X connect 11 0 2 0;
#X connect 12 0 5 2;
#X connect 13 0 4 2;
#X connect 14 0 3 0;
#X connect 15 0 11 0;
#X connect 17 0 18 0;
#X connect 17 1 22 0;
#X connect 18 0 20 0;
#X connect 18 1 8 0;
#X connect 18 1 10 0;
#X connect 19 0 0 0;
#X connect 19 0 14 0;
#X connect 20 0 19 0;
#X connect 22 0 8 0;
